<svg width="1190" height="1028" xmlns="http://www.w3.org/2000/svg">
    <defs><style type="text/css">
    @import url("https://fonts.googleapis.com/css?family=Anton");
    text {font-family: 'Anton', sans-serif;
    font-variant-ligatures:none}
    </style></defs>
<rect width="100%" height="100%" fill="black"/>
<text x="409" y="752" font-size="124" fill="rgb(247, 247, 247)">Luke</text>
<text x="380" y="214" font-size="88" fill="rgb(159, 159, 159)">Han</text>
<text x="718" y="511" font-size="85" transform="rotate(-90, 718, 511) translate(-369, 0)" fill="rgb(247, 247, 247)">DEATH STAR</text>
<text x="536" y="221" font-size="80" fill="rgb(158, 158, 158)">THREEPIO</text>
<text x="266" y="236" font-size="71" fill="rgb(151, 151, 151)">Ben</text>
<text x="532" y="543" font-size="62" fill="rgb(231, 231, 231)">ship</text>
<text x="421" y="493" font-size="60" fill="rgb(193, 193, 193)">Leia</text>
<text x="316" y="426" font-size="57" fill="rgb(184, 184, 184)">one</text>
<text x="951" y="392" font-size="55" transform="rotate(-90, 951, 392) translate(-96, 0)" fill="rgb(195, 195, 195)">look</text>
<text x="162" y="704" font-size="55" fill="rgb(232, 232, 232)">RED LEADER</text>
<text x="753" y="619" font-size="54" fill="rgb(167, 167, 167)">Artoo</text>
<text x="946" y="708" font-size="53" fill="rgb(192, 192, 192)">back</text>
<text x="241" y="613" font-size="52" fill="rgb(235, 235, 235)">move</text>
<text x="132" y="772" font-size="50" fill="rgb(189, 189, 189)">going</text>
<text x="801" y="761" font-size="49" transform="rotate(-90, 801, 761) translate(-73, 0)" fill="rgb(231, 231, 231)">two</text>
<text x="914" y="555" font-size="49" fill="rgb(218, 218, 218)">Biggs</text>
<text x="457" y="128" font-size="45" fill="rgb(202, 202, 202)">TIE fighter</text>
<text x="488" y="767" font-size="44" transform="rotate(-90, 488, 767) translate(-100, 0)" fill="rgb(154, 154, 154)">Vader</text>
<text x="725" y="663" font-size="43" fill="rgb(250, 250, 250)">see</text>
<text x="532" y="255" font-size="35" fill="rgb(192, 192, 192)">MILLENNIUM FALCON</text>
<text x="825" y="755" font-size="34" fill="rgb(154, 154, 154)">toward</text>
<text x="315" y="359" font-size="34" fill="rgb(212, 212, 212)">right</text>
<text x="898" y="606" font-size="34" fill="rgb(208, 208, 208)">Luke WING</text>
<text x="211" y="460" font-size="34" transform="rotate(-90, 211, 460) translate(-77, 0)" fill="rgb(247, 247, 247)">come</text>
<text x="614" y="468" font-size="34" fill="rgb(251, 251, 251)">trooper</text>
<text x="525" y="578" font-size="33" fill="rgb(218, 218, 218)">robot</text>
<text x="553" y="410" font-size="33" transform="rotate(-90, 553, 410) translate(-73, 0)" fill="rgb(222, 222, 222)">small</text>
<text x="361" y="615" font-size="32" fill="rgb(194, 194, 194)">SPACE</text>
<text x="88" y="818" font-size="31" fill="rgb(222, 222, 222)">now</text>
<text x="242" y="459" font-size="31" fill="rgb(252, 252, 252)">WING FIGHTER</text>
<text x="1002" y="642" font-size="31" fill="rgb(237, 237, 237)">take</text>
<text x="782" y="397" font-size="31" fill="rgb(142, 142, 142)">begin</text>
<text x="494" y="801" font-size="31" fill="rgb(183, 183, 183)">make</text>
<text x="425" y="406" font-size="30" fill="rgb(161, 161, 161)">away</text>
<text x="740" y="719" font-size="30" fill="rgb(133, 133, 133)">fire</text>
<text x="857" y="232" font-size="30" fill="rgb(151, 151, 151)">will</text>
<text x="472" y="535" font-size="30" fill="rgb(156, 156, 156)">turn</text>
<text x="447" y="642" font-size="30" fill="rgb(153, 153, 153)">stand</text>
<text x="381" y="242" font-size="27" fill="rgb(235, 235, 235)">stormtrooper</text>
<text x="858" y="537" font-size="26" fill="rgb(204, 204, 204)">way</text>
<text x="241" y="643" font-size="26" fill="rgb(245, 245, 245)">side</text>
<text x="745" y="725" font-size="26" transform="rotate(-90, 745, 725) translate(-132, 0)" fill="rgb(157, 157, 157)">COCKPIT Luke</text>
<text x="656" y="122" font-size="26" fill="rgb(216, 216, 216)">sir</text>
<text x="309" y="643" font-size="26" fill="rgb(156, 156, 156)">think</text>
<text x="624" y="577" font-size="26" transform="rotate(-90, 624, 577) translate(-52, 0)" fill="rgb(246, 246, 246)">head</text>
<text x="628" y="788" font-size="26" transform="rotate(-90, 628, 788) translate(-128, 0)" fill="rgb(156, 156, 156)">DARTH VADER</text>
<text x="885" y="385" font-size="26" transform="rotate(-90, 885, 385) translate(-125, 0)" fill="rgb(191, 191, 191)">GOLD LEADER</text>
<text x="908" y="305" font-size="26" fill="rgb(222, 222, 222)">huge</text>
<text x="431" y="95" font-size="26" transform="rotate(-90, 431, 95) translate(-34, 0)" fill="rgb(180, 180, 180)">got</text>
<text x="411" y="778" font-size="26" fill="rgb(151, 151, 151)">us</text>
<text x="238" y="419" font-size="26" fill="rgb(155, 155, 155)">time</text>
<text x="145" y="804" font-size="25" fill="rgb(238, 238, 238)">computer</text>
<text x="300" y="162" font-size="25" fill="rgb(170, 170, 170)">several</text>
<text x="677" y="499" font-size="25" fill="rgb(224, 224, 224)">Rebel</text>
<text x="743" y="281" font-size="25" fill="rgb(152, 152, 152)">know</text>
<text x="641" y="277" font-size="20" fill="rgb(186, 186, 186)">Chewbacca</text>
<text x="212" y="257" font-size="19" fill="rgb(201, 201, 201)">SURFACE DEATH</text>
<text x="366" y="122" font-size="19" fill="rgb(134, 134, 134)">long</text>
<text x="806" y="783" font-size="19" fill="rgb(163, 163, 163)">OFFICER</text>
<text x="730" y="438" font-size="19" fill="rgb(181, 181, 181)">across</text>
<text x="729" y="136" font-size="19" fill="rgb(247, 247, 247)">OWEN</text>
<text x="857" y="708" font-size="19" fill="rgb(224, 224, 224)">pirateship</text>
<text x="634" y="898" font-size="19" fill="rgb(161, 161, 161)">something</text>
<text x="504" y="907" font-size="19" fill="rgb(179, 179, 179)">go</text>
<text x="535" y="919" font-size="19" fill="rgb(152, 152, 152)">control</text>
<text x="151" y="907" font-size="17" fill="rgb(133, 133, 133)">FIGHTER COCKPIT</text>
<text x="894" y="261" font-size="17" fill="rgb(222, 222, 222)">behind</text>
<text x="661" y="142" font-size="17" fill="rgb(233, 233, 233)">hit</text>
<text x="559" y="446" font-size="17" fill="rgb(147, 147, 147)">light</text>
<text x="257" y="561" font-size="17" fill="rgb(218, 218, 218)">WING COCKPIT</text>
<text x="394" y="368" font-size="17" fill="rgb(150, 150, 150)">Imperial</text>
<text x="826" y="195" font-size="17" fill="rgb(227, 227, 227)">around</text>
<text x="835" y="560" font-size="17" fill="rgb(255, 255, 255)">Suddenly</text>
<text x="958" y="420" font-size="17" fill="rgb(207, 207, 207)">troops</text>
<text x="364" y="729" font-size="17" fill="rgb(153, 153, 153)">eye</text>
<text x="721" y="552" font-size="17" fill="rgb(243, 243, 243)">start</text>
<text x="759" y="751" font-size="17" fill="rgb(206, 206, 206)">TARKIN</text>
<text x="404" y="429" font-size="17" fill="rgb(231, 231, 231)">Luke look</text>
<text x="383" y="495" font-size="17" fill="rgb(225, 225, 225)">hand</text>
<text x="802" y="640" font-size="17" fill="rgb(152, 152, 152)">another</text>
<text x="1006" y="727" font-size="17" fill="rgb(149, 149, 149)">hallway</text>
<text x="199" y="641" font-size="17" fill="rgb(204, 204, 204)">little</text>
<text x="1081" y="686" font-size="17" transform="rotate(-90, 1081, 686) translate(-35, 0)" fill="rgb(172, 172, 172)">VOICE</text>
<text x="691" y="136" font-size="17" fill="rgb(150, 150, 150)">face</text>
<text x="593" y="774" font-size="17" fill="rgb(178, 178, 178)">blast</text>
<text x="948" y="363" font-size="17" fill="rgb(131, 131, 131)">large</text>
<text x="373" y="643" font-size="17" fill="rgb(244, 244, 244)">wall</text>
<text x="215" y="724" font-size="17" fill="rgb(183, 183, 183)">creature</text>
<text x="757" y="857" font-size="17" fill="rgb(251, 251, 251)">give</text>
<text x="930" y="739" font-size="17" fill="rgb(156, 156, 156)">run</text>
<text x="576" y="469" font-size="17" fill="rgb(182, 182, 182)">pilot</text>
<text x="173" y="564" font-size="17" fill="rgb(142, 142, 142)">race</text>
<text x="427" y="511" font-size="17" fill="rgb(251, 251, 251)">seem</text>
<text x="273" y="385" font-size="17" fill="rgb(156, 156, 156)">Force</text>
<text x="762" y="682" font-size="17" fill="rgb(229, 229, 229)">trench</text>
<text x="230" y="427" font-size="17" transform="rotate(-90, 230, 427) translate(-91, 0)" fill="rgb(250, 250, 250)">SPACE AROUND</text>
<text x="340" y="320" font-size="14" fill="rgb(158, 158, 158)">AROUND DEATH</text>
<text x="99" y="880" font-size="14" fill="rgb(177, 177, 177)">door</text>
<text x="934" y="335" font-size="14" fill="rgb(130, 130, 130)">system</text>
<text x="738" y="455" font-size="14" fill="rgb(149, 149, 149)">stop</text>
<text x="471" y="884" font-size="14" fill="rgb(243, 243, 243)">Well</text>
<text x="231" y="219" font-size="14" fill="rgb(129, 129, 129)">Jawa</text>
<text x="554" y="597" font-size="14" fill="rgb(228, 228, 228)">looking</text>
<text x="439" y="791" font-size="14" transform="rotate(-90, 439, 791) translate(-23, 0)" fill="rgb(234, 234, 234)">Solo</text>
<text x="288" y="722" font-size="14" fill="rgb(226, 226, 226)">Star surface</text>
<text x="89" y="851" font-size="14" fill="rgb(155, 155, 155)">surface</text>
<text x="490" y="414" font-size="14" fill="rgb(176, 176, 176)">past</text>
<text x="745" y="415" font-size="14" fill="rgb(201, 201, 201)">laserfire</text>
<text x="470" y="553" font-size="14" fill="rgb(179, 179, 179)">Alderaan</text>
<text x="170" y="645" font-size="14" fill="rgb(143, 143, 143)">pull</text>
<text x="153" y="659" font-size="14" transform="rotate(-90, 153, 659) translate(-68, 0)" fill="rgb(144, 144, 144)">COCKPIT Red</text>
<text x="88" y="779" font-size="14" fill="rgb(212, 212, 212)">power</text>
<text x="376" y="578" font-size="14" fill="rgb(189, 189, 189)">old</text>
<text x="596" y="647" font-size="14" fill="rgb(219, 219, 219)">must</text>
<text x="811" y="173" font-size="14" fill="rgb(179, 179, 179)">WEDGE</text>
<text x="564" y="142" font-size="12" fill="rgb(142, 142, 142)">MASSASSI OUTPOST</text>
<text x="327" y="254" font-size="12" fill="rgb(224, 224, 224)">Princess</text>
<text x="948" y="380" font-size="12" fill="rgb(141, 141, 141)">sound</text>
<text x="400" y="335" font-size="12" fill="rgb(219, 219, 219)">hold</text>
<text x="733" y="872" font-size="12" fill="rgb(208, 208, 208)">say</text>
<text x="924" y="501" font-size="12" fill="rgb(223, 223, 223)">WAR ROOM</text>
<text x="548" y="767" font-size="12" fill="rgb(169, 169, 169)">RED TEN</text>
<text x="875" y="770" font-size="12" fill="rgb(240, 240, 240)">want</text>
<text x="824" y="221" font-size="12" fill="rgb(202, 202, 202)">good</text>
<text x="284" y="362" font-size="12" fill="rgb(153, 153, 153)">droid</text>
<text x="805" y="800" font-size="12" fill="rgb(171, 171, 171)">continue</text>
<text x="496" y="569" font-size="12" fill="rgb(224, 224, 224)">dive</text>
<text x="896" y="383" font-size="12" fill="rgb(135, 135, 135)">GOLD FIVE</text>
<text x="170" y="590" font-size="12" fill="rgb(149, 149, 149)">sure</text>
<text x="397" y="511" font-size="12" fill="rgb(166, 166, 166)">front</text>
<text x="571" y="811" font-size="12" fill="rgb(138, 138, 138)">friend</text>
<text x="371" y="751" font-size="12" fill="rgb(203, 203, 203)">wait</text>
<text x="357" y="480" font-size="12" fill="rgb(250, 250, 250)">find</text>
<text x="808" y="238" font-size="12" fill="rgb(240, 240, 240)">standing</text>
<text x="622" y="483" font-size="12" fill="rgb(244, 244, 244)">speeder</text>
<text x="727" y="597" font-size="12" fill="rgb(158, 158, 158)">gun</text>
<text x="956" y="728" font-size="12" fill="rgb(244, 244, 244)">comlink</text>
<text x="452" y="652" font-size="12" transform="rotate(-90, 452, 652) translate(-70, 0)" fill="rgb(199, 199, 199)">VADER COCKPIT</text>
<text x="527" y="145" font-size="12" transform="rotate(-90, 527, 145) translate(-70, 0)" fill="rgb(232, 232, 232)">COCKPIT Vader</text>
<text x="888" y="574" font-size="12" transform="rotate(-90, 888, 574) translate(-41, 0)" fill="rgb(151, 151, 151)">starship</text>
<text x="727" y="570" font-size="12" fill="rgb(174, 174, 174)">sit</text>
<text x="895" y="681" font-size="12" fill="rgb(143, 143, 143)">moment</text>
<text x="641" y="499" font-size="12" fill="rgb(202, 202, 202)">enter</text>
<text x="207" y="273" font-size="12" fill="rgb(183, 183, 183)">thing</text>
<text x="592" y="270" font-size="12" fill="rgb(167, 167, 167)">coming</text>
<text x="759" y="296" font-size="12" fill="rgb(214, 214, 214)">Obi Wan</text>
<text x="247" y="808" font-size="12" transform="rotate(-90, 247, 808) translate(-75, 0)" fill="rgb(192, 192, 192)">FALCON COCKPIT</text>
<text x="644" y="678" font-size="11" fill="rgb(175, 175, 175)">LEADER COCKPIT</text>
<text x="965" y="659" font-size="11" fill="rgb(156, 156, 156)">LEADER WING</text>
<text x="746" y="380" font-size="11" fill="rgb(179, 179, 179)">planet</text>
<text x="1064" y="671" font-size="11" fill="rgb(203, 203, 203)">close</text>
<text x="966" y="392" font-size="11" fill="rgb(177, 177, 177)">group</text>
<text x="568" y="648" font-size="11" fill="rgb(238, 238, 238)">let</text>
<text x="790" y="654" font-size="11" fill="rgb(207, 207, 207)">attack</text>
<text x="415" y="434" font-size="11" transform="rotate(-90, 415, 434) translate(-33, 0)" fill="rgb(209, 209, 209)">Chewie</text>
<text x="968" y="427" font-size="11" transform="rotate(-90, 968, 427) translate(-57, 0)" fill="rgb(221, 221, 221)">Princess Leia</text>
<text x="157" y="717" font-size="11" fill="rgb(231, 231, 231)">MOS EISLEY</text>
<text x="442" y="139" font-size="8" fill="rgb(201, 201, 201)">targeting device</text>
<text x="655" y="909" font-size="8" fill="rgb(219, 219, 219)">short</text>
<text x="522" y="631" font-size="8" fill="rgb(159, 159, 159)">much</text>
<text x="940" y="620" font-size="8" fill="rgb(196, 196, 196)">watches</text>
<text x="221" y="232" font-size="8" fill="rgb(198, 198, 198)">work</text>
<text x="175" y="611" font-size="8" fill="rgb(236, 236, 236)">help</text>
<text x="732" y="606" font-size="8" transform="rotate(-90, 732, 606) translate(-11, 0)" fill="rgb(186, 186, 186)">put</text>
<text x="889" y="443" font-size="8" fill="rgb(223, 223, 223)">Oh</text>
<text x="871" y="720" font-size="8" fill="rgb(179, 179, 179)">father</text>
<text x="599" y="564" font-size="8" fill="rgb(191, 191, 191)">position</text>
<text x="191" y="448" font-size="8" fill="rgb(131, 131, 131)">point</text>
<text x="901" y="272" font-size="8" fill="rgb(213, 213, 213)">docking bay</text>
<text x="321" y="375" font-size="8" fill="rgb(213, 213, 213)">OUTPOST WAR</text>
<text x="890" y="501" font-size="8" fill="rgb(164, 164, 164)">weapon</text>
<text x="497" y="763" font-size="8" fill="rgb(234, 234, 234)">along</text>
<text x="1043" y="653" font-size="8" fill="rgb(150, 150, 150)">hear</text>
<text x="731" y="515" font-size="8" transform="rotate(-90, 731, 515) translate(-15, 0)" fill="rgb(162, 162, 162)">shut</text>
<text x="884" y="237" font-size="8" transform="rotate(-90, 884, 237) translate(-19, 0)" fill="rgb(193, 193, 193)">heard</text>
<text x="918" y="567" font-size="8" fill="rgb(172, 172, 172)">last</text>
<text x="724" y="680" font-size="8" fill="rgb(188, 188, 188)">even</text>
<text x="492" y="430" font-size="8" fill="rgb(195, 195, 195)">guard</text>
<text x="552" y="266" font-size="8" fill="rgb(151, 151, 151)">laserbolt</text>
<text x="416" y="627" font-size="8" fill="rgb(161, 161, 161)">appear</text>
<text x="305" y="174" font-size="8" fill="rgb(171, 171, 171)">Artoo Detoo</text>
<text x="439" y="113" font-size="8" fill="rgb(142, 142, 142)">far</text>
<text x="397" y="790" font-size="8" fill="rgb(247, 247, 247)">Empire</text>
<text x="570" y="786" font-size="8" fill="rgb(146, 146, 146)">enough</text>
<text x="287" y="323" font-size="8" fill="rgb(181, 181, 181)">explosion</text>
<text x="690" y="112" font-size="8" fill="rgb(214, 214, 214)">floor</text>
<text x="730" y="888" font-size="8" fill="rgb(188, 188, 188)">follow</text>
<text x="758" y="870" font-size="8" fill="rgb(206, 206, 206)">four</text>
<text x="520" y="398" font-size="8" fill="rgb(182, 182, 182)">kid</text>
<text x="442" y="606" font-size="8" fill="rgb(229, 229, 229)">Sandpeople</text>
<text x="752" y="360" font-size="8" fill="rgb(229, 229, 229)">open</text>
<text x="497" y="825" font-size="8" fill="rgb(134, 134, 134)">Jabba</text>
<text x="807" y="819" font-size="8" fill="rgb(137, 137, 137)">screen</text>
<text x="297" y="407" font-size="8" fill="rgb(141, 141, 141)">plan</text>
<text x="423" y="524" font-size="8" fill="rgb(137, 137, 137)">explode</text>
<text x="147" y="816" font-size="8" fill="rgb(158, 158, 158)">Dodonna</text>
<text x="1025" y="739" font-size="8" fill="rgb(137, 137, 137)">zoom</text>
<text x="85" y="829" font-size="8" fill="rgb(208, 208, 208)">INTERCOM VOICE</text>
<text x="375" y="253" font-size="8" fill="rgb(149, 149, 149)">COCKPIT Gold</text>
<text x="260" y="891" font-size="8" fill="rgb(238, 238, 238)">firing</text>
<text x="825" y="412" font-size="8" fill="rgb(217, 217, 217)">streak</text>
<text x="897" y="617" font-size="8" fill="rgb(146, 146, 146)">electronic</text>
<text x="349" y="173" font-size="8" fill="rgb(166, 166, 166)">boy</text>
<text x="821" y="715" font-size="8" fill="rgb(179, 179, 179)">next</text>
<text x="903" y="236" font-size="8" fill="rgb(218, 218, 218)">minute</text>
<text x="248" y="750" font-size="8" fill="rgb(186, 186, 186)">goes</text>
<text x="309" y="470" font-size="8" fill="rgb(184, 184, 184)">Commander</text>
<text x="115" y="893" font-size="8" fill="rgb(248, 248, 248)">laser</text>
<text x="742" y="468" font-size="8" fill="rgb(218, 218, 218)">man</text>
<text x="494" y="257" font-size="8" fill="rgb(171, 171, 171)">almost</text>
<text x="344" y="128" font-size="8" fill="rgb(186, 186, 186)">tell</text>
<text x="221" y="608" font-size="8" fill="rgb(208, 208, 208)">area</text>
<text x="258" y="182" font-size="8" transform="rotate(-90, 258, 182) translate(-20, 0)" fill="rgb(180, 180, 180)">watch</text>
<text x="236" y="472" font-size="8" fill="rgb(162, 162, 162)">formation</text>
<text x="859" y="630" font-size="8" fill="rgb(188, 188, 188)">little Artoo</text>
<text x="834" y="423" font-size="8" fill="rgb(191, 191, 191)">slowly</text>
<text x="1035" y="508" font-size="8" transform="rotate(-90, 1035, 508) translate(-14, 0)" fill="rgb(211, 211, 211)">first</text>
<text x="925" y="750" font-size="8" fill="rgb(146, 146, 146)">station</text>
<text x="906" y="317" font-size="8" fill="rgb(218, 218, 218)">tiny</text>
<text x="777" y="136" font-size="8" fill="rgb(247, 247, 247)">giant</text>
<text x="487" y="504" font-size="8" fill="rgb(245, 245, 245)">better</text>
<text x="785" y="696" font-size="8" fill="rgb(219, 219, 219)">DAY</text>
<text x="499" y="839" font-size="8" transform="rotate(-90, 499, 839) translate(-21, 0)" fill="rgb(162, 162, 162)">speak</text>
<text x="291" y="422" font-size="8" fill="rgb(206, 206, 206)">dead</text>
<text x="102" y="754" font-size="8" fill="rgb(238, 238, 238)">thought</text>
<text x="995" y="509" font-size="8" fill="rgb(157, 157, 157)">big</text>
<text x="284" y="341" font-size="8" fill="rgb(158, 158, 158)">second</text>
<text x="758" y="563" font-size="8" fill="rgb(203, 203, 203)">really</text>
<text x="901" y="452" font-size="8" transform="rotate(-90, 901, 452) translate(-17, 0)" fill="rgb(156, 156, 156)">three</text>
<text x="756" y="759" font-size="8" transform="rotate(-90, 756, 759) translate(-42, 0)" fill="rgb(184, 184, 184)">Sandcrawler</text>
<text x="1015" y="566" font-size="8" fill="rgb(188, 188, 188)">beep</text>
<text x="840" y="436" font-size="8" fill="rgb(214, 214, 214)">Stay</text>
<text x="356" y="566" font-size="8" fill="rgb(160, 160, 160)">arm</text>
<text x="238" y="268" font-size="8" fill="rgb(248, 248, 248)">Wookiee</text>
<text x="425" y="826" font-size="8" fill="rgb(188, 188, 188)">moon</text>
<text x="635" y="586" font-size="8" transform="rotate(-90, 635, 586) translate(-42, 0)" fill="rgb(194, 194, 194)">battle station</text>
<text x="731" y="688" font-size="8" transform="rotate(-90, 731, 688) translate(-30, 0)" fill="rgb(132, 132, 132)">LUKE Well</text>
<text x="182" y="918" font-size="8" fill="rgb(154, 154, 154)">looks around</text>
<text x="458" y="653" font-size="7" fill="rgb(173, 173, 173)">beeping sound</text>
<text x="432" y="253" font-size="7" fill="rgb(144, 144, 144)">laser cannon</text>
<text x="442" y="535" font-size="7" fill="rgb(212, 212, 212)">outside</text>
<text x="379" y="473" font-size="7" fill="rgb(231, 231, 231)">corridor</text>
<text x="367" y="377" font-size="7" fill="rgb(240, 240, 240)">feet</text>
<text x="718" y="288" font-size="7" fill="rgb(190, 190, 190)">place</text>
<text x="815" y="571" font-size="7" fill="rgb(250, 250, 250)">subhallway</text>
<text x="469" y="765" font-size="7" fill="rgb(180, 180, 180)">rushes</text>
<text x="410" y="347" font-size="7" fill="rgb(188, 188, 188)">found</text>
<text x="230" y="402" font-size="7" transform="rotate(-90, 230, 402) translate(-14, 0)" fill="rgb(228, 228, 228)">great</text>
<text x="144" y="882" font-size="7" transform="rotate(-90, 144, 882) translate(-26, 0)" fill="rgb(232, 232, 232)">Rebellion</text>
<text x="398" y="719" font-size="7" fill="rgb(156, 156, 156)">cut</text>
<text x="436" y="315" font-size="7" fill="rgb(191, 191, 191)">spot</text>
<text x="717" y="464" font-size="7" fill="rgb(250, 250, 250)">jump</text>
<text x="241" y="488" font-size="7" transform="rotate(-90, 241, 488) translate(-17, 0)" fill="rgb(204, 204, 204)">Listen</text>
<text x="1069" y="636" font-size="7" transform="rotate(-90, 1069, 636) translate(-17, 0)" fill="rgb(229, 229, 229)">trying</text>
<text x="855" y="570" font-size="7" fill="rgb(220, 220, 220)">never</text>
<text x="520" y="812" font-size="7" fill="rgb(190, 190, 190)">need</text>
<text x="417" y="379" font-size="7" transform="rotate(-90, 417, 379) translate(-13, 0)" fill="rgb(193, 193, 193)">Okay</text>
<text x="575" y="613" font-size="7" fill="rgb(220, 220, 220)">reaches</text>
<text x="253" y="382" font-size="7" fill="rgb(226, 226, 226)">year</text>
<text x="175" y="624" font-size="7" fill="rgb(165, 165, 165)">still</text>
<text x="511" y="920" font-size="7" fill="rgb(143, 143, 143)">try</text>
<text x="745" y="393" font-size="7" fill="rgb(251, 251, 251)">speaker</text>
<text x="403" y="733" font-size="7" transform="rotate(-90, 403, 733) translate(-40, 0)" fill="rgb(130, 130, 130)">THREEPIO Artoo</text>
<text x="858" y="377" font-size="7" fill="rgb(185, 185, 185)">laser pistol</text>
<text x="816" y="184" font-size="7" transform="rotate(-90, 816, 184) translate(-33, 0)" fill="rgb(239, 239, 239)">Artoo beeps</text>
<text x="952" y="512" font-size="7" fill="rgb(209, 209, 209)">Wan Kenobi</text>
<text x="297" y="617" font-size="7" transform="rotate(-90, 297, 617) translate(-33, 0)" fill="rgb(201, 201, 201)">Imperial TIE</text>
<text x="254" y="762" font-size="7" transform="rotate(-90, 254, 762) translate(-41, 0)" fill="rgb(195, 195, 195)">FALCON GUNPORT</text>
<text x="896" y="391" font-size="7" transform="rotate(-90, 896, 391) translate(-38, 0)" fill="rgb(255, 255, 255)">BIGGS' COCKPIT</text>
<text x="247" y="735" font-size="7" fill="rgb(219, 219, 219)">STAR Three</text>
<text x="492" y="391" font-size="7" fill="rgb(213, 213, 213)">main</text>
<text x="810" y="666" font-size="7" fill="rgb(229, 229, 229)">battle</text>
<text x="993" y="432" font-size="7" fill="rgb(171, 171, 171)">TATOOINE</text>
<text x="842" y="722" font-size="7" fill="rgb(201, 201, 201)">battered</text>
<text x="561" y="423" font-size="7" fill="rgb(247, 247, 247)">aim</text>
<text x="456" y="374" font-size="7" fill="rgb(179, 179, 179)">moving</text>
<text x="642" y="112" font-size="7" transform="rotate(-90, 642, 112) translate(-11, 0)" fill="rgb(147, 147, 147)">Hey</text>
<text x="712" y="113" font-size="7" fill="rgb(253, 253, 253)">ROOM</text>
<text x="412" y="801" font-size="7" fill="rgb(238, 238, 238)">lot</text>
<text x="557" y="471" font-size="7" fill="rgb(232, 232, 232)">keep</text>
<text x="397" y="579" font-size="7" fill="rgb(193, 193, 193)">anything</text>
<text x="218" y="530" font-size="7" fill="rgb(210, 210, 210)">leave</text>
<text x="806" y="829" font-size="7" fill="rgb(191, 191, 191)">canyon</text>
<text x="792" y="844" font-size="7" fill="rgb(193, 193, 193)">quite</text>
<text x="244" y="230" font-size="7" fill="rgb(195, 195, 195)">speed</text>
<text x="833" y="651" font-size="7" fill="rgb(208, 208, 208)">table</text>
<text x="441" y="440" font-size="7" fill="rgb(242, 242, 242)">disappear</text>
<text x="257" y="876" font-size="7" fill="rgb(224, 224, 224)">use</text>
<text x="733" y="581" font-size="7" fill="rgb(209, 209, 209)">Five</text>
<text x="147" y="647" font-size="7" fill="rgb(179, 179, 179)">board</text>
<text x="946" y="572" font-size="7" fill="rgb(224, 224, 224)">target</text>
<text x="866" y="783" font-size="7" fill="rgb(250, 250, 250)">grab</text>
<text x="142" y="827" font-size="7" fill="rgb(206, 206, 206)">R2 unit</text>
<text x="110" y="862" font-size="7" fill="rgb(250, 250, 250)">Aunt Beru</text>
<text x="272" y="470" font-size="7" fill="rgb(219, 219, 219)">Ben Kenobi</text>
<text x="1092" y="676" font-size="7" transform="rotate(-90, 1092, 676) translate(-35, 0)" fill="rgb(191, 191, 191)">toward Death</text>
<text x="475" y="895" font-size="7" fill="rgb(254, 254, 254)">TIE ship</text>
<text x="587" y="480" font-size="7" fill="rgb(128, 128, 128)">STAR MAIN</text>
<text x="749" y="729" font-size="6" fill="rgb(152, 152, 152)">FORWARD BAY</text>
<text x="731" y="144" font-size="4" fill="rgb(232, 232, 232)">Imperial stormtrooper</text>
<text x="540" y="927" font-size="4" fill="rgb(141, 141, 141)">Rebel fighter</text>
<text x="534" y="142" font-size="4" fill="rgb(141, 141, 141)">STAR TRENCH</text>
<text x="351" y="488" font-size="4" fill="rgb(198, 198, 198)">struggle</text>
<text x="431" y="837" font-size="4" fill="rgb(253, 253, 253)">smoke</text>
<text x="374" y="130" font-size="4" fill="rgb(242, 242, 242)">near</text>
<text x="587" y="333" font-size="4" fill="rgb(243, 243, 243)">horizon</text>
<text x="525" y="492" font-size="4" fill="rgb(222, 222, 222)">air</text>
<text x="546" y="810" font-size="4" fill="rgb(218, 218, 218)">smile</text>
<text x="786" y="145" font-size="4" fill="rgb(204, 204, 204)">sight</text>
<text x="930" y="719" font-size="4" fill="rgb(168, 168, 168)">distance</text>
<text x="786" y="363" font-size="4" fill="rgb(203, 203, 203)">direction</text>
<text x="519" y="760" font-size="4" fill="rgb(203, 203, 203)">approaching</text>
<text x="440" y="591" font-size="4" fill="rgb(235, 235, 235)">hatch</text>
<text x="551" y="652" font-size="4" fill="rgb(136, 136, 136)">narrow</text>
<text x="985" y="569" font-size="4" fill="rgb(203, 203, 203)">life</text>
<text x="632" y="644" font-size="4" fill="rgb(150, 150, 150)">bad</text>
<text x="182" y="573" font-size="4" fill="rgb(214, 214, 214)">uncle</text>
<text x="808" y="747" font-size="4" fill="rgb(131, 131, 131)">blaster</text>
<text x="736" y="202" font-size="4" fill="rgb(247, 247, 247)">seen</text>
<text x="438" y="122" font-size="4" fill="rgb(174, 174, 174)">line</text>
<text x="508" y="322" font-size="4" fill="rgb(179, 179, 179)">shoulder</text>
<text x="708" y="435" font-size="4" fill="rgb(197, 197, 197)">master</text>
<text x="387" y="376" font-size="4" fill="rgb(250, 250, 250)">become</text>
<text x="527" y="324" font-size="4" fill="rgb(148, 148, 148)">range</text>
<text x="1008" y="415" font-size="4" fill="rgb(208, 208, 208)">cell</text>
<text x="996" y="397" font-size="4" fill="rgb(248, 248, 248)">port</text>
<text x="633" y="908" font-size="4" fill="rgb(252, 252, 252)">wingmen</text>
<text x="194" y="648" font-size="4" fill="rgb(246, 246, 246)">REBEL BLOCKADE</text>
<text x="97" y="786" font-size="4" fill="rgb(129, 129, 129)">BLOCKADE RUNNER</text>
<text x="267" y="393" font-size="4" fill="rgb(154, 154, 154)">shakes head</text>
<text x="895" y="720" font-size="4" fill="rgb(165, 165, 165)">old Ben</text>
<text x="446" y="768" font-size="4" transform="rotate(-90, 446, 768) translate(-18, 0)" fill="rgb(187, 187, 187)">Rebel base</text>
<text x="417" y="635" font-size="4" fill="rgb(178, 178, 178)">CONTROL ROOM</text>
<text x="824" y="202" font-size="4" fill="rgb(182, 182, 182)">COCKPIT TRAVELING</text>
<text x="554" y="361" font-size="4" fill="rgb(252, 252, 252)">new</text>
<text x="410" y="402" font-size="4" fill="rgb(151, 151, 151)">home</text>
<text x="229" y="591" font-size="4" fill="rgb(222, 222, 222)">half</text>
<text x="384" y="342" font-size="4" fill="rgb(129, 129, 129)">Hurry</text>
<text x="211" y="542" font-size="4" transform="rotate(-90, 211, 542) translate(-10, 0)" fill="rgb(229, 229, 229)">young</text>
<text x="512" y="136" font-size="4" fill="rgb(201, 201, 201)">end</text>
<text x="1067" y="729" font-size="4" fill="rgb(166, 166, 166)">soldier</text>
<text x="259" y="906" font-size="4" fill="rgb(160, 160, 160)">getting</text>
<text x="346" y="729" font-size="4" fill="rgb(169, 169, 169)">course</text>
<text x="596" y="434" font-size="4" fill="rgb(176, 176, 176)">worry</text>
<text x="746" y="684" font-size="4" fill="rgb(233, 233, 233)">fight</text>
<text x="160" y="726" font-size="4" fill="rgb(149, 149, 149)">part</text>
<text x="687" y="285" font-size="4" fill="rgb(176, 176, 176)">approaches</text>
<text x="430" y="376" font-size="4" fill="rgb(152, 152, 152)">sand</text>
<text x="890" y="280" font-size="4" fill="rgb(200, 200, 200)">whistle</text>
<text x="855" y="244" font-size="4" fill="rgb(212, 212, 212)">distant</text>
<text x="171" y="726" font-size="4" fill="rgb(248, 248, 248)">left</text>
<text x="879" y="685" font-size="4" fill="rgb(143, 143, 143)">might</text>
<text x="982" y="374" font-size="4" fill="rgb(183, 183, 183)">bit</text>
<text x="360" y="578" font-size="4" fill="rgb(204, 204, 204)">shoot</text>
<text x="951" y="313" font-size="4" fill="rgb(185, 185, 185)">followed</text>
<text x="1041" y="608" font-size="4" fill="rgb(142, 142, 142)">Uh</text>
<text x="855" y="444" font-size="4" transform="rotate(-90, 855, 444) translate(-12, 0)" fill="rgb(235, 235, 235)">hangar</text>
<text x="142" y="836" font-size="4" fill="rgb(199, 199, 199)">able</text>
<text x="685" y="346" font-size="4" fill="rgb(184, 184, 184)">blow</text>
<text x="909" y="764" font-size="4" fill="rgb(249, 249, 249)">bartender</text>
<text x="502" y="879" font-size="4" fill="rgb(198, 198, 198)">fast</text>
<text x="765" y="690" font-size="4" fill="rgb(167, 167, 167)">check</text>
<text x="767" y="451" font-size="4" fill="rgb(238, 238, 238)">GREEDO</text>
<text x="651" y="341" font-size="4" fill="rgb(172, 172, 172)">green</text>
<text x="898" y="569" font-size="4" fill="rgb(232, 232, 232)">crew</text>
<text x="113" y="734" font-size="4" fill="rgb(195, 195, 195)">flame</text>
<text x="876" y="196" font-size="4" fill="rgb(224, 224, 224)">tower</text>
<text x="740" y="513" font-size="4" transform="rotate(-90, 740, 513) translate(-14, 0)" fill="rgb(152, 152, 152)">headset</text>
<text x="366" y="623" font-size="4" fill="rgb(180, 180, 180)">Uncle Owen</text>
<text x="234" y="479" font-size="4" fill="rgb(222, 222, 222)">HOLD AREA</text>
<text x="558" y="479" font-size="4" fill="rgb(221, 221, 221)">TATOOINE MOS</text>
<text x="956" y="739" font-size="4" fill="rgb(183, 183, 183)">Han Solo</text>
<text x="500" y="438" font-size="4" fill="rgb(175, 175, 175)">control panel</text>
<text x="535" y="180" font-size="4" transform="rotate(-90, 535, 180) translate(-25, 0)" fill="rgb(152, 152, 152)">Imperial fighter</text>
<text x="314" y="134" font-size="4" fill="rgb(219, 219, 219)">MAIN FORWARD</text>
<text x="703" y="507" font-size="4" fill="rgb(144, 144, 144)">three TIE</text>
<text x="453" y="876" font-size="4" fill="rgb(211, 211, 211)">galaxy</text>
<text x="543" y="328" font-size="4" fill="rgb(193, 193, 193)">aboard</text>
<text x="200" y="281" font-size="4" fill="rgb(169, 169, 169)">human</text>
<text x="641" y="105" font-size="4" fill="rgb(146, 146, 146)">rush</text>
<text x="326" y="318" font-size="4" fill="rgb(139, 139, 139)">filled</text>
<text x="547" y="637" font-size="4" fill="rgb(160, 160, 160)">morning</text>
<text x="796" y="563" font-size="4" fill="rgb(208, 208, 208)">seven</text>
<text x="851" y="170" font-size="4" fill="rgb(165, 165, 165)">Dark</text>
<text x="973" y="432" font-size="4" fill="rgb(194, 194, 194)">mission</text>
<text x="806" y="136" font-size="4" transform="rotate(-90, 806, 136) translate(-6, 0)" fill="rgb(203, 203, 203)">RED</text>
<text x="1060" y="622" font-size="4" fill="rgb(179, 179, 179)">call</text>
<text x="712" y="144" font-size="4" fill="rgb(199, 199, 199)">talking</text>
<text x="898" y="290" font-size="4" transform="rotate(-90, 898, 290) translate(-7, 0)" fill="rgb(244, 244, 244)">rest</text>
<text x="610" y="338" font-size="4" fill="rgb(156, 156, 156)">background</text>
<text x="963" y="343" font-size="4" fill="rgb(132, 132, 132)">shot</text>
<text x="210" y="814" font-size="4" fill="rgb(129, 129, 129)">happened</text>
<text x="464" y="315" font-size="4" fill="rgb(207, 207, 207)">came</text>
<text x="746" y="566" font-size="4" fill="rgb(171, 171, 171)">low</text>
<text x="223" y="537" font-size="4" fill="rgb(240, 240, 240)">gets</text>
<text x="761" y="544" font-size="4" transform="rotate(-90, 761, 544) translate(-7, 0)" fill="rgb(237, 237, 237)">may</text>
<text x="797" y="408" font-size="4" fill="rgb(168, 168, 168)">HOMESTEAD</text>
<text x="983" y="617" font-size="4" fill="rgb(201, 201, 201)">quickly</text>
<text x="1023" y="650" font-size="4" fill="rgb(198, 198, 198)">garage</text>
<text x="425" y="140" font-size="4" fill="rgb(204, 204, 204)">Yeah</text>
<text x="637" y="788" font-size="4" transform="rotate(-90, 637, 788) translate(-11, 0)" fill="rgb(186, 186, 186)">trouble</text>
<text x="490" y="905" font-size="4" fill="rgb(171, 171, 171)">tries</text>
<text x="929" y="662" font-size="4" fill="rgb(204, 204, 204)">gone</text>
<text x="889" y="484" font-size="4" fill="rgb(156, 156, 156)">yell</text>
<text x="441" y="760" font-size="4" fill="rgb(249, 249, 249)">closer</text>
<text x="277" y="159" font-size="4" transform="rotate(-90, 277, 159) translate(-7, 0)" fill="rgb(160, 160, 160)">step</text>
<text x="734" y="210" font-size="4" fill="rgb(182, 182, 182)">return</text>
<text x="326" y="478" font-size="4" fill="rgb(234, 234, 234)">lightsaber</text>
<text x="391" y="132" font-size="4" fill="rgb(253, 253, 253)">thousand</text>
<text x="807" y="151" font-size="4" fill="rgb(137, 137, 137)">together</text>
<text x="133" y="701" font-size="4" transform="rotate(-90, 133, 701) translate(-18, 0)" fill="rgb(132, 132, 132)">information</text>
<text x="272" y="539" font-size="4" fill="rgb(251, 251, 251)">readout</text>
<text x="167" y="572" font-size="4" fill="rgb(183, 183, 183)">ready</text>
<text x="492" y="811" font-size="4" fill="rgb(144, 144, 144)">burst</text>
<text x="722" y="896" font-size="4" fill="rgb(159, 159, 159)">enemy</text>
<text x="737" y="622" font-size="4" fill="rgb(168, 168, 168)">climb</text>
<text x="534" y="590" font-size="4" fill="rgb(230, 230, 230)">shadow</text>
<text x="218" y="618" font-size="4" fill="rgb(219, 219, 219)">adjust</text>
<text x="486" y="319" font-size="4" fill="rgb(165, 165, 165)">Dark Lord</text>
<text x="683" y="144" font-size="4" fill="rgb(233, 233, 233)">power station</text>
<text x="677" y="907" font-size="4" fill="rgb(152, 152, 152)">LARS HOMESTEAD</text>
<text x="740" y="476" font-size="4" fill="rgb(187, 187, 187)">old man</text>
<text x="272" y="265" font-size="4" fill="rgb(182, 182, 182)">Han Chewie</text>
<text x="637" y="805" font-size="4" transform="rotate(-90, 637, 805) translate(-26, 0)" fill="rgb(200, 200, 200)">Han Chewbacca</text>
<text x="1029" y="748" font-size="4" fill="rgb(253, 253, 253)">SPACE TIE</text>
<text x="677" y="507" font-size="4" fill="rgb(212, 212, 212)">tractor beam</text>
<text x="1055" y="678" font-size="4" fill="rgb(141, 141, 141)">GARBAGE ROOM</text>
<text x="923" y="316" font-size="4" fill="rgb(155, 155, 155)">exhaust port</text>
<text x="599" y="891" font-size="4" transform="rotate(-90, 599, 891) translate(-25, 0)" fill="rgb(186, 186, 186)">COCKPIT Wedge</text>
<text x="493" y="833" font-size="4" fill="rgb(129, 129, 129)">ROOM Leia</text>
<text x="636" y="554" font-size="4" transform="rotate(-90, 636, 554) translate(-24, 0)" fill="rgb(226, 226, 226)">adjusts control</text>
<text x="342" y="136" font-size="4" fill="rgb(142, 142, 142)">control stick</text>
<text x="504" y="577" font-size="4" fill="rgb(238, 238, 238)">armored</text>
<text x="808" y="760" font-size="4" fill="rgb(175, 175, 175)">shaking</text>
<text x="860" y="641" font-size="4" fill="rgb(224, 224, 224)">scream</text>
<text x="535" y="358" font-size="4" fill="rgb(169, 169, 169)">creating</text>
<text x="474" y="257" font-size="4" fill="rgb(193, 193, 193)">desert</text>
<text x="739" y="609" font-size="4" fill="rgb(156, 156, 156)">white</text>
<text x="635" y="754" font-size="4" transform="rotate(-90, 635, 754) translate(-22, 0)" fill="rgb(217, 217, 217)">Landspeeder</text>
<text x="162" y="915" font-size="4" fill="rgb(176, 176, 176)">leaving</text>
<text x="820" y="555" font-size="4" fill="rgb(187, 187, 187)">quiet</text>
<text x="1049" y="737" font-size="4" fill="rgb(209, 209, 209)">heading</text>
<text x="200" y="727" font-size="4" fill="rgb(217, 217, 217)">bring</text>
<text x="720" y="448" font-size="4" fill="rgb(176, 176, 176)">set</text>
<text x="384" y="770" font-size="4" fill="rgb(199, 199, 199)">told</text>
<text x="898" y="559" font-size="4" fill="rgb(175, 175, 175)">yelling</text>
<text x="282" y="162" font-size="4" fill="rgb(200, 200, 200)">easy</text>
<text x="895" y="511" font-size="4" fill="rgb(219, 219, 219)">nothing</text>
<text x="352" y="737" font-size="4" fill="rgb(218, 218, 218)">made</text>
<text x="510" y="502" font-size="4" fill="rgb(183, 183, 183)">reply</text>
<text x="1051" y="610" font-size="4" fill="rgb(212, 212, 212)">pay</text>
<text x="794" y="626" font-size="4" transform="rotate(-90, 794, 626) translate(-7, 0)" fill="rgb(245, 245, 245)">said</text>
<text x="443" y="99" font-size="4" fill="rgb(168, 168, 168)">best</text>
<text x="254" y="849" font-size="4" transform="rotate(-90, 254, 849) translate(-12, 0)" fill="rgb(213, 213, 213)">strange</text>
<text x="542" y="87" font-size="4" fill="rgb(225, 225, 225)">approach</text>
<text x="172" y="542" font-size="4" fill="rgb(253, 253, 253)">pop</text>
<text x="591" y="822" font-size="4" fill="rgb(229, 229, 229)">edge</text>
<text x="494" y="611" font-size="4" fill="rgb(179, 179, 179)">blue</text>
<text x="130" y="875" font-size="4" fill="rgb(207, 207, 207)">lost</text>
<text x="195" y="572" font-size="4" fill="rgb(191, 191, 191)">center</text>
<text x="196" y="581" font-size="4" fill="rgb(201, 201, 201)">mind</text>
<text x="745" y="527" font-size="4" fill="rgb(206, 206, 206)">bar</text>
<text x="738" y="291" font-size="4" fill="rgb(250, 250, 250)">massive</text>
<text x="579" y="423" font-size="4" fill="rgb(165, 165, 165)">view</text>
<text x="242" y="563" font-size="4" fill="rgb(142, 142, 142)">walk</text>
<text x="601" y="88" font-size="4" fill="rgb(234, 234, 234)">everything</text>
<text x="473" y="426" font-size="4" fill="rgb(130, 130, 130)">corner</text>
<text x="1079" y="646" font-size="4" transform="rotate(-90, 1079, 646) translate(-10, 0)" fill="rgb(242, 242, 242)">button</text>
<text x="637" y="856" font-size="4" transform="rotate(-90, 637, 856) translate(-21, 0)" fill="rgb(163, 163, 163)">transmission</text>
<text x="732" y="352" font-size="4" fill="rgb(156, 156, 156)">twenty</text>
<text x="570" y="332" font-size="4" fill="rgb(166, 166, 166)">round</text>
<text x="506" y="652" font-size="4" fill="rgb(195, 195, 195)">charge</text>
<text x="904" y="221" font-size="4" fill="rgb(150, 150, 150)">helmet</text>
<text x="594" y="444" font-size="4" fill="rgb(235, 235, 235)">copy</text>
<text x="295" y="392" font-size="4" fill="rgb(214, 214, 214)">cover</text>
<text x="217" y="546" font-size="4" fill="rgb(188, 188, 188)">peel</text>
<text x="804" y="366" font-size="4" fill="rgb(254, 254, 254)">Lord Vader</text>
<text x="244" y="670" font-size="4" transform="rotate(-90, 244, 670) translate(-24, 0)" fill="rgb(176, 176, 176)">TATOOINE ROCK</text>
<text x="952" y="626" font-size="4" transform="rotate(-90, 952, 626) translate(-24, 0)" fill="rgb(233, 233, 233)">EISLEY STREET</text>
</svg>
