<svg width="1190" height="1028" xmlns="http://www.w3.org/2000/svg">
    <defs><style type="text/css">
    @import url("https://fonts.googleapis.com/css?family=Roboto+Slab:700");
    text {font-family: 'Roboto Slab', bold, serif;font-weight:bold;;
    font-kerning:none;
    font-variant-ligatures:none}
    </style></defs>
<rect width="100%" height="100%" fill="white"/>
<text x="426" y="747" font-size="131" fill="#1e72f9">Luke</text>
<text x="609" y="829" font-size="93" fill="#1e72f9">Han</text>
<text x="283" y="213" font-size="86" fill="#1e72f9">DEATH STAR</text>
<text x="389" y="489" font-size="68" fill="#1e72f9">THREEPIO</text>
<text x="663" y="261" font-size="60" fill="#1e72f9">Ben</text>
<text x="253" y="596" font-size="52" fill="#1e72f9">ship</text>
<text x="556" y="548" font-size="50" fill="#1e72f9">Leia</text>
<text x="392" y="396" font-size="48" fill="#1e72f9">one</text>
<text x="326" y="345" font-size="46" transform="rotate(-90, 326, 345) translate(-95, 0)" fill="#1e72f9">look</text>
<text x="139" y="707" font-size="46" fill="#1e72f9">RED LEADER</text>
<text x="847" y="605" font-size="45" fill="#1e72f9">Artoo</text>
<text x="702" y="629" font-size="44" fill="#1e72f9">back</text>
<text x="946" y="698" font-size="43" fill="#1e72f9">move</text>
<text x="146" y="756" font-size="42" fill="#1e72f9">going</text>
<text x="123" y="753" font-size="41" transform="rotate(-90, 123, 753) translate(-71, 0)" fill="#1e72f9">two</text>
<text x="881" y="410" font-size="41" fill="#1e72f9">Biggs</text>
<text x="212" y="648" font-size="41" fill="#1e72f9">TIE fighter</text>
<text x="879" y="547" font-size="40" fill="#1e72f9">Vader</text>
<text x="888" y="710" font-size="39" transform="rotate(-90, 888, 710) translate(-62, 0)" fill="#1e72f9">see</text>
<text x="228" y="243" font-size="35" fill="#1e72f9">MILLENNIUM FALCON</text>
<text x="389" y="136" font-size="34" fill="#1e72f9">toward</text>
<text x="611" y="583" font-size="34" fill="#1e72f9">right</text>
<text x="410" y="799" font-size="34" fill="#1e72f9">Luke WING</text>
<text x="356" y="388" font-size="34" transform="rotate(-90, 356, 388) translate(-87, 0)" fill="#1e72f9">come</text>
<text x="617" y="877" font-size="34" fill="#1e72f9">trooper</text>
<text x="570" y="133" font-size="33" fill="#1e72f9">robot</text>
<text x="129" y="799" font-size="33" fill="#1e72f9">small</text>
<text x="440" y="517" font-size="32" fill="#1e72f9">SPACE</text>
<text x="348" y="330" font-size="31" fill="#1e72f9">now</text>
<text x="620" y="658" font-size="28" fill="#1e72f9">WING FIGHTER</text>
<text x="390" y="422" font-size="28" fill="#1e72f9">take</text>
<text x="770" y="759" font-size="28" fill="#1e72f9">begin</text>
<text x="433" y="633" font-size="28" fill="#1e72f9">make</text>
<text x="776" y="388" font-size="27" fill="#1e72f9">away</text>
<text x="794" y="589" font-size="27" fill="#1e72f9">fire</text>
<text x="903" y="454" font-size="27" fill="#1e72f9">will</text>
<text x="705" y="552" font-size="27" fill="#1e72f9">turn</text>
<text x="1001" y="661" font-size="27" fill="#1e72f9">stand</text>
<text x="893" y="717" font-size="22" fill="#1e72f9">stormtrooper</text>
<text x="972" y="590" font-size="22" fill="#1e72f9">way</text>
<text x="360" y="353" font-size="22" fill="#1e72f9">side</text>
<text x="188" y="464" font-size="20" fill="#1e72f9">COCKPIT Luke</text>
<text x="368" y="609" font-size="20" fill="#1e72f9">sir</text>
<text x="438" y="824" font-size="20" fill="#1e72f9">think</text>
<text x="367" y="739" font-size="20" fill="#1e72f9">head</text>
<text x="774" y="235" font-size="20" fill="#1e72f9">DARTH VADER</text>
<text x="513" y="912" font-size="18" fill="#1e72f9">GOLD LEADER</text>
<text x="502" y="657" font-size="18" fill="#1e72f9">huge</text>
<text x="223" y="786" font-size="18" fill="#1e72f9">got</text>
<text x="948" y="317" font-size="18" fill="#1e72f9">us</text>
<text x="512" y="127" font-size="18" fill="#1e72f9">time</text>
<text x="881" y="496" font-size="18" fill="#1e72f9">computer</text>
<text x="216" y="428" font-size="18" fill="#1e72f9">several</text>
<text x="508" y="526" font-size="18" transform="rotate(-90, 508, 526) translate(-48, 0)" fill="#1e72f9">Rebel</text>
<text x="458" y="425" font-size="18" fill="#1e72f9">know</text>
<text x="480" y="96" font-size="18" fill="#1e72f9">Chewbacca</text>
<text x="651" y="846" font-size="17" fill="#1e72f9">SURFACE DEATH</text>
<text x="739" y="569" font-size="17" fill="#1e72f9">long</text>
<text x="678" y="125" font-size="17" fill="#1e72f9">OFFICER</text>
<text x="862" y="471" font-size="17" fill="#1e72f9">across</text>
<text x="199" y="480" font-size="17" fill="#1e72f9">OWEN</text>
<text x="164" y="905" font-size="17" fill="#1e72f9">pirateship</text>
<text x="932" y="564" font-size="17" fill="#1e72f9">something</text>
<text x="780" y="270" font-size="17" fill="#1e72f9">go</text>
<text x="537" y="260" font-size="17" fill="#1e72f9">control</text>
<text x="385" y="762" font-size="15" fill="#1e72f9">FIGHTER COCKPIT</text>
<text x="669" y="521" font-size="15" fill="#1e72f9">behind</text>
<text x="919" y="745" font-size="15" fill="#1e72f9">hit</text>
<text x="562" y="578" font-size="15" fill="#1e72f9">light</text>
<text x="659" y="277" font-size="15" fill="#1e72f9">WING COCKPIT</text>
<text x="588" y="606" font-size="15" fill="#1e72f9">Imperial</text>
<text x="151" y="663" font-size="15" fill="#1e72f9">around</text>
<text x="731" y="674" font-size="15" fill="#1e72f9">Suddenly</text>
<text x="1008" y="619" font-size="15" fill="#1e72f9">troops</text>
<text x="848" y="182" font-size="15" fill="#1e72f9">eye</text>
<text x="167" y="578" font-size="15" fill="#1e72f9">start</text>
<text x="892" y="284" font-size="15" fill="#1e72f9">TARKIN</text>
<text x="849" y="428" font-size="15" fill="#1e72f9">Luke look</text>
<text x="825" y="620" font-size="15" fill="#1e72f9">hand</text>
<text x="814" y="778" font-size="15" transform="rotate(-90, 814, 778) translate(-57, 0)" fill="#1e72f9">another</text>
<text x="405" y="103" font-size="15" fill="#1e72f9">hallway</text>
<text x="194" y="515" font-size="15" fill="#1e72f9">little</text>
<text x="293" y="333" font-size="15" fill="#1e72f9">VOICE</text>
<text x="93" y="853" font-size="15" fill="#1e72f9">face</text>
<text x="1018" y="737" font-size="15" fill="#1e72f9">blast</text>
<text x="653" y="616" font-size="15" fill="#1e72f9">large</text>
<text x="437" y="843" font-size="15" fill="#1e72f9">wall</text>
<text x="642" y="898" font-size="15" fill="#1e72f9">creature</text>
<text x="132" y="817" font-size="15" fill="#1e72f9">give</text>
<text x="477" y="886" font-size="15" fill="#1e72f9">run</text>
<text x="217" y="258" font-size="15" fill="#1e72f9">pilot</text>
<text x="602" y="259" font-size="15" fill="#1e72f9">race</text>
<text x="245" y="823" font-size="15" transform="rotate(-90, 245, 823) translate(-38, 0)" fill="#1e72f9">seem</text>
<text x="854" y="206" font-size="15" fill="#1e72f9">Force</text>
<text x="514" y="422" font-size="15" fill="#1e72f9">trench</text>
<text x="374" y="365" font-size="15" transform="rotate(-90, 374, 365) translate(-119, 0)" fill="#1e72f9">SPACE AROUND</text>
<text x="666" y="141" font-size="15" fill="#1e72f9">AROUND DEATH</text>
<text x="255" y="389" font-size="15" fill="#1e72f9">door</text>
<text x="878" y="251" font-size="15" fill="#1e72f9">system</text>
<text x="736" y="415" font-size="15" fill="#1e72f9">stop</text>
<text x="490" y="667" font-size="15" transform="rotate(-90, 490, 667) translate(-32, 0)" fill="#1e72f9">Well</text>
<text x="713" y="767" font-size="15" fill="#1e72f9">Jawa</text>
<text x="400" y="603" font-size="15" fill="#1e72f9">looking</text>
<text x="407" y="358" font-size="15" fill="#1e72f9">Solo</text>
<text x="226" y="663" font-size="15" fill="#1e72f9">Star surface</text>
<text x="869" y="562" font-size="15" fill="#1e72f9">surface</text>
<text x="107" y="882" font-size="15" fill="#1e72f9">past</text>
<text x="232" y="722" font-size="15" fill="#1e72f9">laserfire</text>
<text x="349" y="663" font-size="15" fill="#1e72f9">Alderaan</text>
<text x="514" y="541" font-size="15" fill="#1e72f9">pull</text>
<text x="255" y="257" font-size="12" fill="#1e72f9">COCKPIT Red</text>
<text x="828" y="556" font-size="12" fill="#1e72f9">power</text>
<text x="953" y="664" font-size="12" fill="#1e72f9">old</text>
<text x="200" y="529" font-size="12" fill="#1e72f9">must</text>
<text x="740" y="433" font-size="12" fill="#1e72f9">WEDGE</text>
<text x="871" y="617" font-size="11" fill="#1e72f9">MASSASSI OUTPOST</text>
<text x="1077" y="682" font-size="11" transform="rotate(-90, 1077, 682) translate(-47, 0)" fill="#1e72f9">Princess</text>
<text x="908" y="730" font-size="11" transform="rotate(-90, 908, 730) translate(-33, 0)" fill="#1e72f9">sound</text>
<text x="477" y="849" font-size="11" fill="#1e72f9">hold</text>
<text x="262" y="182" font-size="11" fill="#1e72f9">say</text>
<text x="810" y="406" font-size="11" fill="#1e72f9">WAR ROOM</text>
<text x="201" y="811" font-size="11" fill="#1e72f9">RED TEN</text>
<text x="739" y="718" font-size="11" fill="#1e72f9">want</text>
<text x="511" y="632" font-size="11" fill="#1e72f9">good</text>
<text x="659" y="540" font-size="11" fill="#1e72f9">droid</text>
<text x="736" y="289" font-size="11" fill="#1e72f9">continue</text>
<text x="742" y="859" font-size="11" fill="#1e72f9">dive</text>
<text x="608" y="628" font-size="11" fill="#1e72f9">GOLD FIVE</text>
<text x="862" y="445" font-size="11" fill="#1e72f9">sure</text>
<text x="246" y="198" font-size="11" fill="#1e72f9">front</text>
<text x="746" y="696" font-size="11" fill="#1e72f9">friend</text>
<text x="200" y="277" font-size="11" fill="#1e72f9">wait</text>
<text x="906" y="685" font-size="11" fill="#1e72f9">find</text>
<text x="366" y="578" font-size="11" fill="#1e72f9">standing</text>
<text x="327" y="136" font-size="11" fill="#1e72f9">speeder</text>
<text x="475" y="532" font-size="11" transform="rotate(-90, 475, 532) translate(-20, 0)" fill="#1e72f9">gun</text>
<text x="449" y="862" font-size="11" fill="#1e72f9">comlink</text>
<text x="700" y="584" font-size="10" fill="#1e72f9">VADER COCKPIT</text>
<text x="563" y="501" font-size="10" fill="#1e72f9">COCKPIT Vader</text>
<text x="387" y="501" font-size="10" fill="#1e72f9">starship</text>
<text x="831" y="717" font-size="10" fill="#1e72f9">sit</text>
<text x="920" y="467" font-size="10" fill="#1e72f9">moment</text>
<text x="518" y="143" font-size="10" fill="#1e72f9">enter</text>
<text x="113" y="743" font-size="10" fill="#1e72f9">thing</text>
<text x="1019" y="509" font-size="10" transform="rotate(-90, 1019, 509) translate(-35, 0)" fill="#1e72f9">coming</text>
<text x="513" y="571" font-size="10" fill="#1e72f9">Obi Wan</text>
<text x="640" y="501" font-size="10" fill="#1e72f9">FALCON COCKPIT</text>
<text x="579" y="99" font-size="10" fill="#1e72f9">LEADER COCKPIT</text>
<text x="528" y="761" font-size="10" fill="#1e72f9">LEADER WING</text>
<text x="180" y="542" font-size="10" fill="#1e72f9">planet</text>
<text x="352" y="346" font-size="10" transform="rotate(-90, 352, 346) translate(-24, 0)" fill="#1e72f9">close</text>
<text x="838" y="783" font-size="10" fill="#1e72f9">group</text>
<text x="755" y="392" font-size="10" fill="#1e72f9">let</text>
<text x="907" y="264" font-size="10" fill="#1e72f9">attack</text>
<text x="143" y="720" font-size="10" fill="#1e72f9">Chewie</text>
<text x="599" y="147" font-size="10" transform="rotate(-90, 599, 147) translate(-61, 0)" fill="#1e72f9">Princess Leia</text>
<text x="267" y="546" font-size="10" fill="#1e72f9">MOS EISLEY</text>
<text x="218" y="608" font-size="9" fill="#1e72f9">targeting device</text>
<text x="909" y="296" font-size="9" fill="#1e72f9">short</text>
<text x="832" y="793" font-size="9" transform="rotate(-90, 832, 793) translate(-25, 0)" fill="#1e72f9">much</text>
<text x="960" y="326" font-size="9" transform="rotate(-90, 960, 326) translate(-36, 0)" fill="#1e72f9">watches</text>
<text x="239" y="882" font-size="9" fill="#1e72f9">work</text>
<text x="333" y="558" font-size="9" fill="#1e72f9">help</text>
<text x="575" y="427" font-size="9" fill="#1e72f9">put</text>
<text x="982" y="423" font-size="9" fill="#1e72f9">Oh</text>
<text x="227" y="405" font-size="9" fill="#1e72f9">father</text>
<text x="744" y="448" font-size="9" fill="#1e72f9">position</text>
<text x="312" y="720" font-size="9" fill="#1e72f9">point</text>
<text x="153" y="638" font-size="9" fill="#1e72f9">docking bay</text>
<text x="201" y="439" font-size="9" fill="#1e72f9">OUTPOST WAR</text>
<text x="486" y="399" font-size="9" fill="#1e72f9">weapon</text>
<text x="907" y="317" font-size="9" fill="#1e72f9">along</text>
<text x="846" y="639" font-size="9" fill="#1e72f9">hear</text>
<text x="486" y="254" font-size="9" fill="#1e72f9">shut</text>
<text x="753" y="362" font-size="9" fill="#1e72f9">heard</text>
<text x="501" y="187" font-size="9" fill="#1e72f9">last</text>
<text x="549" y="591" font-size="9" fill="#1e72f9">even</text>
<text x="129" y="893" font-size="9" fill="#1e72f9">guard</text>
<text x="437" y="644" font-size="9" fill="#1e72f9">laserbolt</text>
<text x="496" y="810" font-size="9" fill="#1e72f9">appear</text>
<text x="944" y="507" font-size="9" fill="#1e72f9">Artoo Detoo</text>
<text x="621" y="845" font-size="9" fill="#1e72f9">far</text>
<text x="622" y="234" font-size="9" fill="#1e72f9">Empire</text>
<text x="171" y="557" font-size="9" fill="#1e72f9">enough</text>
<text x="943" y="375" font-size="9" fill="#1e72f9">explosion</text>
<text x="780" y="412" font-size="9" fill="#1e72f9">floor</text>
<text x="856" y="739" font-size="9" transform="rotate(-90, 856, 739) translate(-27, 0)" fill="#1e72f9">follow</text>
<text x="1020" y="588" font-size="9" fill="#1e72f9">four</text>
<text x="77" y="800" font-size="9" fill="#1e72f9">kid</text>
<text x="198" y="492" font-size="9" fill="#1e72f9">Sandpeople</text>
<text x="670" y="593" font-size="9" fill="#1e72f9">open</text>
<text x="781" y="248" font-size="9" fill="#1e72f9">Jabba</text>
<text x="717" y="889" font-size="9" fill="#1e72f9">screen</text>
<text x="743" y="739" font-size="9" fill="#1e72f9">plan</text>
<text x="877" y="507" font-size="9" fill="#1e72f9">explode</text>
<text x="854" y="696" font-size="9" fill="#1e72f9">Dodonna</text>
<text x="232" y="268" font-size="9" fill="#1e72f9">zoom</text>
<text x="350" y="254" font-size="8" fill="#1e72f9">INTERCOM VOICE</text>
<text x="587" y="271" font-size="8" fill="#1e72f9">COCKPIT Gold</text>
<text x="610" y="889" font-size="8" fill="#1e72f9">firing</text>
<text x="949" y="729" font-size="8" fill="#1e72f9">streak</text>
<text x="190" y="917" font-size="8" fill="#1e72f9">electronic</text>
<text x="1034" y="716" font-size="8" fill="#1e72f9">boy</text>
<text x="741" y="594" font-size="8" fill="#1e72f9">next</text>
<text x="547" y="660" font-size="8" fill="#1e72f9">minute</text>
<text x="586" y="814" font-size="8" fill="#1e72f9">goes</text>
<text x="585" y="675" font-size="8" transform="rotate(-90, 585, 675) translate(-45, 0)" fill="#1e72f9">Commander</text>
<text x="467" y="710" font-size="8" fill="#1e72f9">laser</text>
<text x="128" y="767" font-size="8" fill="#1e72f9">man</text>
<text x="406" y="515" font-size="8" fill="#1e72f9">almost</text>
<text x="174" y="587" font-size="8" transform="rotate(-90, 174, 587) translate(-13, 0)" fill="#1e72f9">tell</text>
<text x="402" y="615" font-size="8" fill="#1e72f9">area</text>
<text x="415" y="314" font-size="8" fill="#1e72f9">watch</text>
<text x="665" y="105" font-size="8" fill="#1e72f9">formation</text>
<text x="633" y="669" font-size="8" fill="#1e72f9">little Artoo</text>
<text x="530" y="923" font-size="8" fill="#1e72f9">slowly</text>
<text x="271" y="886" font-size="8" transform="rotate(-90, 271, 886) translate(-16, 0)" fill="#1e72f9">first</text>
<text x="694" y="563" font-size="8" fill="#1e72f9">station</text>
<text x="108" y="864" font-size="8" fill="#1e72f9">tiny</text>
<text x="1001" y="429" font-size="8" fill="#1e72f9">giant</text>
<text x="807" y="601" font-size="8" fill="#1e72f9">better</text>
<text x="650" y="911" font-size="8" fill="#1e72f9">DAY</text>
<text x="764" y="770" font-size="8" fill="#1e72f9">speak</text>
<text x="835" y="728" font-size="8" fill="#1e72f9">dead</text>
<text x="257" y="400" font-size="8" fill="#1e72f9">thought</text>
<text x="479" y="656" font-size="8" fill="#1e72f9">big</text>
<text x="453" y="254" font-size="8" fill="#1e72f9">second</text>
<text x="853" y="388" font-size="8" fill="#1e72f9">really</text>
<text x="1017" y="599" font-size="8" fill="#1e72f9">three</text>
<text x="1009" y="633" font-size="8" fill="#1e72f9">Sandcrawler</text>
<text x="125" y="833" font-size="8" fill="#1e72f9">beep</text>
<text x="140" y="906" font-size="8" fill="#1e72f9">Stay</text>
<text x="741" y="873" font-size="8" fill="#1e72f9">arm</text>
<text x="529" y="109" font-size="8" fill="#1e72f9">Wookiee</text>
<text x="568" y="557" font-size="8" fill="#1e72f9">moon</text>
<text x="1088" y="660" font-size="8" transform="rotate(-90, 1088, 660) translate(-52, 0)" fill="#1e72f9">battle station</text>
<text x="230" y="209" font-size="8" fill="#1e72f9">LUKE Well</text>
<text x="868" y="487" font-size="8" transform="rotate(-90, 868, 487) translate(-48, 0)" fill="#1e72f9">looks around</text>
<text x="173" y="766" font-size="6" fill="#1e72f9">beeping sound</text>
<text x="770" y="299" font-size="6" fill="#1e72f9">laser cannon</text>
<text x="628" y="143" font-size="6" fill="#1e72f9">outside</text>
<text x="691" y="287" font-size="6" fill="#1e72f9">corridor</text>
<text x="696" y="761" font-size="6" fill="#1e72f9">feet</text>
<text x="642" y="249" font-size="6" fill="#1e72f9">place</text>
<text x="972" y="323" font-size="6" transform="rotate(-90, 972, 323) translate(-33, 0)" fill="#1e72f9">subhallway</text>
<text x="543" y="696" font-size="6" transform="rotate(-90, 543, 696) translate(-20, 0)" fill="#1e72f9">rushes</text>
<text x="789" y="284" font-size="6" fill="#1e72f9">found</text>
<text x="728" y="527" font-size="6" fill="#1e72f9">great</text>
<text x="1029" y="545" font-size="6" transform="rotate(-90, 1029, 545) translate(-26, 0)" fill="#1e72f9">Rebellion</text>
<text x="463" y="598" font-size="6" transform="rotate(-90, 463, 598) translate(-10, 0)" fill="#1e72f9">cut</text>
<text x="427" y="526" font-size="6" fill="#1e72f9">spot</text>
<text x="387" y="776" font-size="6" fill="#1e72f9">jump</text>
<text x="610" y="857" font-size="6" transform="rotate(-90, 610, 857) translate(-18, 0)" fill="#1e72f9">Listen</text>
<text x="543" y="809" font-size="6" fill="#1e72f9">trying</text>
<text x="564" y="645" font-size="6" fill="#1e72f9">never</text>
<text x="349" y="714" font-size="6" transform="rotate(-90, 349, 714) translate(-14, 0)" fill="#1e72f9">need</text>
<text x="255" y="558" font-size="6" fill="#1e72f9">Okay</text>
<text x="809" y="631" font-size="6" fill="#1e72f9">reaches</text>
<text x="482" y="382" font-size="6" fill="#1e72f9">year</text>
<text x="420" y="820" font-size="6" fill="#1e72f9">still</text>
<text x="79" y="821" font-size="6" fill="#1e72f9">try</text>
<text x="854" y="433" font-size="6" transform="rotate(-90, 854, 433) translate(-23, 0)" fill="#1e72f9">speaker</text>
<text x="390" y="431" font-size="6" fill="#1e72f9">THREEPIO Artoo</text>
<text x="550" y="144" font-size="6" fill="#1e72f9">laser pistol</text>
<text x="512" y="554" font-size="6" fill="#1e72f9">Artoo beeps</text>
<text x="85" y="835" font-size="6" fill="#1e72f9">Wan Kenobi</text>
<text x="559" y="923" font-size="6" fill="#1e72f9">Imperial TIE</text>
<text x="507" y="431" font-size="6" fill="#1e72f9">FALCON GUNPORT</text>
<text x="915" y="574" font-size="6" fill="#1e72f9">BIGGS' COCKPIT</text>
<text x="349" y="121" font-size="6" fill="#1e72f9">STAR Three</text>
<text x="476" y="896" font-size="6" fill="#1e72f9">main</text>
<text x="269" y="371" font-size="6" fill="#1e72f9">battle</text>
<text x="631" y="510" font-size="6" fill="#1e72f9">TATOOINE</text>
<text x="405" y="144" font-size="6" transform="rotate(-90, 405, 144) translate(-25, 0)" fill="#1e72f9">battered</text>
<text x="793" y="143" font-size="6" fill="#1e72f9">aim</text>
<text x="760" y="869" font-size="6" fill="#1e72f9">moving</text>
<text x="175" y="809" font-size="6" fill="#1e72f9">Hey</text>
<text x="922" y="726" font-size="6" fill="#1e72f9">ROOM</text>
<text x="603" y="796" font-size="6" fill="#1e72f9">lot</text>
<text x="185" y="591" font-size="6" fill="#1e72f9">keep</text>
<text x="731" y="751" font-size="6" fill="#1e72f9">anything</text>
<text x="932" y="341" font-size="6" fill="#1e72f9">leave</text>
<text x="304" y="604" font-size="6" fill="#1e72f9">canyon</text>
<text x="870" y="627" font-size="6" fill="#1e72f9">quite</text>
<text x="923" y="756" font-size="6" fill="#1e72f9">speed</text>
<text x="768" y="731" font-size="6" fill="#1e72f9">table</text>
<text x="688" y="668" font-size="6" fill="#1e72f9">disappear</text>
<text x="953" y="636" font-size="6" transform="rotate(-90, 953, 636) translate(-10, 0)" fill="#1e72f9">use</text>
<text x="387" y="106" font-size="6" fill="#1e72f9">Five</text>
<text x="500" y="693" font-size="6" transform="rotate(-90, 500, 693) translate(-18, 0)" fill="#1e72f9">board</text>
<text x="945" y="743" font-size="6" fill="#1e72f9">target</text>
<text x="671" y="550" font-size="6" fill="#1e72f9">grab</text>
<text x="464" y="773" font-size="6" fill="#1e72f9">R2 unit</text>
<text x="481" y="833" font-size="6" fill="#1e72f9">Aunt Beru</text>
<text x="961" y="517" font-size="6" fill="#1e72f9">Ben Kenobi</text>
<text x="896" y="695" font-size="6" fill="#1e72f9">toward Death</text>
<text x="515" y="581" font-size="6" fill="#1e72f9">TIE ship</text>
<text x="308" y="314" font-size="6" fill="#1e72f9">STAR MAIN</text>
<text x="968" y="426" font-size="6" transform="rotate(-90, 968, 426) translate(-43, 0)" fill="#1e72f9">FORWARD BAY</text>
<text x="500" y="668" font-size="4" fill="#1e72f9">Imperial stormtrooper</text>
<text x="674" y="628" font-size="4" fill="#1e72f9">Rebel fighter</text>
<text x="653" y="754" font-size="4" fill="#1e72f9">STAR TRENCH</text>
<text x="208" y="714" font-size="4" fill="#1e72f9">struggle</text>
<text x="745" y="457" font-size="4" fill="#1e72f9">smoke</text>
<text x="598" y="638" font-size="4" fill="#1e72f9">near</text>
<text x="603" y="142" font-size="4" fill="#1e72f9">horizon</text>
<text x="881" y="682" font-size="4" fill="#1e72f9">air</text>
<text x="457" y="878" font-size="4" fill="#1e72f9">smile</text>
<text x="550" y="493" font-size="4" transform="rotate(-90, 550, 493) translate(-10, 0)" fill="#1e72f9">sight</text>
<text x="457" y="185" font-size="4" fill="#1e72f9">distance</text>
<text x="416" y="110" font-size="4" fill="#1e72f9">direction</text>
<text x="486" y="318" font-size="4" fill="#1e72f9">approaching</text>
<text x="975" y="654" font-size="4" fill="#1e72f9">hatch</text>
<text x="808" y="666" font-size="4" fill="#1e72f9">narrow</text>
<text x="845" y="571" font-size="4" fill="#1e72f9">life</text>
<text x="820" y="826" font-size="4" fill="#1e72f9">bad</text>
<text x="769" y="704" font-size="4" fill="#1e72f9">uncle</text>
<text x="236" y="588" font-size="4" fill="#1e72f9">blaster</text>
<text x="942" y="623" font-size="4" fill="#1e72f9">seen</text>
<text x="721" y="592" font-size="4" fill="#1e72f9">line</text>
<text x="1027" y="744" font-size="4" fill="#1e72f9">shoulder</text>
<text x="557" y="598" font-size="4" fill="#1e72f9">master</text>
<text x="446" y="312" font-size="4" fill="#1e72f9">become</text>
<text x="182" y="471" font-size="4" fill="#1e72f9">range</text>
<text x="583" y="508" font-size="4" fill="#1e72f9">cell</text>
<text x="535" y="357" font-size="4" fill="#1e72f9">port</text>
<text x="560" y="267" font-size="4" fill="#1e72f9">wingmen</text>
<text x="449" y="144" font-size="4" fill="#1e72f9">REBEL BLOCKADE</text>
<text x="367" y="715" font-size="4" fill="#1e72f9">BLOCKADE RUNNER</text>
<text x="775" y="855" font-size="4" fill="#1e72f9">shakes head</text>
<text x="970" y="601" font-size="4" fill="#1e72f9">old Ben</text>
<text x="703" y="177" font-size="4" fill="#1e72f9">Rebel base</text>
<text x="601" y="755" font-size="4" fill="#1e72f9">CONTROL ROOM</text>
<text x="864" y="478" font-size="4" fill="#1e72f9">COCKPIT TRAVELING</text>
<text x="921" y="511" font-size="4" fill="#1e72f9">new</text>
<text x="854" y="372" font-size="4" fill="#1e72f9">home</text>
<text x="555" y="362" font-size="4" fill="#1e72f9">half</text>
<text x="365" y="561" font-size="4" fill="#1e72f9">Hurry</text>
<text x="383" y="469" font-size="4" fill="#1e72f9">young</text>
<text x="266" y="730" font-size="4" transform="rotate(-90, 266, 730) translate(-8, 0)" fill="#1e72f9">end</text>
<text x="929" y="667" font-size="4" fill="#1e72f9">soldier</text>
<text x="489" y="907" font-size="4" fill="#1e72f9">getting</text>
<text x="603" y="556" font-size="4" fill="#1e72f9">course</text>
<text x="529" y="395" font-size="4" transform="rotate(-90, 529, 395) translate(-12, 0)" fill="#1e72f9">worry</text>
<text x="794" y="397" font-size="4" fill="#1e72f9">fight</text>
<text x="583" y="332" font-size="4" fill="#1e72f9">part</text>
<text x="820" y="768" font-size="4" fill="#1e72f9">approaches</text>
<text x="929" y="327" font-size="4" fill="#1e72f9">sand</text>
<text x="869" y="452" font-size="4" fill="#1e72f9">whistle</text>
<text x="598" y="335" font-size="4" fill="#1e72f9">distant</text>
<text x="935" y="310" font-size="4" fill="#1e72f9">left</text>
<text x="792" y="686" font-size="4" fill="#1e72f9">might</text>
<text x="846" y="646" font-size="4" fill="#1e72f9">bit</text>
<text x="867" y="703" font-size="4" fill="#1e72f9">shoot</text>
<text x="980" y="667" font-size="4" fill="#1e72f9">followed</text>
<text x="205" y="252" font-size="4" fill="#1e72f9">Uh</text>
<text x="826" y="415" font-size="4" fill="#1e72f9">hangar</text>
<text x="833" y="183" font-size="4" fill="#1e72f9">able</text>
<text x="840" y="162" font-size="4" transform="rotate(-90, 840, 162) translate(-11, 0)" fill="#1e72f9">blow</text>
<text x="685" y="769" font-size="4" fill="#1e72f9">bartender</text>
<text x="465" y="723" font-size="4" fill="#1e72f9">fast</text>
<text x="361" y="143" font-size="4" fill="#1e72f9">check</text>
<text x="742" y="467" font-size="4" fill="#1e72f9">GREEDO</text>
<text x="685" y="905" font-size="4" fill="#1e72f9">green</text>
<text x="1024" y="527" font-size="4" fill="#1e72f9">crew</text>
<text x="747" y="372" font-size="4" fill="#1e72f9">flame</text>
<text x="181" y="479" font-size="4" fill="#1e72f9">tower</text>
<text x="446" y="530" font-size="4" fill="#1e72f9">headset</text>
<text x="845" y="242" font-size="4" fill="#1e72f9">Uncle Owen</text>
<text x="382" y="379" font-size="4" transform="rotate(-90, 382, 379) translate(-24, 0)" fill="#1e72f9">HOLD AREA</text>
<text x="550" y="667" font-size="4" fill="#1e72f9">TATOOINE MOS</text>
<text x="441" y="362" font-size="4" fill="#1e72f9">Han Solo</text>
<text x="741" y="221" font-size="4" fill="#1e72f9">control panel</text>
<text x="493" y="819" font-size="4" fill="#1e72f9">Imperial fighter</text>
<text x="783" y="365" font-size="4" fill="#1e72f9">MAIN FORWARD</text>
<text x="775" y="167" font-size="4" transform="rotate(-90, 775, 167) translate(-19, 0)" fill="#1e72f9">three TIE</text>
<text x="469" y="104" font-size="4" fill="#1e72f9">galaxy</text>
<text x="383" y="360" font-size="4" fill="#1e72f9">aboard</text>
<text x="710" y="896" font-size="4" fill="#1e72f9">human</text>
<text x="944" y="291" font-size="4" fill="#1e72f9">rush</text>
<text x="274" y="356" font-size="4" fill="#1e72f9">filled</text>
<text x="307" y="143" font-size="4" fill="#1e72f9">morning</text>
<text x="631" y="277" font-size="4" fill="#1e72f9">seven</text>
<text x="989" y="615" font-size="4" fill="#1e72f9">Dark</text>
<text x="582" y="615" font-size="4" fill="#1e72f9">mission</text>
<text x="617" y="243" font-size="4" fill="#1e72f9">RED</text>
<text x="937" y="474" font-size="4" fill="#1e72f9">call</text>
<text x="724" y="149" font-size="4" transform="rotate(-90, 724, 149) translate(-14, 0)" fill="#1e72f9">talking</text>
<text x="640" y="779" font-size="4" fill="#1e72f9">rest</text>
<text x="413" y="143" font-size="4" fill="#1e72f9">background</text>
<text x="413" y="332" font-size="4" transform="rotate(-90, 413, 332) translate(-9, 0)" fill="#1e72f9">shot</text>
<text x="881" y="262" font-size="4" fill="#1e72f9">happened</text>
<text x="787" y="735" font-size="4" fill="#1e72f9">came</text>
<text x="324" y="472" font-size="4" fill="#1e72f9">low</text>
<text x="637" y="837" font-size="4" fill="#1e72f9">gets</text>
<text x="383" y="615" font-size="4" fill="#1e72f9">may</text>
<text x="469" y="406" font-size="4" fill="#1e72f9">HOMESTEAD</text>
<text x="609" y="834" font-size="4" transform="rotate(-90, 609, 834) translate(-14, 0)" fill="#1e72f9">quickly</text>
<text x="598" y="429" font-size="4" fill="#1e72f9">garage</text>
<text x="211" y="722" font-size="4" fill="#1e72f9">Yeah</text>
<text x="159" y="645" font-size="4" fill="#1e72f9">trouble</text>
<text x="177" y="607" font-size="4" fill="#1e72f9">tries</text>
<text x="708" y="184" font-size="4" fill="#1e72f9">gone</text>
<text x="301" y="711" font-size="4" transform="rotate(-90, 301, 711) translate(-7, 0)" fill="#1e72f9">yell</text>
<text x="800" y="842" font-size="4" fill="#1e72f9">closer</text>
<text x="459" y="193" font-size="4" fill="#1e72f9">step</text>
<text x="515" y="250" font-size="4" fill="#1e72f9">return</text>
<text x="511" y="259" font-size="4" fill="#1e72f9">lightsaber</text>
<text x="411" y="806" font-size="4" fill="#1e72f9">thousand</text>
<text x="713" y="430" font-size="4" fill="#1e72f9">together</text>
<text x="708" y="221" font-size="4" fill="#1e72f9">information</text>
<text x="540" y="637" font-size="4" fill="#1e72f9">readout</text>
<text x="548" y="555" font-size="4" fill="#1e72f9">ready</text>
<text x="422" y="469" font-size="4" fill="#1e72f9">burst</text>
<text x="240" y="793" font-size="4" fill="#1e72f9">enemy</text>
<text x="923" y="376" font-size="4" fill="#1e72f9">climb</text>
<text x="600" y="919" font-size="4" fill="#1e72f9">shadow</text>
<text x="149" y="772" font-size="4" fill="#1e72f9">adjust</text>
<text x="162" y="915" font-size="4" fill="#1e72f9">Dark Lord</text>
<text x="267" y="264" font-size="4" fill="#1e72f9">power station</text>
<text x="335" y="339" font-size="4" transform="rotate(-90, 335, 339) translate(-38, 0)" fill="#1e72f9">LARS HOMESTEAD</text>
<text x="364" y="585" font-size="4" fill="#1e72f9">old man</text>
<text x="877" y="373" font-size="4" fill="#1e72f9">Han Chewie</text>
<text x="923" y="425" font-size="4" fill="#1e72f9">Han Chewbacca</text>
<text x="874" y="572" font-size="4" fill="#1e72f9">SPACE TIE</text>
<text x="418" y="584" font-size="4" fill="#1e72f9">tractor beam</text>
<text x="253" y="833" font-size="4" transform="rotate(-90, 253, 833) translate(-35, 0)" fill="#1e72f9">GARBAGE ROOM</text>
<text x="316" y="663" font-size="4" fill="#1e72f9">exhaust port</text>
<text x="794" y="771" font-size="4" transform="rotate(-90, 794, 771) translate(-32, 0)" fill="#1e72f9">COCKPIT Wedge</text>
<text x="472" y="869" font-size="4" fill="#1e72f9">ROOM Leia</text>
<text x="485" y="530" font-size="4" transform="rotate(-90, 485, 530) translate(-30, 0)" fill="#1e72f9">adjusts control</text>
<text x="670" y="345" font-size="4" fill="#1e72f9">control stick</text>
<text x="616" y="106" font-size="4" fill="#1e72f9">armored</text>
<text x="997" y="413" font-size="4" fill="#1e72f9">shaking</text>
<text x="772" y="397" font-size="4" fill="#1e72f9">scream</text>
<text x="586" y="586" font-size="4" fill="#1e72f9">creating</text>
<text x="1062" y="671" font-size="4" fill="#1e72f9">desert</text>
<text x="417" y="715" font-size="4" fill="#1e72f9">white</text>
<text x="940" y="298" font-size="4" fill="#1e72f9">Landspeeder</text>
<text x="81" y="782" font-size="4" fill="#1e72f9">leaving</text>
<text x="807" y="608" font-size="4" fill="#1e72f9">quiet</text>
<text x="486" y="609" font-size="4" fill="#1e72f9">heading</text>
<text x="511" y="919" font-size="4" fill="#1e72f9">bring</text>
<text x="1056" y="718" font-size="4" fill="#1e72f9">set</text>
<text x="509" y="196" font-size="4" fill="#1e72f9">told</text>
<text x="1060" y="631" font-size="4" fill="#1e72f9">yelling</text>
<text x="178" y="621" font-size="4" fill="#1e72f9">easy</text>
<text x="978" y="430" font-size="4" fill="#1e72f9">nothing</text>
<text x="498" y="893" font-size="4" fill="#1e72f9">made</text>
<text x="238" y="570" font-size="4" fill="#1e72f9">reply</text>
<text x="666" y="179" font-size="4" fill="#1e72f9">pay</text>
<text x="133" y="852" font-size="4" transform="rotate(-90, 133, 852) translate(-8, 0)" fill="#1e72f9">said</text>
<text x="847" y="166" font-size="4" fill="#1e72f9">best</text>
<text x="829" y="735" font-size="4" fill="#1e72f9">strange</text>
<text x="991" y="401" font-size="4" fill="#1e72f9">approach</text>
<text x="752" y="881" font-size="4" fill="#1e72f9">pop</text>
<text x="808" y="616" font-size="4" fill="#1e72f9">edge</text>
<text x="206" y="662" font-size="4" fill="#1e72f9">blue</text>
<text x="223" y="536" font-size="4" fill="#1e72f9">lost</text>
<text x="1025" y="515" font-size="4" fill="#1e72f9">center</text>
<text x="732" y="352" font-size="4" fill="#1e72f9">mind</text>
<text x="941" y="362" font-size="4" fill="#1e72f9">bar</text>
<text x="843" y="792" font-size="4" fill="#1e72f9">massive</text>
<text x="721" y="286" font-size="4" fill="#1e72f9">view</text>
<text x="979" y="728" font-size="4" fill="#1e72f9">walk</text>
<text x="131" y="702" font-size="4" transform="rotate(-90, 131, 702) translate(-22, 0)" fill="#1e72f9">everything</text>
<text x="697" y="193" font-size="4" fill="#1e72f9">corner</text>
<text x="660" y="703" font-size="4" transform="rotate(-90, 660, 703) translate(-16, 0)" fill="#1e72f9">button</text>
<text x="565" y="106" font-size="4" fill="#1e72f9">transmission</text>
<text x="388" y="177" font-size="4" fill="#1e72f9">twenty</text>
<text x="638" y="812" font-size="4" fill="#1e72f9">round</text>
<text x="760" y="152" font-size="4" fill="#1e72f9">charge</text>
<text x="342" y="377" font-size="4" fill="#1e72f9">helmet</text>
<text x="533" y="404" font-size="4" fill="#1e72f9">copy</text>
<text x="325" y="616" font-size="4" fill="#1e72f9">cover</text>
<text x="371" y="493" font-size="4" fill="#1e72f9">peel</text>
<text x="360" y="600" font-size="4" transform="rotate(-90, 360, 600) translate(-20, 0)" fill="#1e72f9">Lord Vader</text>
<text x="382" y="424" font-size="4" transform="rotate(-90, 382, 424) translate(-35, 0)" fill="#1e72f9">TATOOINE ROCK</text>
<text x="186" y="493" font-size="4" transform="rotate(-90, 186, 493) translate(-32, 0)" fill="#1e72f9">EISLEY STREET</text>
<text x="1000" y="506" font-size="4" transform="rotate(-90, 1000, 506) translate(-29, 0)" fill="#1e72f9">cockpit window</text>
<text x="801" y="560" font-size="4" fill="#1e72f9">Two TIE</text>
<text x="431" y="671" font-size="4" transform="rotate(-90, 431, 671) translate(-33, 0)" fill="#1e72f9">LEADER headset</text>
</svg>
