<svg width="1190" height="1028" xmlns="http://www.w3.org/2000/svg">
    <defs><style type="text/css">
    @import url("https://fonts.googleapis.com/css?family=Mountains+of+Christmas:700");
    text {font-family: 'Mountains of Christmas', cursive;font-weight:bold;
    font-kerning:none;
    font-variant-ligatures:none}
    </style></defs>
<text x="477" y="779" font-size="124" fill="#1e72f9">Luke</text>
<text x="467" y="496" font-size="88" fill="#1e72f9">Han</text>
<text x="341" y="206" font-size="85" fill="#1e72f9">DEATH STAR</text>
<text x="158" y="693" font-size="76" fill="#1e72f9">THREEPIO</text>
<text x="305" y="368" font-size="68" fill="#1e72f9">Ben</text>
<text x="898" y="555" font-size="59" fill="#1e72f9">ship</text>
<text x="602" y="561" font-size="57" fill="#1e72f9">Leia</text>
<text x="319" y="424" font-size="54" fill="#1e72f9">one</text>
<text x="936" y="380" font-size="52" transform="rotate(-90, 936, 380) translate(-93, 0)" fill="#1e72f9">look</text>
<text x="599" y="617" font-size="52" fill="#1e72f9">RED LEADER</text>
<text x="712" y="793" font-size="51" fill="#1e72f9">Artoo</text>
<text x="148" y="749" font-size="50" fill="#1e72f9">back</text>
<text x="115" y="785" font-size="49" fill="#1e72f9">move</text>
<text x="662" y="846" font-size="47" fill="#1e72f9">going</text>
<text x="279" y="556" font-size="46" transform="rotate(-90, 279, 556) translate(-70, 0)" fill="#1e72f9">two</text>
<text x="949" y="695" font-size="46" fill="#1e72f9">Biggs</text>
<text x="630" y="666" font-size="43" fill="#1e72f9">TIE fighter</text>
<text x="317" y="157" font-size="42" transform="rotate(-90, 317, 157) translate(-91, 0)" fill="#1e72f9">Vader</text>
<text x="609" y="894" font-size="41" fill="#1e72f9">see</text>
<text x="495" y="252" font-size="34" fill="#1e72f9">MILLENNIUM FALCON</text>
<text x="853" y="730" font-size="33" fill="#1e72f9">toward</text>
<text x="242" y="414" font-size="33" fill="#1e72f9">right</text>
<text x="603" y="490" font-size="33" fill="#1e72f9">Luke WING</text>
<text x="212" y="465" font-size="33" transform="rotate(-90, 212, 465) translate(-62, 0)" fill="#1e72f9">come</text>
<text x="345" y="604" font-size="33" fill="#1e72f9">trooper</text>
<text x="397" y="490" font-size="32" fill="#1e72f9">robot</text>
<text x="508" y="555" font-size="32" fill="#1e72f9">small</text>
<text x="763" y="402" font-size="31" fill="#1e72f9">SPACE</text>
<text x="471" y="107" font-size="30" fill="#1e72f9">now</text>
<text x="227" y="455" font-size="30" fill="#1e72f9">WING FIGHTER</text>
<text x="908" y="302" font-size="30" fill="#1e72f9">take</text>
<text x="415" y="758" font-size="30" fill="#1e72f9">begin</text>
<text x="913" y="612" font-size="30" fill="#1e72f9">make</text>
<text x="708" y="715" font-size="29" fill="#1e72f9">away</text>
<text x="881" y="243" font-size="29" fill="#1e72f9">fire</text>
<text x="1023" y="647" font-size="29" fill="#1e72f9">will</text>
<text x="448" y="829" font-size="29" fill="#1e72f9">turn</text>
<text x="585" y="114" font-size="29" fill="#1e72f9">stand</text>
<text x="350" y="238" font-size="26" fill="#1e72f9">stormtrooper</text>
<text x="739" y="421" font-size="25" fill="#1e72f9">way</text>
<text x="758" y="286" font-size="25" fill="#1e72f9">side</text>
<text x="393" y="417" font-size="24" fill="#1e72f9">COCKPIT Luke</text>
<text x="121" y="823" font-size="24" fill="#1e72f9">sir</text>
<text x="525" y="678" font-size="24" fill="#1e72f9">think</text>
<text x="723" y="855" font-size="24" transform="rotate(-90, 723, 855) translate(-39, 0)" fill="#1e72f9">head</text>
<text x="330" y="718" font-size="20" fill="#1e72f9">DARTH VADER</text>
<text x="878" y="445" font-size="20" transform="rotate(-90, 878, 445) translate(-112, 0)" fill="#1e72f9">GOLD LEADER</text>
<text x="767" y="822" font-size="20" fill="#1e72f9">huge</text>
<text x="312" y="583" font-size="20" fill="#1e72f9">got</text>
<text x="959" y="349" font-size="20" fill="#1e72f9">us</text>
<text x="365" y="123" font-size="20" fill="#1e72f9">time</text>
<text x="798" y="206" font-size="20" fill="#1e72f9">computer</text>
<text x="653" y="275" font-size="20" fill="#1e72f9">several</text>
<text x="185" y="561" font-size="20" transform="rotate(-90, 185, 561) translate(-41, 0)" fill="#1e72f9">Rebel</text>
<text x="697" y="535" font-size="20" fill="#1e72f9">know</text>
<text x="649" y="124" font-size="20" fill="#1e72f9">Chewbacca</text>
<text x="964" y="368" font-size="20" transform="rotate(-90, 964, 368) translate(-137, 0)" fill="#1e72f9">SURFACE DEATH</text>
<text x="984" y="591" font-size="20" fill="#1e72f9">long</text>
<text x="440" y="130" font-size="20" fill="#1e72f9">OFFICER</text>
<text x="830" y="767" font-size="20" fill="#1e72f9">across</text>
<text x="623" y="701" font-size="20" fill="#1e72f9">OWEN</text>
<text x="263" y="184" font-size="20" transform="rotate(-90, 263, 184) translate(-79, 0)" fill="#1e72f9">pirateship</text>
<text x="549" y="801" font-size="19" fill="#1e72f9">something</text>
<text x="87" y="789" font-size="19" fill="#1e72f9">go</text>
<text x="450" y="867" font-size="19" fill="#1e72f9">control</text>
<text x="422" y="518" font-size="16" fill="#1e72f9">FIGHTER COCKPIT</text>
<text x="414" y="373" font-size="16" fill="#1e72f9">behind</text>
<text x="231" y="485" font-size="16" fill="#1e72f9">hit</text>
<text x="781" y="170" font-size="16" fill="#1e72f9">light</text>
<text x="150" y="807" font-size="16" fill="#1e72f9">WING COCKPIT</text>
<text x="536" y="580" font-size="16" fill="#1e72f9">Imperial</text>
<text x="1046" y="689" font-size="16" fill="#1e72f9">around</text>
<text x="445" y="624" font-size="16" fill="#1e72f9">Suddenly</text>
<text x="421" y="438" font-size="16" fill="#1e72f9">troops</text>
<text x="595" y="636" font-size="16" fill="#1e72f9">eye</text>
<text x="523" y="917" font-size="16" fill="#1e72f9">start</text>
<text x="806" y="235" font-size="16" fill="#1e72f9">TARKIN</text>
<text x="182" y="910" font-size="16" fill="#1e72f9">Luke look</text>
<text x="921" y="735" font-size="16" transform="rotate(-90, 921, 735) translate(-29, 0)" fill="#1e72f9">hand</text>
<text x="528" y="106" font-size="16" fill="#1e72f9">another</text>
<text x="1033" y="720" font-size="16" fill="#1e72f9">hallway</text>
<text x="332" y="475" font-size="16" fill="#1e72f9">little</text>
<text x="431" y="797" font-size="16" fill="#1e72f9">VOICE</text>
<text x="495" y="653" font-size="16" fill="#1e72f9">face</text>
<text x="246" y="892" font-size="16" fill="#1e72f9">blast</text>
<text x="611" y="838" font-size="16" fill="#1e72f9">large</text>
<text x="1002" y="564" font-size="16" fill="#1e72f9">wall</text>
<text x="870" y="585" font-size="16" fill="#1e72f9">creature</text>
<text x="734" y="558" font-size="16" fill="#1e72f9">give</text>
<text x="881" y="616" font-size="16" fill="#1e72f9">run</text>
<text x="997" y="535" font-size="16" fill="#1e72f9">pilot</text>
<text x="536" y="691" font-size="16" fill="#1e72f9">race</text>
<text x="711" y="272" font-size="16" fill="#1e72f9">seem</text>
<text x="906" y="688" font-size="16" fill="#1e72f9">Force</text>
<text x="290" y="617" font-size="16" fill="#1e72f9">trench</text>
<text x="697" y="741" font-size="15" fill="#1e72f9">SPACE AROUND</text>
<text x="686" y="449" font-size="14" fill="#1e72f9">AROUND DEATH</text>
<text x="302" y="550" font-size="14" fill="#1e72f9">door</text>
<text x="670" y="865" font-size="14" transform="rotate(-90, 670, 865) translate(-40, 0)" fill="#1e72f9">system</text>
<text x="112" y="870" font-size="14" fill="#1e72f9">stop</text>
<text x="367" y="476" font-size="14" fill="#1e72f9">Well</text>
<text x="974" y="423" font-size="14" fill="#1e72f9">Jawa</text>
<text x="553" y="434" font-size="14" fill="#1e72f9">looking</text>
<text x="766" y="846" font-size="14" fill="#1e72f9">Solo</text>
<text x="634" y="807" font-size="14" fill="#1e72f9">Star surface</text>
<text x="458" y="540" font-size="14" fill="#1e72f9">surface</text>
<text x="1023" y="737" font-size="14" fill="#1e72f9">past</text>
<text x="858" y="385" font-size="14" fill="#1e72f9">laserfire</text>
<text x="363" y="317" font-size="14" fill="#1e72f9">Alderaan</text>
<text x="567" y="911" font-size="14" fill="#1e72f9">pull</text>
<text x="243" y="720" font-size="14" fill="#1e72f9">COCKPIT Red</text>
<text x="606" y="442" font-size="14" fill="#1e72f9">power</text>
<text x="135" y="681" font-size="14" fill="#1e72f9">old</text>
<text x="1008" y="622" font-size="14" transform="rotate(-90, 1008, 622) translate(-29, 0)" fill="#1e72f9">must</text>
<text x="404" y="742" font-size="14" transform="rotate(-90, 404, 742) translate(-39, 0)" fill="#1e72f9">WEDGE</text>
<text x="582" y="507" font-size="11" fill="#1e72f9">MASSASSI OUTPOST</text>
<text x="536" y="125" font-size="11" fill="#1e72f9">Princess</text>
<text x="948" y="328" font-size="11" fill="#1e72f9">sound</text>
<text x="838" y="747" font-size="11" fill="#1e72f9">hold</text>
<text x="576" y="592" font-size="11" fill="#1e72f9">say</text>
<text x="794" y="798" font-size="11" fill="#1e72f9">WAR ROOM</text>
<text x="179" y="546" font-size="11" fill="#1e72f9">RED TEN</text>
<text x="650" y="453" font-size="11" fill="#1e72f9">want</text>
<text x="113" y="889" font-size="11" fill="#1e72f9">good</text>
<text x="980" y="727" font-size="11" fill="#1e72f9">droid</text>
<text x="577" y="268" font-size="11" fill="#1e72f9">continue</text>
<text x="626" y="912" font-size="11" fill="#1e72f9">dive</text>
<text x="418" y="103" font-size="11" fill="#1e72f9">GOLD FIVE</text>
<text x="703" y="503" font-size="11" fill="#1e72f9">sure</text>
<text x="81" y="817" font-size="11" fill="#1e72f9">front</text>
<text x="885" y="267" font-size="11" fill="#1e72f9">friend</text>
<text x="953" y="735" font-size="11" fill="#1e72f9">wait</text>
<text x="828" y="643" font-size="11" fill="#1e72f9">find</text>
<text x="199" y="272" font-size="11" fill="#1e72f9">standing</text>
<text x="588" y="516" font-size="11" transform="rotate(-90, 588, 516) translate(-33, 0)" fill="#1e72f9">speeder</text>
<text x="362" y="733" font-size="11" fill="#1e72f9">gun</text>
<text x="363" y="386" font-size="11" fill="#1e72f9">comlink</text>
<text x="978" y="611" font-size="11" fill="#1e72f9">VADER COCKPIT</text>
<text x="371" y="252" font-size="11" fill="#1e72f9">COCKPIT Vader</text>
<text x="815" y="170" font-size="11" fill="#1e72f9">starship</text>
<text x="518" y="130" font-size="11" fill="#1e72f9">sit</text>
<text x="848" y="428" font-size="11" fill="#1e72f9">moment</text>
<text x="320" y="244" font-size="11" fill="#1e72f9">enter</text>
<text x="519" y="800" font-size="11" fill="#1e72f9">thing</text>
<text x="471" y="885" font-size="11" fill="#1e72f9">coming</text>
<text x="348" y="572" font-size="11" fill="#1e72f9">Obi Wan</text>
<text x="405" y="387" font-size="11" fill="#1e72f9">FALCON COCKPIT</text>
<text x="334" y="148" font-size="11" transform="rotate(-90, 334, 148) translate(-80, 0)" fill="#1e72f9">LEADER COCKPIT</text>
<text x="749" y="684" font-size="11" fill="#1e72f9">LEADER WING</text>
<text x="696" y="683" font-size="11" transform="rotate(-90, 696, 683) translate(-29, 0)" fill="#1e72f9">planet</text>
<text x="863" y="744" font-size="11" fill="#1e72f9">close</text>
<text x="278" y="369" font-size="11" fill="#1e72f9">group</text>
<text x="507" y="624" font-size="11" fill="#1e72f9">let</text>
<text x="405" y="127" font-size="11" fill="#1e72f9">attack</text>
<text x="339" y="622" font-size="11" fill="#1e72f9">Chewie</text>
<text x="888" y="491" font-size="11" fill="#1e72f9">Princess Leia</text>
<text x="90" y="842" font-size="11" fill="#1e72f9">MOS EISLEY</text>
<text x="275" y="466" font-size="8" fill="#1e72f9">targeting device</text>
<text x="434" y="610" font-size="8" transform="rotate(-90, 434, 610) translate(-19, 0)" fill="#1e72f9">short</text>
<text x="694" y="560" font-size="8" fill="#1e72f9">much</text>
<text x="806" y="745" font-size="8" fill="#1e72f9">watches</text>
<text x="397" y="627" font-size="8" fill="#1e72f9">work</text>
<text x="937" y="569" font-size="8" fill="#1e72f9">help</text>
<text x="981" y="508" font-size="8" fill="#1e72f9">put</text>
<text x="483" y="562" font-size="8" fill="#1e72f9">Oh</text>
<text x="546" y="643" font-size="8" fill="#1e72f9">father</text>
<text x="615" y="854" font-size="8" fill="#1e72f9">position</text>
<text x="747" y="876" font-size="8" fill="#1e72f9">point</text>
<text x="815" y="564" font-size="8" fill="#1e72f9">docking bay</text>
<text x="577" y="655" font-size="8" fill="#1e72f9">OUTPOST WAR</text>
<text x="198" y="447" font-size="8" fill="#1e72f9">weapon</text>
<text x="238" y="776" font-size="8" fill="#1e72f9">along</text>
<text x="582" y="608" font-size="8" fill="#1e72f9">hear</text>
<text x="370" y="211" font-size="8" fill="#1e72f9">shut</text>
<text x="513" y="724" font-size="8" fill="#1e72f9">heard</text>
<text x="230" y="250" font-size="8" fill="#1e72f9">last</text>
<text x="589" y="131" font-size="8" fill="#1e72f9">even</text>
<text x="509" y="571" font-size="8" fill="#1e72f9">guard</text>
<text x="250" y="731" font-size="8" fill="#1e72f9">laserbolt</text>
<text x="142" y="896" font-size="8" fill="#1e72f9">appear</text>
<text x="436" y="840" font-size="8" fill="#1e72f9">Artoo Detoo</text>
<text x="376" y="624" font-size="8" fill="#1e72f9">far</text>
<text x="972" y="392" font-size="8" fill="#1e72f9">Empire</text>
<text x="116" y="738" font-size="8" fill="#1e72f9">enough</text>
<text x="756" y="134" font-size="8" fill="#1e72f9">explosion</text>
<text x="862" y="402" font-size="8" fill="#1e72f9">floor</text>
<text x="402" y="348" font-size="8" fill="#1e72f9">follow</text>
<text x="236" y="590" font-size="8" transform="rotate(-90, 236, 590) translate(-16, 0)" fill="#1e72f9">four</text>
<text x="728" y="886" font-size="8" fill="#1e72f9">kid</text>
<text x="477" y="797" font-size="8" fill="#1e72f9">Sandpeople</text>
<text x="914" y="320" font-size="8" fill="#1e72f9">open</text>
<text x="219" y="420" font-size="8" fill="#1e72f9">Jabba</text>
<text x="266" y="178" font-size="8" fill="#1e72f9">screen</text>
<text x="498" y="911" font-size="8" fill="#1e72f9">plan</text>
<text x="678" y="877" font-size="8" fill="#1e72f9">explode</text>
<text x="364" y="489" font-size="8" fill="#1e72f9">Dodonna</text>
<text x="458" y="706" font-size="8" fill="#1e72f9">zoom</text>
<text x="746" y="366" font-size="8" fill="#1e72f9">INTERCOM VOICE</text>
<text x="865" y="699" font-size="8" fill="#1e72f9">COCKPIT Gold</text>
<text x="220" y="230" font-size="8" fill="#1e72f9">firing</text>
<text x="508" y="752" font-size="8" fill="#1e72f9">streak</text>
<text x="163" y="711" font-size="8" fill="#1e72f9">electronic</text>
<text x="153" y="693" font-size="8" fill="#1e72f9">boy</text>
<text x="926" y="742" font-size="8" fill="#1e72f9">next</text>
<text x="767" y="860" font-size="8" fill="#1e72f9">minute</text>
<text x="1006" y="424" font-size="8" fill="#1e72f9">goes</text>
<text x="1047" y="665" font-size="8" fill="#1e72f9">Commander</text>
<text x="588" y="157" font-size="8" transform="rotate(-90, 588, 157) translate(-17, 0)" fill="#1e72f9">laser</text>
<text x="276" y="545" font-size="8" fill="#1e72f9">man</text>
<text x="1014" y="658" font-size="8" fill="#1e72f9">almost</text>
<text x="260" y="376" font-size="8" fill="#1e72f9">tell</text>
<text x="261" y="460" font-size="8" transform="rotate(-90, 261, 460) translate(-13, 0)" fill="#1e72f9">area</text>
<text x="827" y="721" font-size="8" fill="#1e72f9">watch</text>
<text x="710" y="285" font-size="8" fill="#1e72f9">formation</text>
<text x="778" y="147" font-size="8" fill="#1e72f9">little Artoo</text>
<text x="299" y="562" font-size="8" fill="#1e72f9">slowly</text>
<text x="816" y="822" font-size="8" fill="#1e72f9">first</text>
<text x="247" y="834" font-size="8" transform="rotate(-90, 247, 834) translate(-24, 0)" fill="#1e72f9">station</text>
<text x="888" y="445" font-size="8" fill="#1e72f9">tiny</text>
<text x="493" y="666" font-size="8" fill="#1e72f9">giant</text>
<text x="322" y="383" font-size="8" fill="#1e72f9">better</text>
<text x="385" y="504" font-size="8" fill="#1e72f9">DAY</text>
<text x="214" y="519" font-size="8" fill="#1e72f9">speak</text>
<text x="692" y="494" font-size="8" transform="rotate(-90, 692, 494) translate(-14, 0)" fill="#1e72f9">dead</text>
<text x="917" y="257" font-size="8" fill="#1e72f9">thought</text>
<text x="956" y="713" font-size="8" fill="#1e72f9">big</text>
<text x="441" y="454" font-size="8" fill="#1e72f9">second</text>
<text x="859" y="783" font-size="8" fill="#1e72f9">really</text>
<text x="603" y="912" font-size="8" fill="#1e72f9">three</text>
<text x="778" y="633" font-size="8" fill="#1e72f9">Sandcrawler</text>
<text x="586" y="816" font-size="8" fill="#1e72f9">beep</text>
<text x="888" y="747" font-size="8" fill="#1e72f9">Stay</text>
<text x="238" y="815" font-size="8" transform="rotate(-90, 238, 815) translate(-13, 0)" fill="#1e72f9">arm</text>
<text x="620" y="270" font-size="8" fill="#1e72f9">Wookiee</text>
<text x="412" y="452" font-size="8" fill="#1e72f9">moon</text>
<text x="417" y="765" font-size="8" transform="rotate(-90, 417, 765) translate(-44, 0)" fill="#1e72f9">battle station</text>
<text x="608" y="130" font-size="8" fill="#1e72f9">LUKE Well</text>
<text x="997" y="514" font-size="8" fill="#1e72f9">looks around</text>
<text x="481" y="631" font-size="8" transform="rotate(-90, 481, 631) translate(-46, 0)" fill="#1e72f9">beeping sound</text>
<text x="307" y="256" font-size="8" fill="#1e72f9">laser cannon</text>
<text x="806" y="182" font-size="8" fill="#1e72f9">outside</text>
<text x="463" y="250" font-size="8" fill="#1e72f9">corridor</text>
<text x="342" y="324" font-size="8" fill="#1e72f9">feet</text>
<text x="884" y="208" font-size="8" fill="#1e72f9">place</text>
<text x="293" y="314" font-size="8" transform="rotate(-90, 293, 314) translate(-37, 0)" fill="#1e72f9">subhallway</text>
<text x="590" y="191" font-size="8" transform="rotate(-90, 590, 191) translate(-20, 0)" fill="#1e72f9">rushes</text>
<text x="556" y="517" font-size="8" fill="#1e72f9">found</text>
<text x="955" y="622" font-size="8" transform="rotate(-90, 955, 622) translate(-19, 0)" fill="#1e72f9">great</text>
<text x="294" y="570" font-size="8" transform="rotate(-90, 294, 570) translate(-29, 0)" fill="#1e72f9">Rebellion</text>
<text x="220" y="617" font-size="8" fill="#1e72f9">cut</text>
<text x="509" y="816" font-size="8" fill="#1e72f9">spot</text>
<text x="975" y="355" font-size="8" transform="rotate(-90, 975, 355) translate(-18, 0)" fill="#1e72f9">jump</text>
<text x="463" y="722" font-size="8" fill="#1e72f9">Listen</text>
<text x="401" y="329" font-size="8" fill="#1e72f9">trying</text>
<text x="194" y="556" font-size="8" fill="#1e72f9">never</text>
<text x="398" y="103" font-size="8" fill="#1e72f9">need</text>
<text x="693" y="841" font-size="8" transform="rotate(-90, 693, 841) translate(-16, 0)" fill="#1e72f9">Okay</text>
<text x="710" y="137" font-size="8" fill="#1e72f9">reaches</text>
<text x="508" y="892" font-size="8" fill="#1e72f9">year</text>
<text x="928" y="581" font-size="8" fill="#1e72f9">still</text>
<text x="456" y="597" font-size="8" fill="#1e72f9">try</text>
<text x="219" y="500" font-size="8" fill="#1e72f9">speaker</text>
<text x="765" y="566" font-size="7" fill="#1e72f9">THREEPIO Artoo</text>
<text x="723" y="808" font-size="7" fill="#1e72f9">laser pistol</text>
<text x="867" y="595" font-size="7" fill="#1e72f9">Artoo beeps</text>
<text x="674" y="755" font-size="7" fill="#1e72f9">Wan Kenobi</text>
<text x="771" y="296" font-size="7" fill="#1e72f9">Imperial TIE</text>
<text x="418" y="314" font-size="6" fill="#1e72f9">FALCON GUNPORT</text>
<text x="100" y="796" font-size="6" fill="#1e72f9">BIGGS' COCKPIT</text>
<text x="289" y="152" font-size="6" fill="#1e72f9">STAR Three</text>
<text x="343" y="124" font-size="6" fill="#1e72f9">main</text>
<text x="834" y="413" font-size="6" fill="#1e72f9">battle</text>
<text x="209" y="626" font-size="6" fill="#1e72f9">TATOOINE</text>
<text x="529" y="529" font-size="6" fill="#1e72f9">battered</text>
<text x="509" y="705" font-size="6" fill="#1e72f9">aim</text>
<text x="549" y="594" font-size="6" fill="#1e72f9">moving</text>
<text x="572" y="694" font-size="6" fill="#1e72f9">Hey</text>
<text x="921" y="667" font-size="6" fill="#1e72f9">ROOM</text>
<text x="888" y="519" font-size="6" fill="#1e72f9">lot</text>
<text x="429" y="821" font-size="6" fill="#1e72f9">keep</text>
<text x="853" y="636" font-size="6" fill="#1e72f9">anything</text>
<text x="573" y="88" font-size="6" fill="#1e72f9">leave</text>
<text x="652" y="819" font-size="6" transform="rotate(-90, 652, 819) translate(-17, 0)" fill="#1e72f9">canyon</text>
<text x="144" y="908" font-size="6" fill="#1e72f9">quite</text>
<text x="801" y="838" font-size="6" fill="#1e72f9">speed</text>
<text x="770" y="712" font-size="6" fill="#1e72f9">table</text>
<text x="482" y="841" font-size="6" fill="#1e72f9">disappear</text>
<text x="178" y="619" font-size="6" fill="#1e72f9">use</text>
<text x="175" y="630" font-size="6" fill="#1e72f9">Five</text>
<text x="391" y="732" font-size="6" fill="#1e72f9">board</text>
<text x="790" y="754" font-size="6" fill="#1e72f9">target</text>
<text x="276" y="561" font-size="6" fill="#1e72f9">grab</text>
<text x="883" y="765" font-size="6" fill="#1e72f9">R2 unit</text>
<text x="776" y="185" font-size="6" fill="#1e72f9">Aunt Beru</text>
<text x="665" y="519" font-size="6" fill="#1e72f9">Ben Kenobi</text>
<text x="712" y="691" font-size="6" fill="#1e72f9">toward Death</text>
<text x="888" y="503" font-size="6" fill="#1e72f9">TIE ship</text>
<text x="537" y="264" font-size="6" fill="#1e72f9">STAR MAIN</text>
<text x="100" y="753" font-size="6" fill="#1e72f9">FORWARD BAY</text>
<text x="832" y="181" font-size="5" fill="#1e72f9">Imperial stormtrooper</text>
<text x="648" y="99" font-size="5" fill="#1e72f9">Rebel fighter</text>
<text x="330" y="553" font-size="5" fill="#1e72f9">STAR TRENCH</text>
<text x="192" y="564" font-size="5" fill="#1e72f9">struggle</text>
<text x="253" y="747" font-size="5" fill="#1e72f9">smoke</text>
<text x="130" y="704" font-size="5" fill="#1e72f9">near</text>
<text x="293" y="629" font-size="5" fill="#1e72f9">horizon</text>
<text x="158" y="670" font-size="5" fill="#1e72f9">air</text>
<text x="576" y="922" font-size="5" fill="#1e72f9">smile</text>
<text x="684" y="899" font-size="5" fill="#1e72f9">sight</text>
<text x="514" y="636" font-size="5" fill="#1e72f9">distance</text>
<text x="622" y="516" font-size="5" fill="#1e72f9">direction</text>
<text x="1073" y="702" font-size="5" fill="#1e72f9">approaching</text>
<text x="583" y="334" font-size="5" fill="#1e72f9">hatch</text>
<text x="743" y="535" font-size="5" fill="#1e72f9">narrow</text>
<text x="946" y="342" font-size="5" fill="#1e72f9">life</text>
<text x="490" y="449" font-size="5" fill="#1e72f9">bad</text>
<text x="512" y="321" font-size="5" fill="#1e72f9">uncle</text>
<text x="743" y="465" font-size="5" fill="#1e72f9">blaster</text>
<text x="479" y="896" font-size="5" fill="#1e72f9">seen</text>
<text x="1031" y="589" font-size="5" fill="#1e72f9">line</text>
<text x="316" y="138" font-size="5" fill="#1e72f9">shoulder</text>
<text x="216" y="781" font-size="5" fill="#1e72f9">master</text>
<text x="240" y="871" font-size="5" fill="#1e72f9">become</text>
<text x="701" y="901" font-size="5" fill="#1e72f9">range</text>
<text x="188" y="456" font-size="5" fill="#1e72f9">cell</text>
<text x="459" y="208" font-size="5" fill="#1e72f9">port</text>
<text x="528" y="429" font-size="5" fill="#1e72f9">wingmen</text>
<text x="843" y="438" font-size="5" fill="#1e72f9">REBEL BLOCKADE</text>
<text x="599" y="217" font-size="5" fill="#1e72f9">BLOCKADE RUNNER</text>
<text x="276" y="223" font-size="5" transform="rotate(-90, 276, 223) translate(-24, 0)" fill="#1e72f9">shakes head</text>
<text x="534" y="136" font-size="5" fill="#1e72f9">old Ben</text>
<text x="458" y="770" font-size="5" fill="#1e72f9">Rebel base</text>
<text x="92" y="852" font-size="5" fill="#1e72f9">CONTROL ROOM</text>
<text x="597" y="137" font-size="5" transform="rotate(-90, 597, 137) translate(-42, 0)" fill="#1e72f9">COCKPIT TRAVELING</text>
<text x="743" y="392" font-size="5" fill="#1e72f9">new</text>
<text x="926" y="329" font-size="5" fill="#1e72f9">home</text>
<text x="395" y="693" font-size="5" fill="#1e72f9">half</text>
<text x="210" y="249" font-size="5" fill="#1e72f9">Hurry</text>
<text x="963" y="582" font-size="5" fill="#1e72f9">young</text>
<text x="862" y="243" font-size="5" fill="#1e72f9">end</text>
<text x="661" y="344" font-size="5" fill="#1e72f9">soldier</text>
<text x="125" y="719" font-size="5" fill="#1e72f9">getting</text>
<text x="696" y="773" font-size="5" fill="#1e72f9">course</text>
<text x="228" y="209" font-size="5" fill="#1e72f9">worry</text>
<text x="425" y="776" font-size="5" fill="#1e72f9">fight</text>
<text x="522" y="167" font-size="5" fill="#1e72f9">part</text>
<text x="869" y="567" font-size="5" fill="#1e72f9">approaches</text>
<text x="559" y="927" font-size="5" fill="#1e72f9">sand</text>
<text x="867" y="413" font-size="5" fill="#1e72f9">whistle</text>
<text x="652" y="135" font-size="5" fill="#1e72f9">distant</text>
<text x="932" y="427" font-size="5" fill="#1e72f9">left</text>
<text x="1051" y="737" font-size="5" fill="#1e72f9">might</text>
<text x="376" y="752" font-size="5" fill="#1e72f9">bit</text>
<text x="94" y="862" font-size="5" fill="#1e72f9">shoot</text>
<text x="834" y="779" font-size="5" fill="#1e72f9">followed</text>
<text x="866" y="220" font-size="5" fill="#1e72f9">Uh</text>
<text x="722" y="427" font-size="5" fill="#1e72f9">hangar</text>
<text x="218" y="484" font-size="5" fill="#1e72f9">able</text>
<text x="934" y="515" font-size="5" fill="#1e72f9">blow</text>
<text x="593" y="572" font-size="5" fill="#1e72f9">bartender</text>
<text x="884" y="627" font-size="5" fill="#1e72f9">fast</text>
<text x="837" y="546" font-size="5" fill="#1e72f9">check</text>
<text x="651" y="567" font-size="5" fill="#1e72f9">GREEDO</text>
<text x="521" y="182" font-size="5" fill="#1e72f9">green</text>
<text x="433" y="162" font-size="5" transform="rotate(-90, 433, 162) translate(-10, 0)" fill="#1e72f9">crew</text>
<text x="163" y="786" font-size="5" fill="#1e72f9">flame</text>
<text x="538" y="780" font-size="5" fill="#1e72f9">tower</text>
<text x="711" y="516" font-size="5" fill="#1e72f9">headset</text>
<text x="392" y="574" font-size="5" fill="#1e72f9">Uncle Owen</text>
<text x="690" y="523" font-size="5" transform="rotate(-90, 690, 523) translate(-24, 0)" fill="#1e72f9">HOLD AREA</text>
<text x="907" y="378" font-size="5" fill="#1e72f9">TATOOINE MOS</text>
<text x="689" y="134" font-size="5" fill="#1e72f9">Han Solo</text>
<text x="504" y="259" font-size="5" fill="#1e72f9">control panel</text>
<text x="612" y="817" font-size="5" fill="#1e72f9">Imperial fighter</text>
<text x="974" y="404" font-size="5" fill="#1e72f9">MAIN FORWARD</text>
<text x="276" y="261" font-size="5" fill="#1e72f9">three TIE</text>
<text x="437" y="529" font-size="5" fill="#1e72f9">galaxy</text>
<text x="441" y="135" font-size="5" transform="rotate(-90, 441, 135) translate(-13, 0)" fill="#1e72f9">aboard</text>
<text x="667" y="712" font-size="5" fill="#1e72f9">human</text>
<text x="818" y="154" font-size="5" fill="#1e72f9">rush</text>
<text x="1014" y="723" font-size="5" transform="rotate(-90, 1014, 723) translate(-12, 0)" fill="#1e72f9">filled</text>
<text x="787" y="260" font-size="5" fill="#1e72f9">morning</text>
<text x="555" y="698" font-size="5" fill="#1e72f9">seven</text>
<text x="246" y="760" font-size="5" fill="#1e72f9">Dark</text>
<text x="541" y="411" font-size="5" fill="#1e72f9">mission</text>
<text x="990" y="663" font-size="5" fill="#1e72f9">RED</text>
<text x="988" y="555" font-size="5" fill="#1e72f9">call</text>
<text x="492" y="182" font-size="5" transform="rotate(-90, 492, 182) translate(-16, 0)" fill="#1e72f9">talking</text>
<text x="132" y="692" font-size="5" fill="#1e72f9">rest</text>
<text x="723" y="538" font-size="5" transform="rotate(-90, 723, 538) translate(-25, 0)" fill="#1e72f9">background</text>
<text x="262" y="550" font-size="5" fill="#1e72f9">shot</text>
<text x="249" y="904" font-size="5" fill="#1e72f9">happened</text>
<text x="197" y="577" font-size="5" transform="rotate(-90, 197, 577) translate(-10, 0)" fill="#1e72f9">came</text>
<text x="160" y="679" font-size="5" fill="#1e72f9">low</text>
<text x="456" y="875" font-size="5" fill="#1e72f9">gets</text>
<text x="770" y="695" font-size="5" fill="#1e72f9">may</text>
<text x="614" y="452" font-size="5" fill="#1e72f9">HOMESTEAD</text>
<text x="880" y="775" font-size="5" fill="#1e72f9">quickly</text>
<text x="555" y="158" font-size="5" transform="rotate(-90, 555, 158) translate(-14, 0)" fill="#1e72f9">garage</text>
<text x="530" y="216" font-size="5" fill="#1e72f9">Yeah</text>
<text x="941" y="358" font-size="5" fill="#1e72f9">trouble</text>
<text x="147" y="827" font-size="5" fill="#1e72f9">tries</text>
<text x="671" y="175" font-size="5" fill="#1e72f9">gone</text>
<text x="172" y="904" font-size="5" transform="rotate(-90, 172, 904) translate(-9, 0)" fill="#1e72f9">yell</text>
<text x="647" y="462" font-size="5" fill="#1e72f9">closer</text>
<text x="378" y="607" font-size="5" fill="#1e72f9">step</text>
<text x="837" y="651" font-size="5" fill="#1e72f9">return</text>
<text x="743" y="754" font-size="5" fill="#1e72f9">lightsaber</text>
<text x="501" y="528" font-size="5" fill="#1e72f9">thousand</text>
<text x="881" y="683" font-size="5" fill="#1e72f9">together</text>
<text x="667" y="623" font-size="5" fill="#1e72f9">information</text>
<text x="783" y="416" font-size="5" fill="#1e72f9">readout</text>
<text x="635" y="190" font-size="5" fill="#1e72f9">ready</text>
<text x="961" y="624" font-size="5" fill="#1e72f9">burst</text>
<text x="814" y="654" font-size="5" fill="#1e72f9">enemy</text>
<text x="273" y="212" font-size="5" fill="#1e72f9">climb</text>
<text x="812" y="665" font-size="5" fill="#1e72f9">shadow</text>
<text x="690" y="788" font-size="5" fill="#1e72f9">adjust</text>
<text x="655" y="676" font-size="5" fill="#1e72f9">Dark Lord</text>
<text x="812" y="367" font-size="5" fill="#1e72f9">power station</text>
<text x="218" y="463" font-size="4" fill="#1e72f9">LARS HOMESTEAD</text>
<text x="632" y="676" font-size="4" fill="#1e72f9">old man</text>
<text x="590" y="714" font-size="4" transform="rotate(-90, 590, 714) translate(-19, 0)" fill="#1e72f9">Han Chewie</text>
<text x="629" y="864" font-size="4" fill="#1e72f9">Han Chewbacca</text>
<text x="422" y="808" font-size="4" fill="#1e72f9">SPACE TIE</text>
<text x="524" y="699" font-size="4" fill="#1e72f9">tractor beam</text>
<text x="290" y="381" font-size="4" fill="#1e72f9">GARBAGE ROOM</text>
<text x="798" y="214" font-size="4" fill="#1e72f9">exhaust port</text>
<text x="554" y="134" font-size="4" fill="#1e72f9">COCKPIT Wedge</text>
<text x="347" y="660" font-size="4" fill="#1e72f9">ROOM Leia</text>
<text x="576" y="559" font-size="4" fill="#1e72f9">adjusts control</text>
<text x="525" y="89" font-size="4" fill="#1e72f9">control stick</text>
<text x="525" y="645" font-size="4" fill="#1e72f9">armored</text>
<text x="524" y="439" font-size="4" fill="#1e72f9">shaking</text>
<text x="210" y="429" font-size="4" fill="#1e72f9">scream</text>
<text x="220" y="767" font-size="4" fill="#1e72f9">creating</text>
<text x="310" y="660" font-size="4" fill="#1e72f9">desert</text>
<text x="884" y="538" font-size="4" fill="#1e72f9">white</text>
<text x="409" y="501" font-size="4" transform="rotate(-90, 409, 501) translate(-18, 0)" fill="#1e72f9">Landspeeder</text>
<text x="141" y="660" font-size="4" fill="#1e72f9">leaving</text>
<text x="931" y="442" font-size="4" fill="#1e72f9">quiet</text>
<text x="325" y="422" font-size="4" fill="#1e72f9">heading</text>
<text x="885" y="544" font-size="4" transform="rotate(-90, 885, 544) translate(-11, 0)" fill="#1e72f9">bring</text>
<text x="638" y="175" font-size="4" fill="#1e72f9">set</text>
<text x="443" y="724" font-size="4" transform="rotate(-90, 443, 724) translate(-8, 0)" fill="#1e72f9">told</text>
<text x="500" y="140" font-size="4" fill="#1e72f9">yelling</text>
<text x="593" y="531" font-size="4" fill="#1e72f9">easy</text>
<text x="89" y="767" font-size="4" fill="#1e72f9">nothing</text>
<text x="727" y="502" font-size="4" fill="#1e72f9">made</text>
<text x="583" y="619" font-size="4" fill="#1e72f9">reply</text>
<text x="335" y="602" font-size="4" fill="#1e72f9">pay</text>
<text x="1071" y="648" font-size="4" fill="#1e72f9">said</text>
<text x="276" y="356" font-size="4" fill="#1e72f9">best</text>
<text x="491" y="387" font-size="4" fill="#1e72f9">strange</text>
<text x="561" y="809" font-size="4" fill="#1e72f9">approach</text>
<text x="523" y="193" font-size="4" fill="#1e72f9">pop</text>
<text x="1025" y="574" font-size="4" fill="#1e72f9">edge</text>
<text x="715" y="746" font-size="4" transform="rotate(-90, 715, 746) translate(-9, 0)" fill="#1e72f9">blue</text>
<text x="485" y="258" font-size="4" fill="#1e72f9">lost</text>
<text x="185" y="517" font-size="4" transform="rotate(-90, 185, 517) translate(-8, 0)" fill="#1e72f9">center</text>
<text x="193" y="283" font-size="4" fill="#1e72f9">mind</text>
<text x="725" y="635" font-size="4" fill="#1e72f9">bar</text>
<text x="830" y="807" font-size="4" fill="#1e72f9">massive</text>
<text x="482" y="172" font-size="4" fill="#1e72f9">view</text>
<text x="465" y="369" font-size="4" fill="#1e72f9">walk</text>
<text x="840" y="214" font-size="4" fill="#1e72f9">everything</text>
<text x="891" y="456" font-size="4" fill="#1e72f9">corner</text>
<text x="264" y="630" font-size="4" fill="#1e72f9">button</text>
<text x="244" y="561" font-size="4" transform="rotate(-90, 244, 561) translate(-22, 0)" fill="#1e72f9">transmission</text>
<text x="943" y="270" font-size="4" fill="#1e72f9">twenty</text>
<text x="245" y="272" font-size="4" fill="#1e72f9">round</text>
<text x="682" y="284" font-size="4" fill="#1e72f9">charge</text>
<text x="768" y="721" font-size="4" fill="#1e72f9">helmet</text>
<text x="602" y="334" font-size="4" fill="#1e72f9">copy</text>
<text x="272" y="163" font-size="4" fill="#1e72f9">cover</text>
<text x="558" y="363" font-size="4" fill="#1e72f9">peel</text>
<text x="611" y="89" font-size="4" fill="#1e72f9">Lord Vader</text>
<text x="437" y="694" font-size="4" fill="#1e72f9">TATOOINE ROCK</text>
<text x="151" y="816" font-size="4" fill="#1e72f9">EISLEY STREET</text>
<text x="1014" y="621" font-size="4" fill="#1e72f9">cockpit window</text>
<text x="949" y="650" font-size="4" fill="#1e72f9">Two TIE</text>
<text x="937" y="313" font-size="4" fill="#1e72f9">LEADER headset</text>
<text x="589" y="678" font-size="4" transform="rotate(-90, 589, 678) translate(-29, 0)" fill="#1e72f9">WEDGE COCKPIT</text>
<text x="348" y="378" font-size="4" fill="#1e72f9">hope</text>
<text x="630" y="524" font-size="4" fill="#1e72f9">base</text>
<text x="822" y="750" font-size="4" transform="rotate(-90, 822, 750) translate(-5, 0)" fill="#1e72f9">evil</text>
<text x="945" y="747" font-size="4" fill="#1e72f9">entire</text>
<text x="439" y="464" font-size="4" fill="#1e72f9">craft</text>
<text x="640" y="742" font-size="4" fill="#1e72f9">tall</text>
<text x="526" y="588" font-size="4" fill="#1e72f9">understand</text>
<text x="598" y="454" font-size="4" fill="#1e72f9">escape</text>
<text x="1033" y="747" font-size="4" fill="#1e72f9">making</text>
<text x="794" y="848" font-size="4" fill="#1e72f9">heavy</text>
<text x="766" y="257" font-size="4" fill="#1e72f9">hole</text>
<text x="380" y="105" font-size="4" fill="#1e72f9">holding</text>
<text x="134" y="893" font-size="4" transform="rotate(-90, 134, 893) translate(-12, 0)" fill="#1e72f9">barely</text>
<text x="739" y="127" font-size="4" fill="#1e72f9">lifepod</text>
<text x="1004" y="547" font-size="4" fill="#1e72f9">flash</text>
<text x="343" y="729" font-size="4" fill="#1e72f9">captain</text>
<text x="1019" y="720" font-size="4" fill="#1e72f9">loose</text>
<text x="669" y="188" font-size="4" fill="#1e72f9">soon</text>
<text x="477" y="133" font-size="4" transform="rotate(-90, 477, 133) translate(-15, 0)" fill="#1e72f9">stumbles</text>
<text x="617" y="462" font-size="4" fill="#1e72f9">believe</text>
<text x="539" y="925" font-size="4" fill="#1e72f9">senator</text>
<text x="509" y="734" font-size="4" fill="#1e72f9">dangerous</text>
<text x="494" y="572" font-size="4" fill="#1e72f9">send</text>
<text x="844" y="244" font-size="4" fill="#1e72f9">signal</text>
<text x="355" y="248" font-size="4" fill="#1e72f9">season</text>
<text x="375" y="132" font-size="4" fill="#1e72f9">CENTRAL</text>
<text x="246" y="818" font-size="4" transform="rotate(-90, 246, 818) translate(-9, 0)" fill="#1e72f9">join</text>
<text x="889" y="280" font-size="4" fill="#1e72f9">always</text>
<text x="897" y="427" font-size="4" fill="#1e72f9">feel</text>
<text x="694" y="592" font-size="4" transform="rotate(-90, 694, 592) translate(-16, 0)" fill="#1e72f9">powerful</text>
<text x="303" y="599" font-size="4" fill="#1e72f9">glow</text>
<text x="189" y="682" font-size="4" fill="#1e72f9">eight</text>
<text x="470" y="551" font-size="4" fill="#1e72f9">size</text>
<text x="138" y="883" font-size="4" fill="#1e72f9">beam</text>
<text x="261" y="871" font-size="4" fill="#1e72f9">metal</text>
<text x="978" y="432" font-size="4" fill="#1e72f9">chamber</text>
<text x="351" y="210" font-size="4" fill="#1e72f9">pick</text>
<text x="728" y="351" font-size="4" fill="#1e72f9">slimy</text>
<text x="412" y="430" font-size="4" transform="rotate(-90, 412, 430) translate(-9, 0)" fill="#1e72f9">stick</text>
<text x="918" y="271" font-size="4" fill="#1e72f9">grey</text>
<text x="983" y="566" font-size="4" fill="#1e72f9">spaceship</text>
<text x="491" y="319" font-size="4" fill="#1e72f9">laughing</text>
<text x="225" y="885" font-size="4" fill="#1e72f9">many</text>
<text x="682" y="99" font-size="4" fill="#1e72f9">afraid</text>
<text x="516" y="686" font-size="4" fill="#1e72f9">message</text>
<text x="422" y="159" font-size="4" transform="rotate(-90, 422, 159) translate(-9, 0)" fill="#1e72f9">bolt</text>
<text x="196" y="705" font-size="4" fill="#1e72f9">high</text>
<text x="367" y="163" font-size="4" fill="#1e72f9">deep</text>
<text x="805" y="265" font-size="4" transform="rotate(-90, 805, 265) translate(-7, 0)" fill="#1e72f9">lies</text>
<text x="601" y="922" font-size="4" fill="#1e72f9">Jedi</text>
<text x="535" y="358" font-size="4" fill="#1e72f9">nervously</text>
<text x="185" y="471" font-size="4" transform="rotate(-90, 185, 471) translate(-13, 0)" fill="#1e72f9">general</text>
<text x="702" y="214" font-size="4" fill="#1e72f9">precise</text>
<text x="182" y="919" font-size="4" fill="#1e72f9">fighter</text>
<text x="489" y="464" font-size="4" fill="#1e72f9">lock</text>
<text x="786" y="696" font-size="4" fill="#1e72f9">ramp</text>
<text x="1050" y="698" font-size="4" fill="#1e72f9">lever</text>
<text x="1014" y="435" font-size="4" fill="#1e72f9">number</text>
<text x="561" y="604" font-size="4" fill="#1e72f9">closing</text>
<text x="190" y="668" font-size="4" fill="#1e72f9">shaft</text>
<text x="568" y="782" font-size="4" fill="#1e72f9">bridge</text>
<text x="394" y="677" font-size="4" fill="#1e72f9">swing</text>
<text x="917" y="699" font-size="4" fill="#1e72f9">manage</text>
<text x="927" y="756" font-size="4" fill="#1e72f9">GUNPORT</text>
<text x="769" y="874" font-size="4" fill="#1e72f9">Yavin</text>
<text x="464" y="732" font-size="4" fill="#1e72f9">temple</text>
<text x="882" y="395" font-size="4" fill="#1e72f9">maneuver</text>
<text x="651" y="913" font-size="4" fill="#1e72f9">flying</text>
<text x="217" y="659" font-size="4" fill="#1e72f9">Flak</text>
<text x="833" y="730" font-size="4" fill="#1e72f9">little robot</text>
<text x="750" y="256" font-size="4" transform="rotate(-90, 750, 256) translate(-21, 0)" fill="#1e72f9">makes beeping</text>
<text x="729" y="157" font-size="4" transform="rotate(-90, 729, 157) translate(-23, 0)" fill="#1e72f9">Imperial Officer</text>
<text x="199" y="920" font-size="4" fill="#1e72f9">ROCK CANYON</text>
<text x="394" y="135" font-size="4" fill="#1e72f9">FIRST TROOPER</text>
<text x="391" y="425" font-size="4" fill="#1e72f9">THREEPIO Oh</text>
</svg>
