<svg width="1190" height="1028" xmlns="http://www.w3.org/2000/svg">
    <defs><style type="text/css">
    @import url("https://fonts.googleapis.com/css?family=Permanent+Marker");
    text {font-family: 'Permanent Marker', cursive;
    font-kerning:none;
    font-variant-ligatures:none}
    </style></defs>
<rect width="100%" height="100%" fill="white"/>
<text x="462" y="734" font-size="125" fill="#1e72f9">Luke</text>
<text x="545" y="174" font-size="89" fill="#1e72f9">Han</text>
<text x="348" y="229" font-size="65" fill="#1e72f9">DEATH STAR</text>
<text x="229" y="441" font-size="61" fill="#1e72f9">THREEPIO</text>
<text x="680" y="614" font-size="54" fill="#1e72f9">Ben</text>
<text x="557" y="568" font-size="47" fill="#1e72f9">ship</text>
<text x="601" y="498" font-size="46" fill="#1e72f9">Leia</text>
<text x="374" y="312" font-size="44" transform="rotate(-90, 374, 312) translate(-78, 0)" fill="#1e72f9">one</text>
<text x="136" y="726" font-size="42" fill="#1e72f9">look</text>
<text x="542" y="779" font-size="42" fill="#1e72f9">RED LEADER</text>
<text x="409" y="772" font-size="41" fill="#1e72f9">Artoo</text>
<text x="321" y="665" font-size="40" fill="#1e72f9">back</text>
<text x="927" y="687" font-size="39" fill="#1e72f9">move</text>
<text x="896" y="485" font-size="38" transform="rotate(-90, 896, 485) translate(-109, 0)" fill="#1e72f9">going</text>
<text x="874" y="456" font-size="37" fill="#1e72f9">two</text>
<text x="685" y="843" font-size="37" fill="#1e72f9">Biggs</text>
<text x="385" y="483" font-size="37" fill="#1e72f9">TIE fighter</text>
<text x="284" y="592" font-size="36" transform="rotate(-90, 284, 592) translate(-99, 0)" fill="#1e72f9">Vader</text>
<text x="309" y="613" font-size="35" fill="#1e72f9">see</text>
<text x="440" y="523" font-size="26" fill="#1e72f9">MILLENNIUM FALCON</text>
<text x="942" y="584" font-size="26" fill="#1e72f9">toward</text>
<text x="915" y="410" font-size="26" fill="#1e72f9">right</text>
<text x="271" y="713" font-size="26" fill="#1e72f9">Luke WING</text>
<text x="792" y="605" font-size="26" fill="#1e72f9">come</text>
<text x="609" y="883" font-size="26" fill="#1e72f9">trooper</text>
<text x="820" y="402" font-size="25" fill="#1e72f9">robot</text>
<text x="811" y="758" font-size="25" fill="#1e72f9">small</text>
<text x="689" y="277" font-size="25" fill="#1e72f9">SPACE</text>
<text x="403" y="123" font-size="25" fill="#1e72f9">now</text>
<text x="648" y="639" font-size="25" fill="#1e72f9">WING FIGHTER</text>
<text x="784" y="218" font-size="25" fill="#1e72f9">take</text>
<text x="607" y="818" font-size="25" fill="#1e72f9">begin</text>
<text x="889" y="724" font-size="25" fill="#1e72f9">make</text>
<text x="340" y="151" font-size="24" fill="#1e72f9">away</text>
<text x="1006" y="719" font-size="24" fill="#1e72f9">fire</text>
<text x="602" y="254" font-size="24" fill="#1e72f9">will</text>
<text x="191" y="761" font-size="24" fill="#1e72f9">turn</text>
<text x="463" y="138" font-size="24" fill="#1e72f9">stand</text>
<text x="88" y="793" font-size="24" fill="#1e72f9">stormtrooper</text>
<text x="628" y="839" font-size="23" fill="#1e72f9">way</text>
<text x="906" y="274" font-size="23" fill="#1e72f9">side</text>
<text x="419" y="803" font-size="23" fill="#1e72f9">COCKPIT Luke</text>
<text x="484" y="821" font-size="23" transform="rotate(-90, 484, 821) translate(-31, 0)" fill="#1e72f9">sir</text>
<text x="171" y="657" font-size="23" fill="#1e72f9">think</text>
<text x="494" y="549" font-size="23" fill="#1e72f9">head</text>
<text x="924" y="464" font-size="23" transform="rotate(-90, 924, 464) translate(-156, 0)" fill="#1e72f9">DARTH VADER</text>
<text x="624" y="455" font-size="21" fill="#1e72f9">GOLD LEADER</text>
<text x="377" y="613" font-size="21" fill="#1e72f9">huge</text>
<text x="741" y="119" font-size="21" transform="rotate(-90, 741, 119) translate(-41, 0)" fill="#1e72f9">got</text>
<text x="741" y="865" font-size="21" fill="#1e72f9">us</text>
<text x="122" y="750" font-size="21" fill="#1e72f9">time</text>
<text x="246" y="200" font-size="21" fill="#1e72f9">computer</text>
<text x="684" y="548" font-size="21" fill="#1e72f9">several</text>
<text x="457" y="164" font-size="21" fill="#1e72f9">Rebel</text>
<text x="552" y="438" font-size="21" fill="#1e72f9">know</text>
<text x="213" y="249" font-size="21" fill="#1e72f9">Chewbacca</text>
<text x="682" y="800" font-size="20" fill="#1e72f9">SURFACE DEATH</text>
<text x="311" y="571" font-size="20" fill="#1e72f9">long</text>
<text x="461" y="101" font-size="20" fill="#1e72f9">OFFICER</text>
<text x="151" y="674" font-size="20" fill="#1e72f9">across</text>
<text x="206" y="463" font-size="20" fill="#1e72f9">OWEN</text>
<text x="748" y="176" font-size="20" fill="#1e72f9">pirateship</text>
<text x="944" y="606" font-size="20" fill="#1e72f9">something</text>
<text x="241" y="897" font-size="20" fill="#1e72f9">go</text>
<text x="512" y="250" font-size="20" fill="#1e72f9">control</text>
<text x="331" y="248" font-size="18" fill="#1e72f9">FIGHTER COCKPIT</text>
<text x="524" y="913" font-size="18" fill="#1e72f9">behind</text>
<text x="301" y="157" font-size="18" fill="#1e72f9">hit</text>
<text x="901" y="742" font-size="18" fill="#1e72f9">light</text>
<text x="764" y="236" font-size="18" fill="#1e72f9">WING COCKPIT</text>
<text x="100" y="813" font-size="18" fill="#1e72f9">Imperial</text>
<text x="944" y="526" font-size="18" fill="#1e72f9">around</text>
<text x="941" y="547" font-size="18" fill="#1e72f9">Suddenly</text>
<text x="412" y="381" font-size="18" fill="#1e72f9">troops</text>
<text x="443" y="606" font-size="18" fill="#1e72f9">eye</text>
<text x="581" y="601" font-size="18" fill="#1e72f9">start</text>
<text x="266" y="375" font-size="18" fill="#1e72f9">TARKIN</text>
<text x="274" y="462" font-size="18" fill="#1e72f9">Luke look</text>
<text x="752" y="376" font-size="18" fill="#1e72f9">hand</text>
<text x="744" y="405" font-size="18" fill="#1e72f9">another</text>
<text x="602" y="902" font-size="18" fill="#1e72f9">hallway</text>
<text x="440" y="659" font-size="18" transform="rotate(-90, 440, 659) translate(-54, 0)" fill="#1e72f9">little</text>
<text x="272" y="175" font-size="18" fill="#1e72f9">VOICE</text>
<text x="210" y="625" font-size="18" fill="#1e72f9">face</text>
<text x="1032" y="663" font-size="18" fill="#1e72f9">blast</text>
<text x="107" y="818" font-size="18" transform="rotate(-90, 107, 818) translate(-52, 0)" fill="#1e72f9">large</text>
<text x="1003" y="625" font-size="18" fill="#1e72f9">wall</text>
<text x="247" y="217" font-size="18" fill="#1e72f9">creature</text>
<text x="780" y="661" font-size="18" transform="rotate(-90, 780, 661) translate(-37, 0)" fill="#1e72f9">give</text>
<text x="375" y="581" font-size="18" fill="#1e72f9">run</text>
<text x="187" y="505" font-size="18" fill="#1e72f9">pilot</text>
<text x="188" y="909" font-size="18" fill="#1e72f9">race</text>
<text x="364" y="736" font-size="18" fill="#1e72f9">seem</text>
<text x="784" y="575" font-size="18" fill="#1e72f9">Force</text>
<text x="901" y="307" font-size="18" fill="#1e72f9">trench</text>
<text x="368" y="630" font-size="15" fill="#1e72f9">SPACE AROUND</text>
<text x="334" y="168" font-size="15" fill="#1e72f9">AROUND DEATH</text>
<text x="218" y="478" font-size="15" fill="#1e72f9">door</text>
<text x="179" y="529" font-size="15" fill="#1e72f9">system</text>
<text x="638" y="273" font-size="15" fill="#1e72f9">stop</text>
<text x="634" y="107" font-size="15" fill="#1e72f9">Well</text>
<text x="945" y="370" font-size="15" fill="#1e72f9">Jawa</text>
<text x="522" y="631" font-size="15" transform="rotate(-90, 522, 631) translate(-60, 0)" fill="#1e72f9">looking</text>
<text x="840" y="717" font-size="15" fill="#1e72f9">Solo</text>
<text x="98" y="767" font-size="14" fill="#1e72f9">Star surface</text>
<text x="284" y="337" font-size="14" fill="#1e72f9">surface</text>
<text x="850" y="419" font-size="14" fill="#1e72f9">past</text>
<text x="532" y="650" font-size="14" fill="#1e72f9">laserfire</text>
<text x="605" y="854" font-size="14" fill="#1e72f9">Alderaan</text>
<text x="245" y="731" font-size="14" fill="#1e72f9">pull</text>
<text x="314" y="681" font-size="14" fill="#1e72f9">COCKPIT Red</text>
<text x="385" y="497" font-size="14" fill="#1e72f9">power</text>
<text x="610" y="629" font-size="14" fill="#1e72f9">old</text>
<text x="582" y="95" font-size="14" fill="#1e72f9">must</text>
<text x="494" y="565" font-size="14" fill="#1e72f9">WEDGE</text>
<text x="746" y="191" font-size="13" fill="#1e72f9">MASSASSI OUTPOST</text>
<text x="728" y="426" font-size="13" fill="#1e72f9">Princess</text>
<text x="671" y="243" font-size="13" fill="#1e72f9">sound</text>
<text x="418" y="727" font-size="13" fill="#1e72f9">hold</text>
<text x="120" y="831" font-size="13" fill="#1e72f9">say</text>
<text x="807" y="773" font-size="13" fill="#1e72f9">WAR ROOM</text>
<text x="1032" y="690" font-size="13" fill="#1e72f9">RED TEN</text>
<text x="380" y="315" font-size="13" fill="#1e72f9">want</text>
<text x="465" y="876" font-size="13" fill="#1e72f9">good</text>
<text x="239" y="578" font-size="13" fill="#1e72f9">droid</text>
<text x="949" y="423" font-size="13" fill="#1e72f9">continue</text>
<text x="190" y="543" font-size="13" fill="#1e72f9">dive</text>
<text x="689" y="563" font-size="13" fill="#1e72f9">GOLD FIVE</text>
<text x="643" y="598" font-size="13" fill="#1e72f9">sure</text>
<text x="432" y="645" font-size="13" fill="#1e72f9">front</text>
<text x="203" y="261" font-size="13" fill="#1e72f9">friend</text>
<text x="721" y="244" font-size="13" fill="#1e72f9">wait</text>
<text x="849" y="625" font-size="13" fill="#1e72f9">find</text>
<text x="758" y="148" font-size="13" fill="#1e72f9">standing</text>
<text x="389" y="354" font-size="13" fill="#1e72f9">speeder</text>
<text x="238" y="869" font-size="13" fill="#1e72f9">gun</text>
<text x="157" y="688" font-size="13" fill="#1e72f9">comlink</text>
<text x="902" y="384" font-size="11" fill="#1e72f9">VADER COCKPIT</text>
<text x="299" y="545" font-size="11" transform="rotate(-90, 299, 545) translate(-86, 0)" fill="#1e72f9">COCKPIT Vader</text>
<text x="295" y="645" font-size="11" transform="rotate(-90, 295, 645) translate(-44, 0)" fill="#1e72f9">starship</text>
<text x="493" y="820" font-size="11" fill="#1e72f9">sit</text>
<text x="741" y="288" font-size="11" fill="#1e72f9">moment</text>
<text x="932" y="475" font-size="11" fill="#1e72f9">enter</text>
<text x="420" y="139" font-size="11" fill="#1e72f9">thing</text>
<text x="353" y="122" font-size="11" fill="#1e72f9">coming</text>
<text x="852" y="207" font-size="11" fill="#1e72f9">Obi Wan</text>
<text x="533" y="451" font-size="9" fill="#1e72f9">FALCON COCKPIT</text>
<text x="798" y="376" font-size="9" fill="#1e72f9">LEADER COCKPIT</text>
<text x="932" y="699" font-size="9" fill="#1e72f9">LEADER WING</text>
<text x="493" y="604" font-size="9" transform="rotate(-90, 493, 604) translate(-31, 0)" fill="#1e72f9">planet</text>
<text x="635" y="609" font-size="9" fill="#1e72f9">close</text>
<text x="349" y="480" font-size="9" fill="#1e72f9">group</text>
<text x="679" y="906" font-size="9" fill="#1e72f9">let</text>
<text x="780" y="649" font-size="9" fill="#1e72f9">attack</text>
<text x="591" y="917" font-size="9" fill="#1e72f9">Chewie</text>
<text x="180" y="551" font-size="9" transform="rotate(-90, 180, 551) translate(-60, 0)" fill="#1e72f9">Princess Leia</text>
<text x="652" y="652" font-size="9" fill="#1e72f9">MOS EISLEY</text>
<text x="264" y="385" font-size="9" fill="#1e72f9">targeting device</text>
<text x="871" y="249" font-size="9" fill="#1e72f9">short</text>
<text x="430" y="818" font-size="9" fill="#1e72f9">much</text>
<text x="659" y="546" font-size="9" transform="rotate(-90, 659, 546) translate(-37, 0)" fill="#1e72f9">watches</text>
<text x="459" y="537" font-size="9" fill="#1e72f9">work</text>
<text x="789" y="680" font-size="9" fill="#1e72f9">help</text>
<text x="580" y="262" font-size="9" fill="#1e72f9">put</text>
<text x="1020" y="727" font-size="9" transform="rotate(-90, 1020, 727) translate(-13, 0)" fill="#1e72f9">Oh</text>
<text x="952" y="317" font-size="9" transform="rotate(-90, 952, 317) translate(-30, 0)" fill="#1e72f9">father</text>
<text x="718" y="884" font-size="9" fill="#1e72f9">position</text>
<text x="517" y="579" font-size="9" fill="#1e72f9">point</text>
<text x="581" y="580" font-size="9" fill="#1e72f9">docking bay</text>
<text x="996" y="639" font-size="9" fill="#1e72f9">OUTPOST WAR</text>
<text x="791" y="661" font-size="9" fill="#1e72f9">weapon</text>
<text x="112" y="888" font-size="9" fill="#1e72f9">along</text>
<text x="624" y="792" font-size="9" fill="#1e72f9">hear</text>
<text x="1013" y="523" font-size="9" fill="#1e72f9">shut</text>
<text x="193" y="570" font-size="9" transform="rotate(-90, 193, 570) translate(-27, 0)" fill="#1e72f9">heard</text>
<text x="237" y="207" font-size="9" transform="rotate(-90, 237, 207) translate(-20, 0)" fill="#1e72f9">last</text>
<text x="935" y="503" font-size="9" fill="#1e72f9">even</text>
<text x="884" y="692" font-size="9" fill="#1e72f9">guard</text>
<text x="314" y="623" font-size="9" fill="#1e72f9">laserbolt</text>
<text x="386" y="332" font-size="9" fill="#1e72f9">appear</text>
<text x="184" y="806" font-size="9" fill="#1e72f9">Artoo Detoo</text>
<text x="899" y="285" font-size="9" fill="#1e72f9">far</text>
<text x="469" y="113" font-size="9" fill="#1e72f9">Empire</text>
<text x="600" y="642" font-size="9" fill="#1e72f9">enough</text>
<text x="831" y="729" font-size="9" fill="#1e72f9">explosion</text>
<text x="538" y="261" font-size="9" fill="#1e72f9">floor</text>
<text x="683" y="110" font-size="9" fill="#1e72f9">follow</text>
<text x="231" y="667" font-size="9" fill="#1e72f9">four</text>
<text x="843" y="439" font-size="9" fill="#1e72f9">kid</text>
<text x="683" y="855" font-size="9" fill="#1e72f9">Sandpeople</text>
<text x="209" y="272" font-size="9" fill="#1e72f9">open</text>
<text x="716" y="474" font-size="9" fill="#1e72f9">Jabba</text>
<text x="307" y="348" font-size="9" fill="#1e72f9">screen</text>
<text x="1071" y="701" font-size="9" transform="rotate(-90, 1071, 701) translate(-21, 0)" fill="#1e72f9">plan</text>
<text x="482" y="900" font-size="9" fill="#1e72f9">explode</text>
<text x="947" y="618" font-size="9" fill="#1e72f9">Dodonna</text>
<text x="653" y="536" font-size="9" fill="#1e72f9">zoom</text>
<text x="247" y="259" font-size="8" fill="#1e72f9">INTERCOM VOICE</text>
<text x="947" y="557" font-size="8" fill="#1e72f9">COCKPIT Gold</text>
<text x="433" y="832" font-size="8" fill="#1e72f9">firing</text>
<text x="904" y="240" font-size="8" fill="#1e72f9">streak</text>
<text x="129" y="898" font-size="8" fill="#1e72f9">electronic</text>
<text x="775" y="249" font-size="8" fill="#1e72f9">boy</text>
<text x="232" y="590" font-size="8" fill="#1e72f9">next</text>
<text x="545" y="586" font-size="8" fill="#1e72f9">minute</text>
<text x="797" y="821" font-size="8" fill="#1e72f9">goes</text>
<text x="408" y="97" font-size="8" fill="#1e72f9">Commander</text>
<text x="878" y="606" font-size="8" fill="#1e72f9">laser</text>
<text x="897" y="764" font-size="8" fill="#1e72f9">man</text>
<text x="962" y="726" font-size="8" fill="#1e72f9">almost</text>
<text x="758" y="116" font-size="8" transform="rotate(-90, 758, 116) translate(-17, 0)" fill="#1e72f9">tell</text>
<text x="310" y="547" font-size="8" fill="#1e72f9">area</text>
<text x="227" y="816" font-size="8" fill="#1e72f9">watch</text>
<text x="901" y="420" font-size="8" fill="#1e72f9">formation</text>
<text x="797" y="252" font-size="8" transform="rotate(-90, 797, 252) translate(-50, 0)" fill="#1e72f9">little Artoo</text>
<text x="221" y="682" font-size="8" fill="#1e72f9">slowly</text>
<text x="608" y="272" font-size="8" fill="#1e72f9">first</text>
<text x="510" y="111" font-size="8" fill="#1e72f9">station</text>
<text x="967" y="503" font-size="8" fill="#1e72f9">tiny</text>
<text x="763" y="730" font-size="8" fill="#1e72f9">giant</text>
<text x="188" y="458" font-size="8" transform="rotate(-90, 188, 458) translate(-28, 0)" fill="#1e72f9">better</text>
<text x="420" y="588" font-size="8" fill="#1e72f9">DAY</text>
<text x="873" y="475" font-size="8" fill="#1e72f9">speak</text>
<text x="413" y="513" font-size="8" fill="#1e72f9">dead</text>
<text x="535" y="922" font-size="8" fill="#1e72f9">thought</text>
<text x="1077" y="708" font-size="8" fill="#1e72f9">big</text>
<text x="708" y="893" font-size="8" fill="#1e72f9">second</text>
<text x="302" y="317" font-size="8" fill="#1e72f9">really</text>
<text x="115" y="867" font-size="8" fill="#1e72f9">three</text>
<text x="307" y="581" font-size="8" fill="#1e72f9">Sandcrawler</text>
<text x="846" y="551" font-size="8" fill="#1e72f9">beep</text>
<text x="1035" y="732" font-size="8" fill="#1e72f9">Stay</text>
<text x="238" y="839" font-size="8" fill="#1e72f9">arm</text>
<text x="657" y="739" font-size="8" fill="#1e72f9">Wookiee</text>
<text x="796" y="831" font-size="8" fill="#1e72f9">moon</text>
<text x="450" y="648" font-size="8" transform="rotate(-90, 450, 648) translate(-61, 0)" fill="#1e72f9">battle station</text>
<text x="181" y="737" font-size="8" fill="#1e72f9">LUKE Well</text>
<text x="570" y="175" font-size="8" transform="rotate(-90, 570, 175) translate(-54, 0)" fill="#1e72f9">looks around</text>
<text x="525" y="494" font-size="7" fill="#1e72f9">beeping sound</text>
<text x="282" y="722" font-size="7" fill="#1e72f9">laser cannon</text>
<text x="627" y="912" font-size="7" fill="#1e72f9">outside</text>
<text x="222" y="604" font-size="7" fill="#1e72f9">corridor</text>
<text x="714" y="493" font-size="7" fill="#1e72f9">feet</text>
<text x="951" y="441" font-size="7" fill="#1e72f9">place</text>
<text x="458" y="451" font-size="7" fill="#1e72f9">subhallway</text>
<text x="909" y="317" font-size="7" fill="#1e72f9">rushes</text>
<text x="386" y="371" font-size="7" fill="#1e72f9">found</text>
<text x="922" y="284" font-size="7" fill="#1e72f9">great</text>
<text x="199" y="442" font-size="7" transform="rotate(-90, 199, 442) translate(-36, 0)" fill="#1e72f9">Rebellion</text>
<text x="337" y="213" font-size="7" transform="rotate(-90, 337, 213) translate(-13, 0)" fill="#1e72f9">cut</text>
<text x="856" y="456" font-size="7" fill="#1e72f9">spot</text>
<text x="578" y="674" font-size="7" transform="rotate(-90, 578, 674) translate(-20, 0)" fill="#1e72f9">jump</text>
<text x="957" y="629" font-size="7" transform="rotate(-90, 957, 629) translate(-21, 0)" fill="#1e72f9">Listen</text>
<text x="192" y="557" font-size="7" fill="#1e72f9">trying</text>
<text x="968" y="709" font-size="7" fill="#1e72f9">never</text>
<text x="863" y="513" font-size="7" transform="rotate(-90, 863, 513) translate(-18, 0)" fill="#1e72f9">need</text>
<text x="164" y="910" font-size="7" fill="#1e72f9">Okay</text>
<text x="419" y="314" font-size="7" fill="#1e72f9">reaches</text>
<text x="952" y="486" font-size="7" fill="#1e72f9">year</text>
<text x="469" y="885" font-size="7" fill="#1e72f9">still</text>
<text x="545" y="413" font-size="7" fill="#1e72f9">try</text>
<text x="997" y="651" font-size="7" fill="#1e72f9">speaker</text>
<text x="730" y="811" font-size="7" fill="#1e72f9">THREEPIO Artoo</text>
<text x="450" y="494" font-size="7" fill="#1e72f9">laser pistol</text>
<text x="719" y="649" font-size="7" fill="#1e72f9">Artoo beeps</text>
<text x="369" y="592" font-size="7" fill="#1e72f9">Wan Kenobi</text>
<text x="579" y="612" font-size="7" fill="#1e72f9">Imperial TIE</text>
<text x="934" y="551" font-size="7" transform="rotate(-90, 934, 551) translate(-68, 0)" fill="#1e72f9">FALCON GUNPORT</text>
<text x="536" y="115" font-size="7" transform="rotate(-90, 536, 115) translate(-64, 0)" fill="#1e72f9">BIGGS' COCKPIT</text>
<text x="367" y="747" font-size="7" fill="#1e72f9">STAR Three</text>
<text x="380" y="381" font-size="7" fill="#1e72f9">main</text>
<text x="653" y="790" font-size="7" fill="#1e72f9">battle</text>
<text x="902" y="252" font-size="7" fill="#1e72f9">TATOOINE</text>
<text x="748" y="206" font-size="7" fill="#1e72f9">battered</text>
<text x="566" y="91" font-size="7" transform="rotate(-90, 566, 91) translate(-14, 0)" fill="#1e72f9">aim</text>
<text x="597" y="827" font-size="7" fill="#1e72f9">moving</text>
<text x="855" y="568" font-size="7" fill="#1e72f9">Hey</text>
<text x="256" y="749" font-size="7" transform="rotate(-90, 256, 749) translate(-22, 0)" fill="#1e72f9">ROOM</text>
<text x="855" y="784" font-size="7" fill="#1e72f9">lot</text>
<text x="899" y="676" font-size="7" fill="#1e72f9">keep</text>
<text x="248" y="557" font-size="7" fill="#1e72f9">anything</text>
<text x="435" y="737" font-size="7" fill="#1e72f9">leave</text>
<text x="568" y="663" font-size="7" fill="#1e72f9">canyon</text>
<text x="920" y="755" font-size="7" fill="#1e72f9">quite</text>
<text x="1026" y="744" font-size="7" fill="#1e72f9">speed</text>
<text x="121" y="842" font-size="7" fill="#1e72f9">table</text>
<text x="231" y="907" font-size="7" fill="#1e72f9">disappear</text>
<text x="449" y="855" font-size="7" fill="#1e72f9">use</text>
<text x="365" y="493" font-size="7" fill="#1e72f9">Five</text>
<text x="500" y="622" font-size="7" fill="#1e72f9">board</text>
<text x="572" y="812" font-size="7" fill="#1e72f9">target</text>
<text x="334" y="721" font-size="7" fill="#1e72f9">grab</text>
<text x="203" y="440" font-size="7" fill="#1e72f9">R2 unit</text>
<text x="697" y="287" font-size="7" fill="#1e72f9">Aunt Beru</text>
<text x="537" y="655" font-size="7" transform="rotate(-90, 537, 655) translate(-41, 0)" fill="#1e72f9">Ben Kenobi</text>
<text x="306" y="641" font-size="7" transform="rotate(-90, 306, 641) translate(-46, 0)" fill="#1e72f9">toward Death</text>
<text x="584" y="740" font-size="7" fill="#1e72f9">TIE ship</text>
<text x="970" y="311" font-size="7" transform="rotate(-90, 970, 311) translate(-42, 0)" fill="#1e72f9">STAR MAIN</text>
<text x="748" y="385" font-size="6" fill="#1e72f9">FORWARD BAY</text>
<text x="253" y="227" font-size="6" fill="#1e72f9">Imperial stormtrooper</text>
<text x="411" y="148" font-size="6" fill="#1e72f9">Rebel fighter</text>
<text x="759" y="740" font-size="6" fill="#1e72f9">STAR TRENCH</text>
<text x="192" y="918" font-size="6" fill="#1e72f9">struggle</text>
<text x="382" y="767" font-size="6" fill="#1e72f9">smoke</text>
<text x="1004" y="431" font-size="6" fill="#1e72f9">near</text>
<text x="739" y="571" font-size="6" fill="#1e72f9">horizon</text>
<text x="329" y="476" font-size="6" fill="#1e72f9">air</text>
<text x="778" y="855" font-size="6" fill="#1e72f9">smile</text>
<text x="839" y="579" font-size="6" fill="#1e72f9">sight</text>
<text x="176" y="629" font-size="6" fill="#1e72f9">distance</text>
<text x="335" y="631" font-size="6" fill="#1e72f9">direction</text>
<text x="215" y="691" font-size="6" fill="#1e72f9">approaching</text>
<text x="849" y="635" font-size="6" fill="#1e72f9">hatch</text>
<text x="551" y="597" font-size="6" fill="#1e72f9">narrow</text>
<text x="529" y="739" font-size="6" fill="#1e72f9">life</text>
<text x="459" y="663" font-size="6" fill="#1e72f9">bad</text>
<text x="248" y="701" font-size="6" fill="#1e72f9">uncle</text>
<text x="464" y="546" font-size="6" fill="#1e72f9">blaster</text>
<text x="499" y="882" font-size="6" fill="#1e72f9">seen</text>
<text x="475" y="382" font-size="6" fill="#1e72f9">line</text>
<text x="708" y="171" font-size="6" fill="#1e72f9">shoulder</text>
<text x="529" y="632" font-size="6" fill="#1e72f9">master</text>
<text x="504" y="451" font-size="6" fill="#1e72f9">become</text>
<text x="821" y="412" font-size="6" fill="#1e72f9">range</text>
<text x="218" y="419" font-size="6" fill="#1e72f9">cell</text>
<text x="239" y="852" font-size="6" fill="#1e72f9">port</text>
<text x="113" y="853" font-size="6" fill="#1e72f9">wingmen</text>
<text x="587" y="531" font-size="5" fill="#1e72f9">REBEL BLOCKADE</text>
<text x="381" y="389" font-size="5" fill="#1e72f9">BLOCKADE RUNNER</text>
<text x="191" y="770" font-size="5" fill="#1e72f9">shakes head</text>
<text x="791" y="842" font-size="5" fill="#1e72f9">old Ben</text>
<text x="546" y="531" font-size="5" fill="#1e72f9">Rebel base</text>
<text x="210" y="634" font-size="5" fill="#1e72f9">CONTROL ROOM</text>
<text x="1034" y="672" font-size="5" fill="#1e72f9">COCKPIT TRAVELING</text>
<text x="957" y="452" font-size="5" fill="#1e72f9">new</text>
<text x="858" y="698" font-size="5" fill="#1e72f9">home</text>
<text x="271" y="542" font-size="5" fill="#1e72f9">half</text>
<text x="739" y="512" font-size="5" transform="rotate(-90, 739, 512) translate(-17, 0)" fill="#1e72f9">Hurry</text>
<text x="609" y="107" font-size="5" fill="#1e72f9">young</text>
<text x="251" y="714" font-size="5" fill="#1e72f9">end</text>
<text x="234" y="642" font-size="5" fill="#1e72f9">soldier</text>
<text x="932" y="513" font-size="5" transform="rotate(-90, 932, 513) translate(-19, 0)" fill="#1e72f9">getting</text>
<text x="988" y="406" font-size="5" fill="#1e72f9">course</text>
<text x="516" y="324" font-size="5" fill="#1e72f9">worry</text>
<text x="602" y="789" font-size="5" fill="#1e72f9">fight</text>
<text x="675" y="345" font-size="5" fill="#1e72f9">part</text>
<text x="243" y="268" font-size="5" fill="#1e72f9">approaches</text>
<text x="764" y="297" font-size="5" fill="#1e72f9">sand</text>
<text x="881" y="260" font-size="5" fill="#1e72f9">whistle</text>
<text x="131" y="686" font-size="5" fill="#1e72f9">distant</text>
<text x="1076" y="721" font-size="5" fill="#1e72f9">left</text>
<text x="390" y="506" font-size="5" fill="#1e72f9">might</text>
<text x="935" y="486" font-size="5" fill="#1e72f9">bit</text>
<text x="303" y="471" font-size="5" fill="#1e72f9">shoot</text>
<text x="459" y="813" font-size="5" fill="#1e72f9">followed</text>
<text x="934" y="324" font-size="5" transform="rotate(-90, 934, 324) translate(-6, 0)" fill="#1e72f9">Uh</text>
<text x="764" y="129" font-size="5" fill="#1e72f9">hangar</text>
<text x="600" y="335" font-size="5" fill="#1e72f9">able</text>
<text x="150" y="822" font-size="5" fill="#1e72f9">blow</text>
<text x="436" y="842" font-size="5" fill="#1e72f9">bartender</text>
<text x="83" y="809" font-size="5" transform="rotate(-90, 83, 809) translate(-13, 0)" fill="#1e72f9">fast</text>
<text x="489" y="837" font-size="5" fill="#1e72f9">check</text>
<text x="732" y="742" font-size="5" fill="#1e72f9">GREEDO</text>
<text x="484" y="257" font-size="5" fill="#1e72f9">green</text>
<text x="862" y="484" font-size="5" fill="#1e72f9">crew</text>
<text x="668" y="560" font-size="5" fill="#1e72f9">flame</text>
<text x="258" y="586" font-size="5" fill="#1e72f9">tower</text>
<text x="306" y="633" font-size="5" fill="#1e72f9">headset</text>
<text x="877" y="700" font-size="5" fill="#1e72f9">Uncle Owen</text>
<text x="816" y="647" font-size="5" fill="#1e72f9">HOLD AREA</text>
<text x="458" y="173" font-size="5" fill="#1e72f9">TATOOINE MOS</text>
<text x="751" y="214" font-size="5" fill="#1e72f9">Han Solo</text>
<text x="720" y="115" font-size="5" transform="rotate(-90, 720, 115) translate(-37, 0)" fill="#1e72f9">control panel</text>
</svg>
