<svg width="1190" height="1028" xmlns="http://www.w3.org/2000/svg">
    <defs><style type="text/css">
    @import url("https://fonts.googleapis.com/css?family=Syncopate:700");
    text {font-family: 'Syncopate', sans-serif;font-weight:bold;
    font-kerning:none;
    font-variant-ligatures:none}
    </style></defs>
<rect width="100%" height="100%" fill="white"/>
<text x="369" y="244" font-size="113" fill="#1e72f9">Luke</text>
<text x="409" y="762" font-size="80" fill="#1e72f9">Han</text>
<text x="150" y="692" font-size="77" fill="#1e72f9">DEATH STAR</text>
<text x="582" y="610" font-size="66" fill="#1e72f9">THREEPIO</text>
<text x="497" y="538" font-size="59" fill="#1e72f9">Ben</text>
<text x="239" y="611" font-size="51" fill="#1e72f9">ship</text>
<text x="313" y="446" font-size="49" fill="#1e72f9">Leia</text>
<text x="443" y="139" font-size="47" fill="#1e72f9">one</text>
<text x="897" y="374" font-size="45" transform="rotate(-90, 897, 374) translate(-175, 0)" fill="#1e72f9">look</text>
<text x="452" y="805" font-size="45" fill="#1e72f9">RED LEADER</text>
<text x="357" y="482" font-size="44" fill="#1e72f9">Artoo</text>
<text x="879" y="725" font-size="43" fill="#1e72f9">back</text>
<text x="605" y="840" font-size="42" fill="#1e72f9">move</text>
<text x="572" y="472" font-size="41" fill="#1e72f9">going</text>
<text x="936" y="424" font-size="40" transform="rotate(-90, 936, 424) translate(-124, 0)" fill="#1e72f9">two</text>
<text x="273" y="383" font-size="40" fill="#1e72f9">Biggs</text>
<text x="649" y="760" font-size="34" fill="#1e72f9">TIE fighter</text>
<text x="186" y="719" font-size="34" fill="#1e72f9">Vader</text>
<text x="975" y="339" font-size="33" transform="rotate(-90, 975, 339) translate(-92, 0)" fill="#1e72f9">see</text>
<text x="362" y="160" font-size="23" fill="#1e72f9">MILLENNIUM FALCON</text>
<text x="149" y="670" font-size="23" transform="rotate(-90, 149, 670) translate(-134, 0)" fill="#1e72f9">toward</text>
<text x="329" y="335" font-size="23" fill="#1e72f9">right</text>
<text x="645" y="630" font-size="23" fill="#1e72f9">Luke WING</text>
<text x="598" y="903" font-size="23" fill="#1e72f9">come</text>
<text x="623" y="273" font-size="23" fill="#1e72f9">trooper</text>
<text x="989" y="686" font-size="22" fill="#1e72f9">robot</text>
<text x="751" y="391" font-size="22" fill="#1e72f9">small</text>
<text x="258" y="565" font-size="22" fill="#1e72f9">SPACE</text>
<text x="509" y="558" font-size="22" fill="#1e72f9">now</text>
<text x="251" y="403" font-size="22" fill="#1e72f9">WING FIGHTER</text>
<text x="405" y="615" font-size="22" fill="#1e72f9">take</text>
<text x="271" y="211" font-size="22" fill="#1e72f9">begin</text>
<text x="229" y="468" font-size="22" fill="#1e72f9">make</text>
<text x="672" y="859" font-size="21" fill="#1e72f9">away</text>
<text x="176" y="802" font-size="21" fill="#1e72f9">fire</text>
<text x="670" y="526" font-size="21" fill="#1e72f9">will</text>
<text x="648" y="120" font-size="21" fill="#1e72f9">turn</text>
<text x="264" y="248" font-size="21" fill="#1e72f9">stand</text>
<text x="294" y="632" font-size="18" fill="#1e72f9">stormtrooper</text>
<text x="804" y="228" font-size="18" fill="#1e72f9">way</text>
<text x="463" y="99" font-size="18" fill="#1e72f9">side</text>
<text x="588" y="557" font-size="18" fill="#1e72f9">COCKPIT Luke</text>
<text x="209" y="487" font-size="18" fill="#1e72f9">sir</text>
<text x="110" y="790" font-size="18" transform="rotate(-90, 110, 790) translate(-76, 0)" fill="#1e72f9">think</text>
<text x="224" y="440" font-size="18" fill="#1e72f9">head</text>
<text x="562" y="489" font-size="17" fill="#1e72f9">DARTH VADER</text>
<text x="619" y="136" font-size="17" fill="#1e72f9">GOLD LEADER</text>
<text x="713" y="719" font-size="17" fill="#1e72f9">huge</text>
<text x="525" y="259" font-size="17" fill="#1e72f9">got</text>
<text x="749" y="158" font-size="17" fill="#1e72f9">us</text>
<text x="177" y="738" font-size="17" fill="#1e72f9">time</text>
<text x="638" y="875" font-size="17" fill="#1e72f9">computer</text>
<text x="202" y="453" font-size="17" transform="rotate(-90, 202, 453) translate(-103, 0)" fill="#1e72f9">several</text>
<text x="482" y="440" font-size="17" fill="#1e72f9">Rebel</text>
<text x="531" y="95" font-size="17" fill="#1e72f9">know</text>
<text x="134" y="902" font-size="15" fill="#1e72f9">Chewbacca</text>
<text x="501" y="917" font-size="13" fill="#1e72f9">SURFACE DEATH</text>
<text x="316" y="227" font-size="13" fill="#1e72f9">long</text>
<text x="324" y="348" font-size="13" fill="#1e72f9">OFFICER</text>
<text x="174" y="761" font-size="13" fill="#1e72f9">across</text>
<text x="495" y="421" font-size="13" fill="#1e72f9">OWEN</text>
<text x="271" y="180" font-size="13" fill="#1e72f9">pirateship</text>
<text x="325" y="137" font-size="13" fill="#1e72f9">something</text>
<text x="462" y="874" font-size="13" fill="#1e72f9">go</text>
<text x="775" y="407" font-size="13" fill="#1e72f9">control</text>
<text x="123" y="731" font-size="13" transform="rotate(-90, 123, 731) translate(-155, 0)" fill="#1e72f9">FIGHTER COCKPIT</text>
<text x="799" y="194" font-size="13" fill="#1e72f9">behind</text>
<text x="722" y="436" font-size="13" fill="#1e72f9">hit</text>
<text x="885" y="264" font-size="13" fill="#1e72f9">light</text>
<text x="953" y="661" font-size="13" fill="#1e72f9">WING COCKPIT</text>
<text x="944" y="531" font-size="13" fill="#1e72f9">Imperial</text>
<text x="217" y="261" font-size="13" fill="#1e72f9">around</text>
<text x="393" y="509" font-size="13" fill="#1e72f9">Suddenly</text>
<text x="445" y="825" font-size="13" fill="#1e72f9">troops</text>
<text x="876" y="225" font-size="13" fill="#1e72f9">eye</text>
<text x="155" y="781" font-size="13" fill="#1e72f9">start</text>
<text x="136" y="819" font-size="13" transform="rotate(-90, 136, 819) translate(-65, 0)" fill="#1e72f9">TARKIN</text>
<text x="789" y="242" font-size="13" fill="#1e72f9">Luke look</text>
<text x="801" y="646" font-size="13" fill="#1e72f9">hand</text>
<text x="884" y="687" font-size="13" fill="#1e72f9">another</text>
<text x="252" y="783" font-size="13" transform="rotate(-90, 252, 783) translate(-89, 0)" fill="#1e72f9">hallway</text>
<text x="998" y="634" font-size="13" fill="#1e72f9">little</text>
<text x="725" y="286" font-size="13" fill="#1e72f9">VOICE</text>
<text x="408" y="704" font-size="13" transform="rotate(-90, 408, 704) translate(-48, 0)" fill="#1e72f9">face</text>
<text x="837" y="774" font-size="13" fill="#1e72f9">blast</text>
<text x="961" y="548" font-size="13" fill="#1e72f9">large</text>
<text x="957" y="513" font-size="13" fill="#1e72f9">wall</text>
<text x="800" y="208" font-size="13" fill="#1e72f9">creature</text>
<text x="663" y="707" font-size="13" fill="#1e72f9">give</text>
<text x="914" y="293" font-size="13" fill="#1e72f9">run</text>
<text x="259" y="226" font-size="13" fill="#1e72f9">pilot</text>
<text x="922" y="324" font-size="13" fill="#1e72f9">race</text>
<text x="384" y="120" font-size="13" fill="#1e72f9">seem</text>
<text x="501" y="573" font-size="13" fill="#1e72f9">Force</text>
<text x="223" y="420" font-size="13" fill="#1e72f9">trench</text>
<text x="830" y="559" font-size="10" fill="#1e72f9">SPACE AROUND</text>
<text x="362" y="493" font-size="10" fill="#1e72f9">AROUND DEATH</text>
<text x="895" y="277" font-size="10" fill="#1e72f9">door</text>
<text x="446" y="751" font-size="10" transform="rotate(-90, 446, 751) translate(-58, 0)" fill="#1e72f9">system</text>
<text x="700" y="889" font-size="10" fill="#1e72f9">stop</text>
<text x="234" y="885" font-size="10" fill="#1e72f9">Well</text>
<text x="1043" y="714" font-size="10" fill="#1e72f9">Jawa</text>
<text x="284" y="165" font-size="10" fill="#1e72f9">looking</text>
<text x="445" y="847" font-size="10" fill="#1e72f9">Solo</text>
<text x="177" y="634" font-size="10" fill="#1e72f9">Star surface</text>
<text x="800" y="174" font-size="10" fill="#1e72f9">surface</text>
<text x="180" y="567" font-size="10" transform="rotate(-90, 180, 567) translate(-35, 0)" fill="#1e72f9">past</text>
<text x="162" y="917" font-size="10" fill="#1e72f9">laserfire</text>
<text x="155" y="814" font-size="10" fill="#1e72f9">Alderaan</text>
<text x="439" y="522" font-size="10" fill="#1e72f9">pull</text>
<text x="376" y="657" font-size="10" transform="rotate(-90, 376, 657) translate(-91, 0)" fill="#1e72f9">COCKPIT Red</text>
<text x="448" y="859" font-size="10" fill="#1e72f9">power</text>
<text x="289" y="331" font-size="10" fill="#1e72f9">old</text>
<text x="387" y="314" font-size="10" fill="#1e72f9">must</text>
<text x="858" y="622" font-size="10" fill="#1e72f9">WEDGE</text>
<text x="657" y="730" font-size="9" fill="#1e72f9">MASSASSI OUTPOST</text>
<text x="391" y="703" font-size="9" transform="rotate(-90, 391, 703) translate(-61, 0)" fill="#1e72f9">Princess</text>
<text x="471" y="889" font-size="9" fill="#1e72f9">sound</text>
<text x="600" y="117" font-size="9" fill="#1e72f9">hold</text>
<text x="423" y="203" font-size="9" fill="#1e72f9">say</text>
<text x="753" y="369" font-size="9" fill="#1e72f9">WAR ROOM</text>
<text x="915" y="307" font-size="9" fill="#1e72f9">RED TEN</text>
<text x="204" y="276" font-size="9" fill="#1e72f9">want</text>
<text x="494" y="399" font-size="9" fill="#1e72f9">good</text>
<text x="440" y="378" font-size="9" fill="#1e72f9">droid</text>
<text x="921" y="672" font-size="9" fill="#1e72f9">continue</text>
<text x="609" y="631" font-size="9" fill="#1e72f9">dive</text>
<text x="1011" y="644" font-size="9" fill="#1e72f9">GOLD FIVE</text>
<text x="297" y="261" font-size="9" fill="#1e72f9">sure</text>
<text x="411" y="178" font-size="9" fill="#1e72f9">front</text>
<text x="566" y="270" font-size="9" fill="#1e72f9">friend</text>
<text x="741" y="419" font-size="9" fill="#1e72f9">wait</text>
<text x="560" y="596" font-size="9" fill="#1e72f9">find</text>
<text x="673" y="505" font-size="9" fill="#1e72f9">standing</text>
<text x="294" y="149" font-size="9" fill="#1e72f9">speeder</text>
<text x="350" y="452" font-size="9" transform="rotate(-90, 350, 452) translate(-27, 0)" fill="#1e72f9">gun</text>
<text x="606" y="852" font-size="9" fill="#1e72f9">comlink</text>
<text x="365" y="254" font-size="9" fill="#1e72f9">VADER COCKPIT</text>
<text x="671" y="536" font-size="8" fill="#1e72f9">COCKPIT Vader</text>
<text x="403" y="99" font-size="8" fill="#1e72f9">starship</text>
<text x="357" y="117" font-size="8" fill="#1e72f9">sit</text>
<text x="614" y="97" font-size="8" fill="#1e72f9">moment</text>
<text x="500" y="208" font-size="8" fill="#1e72f9">enter</text>
<text x="505" y="178" font-size="8" fill="#1e72f9">thing</text>
<text x="661" y="717" font-size="8" fill="#1e72f9">coming</text>
<text x="1049" y="696" font-size="8" fill="#1e72f9">Obi Wan</text>
<text x="507" y="609" font-size="8" transform="rotate(-90, 507, 609) translate(-92, 0)" fill="#1e72f9">FALCON COCKPIT</text>
<text x="258" y="189" font-size="7" fill="#1e72f9">LEADER COCKPIT</text>
<text x="913" y="620" font-size="7" fill="#1e72f9">LEADER WING</text>
<text x="825" y="721" font-size="7" fill="#1e72f9">planet</text>
<text x="227" y="497" font-size="7" transform="rotate(-90, 227, 497) translate(-32, 0)" fill="#1e72f9">close</text>
<text x="245" y="730" font-size="7" fill="#1e72f9">group</text>
<text x="926" y="418" font-size="7" fill="#1e72f9">let</text>
<text x="800" y="159" font-size="7" fill="#1e72f9">attack</text>
<text x="442" y="533" font-size="7" fill="#1e72f9">Chewie</text>
<text x="956" y="557" font-size="7" fill="#1e72f9">Princess Leia</text>
<text x="567" y="437" font-size="7" fill="#1e72f9">MOS EISLEY</text>
<text x="477" y="492" font-size="6" fill="#1e72f9">targeting device</text>
<text x="650" y="674" font-size="6" transform="rotate(-90, 650, 674) translate(-26, 0)" fill="#1e72f9">short</text>
<text x="239" y="220" font-size="6" transform="rotate(-90, 239, 220) translate(-25, 0)" fill="#1e72f9">much</text>
<text x="791" y="816" font-size="6" fill="#1e72f9">watches</text>
<text x="741" y="407" font-size="6" fill="#1e72f9">work</text>
<text x="583" y="336" font-size="6" fill="#1e72f9">help</text>
<text x="831" y="424" font-size="6" fill="#1e72f9">put</text>
<text x="920" y="761" font-size="6" fill="#1e72f9">Oh</text>
<text x="931" y="739" font-size="6" fill="#1e72f9">father</text>
<text x="1022" y="737" font-size="6" fill="#1e72f9">position</text>
<text x="902" y="392" font-size="6" fill="#1e72f9">point</text>
<text x="520" y="583" font-size="6" fill="#1e72f9">docking bay</text>
<text x="829" y="631" font-size="6" fill="#1e72f9">OUTPOST WAR</text>
<text x="431" y="834" font-size="6" fill="#1e72f9">weapon</text>
<text x="981" y="416" font-size="6" fill="#1e72f9">along</text>
<text x="900" y="238" font-size="6" fill="#1e72f9">hear</text>
<text x="86" y="776" font-size="6" fill="#1e72f9">shut</text>
<text x="436" y="213" font-size="6" fill="#1e72f9">heard</text>
<text x="715" y="149" font-size="6" fill="#1e72f9">last</text>
<text x="613" y="701" font-size="6" fill="#1e72f9">even</text>
<text x="679" y="769" font-size="6" fill="#1e72f9">guard</text>
<text x="467" y="256" font-size="6" fill="#1e72f9">laserbolt</text>
<text x="614" y="169" font-size="6" fill="#1e72f9">appear</text>
<text x="427" y="702" font-size="6" fill="#1e72f9">Artoo Detoo</text>
<text x="918" y="400" font-size="6" fill="#1e72f9">far</text>
<text x="1022" y="619" font-size="6" fill="#1e72f9">Empire</text>
<text x="281" y="344" font-size="6" fill="#1e72f9">enough</text>
<text x="743" y="295" font-size="6" fill="#1e72f9">explosion</text>
<text x="624" y="585" font-size="6" transform="rotate(-90, 624, 585) translate(-27, 0)" fill="#1e72f9">floor</text>
<text x="492" y="899" font-size="6" fill="#1e72f9">follow</text>
<text x="369" y="569" font-size="6" fill="#1e72f9">four</text>
<text x="204" y="442" font-size="6" fill="#1e72f9">kid</text>
<text x="408" y="188" font-size="6" fill="#1e72f9">Sandpeople</text>
<text x="390" y="784" font-size="6" fill="#1e72f9">open</text>
<text x="962" y="461" font-size="6" transform="rotate(-90, 962, 461) translate(-28, 0)" fill="#1e72f9">Jabba</text>
<text x="829" y="708" font-size="6" fill="#1e72f9">screen</text>
<text x="498" y="190" font-size="6" fill="#1e72f9">plan</text>
<text x="729" y="702" font-size="6" fill="#1e72f9">explode</text>
<text x="670" y="283" font-size="6" fill="#1e72f9">Dodonna</text>
<text x="338" y="726" font-size="6" fill="#1e72f9">zoom</text>
<text x="315" y="313" font-size="6" fill="#1e72f9">INTERCOM VOICE</text>
<text x="714" y="769" font-size="6" fill="#1e72f9">COCKPIT Gold</text>
<text x="597" y="768" font-size="6" fill="#1e72f9">firing</text>
<text x="841" y="787" font-size="6" fill="#1e72f9">streak</text>
<text x="278" y="544" font-size="6" fill="#1e72f9">electronic</text>
<text x="700" y="905" font-size="6" fill="#1e72f9">boy</text>
<text x="253" y="756" font-size="6" transform="rotate(-90, 253, 756) translate(-22, 0)" fill="#1e72f9">next</text>
<text x="540" y="926" font-size="6" fill="#1e72f9">minute</text>
<text x="770" y="265" font-size="6" fill="#1e72f9">goes</text>
<text x="403" y="594" font-size="6" fill="#1e72f9">Commander</text>
<text x="757" y="436" font-size="6" fill="#1e72f9">laser</text>
<text x="930" y="546" font-size="6" fill="#1e72f9">man</text>
<text x="616" y="248" font-size="6" fill="#1e72f9">almost</text>
<text x="725" y="119" font-size="6" fill="#1e72f9">tell</text>
<text x="184" y="576" font-size="6" fill="#1e72f9">area</text>
<text x="402" y="794" font-size="6" fill="#1e72f9">watch</text>
<text x="212" y="510" font-size="6" transform="rotate(-90, 212, 510) translate(-48, 0)" fill="#1e72f9">formation</text>
<text x="158" y="699" font-size="6" transform="rotate(-90, 158, 699) translate(-56, 0)" fill="#1e72f9">little Artoo</text>
<text x="985" y="428" font-size="6" fill="#1e72f9">slowly</text>
<text x="1032" y="606" font-size="6" fill="#1e72f9">first</text>
<text x="460" y="547" font-size="6" fill="#1e72f9">station</text>
<text x="859" y="443" font-size="6" transform="rotate(-90, 859, 443) translate(-19, 0)" fill="#1e72f9">tiny</text>
<text x="234" y="209" font-size="6" fill="#1e72f9">giant</text>
<text x="1045" y="724" font-size="6" fill="#1e72f9">better</text>
<text x="863" y="524" font-size="6" fill="#1e72f9">DAY</text>
<text x="771" y="852" font-size="6" fill="#1e72f9">speak</text>
<text x="214" y="774" font-size="6" fill="#1e72f9">dead</text>
<text x="390" y="773" font-size="6" fill="#1e72f9">thought</text>
<text x="492" y="322" font-size="6" fill="#1e72f9">big</text>
<text x="516" y="633" font-size="6" fill="#1e72f9">second</text>
<text x="933" y="335" font-size="6" fill="#1e72f9">really</text>
<text x="797" y="659" font-size="6" fill="#1e72f9">three</text>
<text x="947" y="452" font-size="6" transform="rotate(-90, 947, 452) translate(-62, 0)" fill="#1e72f9">Sandcrawler</text>
<text x="344" y="190" font-size="6" fill="#1e72f9">beep</text>
<text x="901" y="607" font-size="6" fill="#1e72f9">Stay</text>
<text x="218" y="605" font-size="6" fill="#1e72f9">arm</text>
<text x="905" y="378" font-size="6" fill="#1e72f9">Wookiee</text>
<text x="784" y="148" font-size="6" fill="#1e72f9">moon</text>
<text x="577" y="165" font-size="6" transform="rotate(-90, 577, 165) translate(-70, 0)" fill="#1e72f9">battle station</text>
<text x="825" y="731" font-size="6" fill="#1e72f9">LUKE Well</text>
<text x="523" y="637" font-size="6" transform="rotate(-90, 523, 637) translate(-64, 0)" fill="#1e72f9">looks around</text>
<text x="168" y="696" font-size="6" transform="rotate(-90, 168, 696) translate(-68, 0)" fill="#1e72f9">beeping sound</text>
<text x="571" y="705" font-size="6" transform="rotate(-90, 571, 705) translate(-63, 0)" fill="#1e72f9">laser cannon</text>
<text x="791" y="826" font-size="6" fill="#1e72f9">outside</text>
<text x="705" y="158" font-size="6" fill="#1e72f9">corridor</text>
<text x="947" y="440" font-size="6" fill="#1e72f9">feet</text>
<text x="422" y="660" font-size="6" transform="rotate(-90, 422, 660) translate(-27, 0)" fill="#1e72f9">place</text>
<text x="91" y="785" font-size="6" transform="rotate(-90, 91, 785) translate(-59, 0)" fill="#1e72f9">subhallway</text>
<text x="437" y="316" font-size="6" fill="#1e72f9">rushes</text>
<text x="243" y="739" font-size="6" fill="#1e72f9">found</text>
<text x="303" y="408" font-size="6" transform="rotate(-90, 303, 408) translate(-27, 0)" fill="#1e72f9">great</text>
<text x="589" y="772" font-size="6" transform="rotate(-90, 589, 772) translate(-48, 0)" fill="#1e72f9">Rebellion</text>
<text x="585" y="256" font-size="6" fill="#1e72f9">cut</text>
<text x="1020" y="513" font-size="6" fill="#1e72f9">spot</text>
<text x="793" y="836" font-size="6" fill="#1e72f9">jump</text>
<text x="246" y="270" font-size="6" fill="#1e72f9">Listen</text>
<text x="475" y="834" font-size="6" fill="#1e72f9">trying</text>
<text x="211" y="620" font-size="6" fill="#1e72f9">never</text>
<text x="481" y="389" font-size="6" transform="rotate(-90, 481, 389) translate(-24, 0)" fill="#1e72f9">need</text>
<text x="982" y="401" font-size="6" fill="#1e72f9">Okay</text>
<text x="584" y="105" font-size="6" fill="#1e72f9">reaches</text>
<text x="837" y="436" font-size="6" fill="#1e72f9">year</text>
<text x="607" y="865" font-size="6" fill="#1e72f9">still</text>
<text x="486" y="844" font-size="6" fill="#1e72f9">try</text>
<text x="899" y="248" font-size="6" fill="#1e72f9">speaker</text>
<text x="184" y="746" font-size="5" fill="#1e72f9">THREEPIO Artoo</text>
<text x="408" y="221" font-size="5" fill="#1e72f9">laser pistol</text>
<text x="782" y="769" font-size="5" fill="#1e72f9">Artoo beeps</text>
<text x="687" y="165" font-size="5" transform="rotate(-90, 687, 165) translate(-46, 0)" fill="#1e72f9">Wan Kenobi</text>
<text x="243" y="620" font-size="5" fill="#1e72f9">Imperial TIE</text>
</svg>
