<svg width="1190" height="1028" xmlns="http://www.w3.org/2000/svg">
    <defs><style type="text/css">
    @import url("https://fonts.googleapis.com/css?family=Crushed");
    text {font-family: 'Crushed', cursive;
    font-kerning:none;
    font-variant-ligatures:none}
    </style></defs>
<text x="505" y="764" font-size="158" fill="#1e72f9">Luke</text>
<text x="610" y="619" font-size="112" fill="#1e72f9">Han</text>
<text x="391" y="229" font-size="108" fill="#1e72f9">DEATH STAR</text>
<text x="180" y="702" font-size="101" fill="#1e72f9">THREEPIO</text>
<text x="485" y="510" font-size="90" fill="#1e72f9">Ben</text>
<text x="269" y="219" font-size="78" fill="#1e72f9">ship</text>
<text x="337" y="460" font-size="76" fill="#1e72f9">Leia</text>
<text x="840" y="589" font-size="72" fill="#1e72f9">one</text>
<text x="288" y="387" font-size="69" fill="#1e72f9">look</text>
<text x="411" y="133" font-size="64" fill="#1e72f9">RED LEADER</text>
<text x="627" y="830" font-size="63" fill="#1e72f9">Artoo</text>
<text x="142" y="770" font-size="62" fill="#1e72f9">back</text>
<text x="268" y="611" font-size="60" fill="#1e72f9">move</text>
<text x="893" y="711" font-size="58" fill="#1e72f9">going</text>
<text x="883" y="509" font-size="56" fill="#1e72f9">two</text>
<text x="476" y="731" font-size="56" transform="rotate(-90, 476, 731) translate(-107, 0)" fill="#1e72f9">Biggs</text>
<text x="623" y="268" font-size="48" fill="#1e72f9">TIE fighter</text>
<text x="624" y="877" font-size="47" fill="#1e72f9">Vader</text>
<text x="869" y="187" font-size="46" transform="rotate(-90, 869, 187) translate(-57, 0)" fill="#1e72f9">see</text>
<text x="751" y="406" font-size="37" fill="#1e72f9">MILLENNIUM FALCON</text>
<text x="989" y="509" font-size="36" transform="rotate(-90, 989, 509) translate(-99, 0)" fill="#1e72f9">toward</text>
<text x="388" y="503" font-size="36" fill="#1e72f9">right</text>
<text x="469" y="546" font-size="36" fill="#1e72f9">Luke WING</text>
<text x="840" y="762" font-size="36" fill="#1e72f9">come</text>
<text x="622" y="519" font-size="36" fill="#1e72f9">trooper</text>
<text x="890" y="443" font-size="35" fill="#1e72f9">robot</text>
<text x="795" y="619" font-size="35" fill="#1e72f9">small</text>
<text x="130" y="765" font-size="34" transform="rotate(-90, 130, 765) translate(-68, 0)" fill="#1e72f9">SPACE</text>
<text x="507" y="796" font-size="33" fill="#1e72f9">now</text>
<text x="222" y="247" font-size="33" fill="#1e72f9">WING FIGHTER</text>
<text x="131" y="711" font-size="33" fill="#1e72f9">take</text>
<text x="537" y="584" font-size="33" fill="#1e72f9">begin</text>
<text x="669" y="474" font-size="33" fill="#1e72f9">make</text>
<text x="1011" y="655" font-size="32" fill="#1e72f9">away</text>
<text x="766" y="782" font-size="32" fill="#1e72f9">fire</text>
<text x="459" y="405" font-size="32" fill="#1e72f9">will</text>
<text x="190" y="486" font-size="32" fill="#1e72f9">turn</text>
<text x="697" y="138" font-size="32" fill="#1e72f9">stand</text>
<text x="668" y="644" font-size="28" fill="#1e72f9">stormtrooper</text>
<text x="739" y="854" font-size="27" fill="#1e72f9">way</text>
<text x="501" y="642" font-size="27" fill="#1e72f9">side</text>
<text x="486" y="254" font-size="27" fill="#1e72f9">COCKPIT Luke</text>
<text x="340" y="139" font-size="27" fill="#1e72f9">sir</text>
<text x="202" y="794" font-size="27" fill="#1e72f9">think</text>
<text x="1074" y="678" font-size="27" transform="rotate(-90, 1074, 678) translate(-50, 0)" fill="#1e72f9">head</text>
<text x="206" y="452" font-size="27" fill="#1e72f9">DARTH VADER</text>
<text x="464" y="437" font-size="27" fill="#1e72f9">GOLD LEADER</text>
<text x="838" y="725" font-size="27" fill="#1e72f9">huge</text>
<text x="680" y="106" font-size="27" transform="rotate(-90, 680, 106) translate(-35, 0)" fill="#1e72f9">got</text>
<text x="739" y="433" font-size="27" fill="#1e72f9">us</text>
<text x="176" y="547" font-size="27" fill="#1e72f9">time</text>
<text x="317" y="328" font-size="27" fill="#1e72f9">computer</text>
<text x="355" y="731" font-size="27" fill="#1e72f9">several</text>
<text x="226" y="420" font-size="27" fill="#1e72f9">Rebel</text>
<text x="551" y="672" font-size="27" transform="rotate(-90, 551, 672) translate(-54, 0)" fill="#1e72f9">know</text>
<text x="610" y="900" font-size="27" fill="#1e72f9">Chewbacca</text>
<text x="148" y="908" font-size="21" fill="#1e72f9">SURFACE DEATH</text>
<text x="142" y="804" font-size="21" fill="#1e72f9">long</text>
<text x="572" y="789" font-size="21" fill="#1e72f9">OFFICER</text>
<text x="185" y="518" font-size="21" fill="#1e72f9">across</text>
<text x="774" y="806" font-size="21" fill="#1e72f9">OWEN</text>
<text x="404" y="250" font-size="21" fill="#1e72f9">pirateship</text>
<text x="518" y="915" font-size="21" fill="#1e72f9">something</text>
<text x="181" y="583" font-size="21" fill="#1e72f9">go</text>
<text x="396" y="618" font-size="21" fill="#1e72f9">control</text>
<text x="1011" y="506" font-size="21" transform="rotate(-90, 1011, 506) translate(-117, 0)" fill="#1e72f9">FIGHTER COCKPIT</text>
<text x="610" y="456" font-size="21" fill="#1e72f9">behind</text>
<text x="913" y="272" font-size="21" fill="#1e72f9">hit</text>
<text x="913" y="319" font-size="21" fill="#1e72f9">light</text>
<text x="497" y="724" font-size="21" transform="rotate(-90, 497, 724) translate(-99, 0)" fill="#1e72f9">WING COCKPIT</text>
<text x="877" y="615" font-size="21" fill="#1e72f9">Imperial</text>
<text x="1036" y="681" font-size="21" transform="rotate(-90, 1036, 681) translate(-56, 0)" fill="#1e72f9">around</text>
<text x="762" y="584" font-size="21" fill="#1e72f9">Suddenly</text>
<text x="444" y="858" font-size="21" fill="#1e72f9">troops</text>
<text x="230" y="620" font-size="21" fill="#1e72f9">eye</text>
<text x="602" y="640" font-size="21" fill="#1e72f9">start</text>
<text x="271" y="558" font-size="21" fill="#1e72f9">TARKIN</text>
<text x="861" y="527" font-size="21" fill="#1e72f9">Luke look</text>
<text x="94" y="853" font-size="21" fill="#1e72f9">hand</text>
<text x="723" y="289" font-size="21" fill="#1e72f9">another</text>
<text x="479" y="449" font-size="21" transform="rotate(-90, 479, 449) translate(-64, 0)" fill="#1e72f9">hallway</text>
<text x="875" y="232" font-size="21" fill="#1e72f9">little</text>
<text x="138" y="672" font-size="21" fill="#1e72f9">VOICE</text>
<text x="291" y="411" font-size="21" fill="#1e72f9">face</text>
<text x="826" y="784" font-size="21" fill="#1e72f9">blast</text>
<text x="766" y="684" font-size="21" fill="#1e72f9">large</text>
<text x="394" y="758" font-size="21" fill="#1e72f9">wall</text>
<text x="271" y="721" font-size="21" fill="#1e72f9">creature</text>
<text x="107" y="874" font-size="21" fill="#1e72f9">give</text>
<text x="854" y="449" font-size="21" fill="#1e72f9">run</text>
<text x="1019" y="623" font-size="21" fill="#1e72f9">pilot</text>
<text x="615" y="482" font-size="21" fill="#1e72f9">race</text>
<text x="412" y="393" font-size="21" fill="#1e72f9">seem</text>
<text x="912" y="291" font-size="21" fill="#1e72f9">Force</text>
<text x="815" y="640" font-size="21" fill="#1e72f9">trench</text>
<text x="294" y="156" font-size="18" fill="#1e72f9">SPACE AROUND</text>
<text x="205" y="264" font-size="18" fill="#1e72f9">AROUND DEATH</text>
<text x="576" y="809" font-size="18" fill="#1e72f9">door</text>
<text x="968" y="430" font-size="18" fill="#1e72f9">system</text>
<text x="814" y="168" font-size="18" fill="#1e72f9">stop</text>
<text x="252" y="390" font-size="18" fill="#1e72f9">Well</text>
<text x="598" y="687" font-size="18" transform="rotate(-90, 598, 687) translate(-32, 0)" fill="#1e72f9">Jawa</text>
<text x="766" y="824" font-size="18" fill="#1e72f9">looking</text>
<text x="193" y="812" font-size="18" fill="#1e72f9">Solo</text>
<text x="955" y="515" font-size="18" transform="rotate(-90, 955, 515) translate(-81, 0)" fill="#1e72f9">Star surface</text>
<text x="907" y="461" font-size="18" fill="#1e72f9">surface</text>
<text x="389" y="778" font-size="18" fill="#1e72f9">past</text>
<text x="726" y="737" font-size="18" fill="#1e72f9">laserfire</text>
<text x="721" y="871" font-size="18" fill="#1e72f9">Alderaan</text>
<text x="397" y="586" font-size="18" fill="#1e72f9">pull</text>
<text x="627" y="150" font-size="18" transform="rotate(-90, 627, 150) translate(-74, 0)" fill="#1e72f9">COCKPIT Red</text>
<text x="940" y="729" font-size="18" fill="#1e72f9">power</text>
<text x="378" y="121" font-size="18" fill="#1e72f9">old</text>
<text x="740" y="456" font-size="18" fill="#1e72f9">must</text>
<text x="487" y="564" font-size="18" fill="#1e72f9">WEDGE</text>
<text x="469" y="147" font-size="14" fill="#1e72f9">MASSASSI OUTPOST</text>
<text x="840" y="425" font-size="14" fill="#1e72f9">Princess</text>
<text x="472" y="879" font-size="14" fill="#1e72f9">sound</text>
<text x="112" y="743" font-size="14" fill="#1e72f9">hold</text>
<text x="829" y="800" font-size="14" fill="#1e72f9">say</text>
<text x="258" y="468" font-size="14" fill="#1e72f9">WAR ROOM</text>
<text x="890" y="246" font-size="14" fill="#1e72f9">RED TEN</text>
<text x="958" y="364" font-size="14" fill="#1e72f9">want</text>
<text x="567" y="603" font-size="14" fill="#1e72f9">good</text>
<text x="426" y="518" font-size="14" fill="#1e72f9">droid</text>
<text x="336" y="475" font-size="14" fill="#1e72f9">continue</text>
<text x="236" y="594" font-size="14" fill="#1e72f9">dive</text>
<text x="753" y="368" font-size="14" fill="#1e72f9">GOLD FIVE</text>
<text x="240" y="879" font-size="14" fill="#1e72f9">sure</text>
<text x="920" y="747" font-size="14" fill="#1e72f9">front</text>
<text x="218" y="717" font-size="14" fill="#1e72f9">friend</text>
<text x="785" y="659" font-size="14" fill="#1e72f9">wait</text>
<text x="235" y="208" font-size="14" fill="#1e72f9">find</text>
<text x="930" y="335" font-size="14" fill="#1e72f9">standing</text>
<text x="420" y="368" font-size="14" fill="#1e72f9">speeder</text>
<text x="248" y="749" font-size="14" fill="#1e72f9">gun</text>
<text x="434" y="718" font-size="14" fill="#1e72f9">comlink</text>
<text x="390" y="147" font-size="14" fill="#1e72f9">VADER COCKPIT</text>
<text x="1016" y="670" font-size="14" fill="#1e72f9">COCKPIT Vader</text>
<text x="959" y="660" font-size="14" fill="#1e72f9">starship</text>
<text x="895" y="264" font-size="14" fill="#1e72f9">sit</text>
<text x="791" y="747" font-size="14" fill="#1e72f9">moment</text>
<text x="773" y="146" font-size="14" fill="#1e72f9">enter</text>
<text x="806" y="182" font-size="14" fill="#1e72f9">thing</text>
<text x="563" y="147" font-size="14" fill="#1e72f9">coming</text>
<text x="571" y="268" font-size="14" fill="#1e72f9">Obi Wan</text>
<text x="1025" y="507" font-size="14" transform="rotate(-90, 1025, 507) translate(-78, 0)" fill="#1e72f9">FALCON COCKPIT</text>
<text x="314" y="626" font-size="12" fill="#1e72f9">LEADER COCKPIT</text>
<text x="658" y="533" font-size="12" fill="#1e72f9">LEADER WING</text>
<text x="470" y="615" font-size="12" fill="#1e72f9">planet</text>
<text x="689" y="284" font-size="12" fill="#1e72f9">close</text>
<text x="568" y="648" font-size="12" fill="#1e72f9">group</text>
<text x="134" y="819" font-size="12" fill="#1e72f9">let</text>
<text x="777" y="589" font-size="12" transform="rotate(-90, 777, 589) translate(-28, 0)" fill="#1e72f9">attack</text>
<text x="106" y="887" font-size="12" fill="#1e72f9">Chewie</text>
<text x="640" y="777" font-size="12" fill="#1e72f9">Princess Leia</text>
<text x="892" y="725" font-size="12" fill="#1e72f9">MOS EISLEY</text>
<text x="660" y="486" font-size="11" fill="#1e72f9">targeting device</text>
<text x="360" y="491" font-size="11" fill="#1e72f9">short</text>
<text x="861" y="497" font-size="11" fill="#1e72f9">much</text>
<text x="359" y="400" font-size="11" fill="#1e72f9">watches</text>
<text x="244" y="811" font-size="11" transform="rotate(-90, 244, 811) translate(-21, 0)" fill="#1e72f9">work</text>
<text x="825" y="217" font-size="11" transform="rotate(-90, 825, 217) translate(-19, 0)" fill="#1e72f9">help</text>
<text x="725" y="895" font-size="11" fill="#1e72f9">put</text>
<text x="501" y="829" font-size="11" fill="#1e72f9">Oh</text>
<text x="726" y="532" font-size="11" fill="#1e72f9">father</text>
<text x="614" y="532" font-size="11" fill="#1e72f9">position</text>
<text x="710" y="438" font-size="11" fill="#1e72f9">point</text>
<text x="517" y="808" font-size="11" fill="#1e72f9">docking bay</text>
<text x="604" y="914" font-size="11" fill="#1e72f9">OUTPOST WAR</text>
<text x="268" y="625" font-size="11" fill="#1e72f9">weapon</text>
<text x="502" y="670" font-size="11" transform="rotate(-90, 502, 670) translate(-24, 0)" fill="#1e72f9">along</text>
<text x="591" y="197" font-size="11" transform="rotate(-90, 591, 197) translate(-19, 0)" fill="#1e72f9">hear</text>
<text x="943" y="627" font-size="11" fill="#1e72f9">shut</text>
<text x="856" y="697" font-size="11" fill="#1e72f9">heard</text>
<text x="243" y="573" font-size="11" fill="#1e72f9">last</text>
<text x="289" y="326" font-size="11" fill="#1e72f9">even</text>
<text x="986" y="728" font-size="11" fill="#1e72f9">guard</text>
<text x="291" y="424" font-size="11" fill="#1e72f9">laserbolt</text>
<text x="800" y="202" font-size="11" fill="#1e72f9">appear</text>
<text x="322" y="562" font-size="11" fill="#1e72f9">Artoo Detoo</text>
<text x="891" y="279" font-size="11" fill="#1e72f9">far</text>
<text x="297" y="260" font-size="11" fill="#1e72f9">Empire</text>
<text x="870" y="462" font-size="11" fill="#1e72f9">enough</text>
<text x="471" y="891" font-size="11" fill="#1e72f9">explosion</text>
<text x="489" y="903" font-size="11" fill="#1e72f9">floor</text>
<text x="652" y="281" font-size="11" fill="#1e72f9">follow</text>
<text x="594" y="829" font-size="11" fill="#1e72f9">four</text>
<text x="182" y="783" font-size="11" fill="#1e72f9">kid</text>
<text x="803" y="254" font-size="11" transform="rotate(-90, 803, 254) translate(-48, 0)" fill="#1e72f9">Sandpeople</text>
<text x="768" y="424" font-size="11" fill="#1e72f9">open</text>
<text x="692" y="688" font-size="11" transform="rotate(-90, 692, 688) translate(-23, 0)" fill="#1e72f9">Jabba</text>
<text x="403" y="790" font-size="11" fill="#1e72f9">screen</text>
<text x="259" y="892" font-size="11" fill="#1e72f9">plan</text>
<text x="430" y="530" font-size="11" fill="#1e72f9">explode</text>
<text x="104" y="758" font-size="11" fill="#1e72f9">Dodonna</text>
<text x="431" y="595" font-size="11" fill="#1e72f9">zoom</text>
<text x="94" y="773" font-size="11" transform="rotate(-90, 94, 773) translate(-58, 0)" fill="#1e72f9">INTERCOM VOICE</text>
<text x="456" y="412" font-size="11" transform="rotate(-90, 456, 412) translate(-51, 0)" fill="#1e72f9">COCKPIT Gold</text>
<text x="738" y="468" font-size="11" fill="#1e72f9">firing</text>
<text x="167" y="598" font-size="11" fill="#1e72f9">streak</text>
<text x="386" y="208" font-size="11" transform="rotate(-90, 386, 208) translate(-44, 0)" fill="#1e72f9">electronic</text>
<text x="874" y="204" font-size="11" fill="#1e72f9">boy</text>
<text x="409" y="806" font-size="11" fill="#1e72f9">next</text>
<text x="788" y="837" font-size="11" fill="#1e72f9">minute</text>
<text x="758" y="661" font-size="11" fill="#1e72f9">goes</text>
<text x="739" y="568" font-size="11" transform="rotate(-90, 739, 568) translate(-48, 0)" fill="#1e72f9">Commander</text>
<text x="154" y="816" font-size="11" fill="#1e72f9">laser</text>
<text x="155" y="647" font-size="11" fill="#1e72f9">man</text>
<text x="699" y="778" font-size="11" fill="#1e72f9">almost</text>
<text x="531" y="737" font-size="11" fill="#1e72f9">tell</text>
<text x="531" y="173" font-size="11" transform="rotate(-90, 531, 173) translate(-19, 0)" fill="#1e72f9">area</text>
<text x="176" y="559" font-size="11" fill="#1e72f9">watch</text>
<text x="1089" y="675" font-size="11" transform="rotate(-90, 1089, 675) translate(-41, 0)" fill="#1e72f9">formation</text>
<text x="805" y="372" font-size="10" fill="#1e72f9">little Artoo</text>
<text x="533" y="661" font-size="10" fill="#1e72f9">slowly</text>
<text x="216" y="277" font-size="10" fill="#1e72f9">first</text>
<text x="683" y="107" font-size="10" fill="#1e72f9">station</text>
<text x="511" y="578" font-size="10" fill="#1e72f9">tiny</text>
<text x="810" y="758" font-size="10" fill="#1e72f9">giant</text>
<text x="660" y="622" font-size="10" transform="rotate(-90, 660, 622) translate(-22, 0)" fill="#1e72f9">better</text>
<text x="608" y="871" font-size="10" fill="#1e72f9">DAY</text>
<text x="518" y="405" font-size="10" fill="#1e72f9">speak</text>
<text x="323" y="682" font-size="10" fill="#1e72f9">dead</text>
<text x="820" y="651" font-size="10" fill="#1e72f9">thought</text>
<text x="613" y="488" font-size="10" transform="rotate(-90, 613, 488) translate(-11, 0)" fill="#1e72f9">big</text>
<text x="538" y="264" font-size="10" fill="#1e72f9">second</text>
<text x="535" y="926" font-size="10" fill="#1e72f9">really</text>
<text x="958" y="346" font-size="10" fill="#1e72f9">three</text>
<text x="561" y="179" font-size="10" transform="rotate(-90, 561, 179) translate(-46, 0)" fill="#1e72f9">Sandcrawler</text>
<text x="194" y="717" font-size="10" fill="#1e72f9">beep</text>
<text x="239" y="859" font-size="10" fill="#1e72f9">Stay</text>
<text x="485" y="707" font-size="10" fill="#1e72f9">arm</text>
<text x="840" y="179" font-size="10" fill="#1e72f9">Wookiee</text>
<text x="364" y="744" font-size="10" fill="#1e72f9">moon</text>
<text x="1047" y="677" font-size="10" transform="rotate(-90, 1047, 677) translate(-49, 0)" fill="#1e72f9">battle station</text>
<text x="189" y="919" font-size="10" fill="#1e72f9">LUKE Well</text>
<text x="600" y="651" font-size="9" fill="#1e72f9">looks around</text>
<text x="500" y="83" font-size="9" transform="rotate(-90, 500, 83) translate(-47, 0)" fill="#1e72f9">beeping sound</text>
<text x="421" y="316" font-size="9" fill="#1e72f9">laser cannon</text>
<text x="1020" y="596" font-size="9" fill="#1e72f9">outside</text>
<text x="410" y="351" font-size="9" fill="#1e72f9">corridor</text>
<text x="938" y="347" font-size="9" fill="#1e72f9">feet</text>
<text x="764" y="749" font-size="9" fill="#1e72f9">place</text>
<text x="710" y="168" font-size="9" transform="rotate(-90, 710, 168) translate(-39, 0)" fill="#1e72f9">subhallway</text>
<text x="778" y="693" font-size="9" transform="rotate(-90, 778, 693) translate(-22, 0)" fill="#1e72f9">rushes</text>
<text x="148" y="782" font-size="9" fill="#1e72f9">found</text>
<text x="466" y="176" font-size="9" fill="#1e72f9">great</text>
<text x="586" y="434" font-size="9" fill="#1e72f9">Rebellion</text>
<text x="137" y="714" font-size="9" transform="rotate(-90, 137, 714) translate(-12, 0)" fill="#1e72f9">cut</text>
<text x="417" y="687" font-size="9" transform="rotate(-90, 417, 687) translate(-15, 0)" fill="#1e72f9">spot</text>
<text x="360" y="685" font-size="9" fill="#1e72f9">jump</text>
<text x="787" y="850" font-size="9" fill="#1e72f9">Listen</text>
<text x="398" y="236" font-size="9" transform="rotate(-90, 398, 236) translate(-20, 0)" fill="#1e72f9">trying</text>
<text x="883" y="775" font-size="9" fill="#1e72f9">never</text>
<text x="738" y="681" font-size="9" transform="rotate(-90, 738, 681) translate(-16, 0)" fill="#1e72f9">need</text>
<text x="589" y="614" font-size="9" fill="#1e72f9">Okay</text>
<text x="622" y="249" font-size="9" transform="rotate(-90, 622, 249) translate(-27, 0)" fill="#1e72f9">reaches</text>
<text x="373" y="755" font-size="9" fill="#1e72f9">year</text>
<text x="136" y="832" font-size="9" fill="#1e72f9">still</text>
<text x="1037" y="512" font-size="9" transform="rotate(-90, 1037, 512) translate(-10, 0)" fill="#1e72f9">try</text>
<text x="808" y="562" font-size="9" fill="#1e72f9">speaker</text>
<text x="681" y="148" font-size="7" fill="#1e72f9">THREEPIO Artoo</text>
<text x="389" y="470" font-size="7" fill="#1e72f9">laser pistol</text>
<text x="253" y="730" font-size="7" fill="#1e72f9">Artoo beeps</text>
<text x="463" y="624" font-size="7" fill="#1e72f9">Wan Kenobi</text>
<text x="734" y="776" font-size="7" fill="#1e72f9">Imperial TIE</text>
<text x="608" y="142" font-size="7" fill="#1e72f9">FALCON GUNPORT</text>
<text x="733" y="148" font-size="7" fill="#1e72f9">BIGGS' COCKPIT</text>
<text x="341" y="255" font-size="7" fill="#1e72f9">STAR Three</text>
<text x="589" y="666" font-size="7" fill="#1e72f9">main</text>
<text x="336" y="397" font-size="7" fill="#1e72f9">battle</text>
<text x="264" y="367" font-size="7" fill="#1e72f9">TATOOINE</text>
<text x="591" y="156" font-size="7" transform="rotate(-90, 591, 156) translate(-22, 0)" fill="#1e72f9">battered</text>
<text x="261" y="903" font-size="7" fill="#1e72f9">aim</text>
<text x="967" y="619" font-size="7" fill="#1e72f9">moving</text>
<text x="614" y="841" font-size="7" transform="rotate(-90, 614, 841) translate(-9, 0)" fill="#1e72f9">Hey</text>
<text x="975" y="372" font-size="7" fill="#1e72f9">ROOM</text>
<text x="609" y="510" font-size="7" fill="#1e72f9">lot</text>
<text x="252" y="552" font-size="7" fill="#1e72f9">keep</text>
<text x="821" y="810" font-size="7" fill="#1e72f9">anything</text>
<text x="326" y="650" font-size="7" fill="#1e72f9">leave</text>
<text x="851" y="371" font-size="7" fill="#1e72f9">canyon</text>
<text x="171" y="607" font-size="7" fill="#1e72f9">quite</text>
<text x="533" y="746" font-size="7" fill="#1e72f9">speed</text>
<text x="747" y="883" font-size="7" fill="#1e72f9">table</text>
<text x="563" y="923" font-size="7" fill="#1e72f9">disappear</text>
<text x="684" y="442" font-size="7" fill="#1e72f9">use</text>
<text x="230" y="495" font-size="7" fill="#1e72f9">Five</text>
<text x="1032" y="746" font-size="7" fill="#1e72f9">board</text>
<text x="205" y="625" font-size="7" fill="#1e72f9">target</text>
<text x="815" y="661" font-size="7" fill="#1e72f9">grab</text>
<text x="450" y="868" font-size="7" fill="#1e72f9">R2 unit</text>
<text x="930" y="663" font-size="7" fill="#1e72f9">Aunt Beru</text>
<text x="141" y="720" font-size="7" fill="#1e72f9">Ben Kenobi</text>
<text x="393" y="595" font-size="7" fill="#1e72f9">toward Death</text>
<text x="123" y="901" font-size="7" fill="#1e72f9">TIE ship</text>
<text x="228" y="803" font-size="7" fill="#1e72f9">STAR MAIN</text>
<text x="239" y="624" font-size="7" transform="rotate(-90, 239, 624) translate(-31, 0)" fill="#1e72f9">FORWARD BAY</text>
<text x="138" y="681" font-size="6" fill="#1e72f9">Imperial stormtrooper</text>
<text x="682" y="175" font-size="6" transform="rotate(-90, 682, 175) translate(-30, 0)" fill="#1e72f9">Rebel fighter</text>
<text x="662" y="909" font-size="6" fill="#1e72f9">STAR TRENCH</text>
<text x="482" y="716" font-size="6" fill="#1e72f9">struggle</text>
<text x="379" y="130" font-size="6" fill="#1e72f9">smoke</text>
<text x="544" y="647" font-size="6" fill="#1e72f9">near</text>
<text x="185" y="496" font-size="6" fill="#1e72f9">horizon</text>
<text x="590" y="336" font-size="6" fill="#1e72f9">air</text>
<text x="613" y="797" font-size="6" fill="#1e72f9">smile</text>
<text x="317" y="466" font-size="6" fill="#1e72f9">sight</text>
<text x="872" y="629" font-size="6" fill="#1e72f9">distance</text>
<text x="418" y="627" font-size="6" fill="#1e72f9">direction</text>
<text x="491" y="651" font-size="6" fill="#1e72f9">approaching</text>
<text x="174" y="617" font-size="6" fill="#1e72f9">hatch</text>
<text x="585" y="731" font-size="6" fill="#1e72f9">narrow</text>
<text x="630" y="604" font-size="6" fill="#1e72f9">life</text>
<text x="501" y="914" font-size="6" fill="#1e72f9">bad</text>
<text x="246" y="478" font-size="6" fill="#1e72f9">uncle</text>
<text x="390" y="627" font-size="6" fill="#1e72f9">blaster</text>
<text x="367" y="651" font-size="6" fill="#1e72f9">seen</text>
<text x="506" y="322" font-size="6" fill="#1e72f9">line</text>
<text x="670" y="346" font-size="6" fill="#1e72f9">shoulder</text>
<text x="462" y="375" font-size="6" fill="#1e72f9">master</text>
<text x="190" y="282" font-size="6" fill="#1e72f9">become</text>
<text x="186" y="454" font-size="6" fill="#1e72f9">range</text>
<text x="860" y="475" font-size="6" fill="#1e72f9">cell</text>
<text x="610" y="807" font-size="6" fill="#1e72f9">port</text>
<text x="399" y="515" font-size="6" fill="#1e72f9">wingmen</text>
<text x="229" y="217" font-size="6" fill="#1e72f9">REBEL BLOCKADE</text>
<text x="388" y="166" font-size="6" transform="rotate(-90, 388, 166) translate(-36, 0)" fill="#1e72f9">BLOCKADE RUNNER</text>
<text x="941" y="373" font-size="6" fill="#1e72f9">shakes head</text>
<text x="918" y="756" font-size="6" fill="#1e72f9">old Ben</text>
<text x="762" y="298" font-size="6" fill="#1e72f9">Rebel base</text>
<text x="213" y="663" font-size="6" transform="rotate(-90, 213, 663) translate(-31, 0)" fill="#1e72f9">CONTROL ROOM</text>
<text x="584" y="466" font-size="6" transform="rotate(-90, 584, 466) translate(-36, 0)" fill="#1e72f9">COCKPIT TRAVELING</text>
<text x="999" y="407" font-size="6" fill="#1e72f9">new</text>
<text x="761" y="559" font-size="6" fill="#1e72f9">home</text>
<text x="894" y="296" font-size="6" fill="#1e72f9">half</text>
<text x="735" y="499" font-size="6" transform="rotate(-90, 735, 499) translate(-13, 0)" fill="#1e72f9">Hurry</text>
<text x="316" y="136" font-size="6" fill="#1e72f9">young</text>
<text x="594" y="679" font-size="6" fill="#1e72f9">end</text>
<text x="541" y="493" font-size="6" fill="#1e72f9">soldier</text>
<text x="609" y="459" font-size="6" transform="rotate(-90, 609, 459) translate(-17, 0)" fill="#1e72f9">getting</text>
<text x="868" y="252" font-size="6" fill="#1e72f9">course</text>
<text x="462" y="215" font-size="6" fill="#1e72f9">worry</text>
<text x="683" y="725" font-size="6" fill="#1e72f9">fight</text>
<text x="412" y="331" font-size="6" fill="#1e72f9">part</text>
<text x="970" y="439" font-size="6" transform="rotate(-90, 970, 439) translate(-27, 0)" fill="#1e72f9">approaches</text>
<text x="632" y="280" font-size="6" fill="#1e72f9">sand</text>
<text x="634" y="209" font-size="6" fill="#1e72f9">whistle</text>
<text x="540" y="593" font-size="6" fill="#1e72f9">distant</text>
<text x="177" y="720" font-size="6" fill="#1e72f9">left</text>
<text x="251" y="191" font-size="6" fill="#1e72f9">might</text>
<text x="667" y="567" font-size="6" fill="#1e72f9">bit</text>
<text x="604" y="336" font-size="6" fill="#1e72f9">shoot</text>
<text x="968" y="503" font-size="6" fill="#1e72f9">followed</text>
<text x="640" y="335" font-size="6" transform="rotate(-90, 640, 335) translate(-6, 0)" fill="#1e72f9">Uh</text>
<text x="237" y="842" font-size="6" fill="#1e72f9">hangar</text>
<text x="837" y="434" font-size="6" fill="#1e72f9">able</text>
<text x="994" y="633" font-size="6" fill="#1e72f9">blow</text>
<text x="506" y="722" font-size="6" transform="rotate(-90, 506, 722) translate(-24, 0)" fill="#1e72f9">bartender</text>
<text x="442" y="405" font-size="6" fill="#1e72f9">fast</text>
<text x="817" y="712" font-size="6" fill="#1e72f9">check</text>
<text x="957" y="317" font-size="6" fill="#1e72f9">GREEDO</text>
<text x="586" y="740" font-size="6" fill="#1e72f9">green</text>
<text x="538" y="359" font-size="6" fill="#1e72f9">crew</text>
<text x="635" y="547" font-size="6" transform="rotate(-90, 635, 547) translate(-14, 0)" fill="#1e72f9">flame</text>
<text x="953" y="739" font-size="6" fill="#1e72f9">tower</text>
<text x="766" y="435" font-size="6" fill="#1e72f9">headset</text>
<text x="466" y="656" font-size="6" transform="rotate(-90, 466, 656) translate(-28, 0)" fill="#1e72f9">Uncle Owen</text>
<text x="634" y="697" font-size="6" transform="rotate(-90, 634, 697) translate(-21, 0)" fill="#1e72f9">HOLD AREA</text>
<text x="417" y="183" font-size="6" transform="rotate(-90, 417, 183) translate(-28, 0)" fill="#1e72f9">TATOOINE MOS</text>
<text x="690" y="117" font-size="6" transform="rotate(-90, 690, 117) translate(-20, 0)" fill="#1e72f9">Han Solo</text>
<text x="666" y="837" font-size="5" fill="#1e72f9">control panel</text>
<text x="555" y="554" font-size="5" fill="#1e72f9">Imperial fighter</text>
<text x="400" y="401" font-size="5" fill="#1e72f9">MAIN FORWARD</text>
<text x="559" y="721" font-size="5" transform="rotate(-90, 559, 721) translate(-16, 0)" fill="#1e72f9">three TIE</text>
<text x="556" y="330" font-size="5" fill="#1e72f9">galaxy</text>
<text x="386" y="101" font-size="5" fill="#1e72f9">aboard</text>
<text x="814" y="210" font-size="5" fill="#1e72f9">human</text>
<text x="759" y="796" font-size="5" fill="#1e72f9">rush</text>
<text x="439" y="471" font-size="5" fill="#1e72f9">filled</text>
<text x="465" y="201" font-size="5" fill="#1e72f9">morning</text>
<text x="452" y="542" font-size="5" fill="#1e72f9">seven</text>
<text x="806" y="146" font-size="5" transform="rotate(-90, 806, 146) translate(-9, 0)" fill="#1e72f9">Dark</text>
<text x="783" y="700" font-size="5" fill="#1e72f9">mission</text>
<text x="875" y="188" font-size="5" fill="#1e72f9">RED</text>
<text x="413" y="362" font-size="5" transform="rotate(-90, 413, 362) translate(-8, 0)" fill="#1e72f9">call</text>
<text x="519" y="324" font-size="5" fill="#1e72f9">talking</text>
<text x="187" y="791" font-size="5" fill="#1e72f9">rest</text>
<text x="449" y="725" font-size="5" fill="#1e72f9">background</text>
<text x="505" y="391" font-size="5" fill="#1e72f9">shot</text>
<text x="862" y="505" font-size="5" fill="#1e72f9">happened</text>
<text x="654" y="471" font-size="5" fill="#1e72f9">came</text>
<text x="558" y="679" font-size="5" transform="rotate(-90, 558, 679) translate(-8, 0)" fill="#1e72f9">low</text>
<text x="853" y="458" font-size="5" fill="#1e72f9">gets</text>
<text x="423" y="469" font-size="5" fill="#1e72f9">may</text>
<text x="639" y="837" font-size="5" fill="#1e72f9">HOMESTEAD</text>
<text x="729" y="745" font-size="5" fill="#1e72f9">quickly</text>
<text x="359" y="113" font-size="5" fill="#1e72f9">garage</text>
<text x="827" y="716" font-size="5" transform="rotate(-90, 827, 716) translate(-9, 0)" fill="#1e72f9">Yeah</text>
<text x="244" y="271" font-size="5" fill="#1e72f9">trouble</text>
<text x="946" y="611" font-size="5" fill="#1e72f9">tries</text>
<text x="337" y="730" font-size="5" fill="#1e72f9">gone</text>
<text x="731" y="490" font-size="5" fill="#1e72f9">yell</text>
<text x="895" y="210" font-size="5" fill="#1e72f9">closer</text>
<text x="941" y="267" font-size="5" fill="#1e72f9">step</text>
<text x="819" y="414" font-size="5" fill="#1e72f9">return</text>
<text x="767" y="129" font-size="5" fill="#1e72f9">lightsaber</text>
<text x="659" y="99" font-size="5" fill="#1e72f9">thousand</text>
<text x="632" y="673" font-size="5" transform="rotate(-90, 632, 673) translate(-16, 0)" fill="#1e72f9">together</text>
<text x="505" y="262" font-size="5" fill="#1e72f9">information</text>
<text x="457" y="599" font-size="5" fill="#1e72f9">readout</text>
<text x="729" y="228" font-size="5" fill="#1e72f9">ready</text>
<text x="1017" y="438" font-size="5" fill="#1e72f9">burst</text>
<text x="1054" y="736" font-size="5" fill="#1e72f9">enemy</text>
<text x="821" y="819" font-size="5" fill="#1e72f9">climb</text>
<text x="324" y="547" font-size="5" fill="#1e72f9">shadow</text>
<text x="731" y="352" font-size="5" fill="#1e72f9">adjust</text>
<text x="161" y="916" font-size="5" fill="#1e72f9">Dark Lord</text>
<text x="356" y="408" font-size="5" transform="rotate(-90, 356, 408) translate(-26, 0)" fill="#1e72f9">power station</text>
<text x="810" y="214" font-size="5" transform="rotate(-90, 810, 214) translate(-29, 0)" fill="#1e72f9">LARS HOMESTEAD</text>
<text x="415" y="814" font-size="5" fill="#1e72f9">old man</text>
<text x="671" y="803" font-size="5" transform="rotate(-90, 671, 803) translate(-20, 0)" fill="#1e72f9">Han Chewie</text>
<text x="785" y="592" font-size="5" transform="rotate(-90, 785, 592) translate(-26, 0)" fill="#1e72f9">Han Chewbacca</text>
<text x="725" y="879" font-size="5" fill="#1e72f9">SPACE TIE</text>
<text x="306" y="344" font-size="5" transform="rotate(-90, 306, 344) translate(-25, 0)" fill="#1e72f9">tractor beam</text>
<text x="609" y="561" font-size="5" transform="rotate(-90, 609, 561) translate(-24, 0)" fill="#1e72f9">GARBAGE ROOM</text>
<text x="620" y="811" font-size="5" transform="rotate(-90, 620, 811) translate(-23, 0)" fill="#1e72f9">exhaust port</text>
<text x="633" y="724" font-size="5" transform="rotate(-90, 633, 724) translate(-26, 0)" fill="#1e72f9">COCKPIT Wedge</text>
<text x="532" y="554" font-size="5" fill="#1e72f9">ROOM Leia</text>
<text x="607" y="526" font-size="5" transform="rotate(-90, 607, 526) translate(-28, 0)" fill="#1e72f9">adjusts control</text>
<text x="238" y="676" font-size="5" transform="rotate(-90, 238, 676) translate(-25, 0)" fill="#1e72f9">control stick</text>
<text x="698" y="652" font-size="5" fill="#1e72f9">armored</text>
<text x="492" y="663" font-size="5" fill="#1e72f9">shaking</text>
<text x="738" y="477" font-size="5" fill="#1e72f9">scream</text>
<text x="207" y="495" font-size="5" fill="#1e72f9">creating</text>
<text x="176" y="625" font-size="5" fill="#1e72f9">desert</text>
<text x="598" y="599" font-size="5" fill="#1e72f9">white</text>
<text x="560" y="691" font-size="5" transform="rotate(-90, 560, 691) translate(-22, 0)" fill="#1e72f9">Landspeeder</text>
<text x="249" y="759" font-size="5" fill="#1e72f9">leaving</text>
<text x="693" y="908" font-size="5" fill="#1e72f9">quiet</text>
<text x="543" y="411" font-size="5" fill="#1e72f9">heading</text>
<text x="165" y="568" font-size="5" fill="#1e72f9">bring</text>
<text x="488" y="834" font-size="5" fill="#1e72f9">set</text>
<text x="399" y="128" font-size="5" fill="#1e72f9">told</text>
<text x="485" y="319" font-size="5" fill="#1e72f9">yelling</text>
<text x="141" y="886" font-size="5" fill="#1e72f9">easy</text>
<text x="233" y="394" font-size="5" fill="#1e72f9">nothing</text>
<text x="811" y="777" font-size="5" fill="#1e72f9">made</text>
<text x="430" y="764" font-size="5" transform="rotate(-90, 430, 764) translate(-10, 0)" fill="#1e72f9">reply</text>
<text x="679" y="564" font-size="5" fill="#1e72f9">pay</text>
<text x="181" y="468" font-size="5" transform="rotate(-90, 181, 468) translate(-8, 0)" fill="#1e72f9">said</text>
<text x="364" y="210" font-size="5" fill="#1e72f9">best</text>
<text x="522" y="101" font-size="5" transform="rotate(-90, 522, 101) translate(-15, 0)" fill="#1e72f9">strange</text>
<text x="186" y="795" font-size="5" transform="rotate(-90, 186, 795) translate(-17, 0)" fill="#1e72f9">approach</text>
<text x="379" y="444" font-size="5" fill="#1e72f9">pop</text>
<text x="869" y="784" font-size="5" fill="#1e72f9">edge</text>
<text x="469" y="554" font-size="5" fill="#1e72f9">blue</text>
<text x="518" y="923" font-size="5" fill="#1e72f9">lost</text>
<text x="212" y="611" font-size="5" fill="#1e72f9">center</text>
<text x="207" y="556" font-size="5" fill="#1e72f9">mind</text>
<text x="578" y="334" font-size="5" fill="#1e72f9">bar</text>
<text x="260" y="202" font-size="5" fill="#1e72f9">massive</text>
<text x="1077" y="724" font-size="5" fill="#1e72f9">view</text>
<text x="897" y="304" font-size="5" fill="#1e72f9">walk</text>
<text x="403" y="682" font-size="5" transform="rotate(-90, 403, 682) translate(-20, 0)" fill="#1e72f9">everything</text>
<text x="755" y="167" font-size="5" transform="rotate(-90, 755, 167) translate(-12, 0)" fill="#1e72f9">corner</text>
<text x="949" y="636" font-size="5" fill="#1e72f9">button</text>
<text x="333" y="427" font-size="5" transform="rotate(-90, 333, 427) translate(-24, 0)" fill="#1e72f9">transmission</text>
<text x="657" y="176" font-size="5" fill="#1e72f9">twenty</text>
<text x="176" y="649" font-size="5" fill="#1e72f9">round</text>
<text x="646" y="342" font-size="5" fill="#1e72f9">charge</text>
<text x="493" y="571" font-size="5" fill="#1e72f9">helmet</text>
<text x="244" y="465" font-size="5" fill="#1e72f9">copy</text>
<text x="659" y="652" font-size="5" fill="#1e72f9">cover</text>
<text x="345" y="484" font-size="5" fill="#1e72f9">peel</text>
<text x="138" y="763" font-size="5" transform="rotate(-90, 138, 763) translate(-19, 0)" fill="#1e72f9">Lord Vader</text>
<text x="252" y="806" font-size="5" transform="rotate(-90, 252, 806) translate(-25, 0)" fill="#1e72f9">TATOOINE ROCK</text>
<text x="923" y="412" font-size="4" fill="#1e72f9">EISLEY STREET</text>
<text x="288" y="333" font-size="4" fill="#1e72f9">cockpit window</text>
<text x="678" y="651" font-size="4" fill="#1e72f9">Two TIE</text>
<text x="877" y="373" font-size="4" fill="#1e72f9">LEADER headset</text>
<text x="646" y="148" font-size="4" fill="#1e72f9">WEDGE COCKPIT</text>
<text x="590" y="441" font-size="4" fill="#1e72f9">hope</text>
<text x="450" y="120" font-size="4" fill="#1e72f9">base</text>
<text x="257" y="709" font-size="4" fill="#1e72f9">evil</text>
<text x="785" y="858" font-size="4" fill="#1e72f9">entire</text>
<text x="503" y="806" font-size="4" fill="#1e72f9">craft</text>
<text x="209" y="751" font-size="4" fill="#1e72f9">tall</text>
<text x="463" y="256" font-size="4" fill="#1e72f9">understand</text>
<text x="156" y="823" font-size="4" fill="#1e72f9">escape</text>
<text x="502" y="616" font-size="4" fill="#1e72f9">making</text>
<text x="597" y="922" font-size="4" fill="#1e72f9">heavy</text>
<text x="944" y="357" font-size="4" fill="#1e72f9">hole</text>
<text x="235" y="886" font-size="4" fill="#1e72f9">holding</text>
<text x="570" y="610" font-size="4" fill="#1e72f9">barely</text>
<text x="887" y="688" font-size="4" transform="rotate(-90, 887, 688) translate(-11, 0)" fill="#1e72f9">lifepod</text>
<text x="519" y="816" font-size="4" fill="#1e72f9">flash</text>
<text x="868" y="482" font-size="4" fill="#1e72f9">captain</text>
<text x="521" y="893" font-size="4" fill="#1e72f9">loose</text>
<text x="1062" y="614" font-size="4" transform="rotate(-90, 1062, 614) translate(-8, 0)" fill="#1e72f9">soon</text>
<text x="706" y="837" font-size="4" fill="#1e72f9">stumbles</text>
<text x="629" y="589" font-size="4" fill="#1e72f9">believe</text>
<text x="324" y="689" font-size="4" fill="#1e72f9">senator</text>
<text x="896" y="622" font-size="4" fill="#1e72f9">dangerous</text>
<text x="736" y="403" font-size="4" fill="#1e72f9">send</text>
<text x="713" y="109" font-size="4" fill="#1e72f9">signal</text>
<text x="779" y="170" font-size="4" transform="rotate(-90, 779, 170) translate(-12, 0)" fill="#1e72f9">season</text>
<text x="218" y="426" font-size="4" fill="#1e72f9">CENTRAL</text>
<text x="812" y="148" font-size="4" fill="#1e72f9">join</text>
<text x="796" y="412" font-size="4" fill="#1e72f9">always</text>
<text x="925" y="574" font-size="4" fill="#1e72f9">feel</text>
<text x="899" y="412" font-size="4" fill="#1e72f9">powerful</text>
<text x="320" y="475" font-size="4" fill="#1e72f9">glow</text>
<text x="918" y="763" font-size="4" fill="#1e72f9">eight</text>
<text x="660" y="661" font-size="4" fill="#1e72f9">size</text>
<text x="957" y="305" font-size="4" fill="#1e72f9">beam</text>
<text x="560" y="364" font-size="4" fill="#1e72f9">metal</text>
<text x="533" y="202" font-size="4" transform="rotate(-90, 533, 202) translate(-15, 0)" fill="#1e72f9">chamber</text>
<text x="633" y="611" font-size="4" fill="#1e72f9">pick</text>
<text x="448" y="625" font-size="4" fill="#1e72f9">slimy</text>
<text x="873" y="636" font-size="4" transform="rotate(-90, 873, 636) translate(-8, 0)" fill="#1e72f9">stick</text>
<text x="659" y="755" font-size="4" fill="#1e72f9">grey</text>
<text x="245" y="627" font-size="4" fill="#1e72f9">spaceship</text>
<text x="545" y="635" font-size="4" fill="#1e72f9">laughing</text>
<text x="455" y="879" font-size="4" fill="#1e72f9">many</text>
<text x="254" y="718" font-size="4" fill="#1e72f9">afraid</text>
<text x="812" y="668" font-size="4" fill="#1e72f9">message</text>
<text x="874" y="238" font-size="4" fill="#1e72f9">bolt</text>
<text x="352" y="444" font-size="4" fill="#1e72f9">high</text>
<text x="847" y="439" font-size="4" transform="rotate(-90, 847, 439) translate(-8, 0)" fill="#1e72f9">deep</text>
<text x="631" y="195" font-size="4" fill="#1e72f9">lies</text>
<text x="169" y="580" font-size="4" fill="#1e72f9">Jedi</text>
<text x="730" y="834" font-size="4" transform="rotate(-90, 730, 834) translate(-16, 0)" fill="#1e72f9">nervously</text>
<text x="707" y="348" font-size="4" fill="#1e72f9">general</text>
<text x="537" y="326" font-size="4" fill="#1e72f9">precise</text>
<text x="195" y="270" font-size="4" fill="#1e72f9">fighter</text>
<text x="787" y="753" font-size="4" fill="#1e72f9">lock</text>
<text x="232" y="914" font-size="4" fill="#1e72f9">ramp</text>
<text x="316" y="198" font-size="4" transform="rotate(-90, 316, 198) translate(-9, 0)" fill="#1e72f9">lever</text>
<text x="482" y="631" font-size="4" fill="#1e72f9">number</text>
<text x="697" y="444" font-size="4" fill="#1e72f9">closing</text>
<text x="505" y="753" font-size="4" transform="rotate(-90, 505, 753) translate(-9, 0)" fill="#1e72f9">shaft</text>
<text x="995" y="642" font-size="4" fill="#1e72f9">bridge</text>
<text x="254" y="179" font-size="4" fill="#1e72f9">swing</text>
<text x="370" y="498" font-size="4" fill="#1e72f9">manage</text>
<text x="602" y="517" font-size="4" fill="#1e72f9">GUNPORT</text>
<text x="794" y="562" font-size="4" fill="#1e72f9">Yavin</text>
<text x="604" y="857" font-size="4" fill="#1e72f9">temple</text>
<text x="680" y="211" font-size="4" transform="rotate(-90, 680, 211) translate(-17, 0)" fill="#1e72f9">maneuver</text>
<text x="686" y="732" font-size="4" fill="#1e72f9">flying</text>
<text x="854" y="565" font-size="4" fill="#1e72f9">Flak</text>
<text x="227" y="523" font-size="4" transform="rotate(-90, 227, 523) translate(-17, 0)" fill="#1e72f9">little robot</text>
<text x="502" y="834" font-size="4" transform="rotate(-90, 502, 834) translate(-25, 0)" fill="#1e72f9">makes beeping</text>
<text x="632" y="755" font-size="4" transform="rotate(-90, 632, 755) translate(-25, 0)" fill="#1e72f9">Imperial Officer</text>
<text x="316" y="161" font-size="4" transform="rotate(-90, 316, 161) translate(-20, 0)" fill="#1e72f9">ROCK CANYON</text>
<text x="1096" y="683" font-size="4" transform="rotate(-90, 1096, 683) translate(-21, 0)" fill="#1e72f9">FIRST TROOPER</text>
<text x="99" y="856" font-size="4" transform="rotate(-90, 99, 856) translate(-19, 0)" fill="#1e72f9">THREEPIO Oh</text>
</svg>
