<svg width="1190" height="1028" xmlns="http://www.w3.org/2000/svg">
    <defs><style type="text/css">
    @import url("https://fonts.googleapis.com/css?family=Stalinist+One");
    text {font-family: 'Stalinist One', cursive;
    font-kerning:none;
    font-variant-ligatures:none}
    </style></defs>
<text x="319" y="210" font-size="93" fill="#1e72f9">Luke</text>
<text x="472" y="753" font-size="66" fill="#1e72f9">Han</text>
<text x="153" y="679" font-size="56" fill="#1e72f9">DEATH STAR</text>
<text x="570" y="596" font-size="50" fill="#1e72f9">THREEPIO</text>
<text x="465" y="118" font-size="44" fill="#1e72f9">Ben</text>
<text x="360" y="470" font-size="38" fill="#1e72f9">ship</text>
<text x="531" y="494" font-size="37" fill="#1e72f9">Leia</text>
<text x="635" y="245" font-size="35" fill="#1e72f9">one</text>
<text x="782" y="154" font-size="34" transform="rotate(-90, 782, 154) translate(-126, 0)" fill="#1e72f9">look</text>
<text x="434" y="799" font-size="34" fill="#1e72f9">RED LEADER</text>
<text x="610" y="834" font-size="33" fill="#1e72f9">Artoo</text>
<text x="856" y="408" font-size="32" fill="#1e72f9">back</text>
<text x="340" y="329" font-size="31" transform="rotate(-90, 340, 329) translate(-145, 0)" fill="#1e72f9">move</text>
<text x="538" y="527" font-size="30" fill="#1e72f9">going</text>
<text x="140" y="734" font-size="29" fill="#1e72f9">two</text>
<text x="323" y="619" font-size="29" fill="#1e72f9">Biggs</text>
<text x="315" y="237" font-size="29" fill="#1e72f9">TIE fighter</text>
<text x="885" y="698" font-size="29" fill="#1e72f9">Vader</text>
<text x="885" y="450" font-size="29" transform="rotate(-90, 885, 450) translate(-95, 0)" fill="#1e72f9">see</text>
<text x="653" y="616" font-size="20" fill="#1e72f9">MILLENNIUM FALCON</text>
<text x="311" y="314" font-size="20" transform="rotate(-90, 311, 314) translate(-129, 0)" fill="#1e72f9">toward</text>
<text x="125" y="757" font-size="20" fill="#1e72f9">right</text>
<text x="352" y="424" font-size="20" fill="#1e72f9">Luke WING</text>
<text x="510" y="912" font-size="20" fill="#1e72f9">come</text>
<text x="615" y="856" font-size="20" fill="#1e72f9">trooper</text>
<text x="593" y="706" font-size="20" fill="#1e72f9">robot</text>
<text x="853" y="739" font-size="20" fill="#1e72f9">small</text>
<text x="890" y="537" font-size="20" fill="#1e72f9">SPACE</text>
<text x="726" y="750" font-size="20" fill="#1e72f9">now</text>
<text x="205" y="706" font-size="20" fill="#1e72f9">WING FIGHTER</text>
<text x="676" y="131" font-size="20" fill="#1e72f9">take</text>
<text x="369" y="726" font-size="20" fill="#1e72f9">begin</text>
<text x="523" y="257" font-size="20" fill="#1e72f9">make</text>
<text x="616" y="877" font-size="19" fill="#1e72f9">away</text>
<text x="285" y="569" font-size="19" fill="#1e72f9">fire</text>
<text x="96" y="816" font-size="19" fill="#1e72f9">will</text>
<text x="242" y="245" font-size="19" fill="#1e72f9">turn</text>
<text x="638" y="458" font-size="19" fill="#1e72f9">stand</text>
<text x="491" y="547" font-size="14" fill="#1e72f9">stormtrooper</text>
<text x="435" y="817" font-size="14" fill="#1e72f9">way</text>
<text x="1005" y="642" font-size="14" fill="#1e72f9">side</text>
<text x="419" y="135" font-size="14" fill="#1e72f9">COCKPIT Luke</text>
<text x="948" y="376" font-size="14" fill="#1e72f9">sir</text>
<text x="694" y="149" font-size="14" fill="#1e72f9">think</text>
<text x="131" y="786" font-size="14" fill="#1e72f9">head</text>
<text x="248" y="727" font-size="14" transform="rotate(-90, 248, 727) translate(-180, 0)" fill="#1e72f9">DARTH VADER</text>
<text x="711" y="765" font-size="14" fill="#1e72f9">GOLD LEADER</text>
<text x="461" y="503" font-size="14" fill="#1e72f9">huge</text>
<text x="363" y="389" font-size="14" fill="#1e72f9">got</text>
<text x="397" y="109" font-size="14" fill="#1e72f9">us</text>
<text x="972" y="727" font-size="14" fill="#1e72f9">time</text>
<text x="951" y="662" font-size="14" fill="#1e72f9">computer</text>
<text x="652" y="265" font-size="14" fill="#1e72f9">several</text>
<text x="809" y="215" font-size="14" fill="#1e72f9">Rebel</text>
<text x="223" y="466" font-size="14" fill="#1e72f9">know</text>
<text x="856" y="426" font-size="14" fill="#1e72f9">Chewbacca</text>
<text x="235" y="586" font-size="13" fill="#1e72f9">SURFACE DEATH</text>
<text x="755" y="402" font-size="13" fill="#1e72f9">long</text>
<text x="367" y="148" font-size="13" fill="#1e72f9">OFFICER</text>
<text x="233" y="625" font-size="13" fill="#1e72f9">across</text>
<text x="515" y="442" font-size="13" fill="#1e72f9">OWEN</text>
<text x="788" y="229" font-size="13" fill="#1e72f9">pirateship</text>
<text x="609" y="895" font-size="13" fill="#1e72f9">something</text>
<text x="1043" y="687" font-size="13" fill="#1e72f9">go</text>
<text x="206" y="261" font-size="13" fill="#1e72f9">control</text>
<text x="696" y="628" font-size="12" fill="#1e72f9">FIGHTER COCKPIT</text>
<text x="209" y="443" font-size="12" fill="#1e72f9">behind</text>
<text x="843" y="713" font-size="12" fill="#1e72f9">hit</text>
<text x="616" y="138" font-size="12" fill="#1e72f9">light</text>
<text x="452" y="766" font-size="11" fill="#1e72f9">WING COCKPIT</text>
<text x="371" y="360" font-size="11" fill="#1e72f9">Imperial</text>
<text x="439" y="396" font-size="11" fill="#1e72f9">around</text>
<text x="318" y="316" font-size="11" fill="#1e72f9">Suddenly</text>
<text x="227" y="417" font-size="11" fill="#1e72f9">troops</text>
<text x="810" y="398" font-size="11" fill="#1e72f9">eye</text>
<text x="911" y="489" font-size="11" fill="#1e72f9">start</text>
<text x="674" y="471" font-size="11" fill="#1e72f9">TARKIN</text>
<text x="748" y="374" font-size="11" fill="#1e72f9">Luke look</text>
<text x="458" y="523" font-size="11" fill="#1e72f9">hand</text>
<text x="383" y="745" font-size="11" fill="#1e72f9">another</text>
<text x="246" y="199" font-size="11" fill="#1e72f9">hallway</text>
<text x="150" y="694" font-size="11" fill="#1e72f9">little</text>
<text x="187" y="532" font-size="11" transform="rotate(-90, 187, 532) translate(-63, 0)" fill="#1e72f9">VOICE</text>
<text x="572" y="150" font-size="11" fill="#1e72f9">face</text>
<text x="722" y="697" font-size="11" fill="#1e72f9">blast</text>
<text x="431" y="832" font-size="11" fill="#1e72f9">large</text>
<text x="417" y="752" font-size="11" transform="rotate(-90, 417, 752) translate(-40, 0)" fill="#1e72f9">wall</text>
<text x="469" y="693" font-size="11" fill="#1e72f9">creature</text>
<text x="719" y="433" font-size="11" fill="#1e72f9">give</text>
<text x="490" y="856" font-size="11" transform="rotate(-90, 490, 856) translate(-34, 0)" fill="#1e72f9">run</text>
<text x="165" y="799" font-size="11" fill="#1e72f9">pilot</text>
<text x="803" y="169" font-size="11" fill="#1e72f9">race</text>
<text x="710" y="548" font-size="11" fill="#1e72f9">seem</text>
<text x="233" y="600" font-size="11" fill="#1e72f9">Force</text>
<text x="890" y="459" font-size="11" fill="#1e72f9">trench</text>
<text x="891" y="549" font-size="10" fill="#1e72f9">SPACE AROUND</text>
<text x="200" y="442" font-size="10" transform="rotate(-90, 200, 442) translate(-141, 0)" fill="#1e72f9">AROUND DEATH</text>
<text x="256" y="216" font-size="10" fill="#1e72f9">door</text>
<text x="852" y="437" font-size="10" fill="#1e72f9">system</text>
<text x="361" y="481" font-size="10" fill="#1e72f9">stop</text>
<text x="885" y="264" font-size="10" fill="#1e72f9">Well</text>
<text x="612" y="907" font-size="10" fill="#1e72f9">Jawa</text>
<text x="160" y="907" font-size="10" fill="#1e72f9">looking</text>
<text x="536" y="923" font-size="10" fill="#1e72f9">Solo</text>
<text x="239" y="717" font-size="10" fill="#1e72f9">Star surface</text>
<text x="378" y="494" font-size="10" fill="#1e72f9">surface</text>
<text x="810" y="188" font-size="10" fill="#1e72f9">past</text>
<text x="699" y="728" font-size="10" fill="#1e72f9">laserfire</text>
<text x="994" y="709" font-size="10" fill="#1e72f9">Alderaan</text>
<text x="914" y="282" font-size="10" fill="#1e72f9">pull</text>
<text x="505" y="453" font-size="9" fill="#1e72f9">COCKPIT Red</text>
<text x="694" y="528" font-size="9" fill="#1e72f9">power</text>
<text x="501" y="572" font-size="9" fill="#1e72f9">old</text>
<text x="929" y="319" font-size="9" fill="#1e72f9">must</text>
<text x="901" y="303" font-size="9" fill="#1e72f9">WEDGE</text>
<text x="336" y="252" font-size="8" fill="#1e72f9">MASSASSI OUTPOST</text>
<text x="674" y="280" font-size="8" fill="#1e72f9">Princess</text>
<text x="278" y="179" font-size="8" fill="#1e72f9">sound</text>
<text x="193" y="809" font-size="8" fill="#1e72f9">hold</text>
<text x="712" y="872" font-size="8" fill="#1e72f9">say</text>
<text x="883" y="709" font-size="8" fill="#1e72f9">WAR ROOM</text>
<text x="605" y="764" font-size="8" fill="#1e72f9">RED TEN</text>
<text x="835" y="240" font-size="8" fill="#1e72f9">want</text>
<text x="586" y="615" font-size="8" fill="#1e72f9">good</text>
<text x="206" y="478" font-size="8" fill="#1e72f9">droid</text>
<text x="908" y="500" font-size="8" fill="#1e72f9">continue</text>
<text x="451" y="538" font-size="8" fill="#1e72f9">dive</text>
<text x="406" y="375" font-size="8" fill="#1e72f9">GOLD FIVE</text>
<text x="795" y="654" font-size="8" fill="#1e72f9">sure</text>
<text x="904" y="751" font-size="8" fill="#1e72f9">front</text>
<text x="530" y="585" font-size="8" fill="#1e72f9">friend</text>
<text x="885" y="380" font-size="8" fill="#1e72f9">wait</text>
<text x="367" y="159" font-size="8" fill="#1e72f9">find</text>
<text x="344" y="329" font-size="8" fill="#1e72f9">standing</text>
<text x="900" y="509" font-size="8" fill="#1e72f9">speeder</text>
<text x="201" y="775" font-size="8" fill="#1e72f9">gun</text>
<text x="723" y="712" font-size="8" fill="#1e72f9">comlink</text>
<text x="354" y="433" font-size="7" fill="#1e72f9">VADER COCKPIT</text>
<text x="500" y="806" font-size="7" transform="rotate(-90, 500, 806) translate(-100, 0)" fill="#1e72f9">COCKPIT Vader</text>
<text x="816" y="641" font-size="7" fill="#1e72f9">starship</text>
<text x="213" y="234" font-size="7" fill="#1e72f9">sit</text>
<text x="890" y="468" font-size="7" fill="#1e72f9">moment</text>
<text x="629" y="117" font-size="7" fill="#1e72f9">enter</text>
<text x="647" y="102" font-size="7" fill="#1e72f9">thing</text>
<text x="355" y="123" font-size="7" fill="#1e72f9">coming</text>
<text x="592" y="268" font-size="7" fill="#1e72f9">Obi Wan</text>
<text x="739" y="808" font-size="6" fill="#1e72f9">FALCON COCKPIT</text>
<text x="632" y="502" font-size="6" fill="#1e72f9">LEADER COCKPIT</text>
<text x="520" y="809" font-size="6" fill="#1e72f9">LEADER WING</text>
<text x="939" y="328" font-size="6" fill="#1e72f9">planet</text>
<text x="877" y="717" font-size="6" fill="#1e72f9">close</text>
<text x="774" y="286" font-size="6" fill="#1e72f9">group</text>
<text x="666" y="624" font-size="6" fill="#1e72f9">let</text>
<text x="790" y="817" font-size="6" fill="#1e72f9">attack</text>
<text x="230" y="482" font-size="6" transform="rotate(-90, 230, 482) translate(-39, 0)" fill="#1e72f9">Chewie</text>
<text x="462" y="629" font-size="6" fill="#1e72f9">Princess Leia</text>
<text x="361" y="342" font-size="6" fill="#1e72f9">MOS EISLEY</text>
<text x="214" y="608" font-size="6" fill="#1e72f9">targeting device</text>
<text x="320" y="133" font-size="6" fill="#1e72f9">short</text>
<text x="550" y="422" font-size="6" fill="#1e72f9">much</text>
<text x="478" y="556" font-size="6" fill="#1e72f9">watches</text>
<text x="766" y="417" font-size="6" fill="#1e72f9">work</text>
<text x="392" y="176" font-size="6" fill="#1e72f9">help</text>
<text x="104" y="862" font-size="6" transform="rotate(-90, 104, 862) translate(-19, 0)" fill="#1e72f9">put</text>
<text x="940" y="253" font-size="6" transform="rotate(-90, 940, 253) translate(-13, 0)" fill="#1e72f9">Oh</text>
<text x="99" y="841" font-size="6" fill="#1e72f9">father</text>
<text x="927" y="437" font-size="6" fill="#1e72f9">position</text>
<text x="254" y="397" font-size="6" fill="#1e72f9">point</text>
<text x="676" y="486" font-size="6" fill="#1e72f9">docking bay</text>
<text x="81" y="826" font-size="6" fill="#1e72f9">OUTPOST WAR</text>
<text x="320" y="627" font-size="6" fill="#1e72f9">weapon</text>
<text x="126" y="898" font-size="6" fill="#1e72f9">along</text>
<text x="952" y="341" font-size="6" fill="#1e72f9">hear</text>
<text x="383" y="400" font-size="6" fill="#1e72f9">shut</text>
<text x="750" y="442" font-size="6" fill="#1e72f9">heard</text>
<text x="107" y="849" font-size="6" fill="#1e72f9">last</text>
<text x="411" y="477" font-size="6" fill="#1e72f9">even</text>
<text x="279" y="160" font-size="6" fill="#1e72f9">guard</text>
<text x="408" y="594" font-size="6" fill="#1e72f9">laserbolt</text>
<text x="628" y="149" font-size="6" fill="#1e72f9">appear</text>
<text x="526" y="86" font-size="6" fill="#1e72f9">Artoo Detoo</text>
<text x="251" y="559" font-size="6" fill="#1e72f9">far</text>
<text x="1040" y="726" font-size="6" fill="#1e72f9">Empire</text>
<text x="185" y="917" font-size="6" fill="#1e72f9">enough</text>
<text x="600" y="628" font-size="6" fill="#1e72f9">explosion</text>
<text x="186" y="629" font-size="6" fill="#1e72f9">floor</text>
<text x="421" y="314" font-size="6" fill="#1e72f9">follow</text>
<text x="392" y="508" font-size="6" fill="#1e72f9">four</text>
<text x="427" y="764" font-size="6" fill="#1e72f9">kid</text>
<text x="783" y="382" font-size="6" fill="#1e72f9">Sandpeople</text>
<text x="791" y="826" font-size="6" transform="rotate(-90, 791, 826) translate(-27, 0)" fill="#1e72f9">open</text>
<text x="481" y="485" font-size="6" fill="#1e72f9">Jabba</text>
<text x="162" y="705" font-size="6" fill="#1e72f9">screen</text>
<text x="103" y="790" font-size="6" fill="#1e72f9">plan</text>
<text x="210" y="269" font-size="6" fill="#1e72f9">explode</text>
<text x="479" y="145" font-size="6" fill="#1e72f9">Dodonna</text>
<text x="845" y="780" font-size="6" fill="#1e72f9">zoom</text>
<text x="671" y="219" font-size="5" fill="#1e72f9">INTERCOM VOICE</text>
<text x="1031" y="672" font-size="5" fill="#1e72f9">COCKPIT Gold</text>
<text x="427" y="507" font-size="5" fill="#1e72f9">firing</text>
<text x="889" y="248" font-size="5" fill="#1e72f9">streak</text>
<text x="561" y="464" font-size="5" fill="#1e72f9">electronic</text>
<text x="726" y="180" font-size="5" fill="#1e72f9">boy</text>
<text x="673" y="540" font-size="5" fill="#1e72f9">next</text>
<text x="806" y="742" font-size="5" fill="#1e72f9">minute</text>
<text x="470" y="606" font-size="5" fill="#1e72f9">goes</text>
<text x="265" y="543" font-size="5" fill="#1e72f9">Commander</text>
<text x="709" y="513" font-size="5" fill="#1e72f9">laser</text>
<text x="372" y="752" font-size="5" fill="#1e72f9">man</text>
<text x="750" y="867" font-size="5" fill="#1e72f9">almost</text>
<text x="91" y="778" font-size="5" transform="rotate(-90, 91, 778) translate(-15, 0)" fill="#1e72f9">tell</text>
<text x="795" y="825" font-size="5" fill="#1e72f9">area</text>
<text x="270" y="225" font-size="5" fill="#1e72f9">watch</text>
<text x="719" y="288" font-size="5" fill="#1e72f9">formation</text>
<text x="533" y="503" font-size="5" fill="#1e72f9">little Artoo</text>
<text x="476" y="615" font-size="5" fill="#1e72f9">slowly</text>
<text x="363" y="174" font-size="5" fill="#1e72f9">first</text>
<text x="688" y="108" font-size="5" fill="#1e72f9">station</text>
<text x="246" y="383" font-size="5" fill="#1e72f9">tiny</text>
<text x="682" y="765" font-size="5" fill="#1e72f9">giant</text>
<text x="290" y="367" font-size="5" transform="rotate(-90, 290, 367) translate(-31, 0)" fill="#1e72f9">better</text>
<text x="211" y="532" font-size="5" fill="#1e72f9">DAY</text>
<text x="597" y="436" font-size="5" fill="#1e72f9">speak</text>
<text x="420" y="518" font-size="5" fill="#1e72f9">dead</text>
<text x="666" y="905" font-size="5" fill="#1e72f9">thought</text>
<text x="216" y="493" font-size="5" transform="rotate(-90, 216, 493) translate(-13, 0)" fill="#1e72f9">big</text>
<text x="627" y="218" font-size="5" transform="rotate(-90, 627, 218) translate(-31, 0)" fill="#1e72f9">second</text>
<text x="800" y="154" font-size="5" fill="#1e72f9">really</text>
<text x="451" y="862" font-size="5" fill="#1e72f9">three</text>
<text x="221" y="427" font-size="5" fill="#1e72f9">Sandcrawler</text>
<text x="360" y="368" font-size="5" fill="#1e72f9">beep</text>
<text x="563" y="696" font-size="5" fill="#1e72f9">Stay</text>
<text x="1039" y="614" font-size="5" fill="#1e72f9">arm</text>
<text x="105" y="765" font-size="5" fill="#1e72f9">Wookiee</text>
<text x="550" y="266" font-size="5" fill="#1e72f9">moon</text>
<text x="968" y="513" font-size="5" fill="#1e72f9">battle station</text>
<text x="833" y="196" font-size="5" fill="#1e72f9">LUKE Well</text>
<text x="827" y="551" font-size="5" fill="#1e72f9">looks around</text>
<text x="755" y="193" font-size="5" transform="rotate(-90, 755, 193) translate(-65, 0)" fill="#1e72f9">beeping sound</text>
<text x="433" y="842" font-size="5" fill="#1e72f9">laser cannon</text>
<text x="153" y="811" font-size="5" fill="#1e72f9">outside</text>
<text x="256" y="725" font-size="5" fill="#1e72f9">corridor</text>
<text x="543" y="564" font-size="5" fill="#1e72f9">feet</text>
<text x="366" y="567" font-size="5" fill="#1e72f9">place</text>
<text x="761" y="141" font-size="5" fill="#1e72f9">subhallway</text>
<text x="623" y="276" font-size="5" fill="#1e72f9">rushes</text>
<text x="983" y="674" font-size="5" fill="#1e72f9">found</text>
<text x="795" y="239" font-size="5" fill="#1e72f9">great</text>
<text x="795" y="164" font-size="5" transform="rotate(-90, 795, 164) translate(-40, 0)" fill="#1e72f9">Rebellion</text>
<text x="268" y="729" font-size="5" transform="rotate(-90, 268, 729) translate(-16, 0)" fill="#1e72f9">cut</text>
<text x="612" y="917" font-size="5" fill="#1e72f9">spot</text>
<text x="729" y="161" font-size="5" fill="#1e72f9">jump</text>
<text x="369" y="442" font-size="5" fill="#1e72f9">Listen</text>
<text x="500" y="638" font-size="5" transform="rotate(-90, 500, 638) translate(-26, 0)" fill="#1e72f9">trying</text>
<text x="513" y="649" font-size="5" transform="rotate(-90, 513, 649) translate(-27, 0)" fill="#1e72f9">never</text>
<text x="669" y="549" font-size="5" fill="#1e72f9">need</text>
<text x="938" y="670" font-size="5" fill="#1e72f9">Okay</text>
<text x="352" y="346" font-size="5" transform="rotate(-90, 352, 346) translate(-37, 0)" fill="#1e72f9">reaches</text>
<text x="794" y="664" font-size="5" fill="#1e72f9">year</text>
<text x="217" y="246" font-size="5" fill="#1e72f9">still</text>
<text x="737" y="452" font-size="5" fill="#1e72f9">try</text>
<text x="1013" y="735" font-size="5" fill="#1e72f9">speaker</text>
<text x="242" y="450" font-size="4" fill="#1e72f9">THREEPIO Artoo</text>
<text x="470" y="431" font-size="4" fill="#1e72f9">laser pistol</text>
<text x="808" y="410" font-size="4" fill="#1e72f9">Artoo beeps</text>
<text x="141" y="658" font-size="4" transform="rotate(-90, 141, 658) translate(-41, 0)" fill="#1e72f9">Wan Kenobi</text>
<text x="759" y="295" font-size="4" fill="#1e72f9">Imperial TIE</text>
<text x="426" y="383" font-size="4" fill="#1e72f9">FALCON GUNPORT</text>
<text x="1006" y="623" font-size="4" fill="#1e72f9">BIGGS' COCKPIT</text>
<text x="1053" y="696" font-size="4" fill="#1e72f9">STAR Three</text>
<text x="766" y="852" font-size="4" fill="#1e72f9">main</text>
<text x="301" y="255" font-size="4" fill="#1e72f9">battle</text>
<text x="447" y="850" font-size="4" fill="#1e72f9">TATOOINE</text>
<text x="635" y="218" font-size="4" fill="#1e72f9">battered</text>
<text x="721" y="880" font-size="4" fill="#1e72f9">aim</text>
<text x="957" y="354" font-size="4" fill="#1e72f9">moving</text>
<text x="725" y="190" font-size="4" fill="#1e72f9">Hey</text>
<text x="622" y="93" font-size="4" transform="rotate(-90, 622, 93) translate(-21, 0)" fill="#1e72f9">ROOM</text>
<text x="441" y="104" font-size="4" fill="#1e72f9">lot</text>
<text x="953" y="734" font-size="4" fill="#1e72f9">keep</text>
<text x="110" y="867" font-size="4" fill="#1e72f9">anything</text>
<text x="628" y="615" font-size="4" fill="#1e72f9">leave</text>
<text x="555" y="704" font-size="4" fill="#1e72f9">canyon</text>
<text x="122" y="876" font-size="4" fill="#1e72f9">quite</text>
<text x="598" y="686" font-size="4" fill="#1e72f9">speed</text>
<text x="455" y="483" font-size="4" fill="#1e72f9">table</text>
<text x="239" y="567" font-size="4" fill="#1e72f9">disappear</text>
<text x="511" y="466" font-size="4" fill="#1e72f9">use</text>
<text x="122" y="856" font-size="4" fill="#1e72f9">Five</text>
<text x="256" y="881" font-size="4" fill="#1e72f9">board</text>
<text x="527" y="508" font-size="4" transform="rotate(-90, 527, 508) translate(-23, 0)" fill="#1e72f9">target</text>
<text x="431" y="92" font-size="4" fill="#1e72f9">grab</text>
<text x="397" y="759" font-size="4" transform="rotate(-90, 397, 759) translate(-26, 0)" fill="#1e72f9">R2 unit</text>
<text x="569" y="603" font-size="4" fill="#1e72f9">Aunt Beru</text>
<text x="695" y="807" font-size="4" fill="#1e72f9">Ben Kenobi</text>
<text x="378" y="631" font-size="4" fill="#1e72f9">toward Death</text>
<text x="462" y="441" font-size="4" fill="#1e72f9">TIE ship</text>
<text x="840" y="747" font-size="4" fill="#1e72f9">STAR MAIN</text>
<text x="911" y="716" font-size="4" fill="#1e72f9">FORWARD BAY</text>
</svg>
