<svg width="1190" height="1028" xmlns="http://www.w3.org/2000/svg">
    <defs><style type="text/css">
    @import url("https://fonts.googleapis.com/css?family=Fredericka+the+Great");
    text {font-family: 'Fredericka the Great', cursive;
    font-variant-ligatures:none}
    </style></defs>
<rect width="100%" height="100%" fill="black"/>
<text x="410" y="752" font-size="132" fill="rgb(242, 242, 242)">Luke</text>
<text x="437" y="183" font-size="94" fill="rgb(167, 167, 167)">Han</text>
<text x="359" y="240" font-size="66" fill="rgb(254, 254, 254)">DEATH STAR</text>
<text x="379" y="488" font-size="62" fill="rgb(222, 222, 222)">THREEPIO</text>
<text x="143" y="746" font-size="55" fill="rgb(148, 148, 148)">Ben</text>
<text x="826" y="597" font-size="48" fill="rgb(148, 148, 148)">ship</text>
<text x="685" y="798" font-size="47" fill="rgb(181, 181, 181)">Leia</text>
<text x="898" y="399" font-size="45" fill="rgb(255, 255, 255)">one</text>
<text x="371" y="315" font-size="43" transform="rotate(-90, 371, 315) translate(-87, 0)" fill="rgb(221, 221, 221)">look</text>
<text x="442" y="526" font-size="41" fill="rgb(157, 157, 157)">RED LEADER</text>
<text x="723" y="636" font-size="40" fill="rgb(194, 194, 194)">Artoo</text>
<text x="397" y="629" font-size="39" fill="rgb(177, 177, 177)">back</text>
<text x="980" y="673" font-size="38" fill="rgb(140, 140, 140)">move</text>
<text x="253" y="704" font-size="37" fill="rgb(237, 237, 237)">going</text>
<text x="699" y="542" font-size="36" transform="rotate(-90, 699, 542) translate(-57, 0)" fill="rgb(203, 203, 203)">two</text>
<text x="491" y="788" font-size="36" fill="rgb(185, 185, 185)">Biggs</text>
<text x="610" y="833" font-size="36" fill="rgb(161, 161, 161)">TIE fighter</text>
<text x="312" y="155" font-size="35" transform="rotate(-90, 312, 155) translate(-95, 0)" fill="rgb(247, 247, 247)">Vader</text>
<text x="885" y="742" font-size="34" fill="rgb(209, 209, 209)">see</text>
<text x="223" y="427" font-size="26" fill="rgb(234, 234, 234)">MILLENNIUM FALCON</text>
<text x="677" y="878" font-size="26" fill="rgb(172, 172, 172)">toward</text>
<text x="716" y="168" font-size="26" fill="rgb(154, 154, 154)">right</text>
<text x="939" y="707" font-size="26" fill="rgb(184, 184, 184)">Luke WING</text>
<text x="274" y="560" font-size="26" transform="rotate(-90, 274, 560) translate(-62, 0)" fill="rgb(128, 128, 128)">come</text>
<text x="152" y="777" font-size="26" fill="rgb(253, 253, 253)">trooper</text>
<text x="187" y="475" font-size="25" fill="rgb(160, 160, 160)">robot</text>
<text x="921" y="596" font-size="25" fill="rgb(163, 163, 163)">small</text>
<text x="554" y="566" font-size="25" fill="rgb(153, 153, 153)">SPACE</text>
<text x="334" y="139" font-size="25" fill="rgb(141, 141, 141)">now</text>
<text x="628" y="661" font-size="25" fill="rgb(229, 229, 229)">WING FIGHTER</text>
<text x="672" y="277" font-size="25" fill="rgb(191, 191, 191)">take</text>
<text x="445" y="816" font-size="25" fill="rgb(182, 182, 182)">begin</text>
<text x="308" y="595" font-size="25" fill="rgb(143, 143, 143)">make</text>
<text x="175" y="671" font-size="24" fill="rgb(132, 132, 132)">away</text>
<text x="407" y="394" font-size="24" fill="rgb(178, 178, 178)">fire</text>
<text x="905" y="480" font-size="24" fill="rgb(220, 220, 220)">will</text>
<text x="82" y="796" font-size="24" fill="rgb(144, 144, 144)">turn</text>
<text x="535" y="118" font-size="24" fill="rgb(215, 215, 215)">stand</text>
<text x="262" y="659" font-size="24" fill="rgb(217, 217, 217)">stormtrooper</text>
<text x="988" y="544" font-size="23" fill="rgb(230, 230, 230)">way</text>
<text x="594" y="269" font-size="23" fill="rgb(220, 220, 220)">side</text>
<text x="886" y="372" font-size="23" transform="rotate(-90, 886, 372) translate(-174, 0)" fill="rgb(245, 245, 245)">COCKPIT Luke</text>
<text x="624" y="873" font-size="23" fill="rgb(205, 205, 205)">sir</text>
<text x="597" y="613" font-size="23" fill="rgb(188, 188, 188)">think</text>
<text x="193" y="808" font-size="23" fill="rgb(157, 157, 157)">head</text>
<text x="763" y="763" font-size="21" fill="rgb(241, 241, 241)">DARTH VADER</text>
<text x="624" y="137" font-size="19" fill="rgb(211, 211, 211)">GOLD LEADER</text>
<text x="392" y="151" font-size="19" fill="rgb(208, 208, 208)">huge</text>
<text x="92" y="830" font-size="19" fill="rgb(196, 196, 196)">got</text>
<text x="142" y="659" font-size="19" fill="rgb(140, 140, 140)">us</text>
<text x="324" y="630" font-size="19" fill="rgb(149, 149, 149)">time</text>
<text x="765" y="403" font-size="19" fill="rgb(144, 144, 144)">computer</text>
<text x="821" y="215" font-size="19" fill="rgb(226, 226, 226)">several</text>
<text x="477" y="547" font-size="19" fill="rgb(199, 199, 199)">Rebel</text>
<text x="926" y="500" font-size="19" fill="rgb(169, 169, 169)">know</text>
<text x="333" y="157" font-size="19" transform="rotate(-90, 333, 157) translate(-97, 0)" fill="rgb(217, 217, 217)">Chewbacca</text>
<text x="211" y="445" font-size="17" fill="rgb(143, 143, 143)">SURFACE DEATH</text>
<text x="598" y="101" font-size="17" fill="rgb(225, 225, 225)">long</text>
<text x="793" y="780" font-size="17" fill="rgb(225, 225, 225)">OFFICER</text>
<text x="190" y="502" font-size="17" fill="rgb(222, 222, 222)">across</text>
<text x="651" y="173" font-size="17" fill="rgb(138, 138, 138)">OWEN</text>
<text x="482" y="663" font-size="17" fill="rgb(215, 215, 215)">pirateship</text>
<text x="395" y="771" font-size="17" fill="rgb(203, 203, 203)">something</text>
<text x="213" y="244" font-size="17" fill="rgb(137, 137, 137)">go</text>
<text x="925" y="543" font-size="17" fill="rgb(189, 189, 189)">control</text>
<text x="497" y="913" font-size="16" fill="rgb(154, 154, 154)">FIGHTER COCKPIT</text>
<text x="780" y="172" font-size="16" fill="rgb(156, 156, 156)">behind</text>
<text x="771" y="590" font-size="16" fill="rgb(217, 217, 217)">hit</text>
<text x="912" y="263" font-size="16" fill="rgb(172, 172, 172)">light</text>
<text x="528" y="586" font-size="16" fill="rgb(237, 237, 237)">WING COCKPIT</text>
<text x="738" y="259" font-size="16" fill="rgb(170, 170, 170)">Imperial</text>
<text x="890" y="419" font-size="16" fill="rgb(136, 136, 136)">around</text>
<text x="902" y="450" font-size="16" fill="rgb(179, 179, 179)">Suddenly</text>
<text x="371" y="721" font-size="16" fill="rgb(191, 191, 191)">troops</text>
<text x="180" y="639" font-size="16" fill="rgb(130, 130, 130)">eye</text>
<text x="705" y="589" font-size="16" fill="rgb(197, 197, 197)">start</text>
<text x="340" y="172" font-size="16" fill="rgb(185, 185, 185)">TARKIN</text>
<text x="924" y="521" font-size="16" fill="rgb(191, 191, 191)">Luke look</text>
<text x="304" y="371" font-size="16" fill="rgb(128, 128, 128)">hand</text>
<text x="835" y="625" font-size="16" fill="rgb(225, 225, 225)">another</text>
<text x="607" y="777" font-size="16" fill="rgb(162, 162, 162)">hallway</text>
<text x="487" y="678" font-size="16" transform="rotate(-90, 487, 678) translate(-36, 0)" fill="rgb(172, 172, 172)">little</text>
<text x="656" y="113" font-size="16" fill="rgb(139, 139, 139)">VOICE</text>
<text x="744" y="712" font-size="16" fill="rgb(147, 147, 147)">face</text>
<text x="380" y="352" font-size="16" fill="rgb(240, 240, 240)">blast</text>
<text x="676" y="617" font-size="16" fill="rgb(222, 222, 222)">large</text>
<text x="384" y="679" font-size="16" fill="rgb(131, 131, 131)">wall</text>
<text x="960" y="725" font-size="16" fill="rgb(233, 233, 233)">creature</text>
<text x="725" y="684" font-size="16" fill="rgb(143, 143, 143)">give</text>
<text x="370" y="695" font-size="16" fill="rgb(197, 197, 197)">run</text>
<text x="996" y="629" font-size="16" fill="rgb(206, 206, 206)">pilot</text>
<text x="997" y="566" font-size="16" fill="rgb(156, 156, 156)">race</text>
<text x="707" y="549" font-size="16" fill="rgb(253, 253, 253)">seem</text>
<text x="925" y="320" font-size="16" fill="rgb(246, 246, 246)">Force</text>
<text x="900" y="561" font-size="16" fill="rgb(211, 211, 211)">trench</text>
<text x="148" y="904" font-size="15" fill="rgb(204, 204, 204)">SPACE AROUND</text>
<text x="749" y="378" font-size="14" fill="rgb(223, 223, 223)">AROUND DEATH</text>
<text x="283" y="557" font-size="14" fill="rgb(155, 155, 155)">door</text>
<text x="913" y="283" font-size="14" fill="rgb(142, 142, 142)">system</text>
<text x="243" y="201" font-size="14" fill="rgb(234, 234, 234)">stop</text>
<text x="267" y="385" font-size="14" fill="rgb(189, 189, 189)">Well</text>
<text x="247" y="623" font-size="14" transform="rotate(-90, 247, 623) translate(-33, 0)" fill="rgb(132, 132, 132)">Jawa</text>
<text x="454" y="867" font-size="14" fill="rgb(209, 209, 209)">looking</text>
<text x="840" y="186" font-size="14" fill="rgb(136, 136, 136)">Solo</text>
<text x="271" y="464" font-size="14" fill="rgb(202, 202, 202)">Star surface</text>
<text x="135" y="691" font-size="14" fill="rgb(216, 216, 216)">surface</text>
<text x="1039" y="725" font-size="14" fill="rgb(185, 185, 185)">past</text>
<text x="176" y="534" font-size="14" fill="rgb(180, 180, 180)">laserfire</text>
<text x="439" y="837" font-size="14" fill="rgb(212, 212, 212)">Alderaan</text>
<text x="137" y="795" font-size="14" fill="rgb(145, 145, 145)">pull</text>
<text x="823" y="233" font-size="14" fill="rgb(234, 234, 234)">COCKPIT Red</text>
<text x="738" y="440" font-size="14" fill="rgb(248, 248, 248)">power</text>
<text x="425" y="101" font-size="14" fill="rgb(214, 214, 214)">old</text>
<text x="778" y="680" font-size="14" fill="rgb(128, 128, 128)">must</text>
<text x="670" y="894" font-size="14" fill="rgb(144, 144, 144)">WEDGE</text>
<text x="455" y="255" font-size="12" fill="rgb(186, 186, 186)">MASSASSI OUTPOST</text>
<text x="967" y="429" font-size="12" fill="rgb(161, 161, 161)">Princess</text>
<text x="137" y="813" font-size="12" fill="rgb(198, 198, 198)">sound</text>
<text x="750" y="732" font-size="12" fill="rgb(166, 166, 166)">hold</text>
<text x="793" y="798" font-size="12" fill="rgb(167, 167, 167)">say</text>
<text x="415" y="789" font-size="12" fill="rgb(141, 141, 141)">WAR ROOM</text>
<text x="862" y="715" font-size="12" fill="rgb(209, 209, 209)">RED TEN</text>
<text x="233" y="222" font-size="12" fill="rgb(159, 159, 159)">want</text>
<text x="772" y="291" font-size="12" fill="rgb(183, 183, 183)">good</text>
<text x="285" y="625" font-size="12" fill="rgb(190, 190, 190)">droid</text>
<text x="96" y="761" font-size="12" fill="rgb(255, 255, 255)">continue</text>
<text x="950" y="658" font-size="12" fill="rgb(142, 142, 142)">dive</text>
<text x="707" y="568" font-size="12" fill="rgb(161, 161, 161)">GOLD FIVE</text>
<text x="735" y="280" font-size="12" fill="rgb(164, 164, 164)">sure</text>
<text x="111" y="874" font-size="12" fill="rgb(236, 236, 236)">front</text>
<text x="931" y="676" font-size="12" fill="rgb(160, 160, 160)">friend</text>
<text x="1014" y="603" font-size="12" fill="rgb(207, 207, 207)">wait</text>
<text x="252" y="252" font-size="12" fill="rgb(189, 189, 189)">find</text>
<text x="189" y="702" font-size="12" fill="rgb(176, 176, 176)">standing</text>
<text x="376" y="323" font-size="12" fill="rgb(246, 246, 246)">speeder</text>
<text x="922" y="609" font-size="12" fill="rgb(177, 177, 177)">gun</text>
<text x="379" y="584" font-size="12" fill="rgb(216, 216, 216)">comlink</text>
<text x="487" y="92" font-size="12" fill="rgb(171, 171, 171)">VADER COCKPIT</text>
<text x="235" y="399" font-size="12" fill="rgb(131, 131, 131)">COCKPIT Vader</text>
<text x="806" y="559" font-size="12" transform="rotate(-90, 806, 559) translate(-44, 0)" fill="rgb(219, 219, 219)">starship</text>
<text x="1047" y="620" font-size="12" fill="rgb(191, 191, 191)">sit</text>
<text x="285" y="329" font-size="12" fill="rgb(216, 216, 216)">moment</text>
<text x="497" y="563" font-size="12" fill="rgb(174, 174, 174)">enter</text>
<text x="779" y="147" font-size="12" fill="rgb(237, 237, 237)">thing</text>
<text x="376" y="112" font-size="12" fill="rgb(181, 181, 181)">coming</text>
<text x="341" y="255" font-size="12" fill="rgb(165, 165, 165)">Obi Wan</text>
<text x="448" y="642" font-size="11" fill="rgb(172, 172, 172)">FALCON COCKPIT</text>
<text x="620" y="675" font-size="10" fill="rgb(223, 223, 223)">LEADER COCKPIT</text>
<text x="519" y="809" font-size="10" fill="rgb(177, 177, 177)">LEADER WING</text>
<text x="298" y="345" font-size="10" fill="rgb(243, 243, 243)">planet</text>
<text x="840" y="550" font-size="10" fill="rgb(236, 236, 236)">close</text>
<text x="449" y="385" font-size="10" fill="rgb(169, 169, 169)">group</text>
<text x="350" y="675" font-size="10" fill="rgb(134, 134, 134)">let</text>
<text x="677" y="849" font-size="10" fill="rgb(166, 166, 166)">attack</text>
<text x="913" y="504" font-size="10" transform="rotate(-90, 913, 504) translate(-33, 0)" fill="rgb(156, 156, 156)">Chewie</text>
<text x="627" y="632" font-size="10" fill="rgb(128, 128, 128)">Princess Leia</text>
<text x="388" y="365" font-size="10" fill="rgb(234, 234, 234)">MOS EISLEY</text>
<text x="201" y="264" font-size="10" fill="rgb(174, 174, 174)">targeting device</text>
<text x="592" y="793" font-size="10" fill="rgb(162, 162, 162)">short</text>
<text x="177" y="552" font-size="10" transform="rotate(-90, 177, 552) translate(-25, 0)" fill="rgb(157, 157, 157)">much</text>
<text x="398" y="512" font-size="10" fill="rgb(128, 128, 128)">watches</text>
<text x="189" y="557" font-size="10" fill="rgb(187, 187, 187)">work</text>
<text x="644" y="274" font-size="10" fill="rgb(143, 143, 143)">help</text>
<text x="381" y="739" font-size="10" transform="rotate(-90, 381, 739) translate(-16, 0)" fill="rgb(146, 146, 146)">put</text>
<text x="729" y="420" font-size="10" fill="rgb(178, 178, 178)">Oh</text>
<text x="109" y="847" font-size="10" fill="rgb(208, 208, 208)">father</text>
<text x="248" y="839" font-size="10" transform="rotate(-90, 248, 839) translate(-37, 0)" fill="rgb(130, 130, 130)">position</text>
<text x="764" y="859" font-size="10" fill="rgb(194, 194, 194)">point</text>
<text x="319" y="566" font-size="10" fill="rgb(159, 159, 159)">docking bay</text>
<text x="624" y="150" font-size="10" fill="rgb(155, 155, 155)">OUTPOST WAR</text>
<text x="951" y="611" font-size="10" fill="rgb(224, 224, 224)">weapon</text>
<text x="891" y="493" font-size="10" fill="rgb(138, 138, 138)">along</text>
<text x="237" y="677" font-size="10" fill="rgb(231, 231, 231)">hear</text>
<text x="134" y="671" font-size="10" fill="rgb(155, 155, 155)">shut</text>
<text x="535" y="423" font-size="10" fill="rgb(153, 153, 153)">heard</text>
<text x="375" y="637" font-size="10" fill="rgb(219, 219, 219)">last</text>
<text x="973" y="404" font-size="10" fill="rgb(224, 224, 224)">even</text>
<text x="616" y="889" font-size="10" fill="rgb(182, 182, 182)">guard</text>
<text x="572" y="539" font-size="10" fill="rgb(130, 130, 130)">laserbolt</text>
<text x="949" y="348" font-size="10" fill="rgb(137, 137, 137)">appear</text>
<text x="621" y="795" font-size="10" fill="rgb(163, 163, 163)">Artoo Detoo</text>
<text x="895" y="296" font-size="10" fill="rgb(168, 168, 168)">far</text>
<text x="867" y="246" font-size="10" fill="rgb(252, 252, 252)">Empire</text>
<text x="839" y="638" font-size="10" fill="rgb(211, 211, 211)">enough</text>
<text x="828" y="733" font-size="10" fill="rgb(218, 218, 218)">explosion</text>
<text x="938" y="334" font-size="10" fill="rgb(182, 182, 182)">floor</text>
<text x="386" y="127" font-size="10" fill="rgb(220, 220, 220)">follow</text>
<text x="213" y="612" font-size="10" fill="rgb(218, 218, 218)">four</text>
<text x="359" y="473" font-size="10" fill="rgb(252, 252, 252)">kid</text>
<text x="881" y="688" font-size="10" fill="rgb(129, 129, 129)">Sandpeople</text>
<text x="737" y="466" font-size="10" fill="rgb(245, 245, 245)">open</text>
<text x="481" y="399" font-size="10" fill="rgb(215, 215, 215)">Jabba</text>
<text x="829" y="790" font-size="10" transform="rotate(-90, 829, 790) translate(-30, 0)" fill="rgb(205, 205, 205)">screen</text>
<text x="281" y="603" font-size="10" fill="rgb(232, 232, 232)">plan</text>
<text x="1037" y="636" font-size="10" fill="rgb(246, 246, 246)">explode</text>
<text x="250" y="727" font-size="10" fill="rgb(128, 128, 128)">Dodonna</text>
<text x="647" y="546" font-size="10" fill="rgb(242, 242, 242)">zoom</text>
<text x="165" y="916" font-size="8" fill="rgb(255, 255, 255)">INTERCOM VOICE</text>
<text x="311" y="608" font-size="8" fill="rgb(217, 217, 217)">COCKPIT Gold</text>
<text x="460" y="735" font-size="8" fill="rgb(163, 163, 163)">firing</text>
<text x="473" y="891" font-size="8" fill="rgb(242, 242, 242)">streak</text>
<text x="751" y="422" font-size="8" fill="rgb(218, 218, 218)">electronic</text>
<text x="726" y="762" font-size="8" fill="rgb(235, 235, 235)">boy</text>
<text x="401" y="182" font-size="8" fill="rgb(199, 199, 199)">next</text>
<text x="1007" y="580" font-size="8" fill="rgb(173, 173, 173)">minute</text>
<text x="605" y="205" font-size="8" fill="rgb(207, 207, 207)">goes</text>
<text x="307" y="722" font-size="8" fill="rgb(173, 173, 173)">Commander</text>
<text x="557" y="924" font-size="8" fill="rgb(196, 196, 196)">laser</text>
<text x="923" y="571" font-size="8" fill="rgb(194, 194, 194)">man</text>
<text x="111" y="739" font-size="8" fill="rgb(236, 236, 236)">almost</text>
<text x="563" y="597" font-size="8" fill="rgb(149, 149, 149)">tell</text>
<text x="173" y="593" font-size="8" fill="rgb(190, 190, 190)">area</text>
<text x="650" y="848" font-size="8" fill="rgb(210, 210, 210)">watch</text>
<text x="467" y="682" font-size="8" transform="rotate(-90, 467, 682) translate(-36, 0)" fill="rgb(229, 229, 229)">formation</text>
<text x="186" y="513" font-size="8" fill="rgb(169, 169, 169)">little Artoo</text>
<text x="944" y="361" font-size="8" fill="rgb(230, 230, 230)">slowly</text>
<text x="102" y="807" font-size="8" fill="rgb(204, 204, 204)">first</text>
<text x="265" y="669" font-size="8" fill="rgb(153, 153, 153)">station</text>
<text x="764" y="871" font-size="8" fill="rgb(193, 193, 193)">tiny</text>
<text x="210" y="631" font-size="8" fill="rgb(254, 254, 254)">giant</text>
<text x="114" y="891" font-size="8" fill="rgb(192, 192, 192)">better</text>
<text x="563" y="647" font-size="8" fill="rgb(237, 237, 237)">DAY</text>
<text x="610" y="837" font-size="8" transform="rotate(-90, 610, 837) translate(-20, 0)" fill="rgb(233, 233, 233)">speak</text>
<text x="1018" y="515" font-size="8" fill="rgb(189, 189, 189)">dead</text>
<text x="502" y="674" font-size="8" fill="rgb(175, 175, 175)">thought</text>
<text x="748" y="736" font-size="8" transform="rotate(-90, 748, 736) translate(-12, 0)" fill="rgb(167, 167, 167)">big</text>
<text x="828" y="709" font-size="8" fill="rgb(176, 176, 176)">second</text>
<text x="412" y="803" font-size="8" fill="rgb(236, 236, 236)">really</text>
<text x="860" y="400" font-size="8" transform="rotate(-90, 860, 400) translate(-19, 0)" fill="rgb(249, 249, 249)">three</text>
<text x="344" y="192" font-size="8" transform="rotate(-90, 344, 192) translate(-45, 0)" fill="rgb(155, 155, 155)">Sandcrawler</text>
<text x="269" y="182" font-size="8" fill="rgb(232, 232, 232)">beep</text>
<text x="943" y="623" font-size="8" fill="rgb(248, 248, 248)">Stay</text>
<text x="123" y="772" font-size="8" fill="rgb(197, 197, 197)">arm</text>
<text x="669" y="251" font-size="8" fill="rgb(238, 238, 238)">Wookiee</text>
<text x="1033" y="738" font-size="8" fill="rgb(243, 243, 243)">moon</text>
<text x="916" y="298" font-size="8" fill="rgb(228, 228, 228)">battle station</text>
<text x="210" y="756" font-size="8" fill="rgb(201, 201, 201)">LUKE Well</text>
<text x="667" y="904" font-size="8" fill="rgb(176, 176, 176)">looks around</text>
<text x="394" y="251" font-size="8" fill="rgb(180, 180, 180)">beeping sound</text>
<text x="732" y="698" font-size="8" transform="rotate(-90, 732, 698) translate(-48, 0)" fill="rgb(152, 152, 152)">laser cannon</text>
<text x="737" y="291" font-size="8" fill="rgb(178, 178, 178)">outside</text>
<text x="376" y="497" font-size="8" fill="rgb(245, 245, 245)">corridor</text>
<text x="636" y="159" font-size="8" transform="rotate(-90, 636, 159) translate(-14, 0)" fill="rgb(212, 212, 212)">feet</text>
<text x="822" y="561" font-size="8" fill="rgb(187, 187, 187)">place</text>
<text x="410" y="597" font-size="8" fill="rgb(245, 245, 245)">subhallway</text>
<text x="194" y="278" font-size="8" fill="rgb(145, 145, 145)">rushes</text>
<text x="307" y="148" font-size="8" fill="rgb(209, 209, 209)">found</text>
<text x="771" y="269" font-size="8" fill="rgb(184, 184, 184)">great</text>
<text x="487" y="626" font-size="8" fill="rgb(145, 145, 145)">Rebellion</text>
<text x="880" y="260" font-size="8" fill="rgb(214, 214, 214)">cut</text>
<text x="287" y="336" font-size="8" transform="rotate(-90, 287, 336) translate(-14, 0)" fill="rgb(151, 151, 151)">spot</text>
<text x="246" y="589" font-size="8" transform="rotate(-90, 246, 589) translate(-19, 0)" fill="rgb(201, 201, 201)">jump</text>
<text x="804" y="187" font-size="8" fill="rgb(244, 244, 244)">Listen</text>
<text x="959" y="564" font-size="8" fill="rgb(135, 135, 135)">trying</text>
<text x="1077" y="651" font-size="8" transform="rotate(-90, 1077, 651) translate(-20, 0)" fill="rgb(252, 252, 252)">never</text>
<text x="498" y="686" font-size="8" transform="rotate(-90, 498, 686) translate(-18, 0)" fill="rgb(187, 187, 187)">need</text>
<text x="600" y="638" font-size="8" fill="rgb(158, 158, 158)">Okay</text>
<text x="453" y="847" font-size="8" fill="rgb(176, 176, 176)">reaches</text>
<text x="857" y="436" font-size="8" transform="rotate(-90, 857, 436) translate(-16, 0)" fill="rgb(216, 216, 216)">year</text>
<text x="937" y="718" font-size="8" fill="rgb(218, 218, 218)">still</text>
<text x="888" y="277" font-size="8" fill="rgb(164, 164, 164)">try</text>
<text x="1001" y="643" font-size="8" fill="rgb(177, 177, 177)">speaker</text>
<text x="460" y="104" font-size="8" fill="rgb(204, 204, 204)">THREEPIO Artoo</text>
<text x="361" y="698" font-size="8" transform="rotate(-90, 361, 698) translate(-41, 0)" fill="rgb(153, 153, 153)">laser pistol</text>
<text x="343" y="150" font-size="7" fill="rgb(178, 178, 178)">Artoo beeps</text>
<text x="758" y="690" font-size="7" fill="rgb(245, 245, 245)">Wan Kenobi</text>
<text x="824" y="197" font-size="7" fill="rgb(188, 188, 188)">Imperial TIE</text>
<text x="539" y="433" font-size="7" fill="rgb(183, 183, 183)">FALCON GUNPORT</text>
<text x="183" y="486" font-size="7" fill="rgb(171, 171, 171)">BIGGS' COCKPIT</text>
<text x="911" y="430" font-size="7" fill="rgb(167, 167, 167)">STAR Three</text>
<text x="745" y="594" font-size="7" fill="rgb(163, 163, 163)">main</text>
<text x="128" y="825" font-size="7" fill="rgb(151, 151, 151)">battle</text>
<text x="235" y="234" font-size="7" fill="rgb(141, 141, 141)">TATOOINE</text>
<text x="313" y="674" font-size="7" fill="rgb(249, 249, 249)">battered</text>
<text x="794" y="269" font-size="7" fill="rgb(193, 193, 193)">aim</text>
<text x="386" y="704" font-size="7" fill="rgb(219, 219, 219)">moving</text>
<text x="951" y="476" font-size="7" fill="rgb(228, 228, 228)">Hey</text>
<text x="431" y="314" font-size="7" fill="rgb(209, 209, 209)">ROOM</text>
<text x="298" y="145" font-size="7" transform="rotate(-90, 298, 145) translate(-9, 0)" fill="rgb(205, 205, 205)">lot</text>
<text x="603" y="124" font-size="7" fill="rgb(226, 226, 226)">keep</text>
<text x="748" y="452" font-size="7" fill="rgb(207, 207, 207)">anything</text>
<text x="279" y="587" font-size="7" fill="rgb(206, 206, 206)">leave</text>
<text x="535" y="536" font-size="7" fill="rgb(247, 247, 247)">canyon</text>
<text x="565" y="674" font-size="7" fill="rgb(253, 253, 253)">quite</text>
<text x="712" y="854" font-size="7" fill="rgb(209, 209, 209)">speed</text>
<text x="743" y="360" font-size="7" fill="rgb(172, 172, 172)">table</text>
<text x="286" y="636" font-size="7" fill="rgb(161, 161, 161)">disappear</text>
<text x="94" y="771" font-size="7" fill="rgb(182, 182, 182)">use</text>
<text x="503" y="892" font-size="7" fill="rgb(174, 174, 174)">Five</text>
<text x="172" y="607" font-size="7" fill="rgb(219, 219, 219)">board</text>
<text x="253" y="632" font-size="7" fill="rgb(190, 190, 190)">target</text>
<text x="530" y="560" font-size="7" fill="rgb(187, 187, 187)">grab</text>
<text x="618" y="848" font-size="7" fill="rgb(155, 155, 155)">R2 unit</text>
<text x="307" y="382" font-size="7" fill="rgb(163, 163, 163)">Aunt Beru</text>
<text x="769" y="844" font-size="7" fill="rgb(206, 206, 206)">Ben Kenobi</text>
<text x="339" y="183" font-size="7" fill="rgb(186, 186, 186)">toward Death</text>
<text x="390" y="735" font-size="7" fill="rgb(160, 160, 160)">TIE ship</text>
<text x="94" y="857" font-size="7" fill="rgb(238, 238, 238)">STAR MAIN</text>
<text x="590" y="679" font-size="7" transform="rotate(-90, 590, 679) translate(-54, 0)" fill="rgb(204, 204, 204)">FORWARD BAY</text>
<text x="652" y="181" font-size="5" fill="rgb(170, 170, 170)">Imperial stormtrooper</text>
<text x="552" y="264" font-size="5" fill="rgb(223, 223, 223)">Rebel fighter</text>
<text x="529" y="128" font-size="5" fill="rgb(140, 140, 140)">STAR TRENCH</text>
<text x="940" y="742" font-size="5" fill="rgb(152, 152, 152)">struggle</text>
<text x="654" y="554" font-size="5" fill="rgb(235, 235, 235)">smoke</text>
<text x="321" y="547" font-size="5" fill="rgb(207, 207, 207)">near</text>
<text x="377" y="374" font-size="5" fill="rgb(178, 178, 178)">horizon</text>
<text x="993" y="593" font-size="5" fill="rgb(167, 167, 167)">air</text>
<text x="767" y="359" font-size="5" fill="rgb(152, 152, 152)">smile</text>
<text x="423" y="815" font-size="5" fill="rgb(130, 130, 130)">sight</text>
<text x="619" y="536" font-size="5" fill="rgb(178, 178, 178)">distance</text>
<text x="494" y="573" font-size="5" fill="rgb(201, 201, 201)">direction</text>
<text x="534" y="758" font-size="5" fill="rgb(202, 202, 202)">approaching</text>
<text x="193" y="651" font-size="5" fill="rgb(235, 235, 235)">hatch</text>
<text x="313" y="574" font-size="5" fill="rgb(135, 135, 135)">narrow</text>
<text x="244" y="774" font-size="5" fill="rgb(227, 227, 227)">life</text>
<text x="255" y="867" font-size="5" fill="rgb(186, 186, 186)">bad</text>
<text x="805" y="829" font-size="5" fill="rgb(171, 171, 171)">uncle</text>
<text x="280" y="573" font-size="5" fill="rgb(204, 204, 204)">blaster</text>
<text x="746" y="578" font-size="5" fill="rgb(245, 245, 245)">seen</text>
<text x="475" y="878" font-size="5" fill="rgb(210, 210, 210)">line</text>
<text x="331" y="311" font-size="5" fill="rgb(129, 129, 129)">shoulder</text>
<text x="260" y="549" font-size="5" fill="rgb(154, 154, 154)">master</text>
<text x="346" y="485" font-size="5" fill="rgb(143, 143, 143)">become</text>
<text x="831" y="413" font-size="5" fill="rgb(141, 141, 141)">range</text>
<text x="739" y="481" font-size="5" fill="rgb(251, 251, 251)">cell</text>
<text x="360" y="454" font-size="5" fill="rgb(174, 174, 174)">port</text>
<text x="529" y="922" font-size="5" fill="rgb(247, 247, 247)">wingmen</text>
<text x="962" y="413" font-size="5" fill="rgb(153, 153, 153)">REBEL BLOCKADE</text>
<text x="868" y="698" font-size="5" fill="rgb(174, 174, 174)">BLOCKADE RUNNER</text>
<text x="752" y="181" font-size="5" fill="rgb(135, 135, 135)">shakes head</text>
<text x="837" y="791" font-size="5" fill="rgb(131, 131, 131)">old Ben</text>
<text x="194" y="686" font-size="5" fill="rgb(217, 217, 217)">Rebel base</text>
<text x="811" y="607" font-size="5" fill="rgb(202, 202, 202)">CONTROL ROOM</text>
<text x="665" y="559" font-size="5" transform="rotate(-90, 665, 559) translate(-58, 0)" fill="rgb(135, 135, 135)">COCKPIT TRAVELING</text>
<text x="788" y="807" font-size="5" fill="rgb(246, 246, 246)">new</text>
<text x="405" y="637" font-size="5" fill="rgb(141, 141, 141)">home</text>
<text x="536" y="405" font-size="5" fill="rgb(197, 197, 197)">half</text>
<text x="134" y="707" font-size="5" transform="rotate(-90, 134, 707) translate(-15, 0)" fill="rgb(161, 161, 161)">Hurry</text>
<text x="566" y="655" font-size="5" fill="rgb(198, 198, 198)">young</text>
<text x="234" y="822" font-size="5" fill="rgb(168, 168, 168)">end</text>
<text x="378" y="392" font-size="5" fill="rgb(203, 203, 203)">soldier</text>
<text x="373" y="616" font-size="5" fill="rgb(216, 216, 216)">getting</text>
<text x="259" y="452" font-size="5" transform="rotate(-90, 259, 452) translate(-15, 0)" fill="rgb(186, 186, 186)">course</text>
<text x="596" y="334" font-size="5" fill="rgb(220, 220, 220)">worry</text>
<text x="641" y="257" font-size="5" fill="rgb(184, 184, 184)">fight</text>
<text x="588" y="772" font-size="5" fill="rgb(195, 195, 195)">part</text>
<text x="593" y="622" font-size="5" fill="rgb(182, 182, 182)">approaches</text>
<text x="831" y="425" font-size="5" fill="rgb(155, 155, 155)">sand</text>
<text x="914" y="244" font-size="5" fill="rgb(176, 176, 176)">whistle</text>
<text x="517" y="325" font-size="5" fill="rgb(164, 164, 164)">distant</text>
<text x="383" y="566" font-size="5" fill="rgb(184, 184, 184)">left</text>
<text x="217" y="641" font-size="5" fill="rgb(239, 239, 239)">might</text>
<text x="962" y="463" font-size="5" fill="rgb(233, 233, 233)">bit</text>
<text x="970" y="367" font-size="5" fill="rgb(199, 199, 199)">shoot</text>
<text x="269" y="366" font-size="5" fill="rgb(185, 185, 185)">followed</text>
<text x="186" y="572" font-size="5" fill="rgb(204, 204, 204)">Uh</text>
<text x="619" y="211" font-size="5" transform="rotate(-90, 619, 211) translate(-19, 0)" fill="rgb(141, 141, 141)">hangar</text>
<text x="127" y="901" font-size="5" fill="rgb(141, 141, 141)">able</text>
<text x="82" y="803" font-size="5" fill="rgb(197, 197, 197)">blow</text>
<text x="718" y="114" font-size="5" fill="rgb(186, 186, 186)">bartender</text>
<text x="159" y="672" font-size="5" fill="rgb(130, 130, 130)">fast</text>
<text x="941" y="727" font-size="5" fill="rgb(243, 243, 243)">check</text>
<text x="174" y="755" font-size="5" fill="rgb(164, 164, 164)">GREEDO</text>
<text x="711" y="252" font-size="5" fill="rgb(172, 172, 172)">green</text>
<text x="984" y="386" font-size="5" fill="rgb(170, 170, 170)">crew</text>
<text x="699" y="629" font-size="5" fill="rgb(145, 145, 145)">flame</text>
<text x="1080" y="679" font-size="5" fill="rgb(185, 185, 185)">tower</text>
<text x="709" y="286" font-size="5" fill="rgb(155, 155, 155)">headset</text>
<text x="814" y="211" font-size="5" transform="rotate(-90, 814, 211) translate(-31, 0)" fill="rgb(236, 236, 236)">Uncle Owen</text>
<text x="705" y="598" font-size="5" fill="rgb(249, 249, 249)">HOLD AREA</text>
<text x="895" y="435" font-size="5" transform="rotate(-90, 895, 435) translate(-43, 0)" fill="rgb(164, 164, 164)">TATOOINE MOS</text>
<text x="1013" y="524" font-size="5" fill="rgb(142, 142, 142)">Han Solo</text>
<text x="644" y="760" font-size="5" fill="rgb(186, 186, 186)">control panel</text>
<text x="895" y="497" font-size="5" transform="rotate(-90, 895, 497) translate(-42, 0)" fill="rgb(148, 148, 148)">Imperial fighter</text>
<text x="819" y="243" font-size="4" fill="rgb(218, 218, 218)">MAIN FORWARD</text>
<text x="462" y="91" font-size="4" fill="rgb(196, 196, 196)">three TIE</text>
<text x="424" y="642" font-size="4" fill="rgb(175, 175, 175)">galaxy</text>
<text x="885" y="773" font-size="4" fill="rgb(157, 157, 157)">aboard</text>
<text x="555" y="363" font-size="4" fill="rgb(193, 193, 193)">human</text>
<text x="618" y="337" font-size="4" fill="rgb(202, 202, 202)">rush</text>
<text x="467" y="126" font-size="4" fill="rgb(160, 160, 160)">filled</text>
<text x="673" y="344" font-size="4" fill="rgb(196, 196, 196)">morning</text>
<text x="388" y="780" font-size="4" fill="rgb(244, 244, 244)">seven</text>
<text x="417" y="522" font-size="4" fill="rgb(207, 207, 207)">Dark</text>
<text x="610" y="189" font-size="4" fill="rgb(160, 160, 160)">mission</text>
<text x="882" y="555" font-size="4" fill="rgb(251, 251, 251)">RED</text>
<text x="421" y="125" font-size="4" transform="rotate(-90, 421, 125) translate(-7, 0)" fill="rgb(238, 238, 238)">call</text>
<text x="540" y="676" font-size="4" fill="rgb(171, 171, 171)">talking</text>
<text x="815" y="148" font-size="4" fill="rgb(137, 137, 137)">rest</text>
<text x="179" y="787" font-size="4" transform="rotate(-90, 179, 787) translate(-22, 0)" fill="rgb(231, 231, 231)">background</text>
<text x="880" y="192" font-size="4" fill="rgb(130, 130, 130)">shot</text>
<text x="777" y="603" font-size="4" fill="rgb(192, 192, 192)">happened</text>
<text x="754" y="843" font-size="4" fill="rgb(186, 186, 186)">came</text>
<text x="254" y="474" font-size="4" fill="rgb(155, 155, 155)">low</text>
<text x="1010" y="589" font-size="4" fill="rgb(252, 252, 252)">gets</text>
<text x="943" y="568" font-size="4" fill="rgb(191, 191, 191)">may</text>
<text x="662" y="854" font-size="4" transform="rotate(-90, 662, 854) translate(-29, 0)" fill="rgb(204, 204, 204)">HOMESTEAD</text>
<text x="747" y="405" font-size="4" fill="rgb(239, 239, 239)">quickly</text>
<text x="387" y="753" font-size="4" fill="rgb(198, 198, 198)">garage</text>
<text x="950" y="638" font-size="4" fill="rgb(227, 227, 227)">Yeah</text>
<text x="255" y="883" font-size="4" fill="rgb(171, 171, 171)">trouble</text>
<text x="410" y="168" font-size="4" fill="rgb(221, 221, 221)">tries</text>
<text x="840" y="802" font-size="4" transform="rotate(-90, 840, 802) translate(-8, 0)" fill="rgb(131, 131, 131)">gone</text>
<text x="440" y="372" font-size="4" fill="rgb(238, 238, 238)">yell</text>
<text x="1051" y="645" font-size="4" fill="rgb(182, 182, 182)">closer</text>
<text x="806" y="194" font-size="4" fill="rgb(195, 195, 195)">step</text>
<text x="153" y="824" font-size="4" fill="rgb(206, 206, 206)">return</text>
<text x="730" y="890" font-size="4" fill="rgb(216, 216, 216)">lightsaber</text>
<text x="898" y="306" font-size="4" fill="rgb(136, 136, 136)">thousand</text>
<text x="753" y="527" font-size="4" transform="rotate(-90, 753, 527) translate(-16, 0)" fill="rgb(233, 233, 233)">together</text>
<text x="389" y="334" font-size="4" fill="rgb(186, 186, 186)">information</text>
<text x="424" y="163" font-size="4" fill="rgb(204, 204, 204)">readout</text>
<text x="787" y="181" font-size="4" fill="rgb(189, 189, 189)">ready</text>
<text x="788" y="725" font-size="4" transform="rotate(-90, 788, 725) translate(-11, 0)" fill="rgb(240, 240, 240)">burst</text>
<text x="230" y="686" font-size="4" fill="rgb(213, 213, 213)">enemy</text>
<text x="197" y="446" font-size="4" fill="rgb(214, 214, 214)">climb</text>
<text x="569" y="604" font-size="4" fill="rgb(242, 242, 242)">shadow</text>
<text x="486" y="848" font-size="4" fill="rgb(219, 219, 219)">adjust</text>
<text x="744" y="605" font-size="4" fill="rgb(161, 161, 161)">Dark Lord</text>
<text x="339" y="637" font-size="4" fill="rgb(225, 225, 225)">power station</text>
<text x="897" y="621" font-size="4" fill="rgb(173, 173, 173)">LARS HOMESTEAD</text>
<text x="455" y="398" font-size="4" fill="rgb(164, 164, 164)">old man</text>
<text x="513" y="263" font-size="4" fill="rgb(232, 232, 232)">Han Chewie</text>
<text x="954" y="551" font-size="4" fill="rgb(131, 131, 131)">Han Chewbacca</text>
<text x="453" y="373" font-size="4" fill="rgb(130, 130, 130)">SPACE TIE</text>
<text x="221" y="273" font-size="4" fill="rgb(132, 132, 132)">tractor beam</text>
<text x="315" y="473" font-size="4" fill="rgb(158, 158, 158)">GARBAGE ROOM</text>
<text x="442" y="537" font-size="4" fill="rgb(184, 184, 184)">exhaust port</text>
<text x="359" y="309" font-size="4" fill="rgb(232, 232, 232)">COCKPIT Wedge</text>
<text x="782" y="387" font-size="4" fill="rgb(202, 202, 202)">ROOM Leia</text>
<text x="249" y="734" font-size="4" fill="rgb(159, 159, 159)">adjusts control</text>
<text x="825" y="717" font-size="4" fill="rgb(154, 154, 154)">control stick</text>
<text x="650" y="700" font-size="4" transform="rotate(-90, 650, 700) translate(-16, 0)" fill="rgb(205, 205, 205)">armored</text>
<text x="890" y="205" font-size="4" fill="rgb(151, 151, 151)">shaking</text>
<text x="235" y="576" font-size="4" fill="rgb(193, 193, 193)">scream</text>
<text x="838" y="649" font-size="4" fill="rgb(226, 226, 226)">creating</text>
<text x="608" y="864" font-size="4" fill="rgb(229, 229, 229)">desert</text>
<text x="455" y="876" font-size="4" fill="rgb(193, 193, 193)">white</text>
<text x="679" y="534" font-size="4" fill="rgb(161, 161, 161)">Landspeeder</text>
<text x="303" y="261" font-size="4" fill="rgb(165, 165, 165)">leaving</text>
<text x="467" y="663" font-size="4" fill="rgb(249, 249, 249)">quiet</text>
<text x="369" y="733" font-size="4" fill="rgb(249, 249, 249)">heading</text>
<text x="515" y="818" font-size="4" fill="rgb(148, 148, 148)">bring</text>
<text x="746" y="389" font-size="4" fill="rgb(174, 174, 174)">set</text>
<text x="355" y="684" font-size="4" fill="rgb(167, 167, 167)">told</text>
<text x="193" y="581" font-size="4" fill="rgb(185, 185, 185)">yelling</text>
<text x="374" y="598" font-size="4" fill="rgb(190, 190, 190)">easy</text>
<text x="668" y="775" font-size="4" fill="rgb(183, 183, 183)">nothing</text>
<text x="1088" y="694" font-size="4" fill="rgb(190, 190, 190)">made</text>
<text x="989" y="573" font-size="4" fill="rgb(158, 158, 158)">reply</text>
<text x="431" y="341" font-size="4" transform="rotate(-90, 431, 341) translate(-7, 0)" fill="rgb(144, 144, 144)">pay</text>
<text x="170" y="648" font-size="4" fill="rgb(216, 216, 216)">said</text>
<text x="570" y="418" font-size="4" fill="rgb(191, 191, 191)">best</text>
<text x="516" y="398" font-size="4" fill="rgb(249, 249, 249)">strange</text>
<text x="548" y="501" font-size="4" transform="rotate(-90, 548, 501) translate(-17, 0)" fill="rgb(224, 224, 224)">approach</text>
<text x="717" y="175" font-size="4" fill="rgb(239, 239, 239)">pop</text>
<text x="437" y="126" font-size="4" transform="rotate(-90, 437, 126) translate(-8, 0)" fill="rgb(179, 179, 179)">edge</text>
<text x="594" y="645" font-size="4" fill="rgb(223, 223, 223)">blue</text>
<text x="121" y="803" font-size="4" fill="rgb(239, 239, 239)">lost</text>
<text x="812" y="806" font-size="4" transform="rotate(-90, 812, 806) translate(-12, 0)" fill="rgb(247, 247, 247)">center</text>
<text x="595" y="819" font-size="4" fill="rgb(189, 189, 189)">mind</text>
<text x="856" y="392" font-size="4" fill="rgb(147, 147, 147)">bar</text>
<text x="650" y="878" font-size="4" transform="rotate(-90, 650, 878) translate(-14, 0)" fill="rgb(186, 186, 186)">massive</text>
<text x="979" y="619" font-size="4" fill="rgb(175, 175, 175)">view</text>
<text x="218" y="650" font-size="4" fill="rgb(250, 250, 250)">walk</text>
<text x="839" y="167" font-size="4" fill="rgb(172, 172, 172)">everything</text>
<text x="307" y="313" font-size="4" fill="rgb(166, 166, 166)">corner</text>
<text x="1073" y="719" font-size="4" fill="rgb(172, 172, 172)">button</text>
<text x="626" y="114" font-size="4" fill="rgb(159, 159, 159)">transmission</text>
<text x="275" y="537" font-size="4" fill="rgb(165, 165, 165)">twenty</text>
<text x="472" y="155" font-size="4" transform="rotate(-90, 472, 155) translate(-12, 0)" fill="rgb(149, 149, 149)">round</text>
<text x="582" y="920" font-size="4" fill="rgb(168, 168, 168)">charge</text>
<text x="934" y="750" font-size="4" fill="rgb(206, 206, 206)">helmet</text>
<text x="611" y="430" font-size="4" fill="rgb(155, 155, 155)">copy</text>
<text x="212" y="815" font-size="4" fill="rgb(246, 246, 246)">cover</text>
<text x="895" y="213" font-size="4" fill="rgb(163, 163, 163)">peel</text>
<text x="641" y="476" font-size="4" fill="rgb(232, 232, 232)">Lord Vader</text>
<text x="171" y="543" font-size="4" fill="rgb(163, 163, 163)">TATOOINE ROCK</text>
<text x="188" y="711" font-size="4" fill="rgb(206, 206, 206)">EISLEY STREET</text>
<text x="484" y="319" font-size="4" fill="rgb(243, 243, 243)">cockpit window</text>
<text x="253" y="794" font-size="4" transform="rotate(-90, 253, 794) translate(-17, 0)" fill="rgb(223, 223, 223)">Two TIE</text>
<text x="307" y="353" font-size="4" fill="rgb(233, 233, 233)">LEADER headset</text>
<text x="352" y="197" font-size="4" transform="rotate(-90, 352, 197) translate(-37, 0)" fill="rgb(220, 220, 220)">WEDGE COCKPIT</text>
<text x="246" y="782" font-size="4" fill="rgb(182, 182, 182)">hope</text>
<text x="621" y="277" font-size="4" fill="rgb(242, 242, 242)">base</text>
<text x="109" y="772" font-size="4" fill="rgb(227, 227, 227)">evil</text>
<text x="967" y="334" font-size="4" fill="rgb(192, 192, 192)">entire</text>
<text x="277" y="169" font-size="4" fill="rgb(198, 198, 198)">craft</text>
<text x="850" y="427" font-size="4" fill="rgb(169, 169, 169)">tall</text>
<text x="349" y="115" font-size="4" fill="rgb(180, 180, 180)">understand</text>
<text x="995" y="604" font-size="4" fill="rgb(175, 175, 175)">escape</text>
<text x="177" y="619" font-size="4" fill="rgb(173, 173, 173)">making</text>
<text x="738" y="847" font-size="4" fill="rgb(163, 163, 163)">heavy</text>
<text x="288" y="711" font-size="4" fill="rgb(207, 207, 207)">hole</text>
<text x="162" y="635" font-size="4" fill="rgb(186, 186, 186)">holding</text>
<text x="486" y="607" font-size="4" fill="rgb(168, 168, 168)">barely</text>
<text x="754" y="550" font-size="4" fill="rgb(187, 187, 187)">lifepod</text>
<text x="636" y="96" font-size="4" fill="rgb(213, 213, 213)">flash</text>
<text x="89" y="843" font-size="4" fill="rgb(211, 211, 211)">captain</text>
<text x="140" y="833" font-size="4" fill="rgb(185, 185, 185)">loose</text>
<text x="599" y="830" font-size="4" fill="rgb(214, 214, 214)">soon</text>
<text x="984" y="681" font-size="4" fill="rgb(237, 237, 237)">stumbles</text>
<text x="692" y="736" font-size="4" fill="rgb(150, 150, 150)">believe</text>
<text x="405" y="688" font-size="4" fill="rgb(157, 157, 157)">senator</text>
<text x="779" y="697" font-size="4" fill="rgb(150, 150, 150)">dangerous</text>
<text x="236" y="583" font-size="4" fill="rgb(209, 209, 209)">send</text>
<text x="643" y="564" font-size="4" fill="rgb(255, 255, 255)">signal</text>
<text x="272" y="220" font-size="4" fill="rgb(167, 167, 167)">season</text>
<text x="481" y="383" font-size="4" fill="rgb(175, 175, 175)">CENTRAL</text>
<text x="605" y="108" font-size="4" fill="rgb(170, 170, 170)">join</text>
<text x="508" y="823" font-size="4" transform="rotate(-90, 508, 823) translate(-12, 0)" fill="rgb(253, 253, 253)">always</text>
<text x="855" y="526" font-size="4" fill="rgb(184, 184, 184)">feel</text>
<text x="708" y="534" font-size="4" fill="rgb(204, 204, 204)">powerful</text>
<text x="482" y="759" font-size="4" transform="rotate(-90, 482, 759) translate(-8, 0)" fill="rgb(169, 169, 169)">glow</text>
<text x="501" y="223" font-size="4" fill="rgb(217, 217, 217)">eight</text>
<text x="528" y="108" font-size="4" transform="rotate(-90, 528, 108) translate(-7, 0)" fill="rgb(149, 149, 149)">size</text>
<text x="581" y="593" font-size="4" fill="rgb(192, 192, 192)">beam</text>
<text x="467" y="553" font-size="4" fill="rgb(237, 237, 237)">metal</text>
<text x="237" y="617" font-size="4" fill="rgb(207, 207, 207)">chamber</text>
<text x="223" y="596" font-size="4" fill="rgb(155, 155, 155)">pick</text>
<text x="591" y="247" font-size="4" fill="rgb(230, 230, 230)">slimy</text>
<text x="538" y="225" font-size="4" fill="rgb(239, 239, 239)">stick</text>
<text x="580" y="126" font-size="4" fill="rgb(132, 132, 132)">grey</text>
<text x="814" y="575" font-size="4" transform="rotate(-90, 814, 575) translate(-18, 0)" fill="rgb(239, 239, 239)">spaceship</text>
<text x="462" y="316" font-size="4" fill="rgb(215, 215, 215)">laughing</text>
<text x="250" y="382" font-size="4" fill="rgb(240, 240, 240)">many</text>
<text x="553" y="718" font-size="4" transform="rotate(-90, 553, 718) translate(-11, 0)" fill="rgb(141, 141, 141)">afraid</text>
<text x="1011" y="736" font-size="4" fill="rgb(233, 233, 233)">message</text>
<text x="954" y="575" font-size="4" fill="rgb(192, 192, 192)">bolt</text>
<text x="571" y="759" font-size="4" fill="rgb(141, 141, 141)">high</text>
<text x="795" y="851" font-size="4" fill="rgb(148, 148, 148)">deep</text>
<text x="261" y="742" font-size="4" fill="rgb(162, 162, 162)">lies</text>
<text x="1090" y="698" font-size="4" transform="rotate(-90, 1090, 698) translate(-9, 0)" fill="rgb(226, 226, 226)">Jedi</text>
<text x="726" y="182" font-size="4" fill="rgb(172, 172, 172)">nervously</text>
<text x="903" y="316" font-size="4" fill="rgb(217, 217, 217)">general</text>
<text x="380" y="464" font-size="4" transform="rotate(-90, 380, 464) translate(-14, 0)" fill="rgb(236, 236, 236)">precise</text>
<text x="230" y="209" font-size="4" fill="rgb(189, 189, 189)">fighter</text>
<text x="1072" y="727" font-size="4" fill="rgb(216, 216, 216)">lock</text>
<text x="277" y="193" font-size="4" fill="rgb(232, 232, 232)">ramp</text>
<text x="601" y="882" font-size="4" fill="rgb(139, 139, 139)">lever</text>
<text x="406" y="96" font-size="4" fill="rgb(138, 138, 138)">number</text>
<text x="516" y="753" font-size="4" fill="rgb(131, 131, 131)">closing</text>
<text x="314" y="153" font-size="4" transform="rotate(-90, 314, 153) translate(-9, 0)" fill="rgb(169, 169, 169)">shaft</text>
<text x="965" y="733" font-size="4" fill="rgb(186, 186, 186)">bridge</text>
<text x="708" y="146" font-size="4" fill="rgb(198, 198, 198)">swing</text>
<text x="387" y="204" font-size="4" transform="rotate(-90, 387, 204) translate(-13, 0)" fill="rgb(247, 247, 247)">manage</text>
<text x="606" y="921" font-size="4" fill="rgb(174, 174, 174)">GUNPORT</text>
<text x="1030" y="746" font-size="4" fill="rgb(154, 154, 154)">Yavin</text>
<text x="716" y="432" font-size="4" fill="rgb(234, 234, 234)">temple</text>
<text x="552" y="329" font-size="4" fill="rgb(174, 174, 174)">maneuver</text>
<text x="237" y="831" font-size="4" fill="rgb(173, 173, 173)">flying</text>
<text x="387" y="743" font-size="4" fill="rgb(192, 192, 192)">Flak</text>
<text x="786" y="299" font-size="4" fill="rgb(131, 131, 131)">little robot</text>
<text x="255" y="640" font-size="4" transform="rotate(-90, 255, 640) translate(-25, 0)" fill="rgb(239, 239, 239)">makes beeping</text>
<text x="897" y="674" font-size="4" fill="rgb(133, 133, 133)">Imperial Officer</text>
<text x="514" y="123" font-size="4" transform="rotate(-90, 514, 123) translate(-31, 0)" fill="rgb(130, 130, 130)">ROCK CANYON</text>
</svg>
