<svg width="1190" height="1028" xmlns="http://www.w3.org/2000/svg">
    <defs><style type="text/css">
    @import url("https://fonts.googleapis.com/css?family=Black+Ops+One");
    text {font-family: 'Black Ops One', cursive;
    font-kerning:none;
    font-variant-ligatures:none}
    </style></defs>
<rect width="100%" height="100%" fill="black"/>
<text x="470" y="226" font-size="128" fill="hsl(0, 0%, 77%)">Luke</text>
<text x="547" y="519" font-size="91" fill="hsl(0, 0%, 84%)">Han</text>
<text x="166" y="699" font-size="88" fill="hsl(0, 0%, 96%)">DEATH STAR</text>
<text x="420" y="789" font-size="79" fill="hsl(0, 0%, 94%)">THREEPIO</text>
<text x="377" y="436" font-size="70" fill="hsl(0, 0%, 69%)">Ben</text>
<text x="309" y="209" font-size="61" fill="hsl(0, 0%, 100%)">ship</text>
<text x="357" y="317" font-size="59" transform="rotate(-90, 357, 317) translate(-132, 0)" fill="hsl(0, 0%, 73%)">Leia</text>
<text x="949" y="680" font-size="56" fill="hsl(0, 0%, 97%)">one</text>
<text x="636" y="606" font-size="54" fill="hsl(0, 0%, 61%)">look</text>
<text x="769" y="606" font-size="41" fill="hsl(0, 0%, 66%)">RED LEADER</text>
<text x="696" y="824" font-size="40" fill="hsl(0, 0%, 97%)">Artoo</text>
<text x="878" y="527" font-size="39" fill="hsl(0, 0%, 84%)">back</text>
<text x="165" y="705" font-size="38" transform="rotate(-90, 165, 705) translate(-111, 0)" fill="hsl(0, 0%, 73%)">move</text>
<text x="761" y="396" font-size="37" fill="hsl(0, 0%, 62%)">going</text>
<text x="306" y="587" font-size="36" fill="hsl(0, 0%, 63%)">two</text>
<text x="943" y="373" font-size="36" transform="rotate(-90, 943, 373) translate(-108, 0)" fill="hsl(0, 0%, 87%)">Biggs</text>
<text x="239" y="620" font-size="36" fill="hsl(0, 0%, 82%)">TIE fighter</text>
<text x="527" y="441" font-size="35" transform="rotate(-90, 527, 441) translate(-116, 0)" fill="hsl(0, 0%, 62%)">Vader</text>
<text x="392" y="495" font-size="34" fill="hsl(0, 0%, 83%)">see</text>
<text x="381" y="723" font-size="31" fill="hsl(0, 0%, 66%)">MILLENNIUM FALCON</text>
<text x="664" y="854" font-size="31" fill="hsl(0, 0%, 94%)">toward</text>
<text x="913" y="709" font-size="31" fill="hsl(0, 0%, 72%)">right</text>
<text x="451" y="125" font-size="31" fill="hsl(0, 0%, 84%)">Luke WING</text>
<text x="915" y="553" font-size="31" fill="hsl(0, 0%, 73%)">come</text>
<text x="123" y="752" font-size="31" transform="rotate(-90, 123, 752) translate(-134, 0)" fill="hsl(0, 0%, 95%)">trooper</text>
<text x="580" y="545" font-size="30" fill="hsl(0, 0%, 82%)">robot</text>
<text x="337" y="152" font-size="30" fill="hsl(0, 0%, 63%)">small</text>
<text x="381" y="459" font-size="29" fill="hsl(0, 0%, 71%)">SPACE</text>
<text x="538" y="246" font-size="28" fill="hsl(0, 0%, 98%)">now</text>
<text x="230" y="247" font-size="28" fill="hsl(0, 0%, 70%)">WING FIGHTER</text>
<text x="178" y="795" font-size="28" fill="hsl(0, 0%, 93%)">take</text>
<text x="660" y="255" font-size="28" fill="hsl(0, 0%, 83%)">begin</text>
<text x="550" y="582" font-size="28" fill="hsl(0, 0%, 97%)">make</text>
<text x="645" y="878" font-size="27" fill="hsl(0, 0%, 69%)">away</text>
<text x="821" y="200" font-size="27" fill="hsl(0, 0%, 88%)">fire</text>
<text x="450" y="841" font-size="27" fill="hsl(0, 0%, 93%)">will</text>
<text x="878" y="739" font-size="27" fill="hsl(0, 0%, 86%)">turn</text>
<text x="174" y="723" font-size="27" fill="hsl(0, 0%, 69%)">stand</text>
<text x="595" y="627" font-size="24" fill="hsl(0, 0%, 80%)">stormtrooper</text>
<text x="214" y="433" font-size="23" fill="hsl(0, 0%, 76%)">way</text>
<text x="195" y="480" font-size="23" fill="hsl(0, 0%, 95%)">side</text>
<text x="614" y="458" font-size="21" fill="hsl(0, 0%, 76%)">COCKPIT Luke</text>
<text x="284" y="398" font-size="21" fill="hsl(0, 0%, 81%)">sir</text>
<text x="779" y="640" font-size="21" fill="hsl(0, 0%, 86%)">think</text>
<text x="525" y="132" font-size="21" transform="rotate(-90, 525, 132) translate(-56, 0)" fill="hsl(0, 0%, 89%)">head</text>
<text x="657" y="278" font-size="20" fill="hsl(0, 0%, 88%)">DARTH VADER</text>
<text x="499" y="913" font-size="20" fill="hsl(0, 0%, 91%)">GOLD LEADER</text>
<text x="755" y="674" font-size="20" fill="hsl(0, 0%, 94%)">huge</text>
<text x="697" y="140" font-size="20" fill="hsl(0, 0%, 92%)">got</text>
<text x="860" y="456" font-size="20" fill="hsl(0, 0%, 97%)">us</text>
<text x="362" y="372" font-size="20" fill="hsl(0, 0%, 93%)">time</text>
<text x="967" y="325" font-size="20" transform="rotate(-90, 967, 325) translate(-108, 0)" fill="hsl(0, 0%, 79%)">computer</text>
<text x="277" y="718" font-size="20" fill="hsl(0, 0%, 91%)">several</text>
<text x="630" y="113" font-size="20" fill="hsl(0, 0%, 83%)">Rebel</text>
<text x="1023" y="700" font-size="20" fill="hsl(0, 0%, 81%)">know</text>
<text x="795" y="232" font-size="20" fill="hsl(0, 0%, 66%)">Chewbacca</text>
<text x="492" y="805" font-size="19" fill="hsl(0, 0%, 60%)">SURFACE DEATH</text>
<text x="198" y="741" font-size="19" fill="hsl(0, 0%, 71%)">long</text>
<text x="545" y="145" font-size="19" fill="hsl(0, 0%, 66%)">OFFICER</text>
<text x="416" y="515" font-size="19" fill="hsl(0, 0%, 93%)">across</text>
<text x="185" y="905" font-size="19" fill="hsl(0, 0%, 67%)">OWEN</text>
<text x="464" y="142" font-size="19" transform="rotate(-90, 464, 142) translate(-107, 0)" fill="hsl(0, 0%, 76%)">pirateship</text>
<text x="257" y="464" font-size="19" fill="hsl(0, 0%, 72%)">something</text>
<text x="494" y="250" font-size="19" fill="hsl(0, 0%, 63%)">go</text>
<text x="838" y="430" font-size="19" fill="hsl(0, 0%, 80%)">control</text>
<text x="807" y="568" font-size="18" fill="hsl(0, 0%, 96%)">FIGHTER COCKPIT</text>
<text x="692" y="547" font-size="18" fill="hsl(0, 0%, 77%)">behind</text>
<text x="888" y="265" font-size="18" fill="hsl(0, 0%, 90%)">hit</text>
<text x="1001" y="636" font-size="18" fill="hsl(0, 0%, 91%)">light</text>
<text x="479" y="92" font-size="16" fill="hsl(0, 0%, 97%)">WING COCKPIT</text>
<text x="849" y="755" font-size="16" fill="hsl(0, 0%, 60%)">Imperial</text>
<text x="377" y="117" font-size="16" fill="hsl(0, 0%, 65%)">around</text>
<text x="1001" y="719" font-size="16" fill="hsl(0, 0%, 98%)">Suddenly</text>
<text x="564" y="263" font-size="16" fill="hsl(0, 0%, 65%)">troops</text>
<text x="529" y="436" font-size="16" fill="hsl(0, 0%, 73%)">eye</text>
<text x="174" y="810" font-size="16" fill="hsl(0, 0%, 95%)">start</text>
<text x="484" y="621" font-size="16" transform="rotate(-90, 484, 621) translate(-64, 0)" fill="hsl(0, 0%, 83%)">TARKIN</text>
<text x="206" y="262" font-size="16" fill="hsl(0, 0%, 80%)">Luke look</text>
<text x="238" y="581" font-size="16" fill="hsl(0, 0%, 78%)">hand</text>
<text x="610" y="821" font-size="16" fill="hsl(0, 0%, 67%)">another</text>
<text x="195" y="491" font-size="16" transform="rotate(-90, 195, 491) translate(-67, 0)" fill="hsl(0, 0%, 83%)">hallway</text>
<text x="736" y="721" font-size="16" fill="hsl(0, 0%, 61%)">little</text>
<text x="902" y="291" font-size="16" fill="hsl(0, 0%, 97%)">VOICE</text>
<text x="462" y="597" font-size="16" transform="rotate(-90, 462, 597) translate(-37, 0)" fill="hsl(0, 0%, 97%)">face</text>
<text x="860" y="544" font-size="16" fill="hsl(0, 0%, 89%)">blast</text>
<text x="984" y="518" font-size="16" fill="hsl(0, 0%, 95%)">large</text>
<text x="989" y="568" font-size="16" fill="hsl(0, 0%, 60%)">wall</text>
<text x="176" y="763" font-size="16" fill="hsl(0, 0%, 78%)">creature</text>
<text x="129" y="687" font-size="16" fill="hsl(0, 0%, 62%)">give</text>
<text x="431" y="377" font-size="16" fill="hsl(0, 0%, 92%)">run</text>
<text x="370" y="327" font-size="16" fill="hsl(0, 0%, 88%)">pilot</text>
<text x="280" y="414" font-size="16" fill="hsl(0, 0%, 65%)">race</text>
<text x="798" y="164" font-size="16" fill="hsl(0, 0%, 88%)">seem</text>
<text x="893" y="496" font-size="16" fill="hsl(0, 0%, 79%)">Force</text>
<text x="730" y="422" font-size="16" fill="hsl(0, 0%, 80%)">trench</text>
<text x="207" y="633" font-size="13" fill="hsl(0, 0%, 97%)">SPACE AROUND</text>
<text x="540" y="445" font-size="13" transform="rotate(-90, 540, 445) translate(-105, 0)" fill="hsl(0, 0%, 84%)">AROUND DEATH</text>
<text x="377" y="348" font-size="13" fill="hsl(0, 0%, 70%)">door</text>
<text x="631" y="834" font-size="13" transform="rotate(-90, 631, 834) translate(-51, 0)" fill="hsl(0, 0%, 87%)">system</text>
<text x="124" y="898" font-size="13" fill="hsl(0, 0%, 99%)">stop</text>
<text x="741" y="151" font-size="13" fill="hsl(0, 0%, 63%)">Well</text>
<text x="659" y="569" font-size="13" fill="hsl(0, 0%, 91%)">Jawa</text>
<text x="362" y="737" font-size="13" fill="hsl(0, 0%, 80%)">looking</text>
<text x="458" y="548" font-size="13" fill="hsl(0, 0%, 72%)">Solo</text>
<text x="260" y="555" font-size="13" fill="hsl(0, 0%, 87%)">Star surface</text>
<text x="428" y="803" font-size="13" fill="hsl(0, 0%, 83%)">surface</text>
<text x="392" y="773" font-size="13" fill="hsl(0, 0%, 93%)">past</text>
<text x="903" y="312" font-size="13" fill="hsl(0, 0%, 80%)">laserfire</text>
<text x="836" y="621" font-size="13" fill="hsl(0, 0%, 64%)">Alderaan</text>
<text x="284" y="163" font-size="13" fill="hsl(0, 0%, 85%)">pull</text>
<text x="648" y="897" font-size="13" fill="hsl(0, 0%, 99%)">COCKPIT Red</text>
<text x="553" y="593" font-size="13" fill="hsl(0, 0%, 83%)">power</text>
<text x="401" y="583" font-size="13" fill="hsl(0, 0%, 84%)">old</text>
<text x="466" y="388" font-size="13" fill="hsl(0, 0%, 87%)">must</text>
<text x="729" y="868" font-size="13" fill="hsl(0, 0%, 93%)">WEDGE</text>
<text x="291" y="219" font-size="9" fill="hsl(0, 0%, 80%)">MASSASSI OUTPOST</text>
<text x="452" y="859" font-size="9" fill="hsl(0, 0%, 97%)">Princess</text>
<text x="433" y="529" font-size="9" fill="hsl(0, 0%, 60%)">sound</text>
<text x="232" y="825" font-size="9" fill="hsl(0, 0%, 76%)">hold</text>
<text x="631" y="266" font-size="9" fill="hsl(0, 0%, 77%)">say</text>
<text x="747" y="368" font-size="9" fill="hsl(0, 0%, 89%)">WAR ROOM</text>
<text x="269" y="438" font-size="9" fill="hsl(0, 0%, 96%)">RED TEN</text>
<text x="574" y="446" font-size="9" fill="hsl(0, 0%, 61%)">want</text>
<text x="806" y="407" font-size="9" fill="hsl(0, 0%, 68%)">good</text>
<text x="775" y="294" font-size="9" fill="hsl(0, 0%, 76%)">droid</text>
<text x="373" y="752" font-size="9" fill="hsl(0, 0%, 93%)">continue</text>
<text x="888" y="687" font-size="9" fill="hsl(0, 0%, 100%)">dive</text>
<text x="923" y="617" font-size="9" fill="hsl(0, 0%, 74%)">GOLD FIVE</text>
<text x="247" y="215" font-size="9" fill="hsl(0, 0%, 78%)">sure</text>
<text x="953" y="732" font-size="9" fill="hsl(0, 0%, 63%)">front</text>
<text x="770" y="253" font-size="9" fill="hsl(0, 0%, 73%)">friend</text>
<text x="543" y="925" font-size="9" fill="hsl(0, 0%, 72%)">wait</text>
<text x="204" y="530" font-size="9" fill="hsl(0, 0%, 98%)">find</text>
<text x="861" y="467" font-size="9" fill="hsl(0, 0%, 92%)">standing</text>
<text x="203" y="492" font-size="9" fill="hsl(0, 0%, 62%)">speeder</text>
<text x="1010" y="534" font-size="9" fill="hsl(0, 0%, 90%)">gun</text>
<text x="894" y="244" font-size="9" fill="hsl(0, 0%, 99%)">comlink</text>
<text x="753" y="650" font-size="9" fill="hsl(0, 0%, 76%)">VADER COCKPIT</text>
<text x="714" y="435" font-size="9" fill="hsl(0, 0%, 98%)">COCKPIT Vader</text>
<text x="260" y="179" font-size="9" fill="hsl(0, 0%, 67%)">starship</text>
<text x="708" y="117" font-size="9" fill="hsl(0, 0%, 76%)">sit</text>
<text x="745" y="238" font-size="9" fill="hsl(0, 0%, 64%)">moment</text>
<text x="244" y="195" font-size="9" fill="hsl(0, 0%, 71%)">enter</text>
<text x="476" y="886" font-size="9" fill="hsl(0, 0%, 95%)">thing</text>
<text x="875" y="382" font-size="9" fill="hsl(0, 0%, 60%)">coming</text>
<text x="552" y="556" font-size="9" fill="hsl(0, 0%, 93%)">Obi Wan</text>
<text x="364" y="631" font-size="9" fill="hsl(0, 0%, 92%)">FALCON COCKPIT</text>
<text x="827" y="711" font-size="9" fill="hsl(0, 0%, 68%)">LEADER COCKPIT</text>
<text x="705" y="558" font-size="9" fill="hsl(0, 0%, 83%)">LEADER WING</text>
<text x="882" y="766" font-size="9" fill="hsl(0, 0%, 65%)">planet</text>
<text x="986" y="416" font-size="9" fill="hsl(0, 0%, 71%)">close</text>
<text x="853" y="241" font-size="9" fill="hsl(0, 0%, 63%)">group</text>
<text x="246" y="876" font-size="9" fill="hsl(0, 0%, 68%)">let</text>
<text x="962" y="457" font-size="9" transform="rotate(-90, 962, 457) translate(-32, 0)" fill="hsl(0, 0%, 94%)">attack</text>
<text x="231" y="409" font-size="9" fill="hsl(0, 0%, 83%)">Chewie</text>
<text x="416" y="814" font-size="9" fill="hsl(0, 0%, 65%)">Princess Leia</text>
<text x="635" y="123" font-size="9" fill="hsl(0, 0%, 69%)">MOS EISLEY</text>
<text x="96" y="771" font-size="9" transform="rotate(-90, 96, 771) translate(-81, 0)" fill="hsl(0, 0%, 97%)">targeting device</text>
<text x="271" y="371" font-size="9" fill="hsl(0, 0%, 85%)">short</text>
<text x="1016" y="741" font-size="9" fill="hsl(0, 0%, 94%)">much</text>
<text x="134" y="828" font-size="9" transform="rotate(-90, 134, 828) translate(-44, 0)" fill="hsl(0, 0%, 80%)">watches</text>
<text x="549" y="534" font-size="9" fill="hsl(0, 0%, 83%)">work</text>
<text x="216" y="503" font-size="9" fill="hsl(0, 0%, 100%)">help</text>
<text x="417" y="353" font-size="9" fill="hsl(0, 0%, 96%)">put</text>
<text x="363" y="410" font-size="9" fill="hsl(0, 0%, 70%)">Oh</text>
<text x="763" y="698" font-size="9" fill="hsl(0, 0%, 62%)">father</text>
<text x="830" y="728" font-size="9" fill="hsl(0, 0%, 91%)">position</text>
<text x="253" y="890" font-size="9" fill="hsl(0, 0%, 76%)">point</text>
<text x="191" y="450" font-size="9" fill="hsl(0, 0%, 61%)">docking bay</text>
<text x="136" y="701" font-size="9" transform="rotate(-90, 136, 701) translate(-67, 0)" fill="hsl(0, 0%, 83%)">OUTPOST WAR</text>
<text x="877" y="395" font-size="9" fill="hsl(0, 0%, 74%)">weapon</text>
<text x="172" y="580" font-size="9" fill="hsl(0, 0%, 95%)">along</text>
<text x="975" y="395" font-size="9" fill="hsl(0, 0%, 87%)">hear</text>
<text x="282" y="193" font-size="9" fill="hsl(0, 0%, 97%)">shut</text>
<text x="505" y="574" font-size="9" fill="hsl(0, 0%, 93%)">heard</text>
<text x="635" y="243" font-size="9" fill="hsl(0, 0%, 78%)">last</text>
<text x="739" y="120" font-size="9" fill="hsl(0, 0%, 62%)">even</text>
<text x="337" y="478" font-size="9" fill="hsl(0, 0%, 96%)">guard</text>
<text x="649" y="908" font-size="9" fill="hsl(0, 0%, 88%)">laserbolt</text>
<text x="283" y="321" font-size="9" fill="hsl(0, 0%, 66%)">appear</text>
<text x="612" y="827" font-size="9" transform="rotate(-90, 612, 827) translate(-60, 0)" fill="hsl(0, 0%, 76%)">Artoo Detoo</text>
<text x="391" y="507" font-size="9" fill="hsl(0, 0%, 90%)">far</text>
<text x="847" y="779" font-size="9" fill="hsl(0, 0%, 80%)">Empire</text>
<text x="720" y="289" font-size="9" fill="hsl(0, 0%, 76%)">enough</text>
<text x="181" y="916" font-size="9" fill="hsl(0, 0%, 61%)">explosion</text>
<text x="472" y="476" font-size="9" fill="hsl(0, 0%, 100%)">floor</text>
<text x="542" y="161" font-size="9" transform="rotate(-90, 542, 161) translate(-31, 0)" fill="hsl(0, 0%, 63%)">follow</text>
<text x="214" y="275" font-size="9" fill="hsl(0, 0%, 65%)">four</text>
<text x="187" y="586" font-size="9" transform="rotate(-90, 187, 586) translate(-15, 0)" fill="hsl(0, 0%, 91%)">kid</text>
<text x="489" y="632" font-size="9" fill="hsl(0, 0%, 93%)">Sandpeople</text>
<text x="401" y="783" font-size="9" fill="hsl(0, 0%, 96%)">open</text>
<text x="411" y="163" font-size="9" fill="hsl(0, 0%, 89%)">Jabba</text>
<text x="779" y="146" font-size="9" fill="hsl(0, 0%, 66%)">screen</text>
<text x="747" y="131" font-size="9" fill="hsl(0, 0%, 85%)">plan</text>
<text x="608" y="557" font-size="9" fill="hsl(0, 0%, 79%)">explode</text>
<text x="1071" y="638" font-size="9" transform="rotate(-90, 1071, 638) translate(-43, 0)" fill="hsl(0, 0%, 67%)">Dodonna</text>
<text x="794" y="834" font-size="9" fill="hsl(0, 0%, 68%)">zoom</text>
<text x="383" y="468" font-size="8" fill="hsl(0, 0%, 67%)">INTERCOM VOICE</text>
<text x="279" y="424" font-size="8" fill="hsl(0, 0%, 79%)">COCKPIT Gold</text>
<text x="363" y="127" font-size="8" fill="hsl(0, 0%, 91%)">firing</text>
<text x="772" y="569" font-size="8" fill="hsl(0, 0%, 63%)">streak</text>
<text x="429" y="96" font-size="8" fill="hsl(0, 0%, 95%)">electronic</text>
<text x="829" y="799" font-size="8" fill="hsl(0, 0%, 82%)">boy</text>
<text x="610" y="600" font-size="8" fill="hsl(0, 0%, 99%)">next</text>
<text x="971" y="428" font-size="8" fill="hsl(0, 0%, 90%)">minute</text>
<text x="545" y="416" font-size="8" fill="hsl(0, 0%, 91%)">goes</text>
<text x="991" y="616" font-size="8" fill="hsl(0, 0%, 78%)">Commander</text>
<text x="473" y="495" font-size="8" fill="hsl(0, 0%, 96%)">laser</text>
<text x="672" y="797" font-size="8" fill="hsl(0, 0%, 61%)">man</text>
<text x="323" y="133" font-size="8" transform="rotate(-90, 323, 133) translate(-30, 0)" fill="hsl(0, 0%, 85%)">almost</text>
<text x="867" y="632" font-size="8" fill="hsl(0, 0%, 80%)">tell</text>
<text x="285" y="331" font-size="8" fill="hsl(0, 0%, 92%)">area</text>
<text x="281" y="353" font-size="8" fill="hsl(0, 0%, 60%)">watch</text>
<text x="862" y="697" font-size="8" fill="hsl(0, 0%, 81%)">formation</text>
<text x="415" y="315" font-size="8" fill="hsl(0, 0%, 71%)">little Artoo</text>
<text x="819" y="210" font-size="8" fill="hsl(0, 0%, 85%)">slowly</text>
<text x="572" y="428" font-size="8" fill="hsl(0, 0%, 72%)">first</text>
<text x="467" y="870" font-size="8" fill="hsl(0, 0%, 82%)">station</text>
<text x="369" y="426" font-size="8" transform="rotate(-90, 369, 426) translate(-17, 0)" fill="hsl(0, 0%, 64%)">tiny</text>
<text x="199" y="514" font-size="8" fill="hsl(0, 0%, 81%)">giant</text>
<text x="726" y="878" font-size="8" fill="hsl(0, 0%, 70%)">better</text>
<text x="143" y="666" font-size="8" fill="hsl(0, 0%, 83%)">DAY</text>
<text x="201" y="540" font-size="8" fill="hsl(0, 0%, 72%)">speak</text>
<text x="607" y="661" font-size="8" transform="rotate(-90, 607, 661) translate(-20, 0)" fill="hsl(0, 0%, 62%)">dead</text>
<text x="240" y="393" font-size="8" fill="hsl(0, 0%, 73%)">thought</text>
<text x="801" y="186" font-size="8" fill="hsl(0, 0%, 94%)">big</text>
<text x="839" y="412" font-size="8" fill="hsl(0, 0%, 66%)">second</text>
<text x="923" y="264" font-size="8" fill="hsl(0, 0%, 68%)">really</text>
<text x="737" y="469" font-size="8" fill="hsl(0, 0%, 82%)">three</text>
<text x="362" y="383" font-size="8" fill="hsl(0, 0%, 73%)">Sandcrawler</text>
<text x="171" y="738" font-size="8" fill="hsl(0, 0%, 68%)">beep</text>
<text x="925" y="666" font-size="8" fill="hsl(0, 0%, 75%)">Stay</text>
<text x="745" y="252" font-size="8" fill="hsl(0, 0%, 70%)">arm</text>
<text x="568" y="604" font-size="8" fill="hsl(0, 0%, 60%)">Wookiee</text>
<text x="524" y="259" font-size="8" fill="hsl(0, 0%, 62%)">moon</text>
<text x="441" y="135" font-size="7" fill="hsl(0, 0%, 93%)">battle station</text>
<text x="401" y="594" font-size="7" fill="hsl(0, 0%, 83%)">LUKE Well</text>
<text x="736" y="731" font-size="7" fill="hsl(0, 0%, 75%)">looks around</text>
<text x="298" y="256" font-size="6" fill="hsl(0, 0%, 99%)">beeping sound</text>
<text x="887" y="273" font-size="6" fill="hsl(0, 0%, 98%)">laser cannon</text>
<text x="433" y="386" font-size="6" fill="hsl(0, 0%, 86%)">outside</text>
<text x="827" y="173" font-size="6" fill="hsl(0, 0%, 93%)">corridor</text>
<text x="640" y="252" font-size="6" fill="hsl(0, 0%, 88%)">feet</text>
<text x="1046" y="727" font-size="6" fill="hsl(0, 0%, 83%)">place</text>
<text x="865" y="209" font-size="6" fill="hsl(0, 0%, 90%)">subhallway</text>
<text x="529" y="391" font-size="6" transform="rotate(-90, 529, 391) translate(-24, 0)" fill="hsl(0, 0%, 98%)">rushes</text>
<text x="975" y="327" font-size="6" transform="rotate(-90, 975, 327) translate(-19, 0)" fill="hsl(0, 0%, 67%)">found</text>
<text x="357" y="489" font-size="6" fill="hsl(0, 0%, 92%)">great</text>
<text x="267" y="705" font-size="6" transform="rotate(-90, 267, 705) translate(-30, 0)" fill="hsl(0, 0%, 79%)">Rebellion</text>
<text x="670" y="634" font-size="6" transform="rotate(-90, 670, 634) translate(-11, 0)" fill="hsl(0, 0%, 63%)">cut</text>
<text x="466" y="608" font-size="6" fill="hsl(0, 0%, 88%)">spot</text>
<text x="844" y="736" font-size="6" fill="hsl(0, 0%, 62%)">jump</text>
<text x="187" y="460" font-size="6" transform="rotate(-90, 187, 460) translate(-21, 0)" fill="hsl(0, 0%, 69%)">Listen</text>
<text x="229" y="771" font-size="6" fill="hsl(0, 0%, 81%)">trying</text>
<text x="383" y="307" font-size="6" fill="hsl(0, 0%, 90%)">never</text>
<text x="867" y="479" font-size="6" fill="hsl(0, 0%, 97%)">need</text>
<text x="602" y="92" font-size="6" fill="hsl(0, 0%, 71%)">Okay</text>
<text x="639" y="829" font-size="6" transform="rotate(-90, 639, 829) translate(-28, 0)" fill="hsl(0, 0%, 74%)">reaches</text>
<text x="338" y="126" font-size="6" fill="hsl(0, 0%, 69%)">year</text>
<text x="352" y="671" font-size="6" fill="hsl(0, 0%, 63%)">still</text>
<text x="287" y="576" font-size="6" fill="hsl(0, 0%, 75%)">try</text>
<text x="890" y="407" font-size="6" fill="hsl(0, 0%, 65%)">speaker</text>
<text x="677" y="527" font-size="6" fill="hsl(0, 0%, 75%)">THREEPIO Artoo</text>
<text x="789" y="615" font-size="6" fill="hsl(0, 0%, 61%)">laser pistol</text>
<text x="986" y="727" font-size="6" fill="hsl(0, 0%, 98%)">Artoo beeps</text>
<text x="361" y="255" font-size="6" fill="hsl(0, 0%, 85%)">Wan Kenobi</text>
<text x="805" y="240" font-size="6" fill="hsl(0, 0%, 74%)">Imperial TIE</text>
<text x="492" y="638" font-size="6" transform="rotate(-90, 492, 638) translate(-54, 0)" fill="hsl(0, 0%, 67%)">FALCON GUNPORT</text>
<text x="257" y="446" font-size="6" fill="hsl(0, 0%, 66%)">BIGGS' COCKPIT</text>
<text x="330" y="311" font-size="6" fill="hsl(0, 0%, 73%)">STAR Three</text>
<text x="689" y="136" font-size="6" transform="rotate(-90, 689, 136) translate(-16, 0)" fill="hsl(0, 0%, 96%)">main</text>
<text x="392" y="101" font-size="6" fill="hsl(0, 0%, 94%)">battle</text>
<text x="585" y="335" font-size="6" fill="hsl(0, 0%, 66%)">TATOOINE</text>
<text x="324" y="634" font-size="6" fill="hsl(0, 0%, 88%)">battered</text>
<text x="291" y="641" font-size="6" fill="hsl(0, 0%, 80%)">aim</text>
<text x="920" y="675" font-size="6" fill="hsl(0, 0%, 69%)">moving</text>
<text x="1015" y="544" font-size="6" fill="hsl(0, 0%, 100%)">Hey</text>
<text x="144" y="650" font-size="6" fill="hsl(0, 0%, 98%)">ROOM</text>
<text x="353" y="557" font-size="6" fill="hsl(0, 0%, 96%)">lot</text>
<text x="491" y="615" font-size="6" fill="hsl(0, 0%, 84%)">keep</text>
<text x="569" y="921" font-size="6" fill="hsl(0, 0%, 73%)">anything</text>
<text x="928" y="322" font-size="6" fill="hsl(0, 0%, 80%)">leave</text>
<text x="213" y="609" font-size="6" fill="hsl(0, 0%, 79%)">canyon</text>
<text x="772" y="132" font-size="6" fill="hsl(0, 0%, 80%)">quite</text>
<text x="166" y="889" font-size="6" transform="rotate(-90, 166, 889) translate(-20, 0)" fill="hsl(0, 0%, 95%)">speed</text>
<text x="759" y="683" font-size="6" fill="hsl(0, 0%, 95%)">table</text>
<text x="495" y="813" font-size="6" fill="hsl(0, 0%, 72%)">disappear</text>
<text x="590" y="818" font-size="6" fill="hsl(0, 0%, 89%)">use</text>
<text x="172" y="565" font-size="6" fill="hsl(0, 0%, 90%)">Five</text>
<text x="852" y="641" font-size="6" fill="hsl(0, 0%, 87%)">board</text>
<text x="247" y="902" font-size="6" fill="hsl(0, 0%, 90%)">target</text>
<text x="795" y="842" font-size="6" fill="hsl(0, 0%, 75%)">grab</text>
<text x="701" y="567" font-size="6" fill="hsl(0, 0%, 98%)">R2 unit</text>
<text x="468" y="525" font-size="6" fill="hsl(0, 0%, 85%)">Aunt Beru</text>
<text x="256" y="379" font-size="6" fill="hsl(0, 0%, 71%)">Ben Kenobi</text>
<text x="136" y="778" font-size="6" transform="rotate(-90, 136, 778) translate(-45, 0)" fill="hsl(0, 0%, 91%)">toward Death</text>
<text x="278" y="201" font-size="6" fill="hsl(0, 0%, 68%)">TIE ship</text>
<text x="617" y="277" font-size="6" fill="hsl(0, 0%, 63%)">STAR MAIN</text>
<text x="591" y="157" font-size="6" transform="rotate(-90, 591, 157) translate(-44, 0)" fill="hsl(0, 0%, 76%)">FORWARD BAY</text>
<text x="567" y="730" font-size="4" fill="hsl(0, 0%, 74%)">Imperial stormtrooper</text>
<text x="651" y="552" font-size="4" fill="hsl(0, 0%, 95%)">Rebel fighter</text>
<text x="228" y="588" font-size="4" fill="hsl(0, 0%, 61%)">STAR TRENCH</text>
<text x="836" y="368" font-size="4" fill="hsl(0, 0%, 87%)">struggle</text>
<text x="238" y="857" font-size="4" fill="hsl(0, 0%, 80%)">smoke</text>
<text x="285" y="562" font-size="4" fill="hsl(0, 0%, 80%)">near</text>
<text x="403" y="664" font-size="4" transform="rotate(-90, 403, 664) translate(-18, 0)" fill="hsl(0, 0%, 100%)">horizon</text>
<text x="405" y="794" font-size="4" fill="hsl(0, 0%, 95%)">air</text>
<text x="741" y="686" font-size="4" fill="hsl(0, 0%, 72%)">smile</text>
<text x="242" y="562" font-size="4" fill="hsl(0, 0%, 92%)">sight</text>
<text x="790" y="686" font-size="4" fill="hsl(0, 0%, 77%)">distance</text>
<text x="663" y="730" font-size="4" fill="hsl(0, 0%, 62%)">direction</text>
<text x="487" y="730" font-size="4" fill="hsl(0, 0%, 85%)">approaching</text>
<text x="893" y="437" font-size="4" fill="hsl(0, 0%, 92%)">hatch</text>
<text x="983" y="529" font-size="4" fill="hsl(0, 0%, 85%)">narrow</text>
<text x="852" y="765" font-size="4" fill="hsl(0, 0%, 74%)">life</text>
<text x="939" y="273" font-size="4" fill="hsl(0, 0%, 90%)">bad</text>
<text x="902" y="718" font-size="4" fill="hsl(0, 0%, 66%)">uncle</text>
<text x="477" y="559" font-size="4" fill="hsl(0, 0%, 64%)">blaster</text>
<text x="1005" y="426" font-size="4" fill="hsl(0, 0%, 91%)">seen</text>
<text x="493" y="506" font-size="4" fill="hsl(0, 0%, 87%)">line</text>
<text x="670" y="465" font-size="4" fill="hsl(0, 0%, 99%)">shoulder</text>
<text x="281" y="725" font-size="4" fill="hsl(0, 0%, 65%)">master</text>
<text x="702" y="634" font-size="4" fill="hsl(0, 0%, 71%)">become</text>
<text x="610" y="431" font-size="4" fill="hsl(0, 0%, 89%)">range</text>
<text x="195" y="771" font-size="4" fill="hsl(0, 0%, 81%)">cell</text>
<text x="290" y="584" font-size="4" fill="hsl(0, 0%, 65%)">port</text>
<text x="522" y="583" font-size="4" fill="hsl(0, 0%, 96%)">wingmen</text>
<text x="608" y="634" font-size="4" fill="hsl(0, 0%, 90%)">REBEL BLOCKADE</text>
<text x="698" y="831" font-size="4" fill="hsl(0, 0%, 99%)">BLOCKADE RUNNER</text>
<text x="788" y="796" font-size="4" fill="hsl(0, 0%, 74%)">shakes head</text>
<text x="890" y="448" font-size="4" fill="hsl(0, 0%, 77%)">old Ben</text>
<text x="428" y="362" font-size="4" fill="hsl(0, 0%, 93%)">Rebel base</text>
<text x="533" y="152" font-size="4" fill="hsl(0, 0%, 60%)">CONTROL ROOM</text>
<text x="431" y="731" font-size="4" fill="hsl(0, 0%, 70%)">COCKPIT TRAVELING</text>
<text x="734" y="478" font-size="4" fill="hsl(0, 0%, 73%)">new</text>
<text x="239" y="874" font-size="4" transform="rotate(-90, 239, 874) translate(-13, 0)" fill="hsl(0, 0%, 91%)">home</text>
<text x="645" y="856" font-size="4" fill="hsl(0, 0%, 62%)">half</text>
<text x="798" y="203" font-size="4" fill="hsl(0, 0%, 69%)">Hurry</text>
<text x="697" y="284" font-size="4" fill="hsl(0, 0%, 96%)">young</text>
<text x="1004" y="698" font-size="4" fill="hsl(0, 0%, 90%)">end</text>
<text x="237" y="832" font-size="4" fill="hsl(0, 0%, 73%)">soldier</text>
<text x="938" y="330" font-size="4" transform="rotate(-90, 938, 330) translate(-17, 0)" fill="hsl(0, 0%, 68%)">getting</text>
<text x="536" y="357" font-size="4" fill="hsl(0, 0%, 70%)">course</text>
<text x="740" y="402" font-size="4" fill="hsl(0, 0%, 73%)">worry</text>
<text x="921" y="252" font-size="4" fill="hsl(0, 0%, 93%)">fight</text>
<text x="177" y="609" font-size="4" fill="hsl(0, 0%, 76%)">part</text>
<text x="169" y="634" font-size="4" fill="hsl(0, 0%, 93%)">approaches</text>
<text x="948" y="741" font-size="4" fill="hsl(0, 0%, 64%)">sand</text>
<text x="147" y="822" font-size="4" fill="hsl(0, 0%, 61%)">whistle</text>
<text x="606" y="233" font-size="4" fill="hsl(0, 0%, 68%)">distant</text>
<text x="585" y="453" font-size="4" fill="hsl(0, 0%, 89%)">left</text>
<text x="579" y="270" font-size="4" fill="hsl(0, 0%, 96%)">might</text>
<text x="712" y="196" font-size="4" transform="rotate(-90, 712, 196) translate(-6, 0)" fill="hsl(0, 0%, 84%)">bit</text>
<text x="239" y="810" font-size="4" fill="hsl(0, 0%, 93%)">shoot</text>
<text x="524" y="731" font-size="4" fill="hsl(0, 0%, 78%)">followed</text>
<text x="330" y="168" font-size="4" fill="hsl(0, 0%, 97%)">Uh</text>
<text x="696" y="730" font-size="4" fill="hsl(0, 0%, 88%)">hangar</text>
<text x="332" y="725" font-size="4" fill="hsl(0, 0%, 62%)">able</text>
<text x="849" y="789" font-size="4" fill="hsl(0, 0%, 86%)">blow</text>
<text x="172" y="748" font-size="4" fill="hsl(0, 0%, 64%)">bartender</text>
<text x="438" y="254" font-size="4" fill="hsl(0, 0%, 69%)">fast</text>
<text x="712" y="465" font-size="4" fill="hsl(0, 0%, 67%)">check</text>
<text x="748" y="566" font-size="4" fill="hsl(0, 0%, 90%)">GREEDO</text>
<text x="552" y="443" font-size="4" fill="hsl(0, 0%, 85%)">green</text>
<text x="490" y="449" font-size="4" fill="hsl(0, 0%, 88%)">crew</text>
<text x="725" y="791" font-size="4" fill="hsl(0, 0%, 86%)">flame</text>
<text x="310" y="472" font-size="4" fill="hsl(0, 0%, 65%)">tower</text>
<text x="667" y="344" font-size="4" fill="hsl(0, 0%, 85%)">headset</text>
<text x="707" y="152" font-size="4" fill="hsl(0, 0%, 74%)">Uncle Owen</text>
<text x="315" y="328" font-size="4" transform="rotate(-90, 315, 328) translate(-24, 0)" fill="hsl(0, 0%, 78%)">HOLD AREA</text>
<text x="595" y="152" font-size="4" fill="hsl(0, 0%, 78%)">TATOOINE MOS</text>
<text x="950" y="449" font-size="4" fill="hsl(0, 0%, 77%)">Han Solo</text>
<text x="279" y="540" font-size="4" fill="hsl(0, 0%, 61%)">control panel</text>
<text x="839" y="437" font-size="4" fill="hsl(0, 0%, 61%)">Imperial fighter</text>
<text x="624" y="465" font-size="4" fill="hsl(0, 0%, 62%)">MAIN FORWARD</text>
<text x="507" y="101" font-size="4" fill="hsl(0, 0%, 84%)">three TIE</text>
<text x="610" y="244" font-size="4" fill="hsl(0, 0%, 74%)">galaxy</text>
<text x="1054" y="630" font-size="4" fill="hsl(0, 0%, 84%)">aboard</text>
<text x="943" y="627" font-size="4" fill="hsl(0, 0%, 84%)">human</text>
<text x="476" y="235" font-size="4" fill="hsl(0, 0%, 80%)">rush</text>
<text x="374" y="478" font-size="4" fill="hsl(0, 0%, 92%)">filled</text>
<text x="235" y="202" font-size="4" transform="rotate(-90, 235, 202) translate(-20, 0)" fill="hsl(0, 0%, 95%)">morning</text>
<text x="754" y="635" font-size="4" fill="hsl(0, 0%, 70%)">seven</text>
<text x="252" y="203" font-size="4" fill="hsl(0, 0%, 83%)">Dark</text>
<text x="755" y="372" font-size="4" transform="rotate(-90, 755, 372) translate(-18, 0)" fill="hsl(0, 0%, 79%)">mission</text>
<text x="250" y="476" font-size="4" fill="hsl(0, 0%, 81%)">RED</text>
<text x="741" y="355" font-size="4" fill="hsl(0, 0%, 77%)">call</text>
<text x="487" y="462" font-size="4" fill="hsl(0, 0%, 87%)">talking</text>
<text x="571" y="611" font-size="4" fill="hsl(0, 0%, 97%)">rest</text>
<text x="493" y="320" font-size="4" fill="hsl(0, 0%, 96%)">background</text>
<text x="813" y="752" font-size="4" transform="rotate(-90, 813, 752) translate(-11, 0)" fill="hsl(0, 0%, 95%)">shot</text>
<text x="889" y="477" font-size="4" fill="hsl(0, 0%, 87%)">happened</text>
<text x="428" y="826" font-size="4" fill="hsl(0, 0%, 100%)">came</text>
<text x="841" y="649" font-size="4" fill="hsl(0, 0%, 97%)">low</text>
<text x="109" y="741" font-size="4" fill="hsl(0, 0%, 96%)">gets</text>
<text x="238" y="845" font-size="4" fill="hsl(0, 0%, 74%)">may</text>
<text x="863" y="578" font-size="4" transform="rotate(-90, 863, 578) translate(-27, 0)" fill="hsl(0, 0%, 100%)">HOMESTEAD</text>
<text x="919" y="716" font-size="4" fill="hsl(0, 0%, 67%)">quickly</text>
<text x="137" y="906" font-size="4" fill="hsl(0, 0%, 67%)">garage</text>
<text x="255" y="746" font-size="4" fill="hsl(0, 0%, 64%)">Yeah</text>
<text x="545" y="542" font-size="4" fill="hsl(0, 0%, 85%)">trouble</text>
<text x="868" y="253" font-size="4" fill="hsl(0, 0%, 97%)">tries</text>
<text x="414" y="253" font-size="4" fill="hsl(0, 0%, 94%)">gone</text>
<text x="364" y="417" font-size="4" fill="hsl(0, 0%, 91%)">yell</text>
<text x="422" y="170" font-size="4" fill="hsl(0, 0%, 83%)">closer</text>
<text x="472" y="242" font-size="4" fill="hsl(0, 0%, 95%)">step</text>
<text x="1091" y="694" font-size="4" transform="rotate(-90, 1091, 694) translate(-17, 0)" fill="hsl(0, 0%, 83%)">return</text>
<text x="861" y="491" font-size="4" fill="hsl(0, 0%, 98%)">lightsaber</text>
<text x="545" y="451" font-size="4" fill="hsl(0, 0%, 92%)">thousand</text>
<text x="141" y="698" font-size="4" fill="hsl(0, 0%, 86%)">together</text>
<text x="454" y="256" font-size="4" fill="hsl(0, 0%, 88%)">information</text>
<text x="384" y="759" font-size="4" fill="hsl(0, 0%, 77%)">readout</text>
<text x="194" y="567" font-size="4" fill="hsl(0, 0%, 81%)">ready</text>
<text x="843" y="629" font-size="4" fill="hsl(0, 0%, 98%)">burst</text>
<text x="432" y="146" font-size="4" fill="hsl(0, 0%, 74%)">enemy</text>
<text x="880" y="194" font-size="4" fill="hsl(0, 0%, 67%)">climb</text>
<text x="199" y="550" font-size="4" fill="hsl(0, 0%, 84%)">shadow</text>
<text x="975" y="372" font-size="4" fill="hsl(0, 0%, 64%)">adjust</text>
<text x="670" y="805" font-size="4" fill="hsl(0, 0%, 75%)">Dark Lord</text>
<text x="568" y="662" font-size="4" transform="rotate(-90, 568, 662) translate(-34, 0)" fill="hsl(0, 0%, 90%)">power station</text>
<text x="494" y="233" font-size="4" fill="hsl(0, 0%, 67%)">LARS HOMESTEAD</text>
<text x="968" y="716" font-size="4" fill="hsl(0, 0%, 65%)">old man</text>
<text x="391" y="334" font-size="4" fill="hsl(0, 0%, 97%)">Han Chewie</text>
<text x="82" y="785" font-size="4" transform="rotate(-90, 82, 785) translate(-38, 0)" fill="hsl(0, 0%, 72%)">Han Chewbacca</text>
<text x="1032" y="644" font-size="4" fill="hsl(0, 0%, 92%)">SPACE TIE</text>
<text x="675" y="233" font-size="4" fill="hsl(0, 0%, 99%)">tractor beam</text>
<text x="972" y="402" font-size="4" fill="hsl(0, 0%, 98%)">GARBAGE ROOM</text>
<text x="1080" y="649" font-size="4" transform="rotate(-90, 1080, 649) translate(-31, 0)" fill="hsl(0, 0%, 76%)">exhaust port</text>
<text x="969" y="453" font-size="4" transform="rotate(-90, 969, 453) translate(-36, 0)" fill="hsl(0, 0%, 60%)">COCKPIT Wedge</text>
<text x="929" y="749" font-size="4" fill="hsl(0, 0%, 75%)">ROOM Leia</text>
</svg>
