<svg width="1190" height="1028" xmlns="http://www.w3.org/2000/svg">
    <defs><style type="text/css">
    @import url("https://fonts.googleapis.com/css?family=Libre+Barcode+39+Text");
    text {font-family: 'Libre Barcode 39 Text', cursive;
    font-variant-ligatures:none}
    </style></defs>
<rect width="100%" height="100%" fill="black"/>
<text x="402" y="744" font-size="150" fill="rgb(212, 212, 212)">Luke</text>
<text x="460" y="186" font-size="107" fill="rgb(197, 197, 197)">Han</text>
<text x="384" y="481" font-size="68" fill="rgb(182, 182, 182)">DEATH STAR</text>
<text x="585" y="598" font-size="64" fill="rgb(182, 182, 182)">THREEPIO</text>
<text x="878" y="511" font-size="57" fill="rgb(149, 149, 149)">Ben</text>
<text x="660" y="226" font-size="50" fill="rgb(140, 140, 140)">ship</text>
<text x="775" y="204" font-size="48" fill="rgb(170, 170, 170)">Leia</text>
<text x="412" y="130" font-size="46" transform="rotate(-90, 412, 130) translate(-69, 0)" fill="rgb(167, 167, 167)">one</text>
<text x="690" y="154" font-size="44" fill="rgb(232, 232, 232)">look</text>
<text x="746" y="646" font-size="44" transform="rotate(-90, 746, 646) translate(-220, 0)" fill="rgb(213, 213, 213)">RED LEADER</text>
<text x="249" y="666" font-size="43" fill="rgb(149, 149, 149)">Artoo</text>
<text x="969" y="681" font-size="42" fill="rgb(219, 219, 219)">back</text>
<text x="928" y="584" font-size="41" fill="rgb(136, 136, 136)">move</text>
<text x="203" y="626" font-size="40" transform="rotate(-90, 203, 626) translate(-100, 0)" fill="rgb(198, 198, 198)">going</text>
<text x="380" y="624" font-size="39" fill="rgb(150, 150, 150)">two</text>
<text x="886" y="417" font-size="39" fill="rgb(206, 206, 206)">Biggs</text>
<text x="243" y="228" font-size="38" fill="rgb(222, 222, 222)">TIE fighter</text>
<text x="240" y="707" font-size="37" fill="rgb(134, 134, 134)">Vader</text>
<text x="313" y="335" font-size="36" transform="rotate(-90, 313, 335) translate(-54, 0)" fill="rgb(220, 220, 220)">see</text>
<text x="241" y="422" font-size="36" fill="rgb(204, 204, 204)">MILLENNIUM FALCON</text>
<text x="516" y="528" font-size="35" fill="rgb(224, 224, 224)">toward</text>
<text x="624" y="865" font-size="35" fill="rgb(137, 137, 137)">right</text>
<text x="84" y="804" font-size="35" fill="rgb(251, 251, 251)">Luke WING</text>
<text x="157" y="672" font-size="35" transform="rotate(-90, 157, 672) translate(-72, 0)" fill="rgb(208, 208, 208)">come</text>
<text x="235" y="458" font-size="35" fill="rgb(248, 248, 248)">trooper</text>
<text x="849" y="746" font-size="34" fill="rgb(248, 248, 248)">robot</text>
<text x="334" y="549" font-size="34" transform="rotate(-90, 334, 549) translate(-85, 0)" fill="rgb(131, 131, 131)">small</text>
<text x="755" y="395" font-size="33" fill="rgb(235, 235, 235)">SPACE</text>
<text x="636" y="145" font-size="32" fill="rgb(146, 146, 146)">now</text>
<text x="460" y="245" font-size="32" fill="rgb(226, 226, 226)">WING FIGHTER</text>
<text x="728" y="278" font-size="32" fill="rgb(201, 201, 201)">take</text>
<text x="617" y="825" font-size="32" fill="rgb(143, 143, 143)">begin</text>
<text x="295" y="180" font-size="32" fill="rgb(253, 253, 253)">make</text>
<text x="769" y="757" font-size="31" fill="rgb(171, 171, 171)">away</text>
<text x="365" y="375" font-size="31" fill="rgb(232, 232, 232)">fire</text>
<text x="854" y="563" font-size="31" fill="rgb(210, 210, 210)">will</text>
<text x="443" y="826" font-size="31" fill="rgb(181, 181, 181)">turn</text>
<text x="526" y="102" font-size="31" fill="rgb(153, 153, 153)">stand</text>
<text x="100" y="766" font-size="26" fill="rgb(135, 135, 135)">stormtrooper</text>
<text x="943" y="371" font-size="25" fill="rgb(160, 160, 160)">way</text>
<text x="460" y="108" font-size="25" fill="rgb(139, 139, 139)">side</text>
<text x="941" y="718" font-size="24" fill="rgb(147, 147, 147)">COCKPIT Luke</text>
<text x="379" y="647" font-size="24" transform="rotate(-90, 379, 647) translate(-36, 0)" fill="rgb(230, 230, 230)">sir</text>
<text x="787" y="785" font-size="24" fill="rgb(174, 174, 174)">think</text>
<text x="448" y="766" font-size="24" fill="rgb(144, 144, 144)">head</text>
<text x="627" y="544" font-size="24" fill="rgb(134, 134, 134)">DARTH VADER</text>
<text x="509" y="912" font-size="22" fill="rgb(166, 166, 166)">GOLD LEADER</text>
<text x="643" y="108" font-size="22" fill="rgb(244, 244, 244)">huge</text>
<text x="777" y="829" font-size="22" fill="rgb(202, 202, 202)">got</text>
<text x="164" y="907" font-size="22" fill="rgb(224, 224, 224)">us</text>
<text x="344" y="340" font-size="22" fill="rgb(170, 170, 170)">time</text>
<text x="869" y="458" font-size="22" fill="rgb(184, 184, 184)">computer</text>
<text x="496" y="558" font-size="22" fill="rgb(241, 241, 241)">several</text>
<text x="362" y="585" font-size="22" fill="rgb(226, 226, 226)">Rebel</text>
<text x="916" y="313" font-size="22" fill="rgb(244, 244, 244)">know</text>
<text x="199" y="455" font-size="22" transform="rotate(-90, 199, 455) translate(-99, 0)" fill="rgb(163, 163, 163)">Chewbacca</text>
<text x="913" y="613" font-size="20" fill="rgb(145, 145, 145)">SURFACE DEATH</text>
<text x="413" y="106" font-size="20" fill="rgb(194, 194, 194)">long</text>
<text x="605" y="640" font-size="20" fill="rgb(208, 208, 208)">OFFICER</text>
<text x="215" y="612" font-size="20" fill="rgb(166, 166, 166)">across</text>
<text x="646" y="171" font-size="20" fill="rgb(179, 179, 179)">OWEN</text>
<text x="930" y="546" font-size="20" fill="rgb(150, 150, 150)">pirateship</text>
<text x="223" y="257" font-size="20" fill="rgb(240, 240, 240)">something</text>
<text x="224" y="895" font-size="20" fill="rgb(238, 238, 238)">go</text>
<text x="451" y="636" font-size="20" fill="rgb(220, 220, 220)">control</text>
<text x="766" y="236" font-size="20" fill="rgb(132, 132, 132)">FIGHTER COCKPIT</text>
<text x="305" y="149" font-size="20" fill="rgb(241, 241, 241)">behind</text>
<text x="816" y="638" font-size="20" fill="rgb(229, 229, 229)">hit</text>
<text x="903" y="280" font-size="20" fill="rgb(146, 146, 146)">light</text>
<text x="680" y="634" font-size="20" fill="rgb(239, 239, 239)">WING COCKPIT</text>
<text x="633" y="272" font-size="20" fill="rgb(144, 144, 144)">Imperial</text>
<text x="238" y="586" font-size="20" fill="rgb(246, 246, 246)">around</text>
<text x="429" y="522" font-size="20" fill="rgb(238, 238, 238)">Suddenly</text>
<text x="856" y="707" font-size="20" fill="rgb(205, 205, 205)">troops</text>
<text x="930" y="669" font-size="20" fill="rgb(204, 204, 204)">eye</text>
<text x="527" y="582" font-size="20" fill="rgb(138, 138, 138)">start</text>
<text x="638" y="897" font-size="20" fill="rgb(254, 254, 254)">TARKIN</text>
<text x="223" y="430" font-size="20" transform="rotate(-90, 223, 430) translate(-90, 0)" fill="rgb(185, 185, 185)">Luke look</text>
<text x="851" y="594" font-size="20" fill="rgb(140, 140, 140)">hand</text>
<text x="996" y="643" font-size="20" fill="rgb(154, 154, 154)">another</text>
<text x="130" y="822" font-size="20" transform="rotate(-90, 130, 822) translate(-70, 0)" fill="rgb(233, 233, 233)">hallway</text>
<text x="432" y="387" font-size="20" fill="rgb(250, 250, 250)">little</text>
<text x="338" y="709" font-size="20" fill="rgb(225, 225, 225)">VOICE</text>
<text x="535" y="782" font-size="20" fill="rgb(147, 147, 147)">face</text>
<text x="780" y="650" font-size="20" transform="rotate(-90, 780, 650) translate(-50, 0)" fill="rgb(170, 170, 170)">blast</text>
<text x="453" y="867" font-size="20" fill="rgb(221, 221, 221)">large</text>
<text x="743" y="437" font-size="20" fill="rgb(179, 179, 179)">wall</text>
<text x="856" y="367" font-size="20" transform="rotate(-90, 856, 367) translate(-80, 0)" fill="rgb(148, 148, 148)">creature</text>
<text x="165" y="578" font-size="20" fill="rgb(176, 176, 176)">give</text>
<text x="363" y="742" font-size="20" fill="rgb(215, 215, 215)">run</text>
<text x="976" y="522" font-size="20" fill="rgb(251, 251, 251)">pilot</text>
<text x="850" y="624" font-size="20" fill="rgb(229, 229, 229)">race</text>
<text x="229" y="737" font-size="20" fill="rgb(229, 229, 229)">seem</text>
<text x="254" y="558" font-size="20" fill="rgb(232, 232, 232)">Force</text>
<text x="445" y="121" font-size="20" transform="rotate(-90, 445, 121) translate(-60, 0)" fill="rgb(147, 147, 147)">trench</text>
<text x="628" y="518" font-size="18" fill="rgb(255, 255, 255)">SPACE AROUND</text>
<text x="327" y="316" font-size="14" fill="rgb(242, 242, 242)">AROUND DEATH</text>
<text x="462" y="543" font-size="14" fill="rgb(219, 219, 219)">door</text>
<text x="551" y="430" font-size="14" fill="rgb(182, 182, 182)">system</text>
<text x="610" y="200" font-size="14" fill="rgb(172, 172, 172)">stop</text>
<text x="374" y="120" font-size="14" fill="rgb(246, 246, 246)">Well</text>
<text x="885" y="380" font-size="14" fill="rgb(158, 158, 158)">Jawa</text>
<text x="105" y="824" font-size="14" transform="rotate(-90, 105, 824) translate(-49, 0)" fill="rgb(178, 178, 178)">looking</text>
<text x="582" y="814" font-size="14" fill="rgb(166, 166, 166)">Solo</text>
<text x="229" y="628" font-size="14" transform="rotate(-90, 229, 628) translate(-84, 0)" fill="rgb(222, 222, 222)">Star surface</text>
<text x="795" y="164" font-size="14" fill="rgb(186, 186, 186)">surface</text>
<text x="750" y="793" font-size="14" fill="rgb(191, 191, 191)">past</text>
<text x="695" y="185" font-size="14" fill="rgb(183, 183, 183)">laserfire</text>
<text x="884" y="257" font-size="14" fill="rgb(231, 231, 231)">Alderaan</text>
<text x="617" y="760" font-size="14" fill="rgb(177, 177, 177)">pull</text>
<text x="340" y="251" font-size="12" fill="rgb(141, 141, 141)">COCKPIT Red</text>
<text x="484" y="886" font-size="12" fill="rgb(233, 233, 233)">power</text>
<text x="952" y="345" font-size="12" fill="rgb(246, 246, 246)">old</text>
<text x="146" y="661" font-size="12" fill="rgb(170, 170, 170)">must</text>
<text x="389" y="776" font-size="12" fill="rgb(185, 185, 185)">WEDGE</text>
<text x="881" y="685" font-size="10" fill="rgb(148, 148, 148)">MASSASSI OUTPOST</text>
<text x="1054" y="691" font-size="10" fill="rgb(190, 190, 190)">Princess</text>
<text x="611" y="783" font-size="10" fill="rgb(171, 171, 171)">sound</text>
<text x="468" y="595" font-size="10" transform="rotate(-90, 468, 595) translate(-20, 0)" fill="rgb(199, 199, 199)">hold</text>
<text x="787" y="841" font-size="10" transform="rotate(-90, 787, 841) translate(-15, 0)" fill="rgb(184, 184, 184)">say</text>
<text x="535" y="801" font-size="10" fill="rgb(223, 223, 223)">WAR ROOM</text>
<text x="781" y="803" font-size="10" fill="rgb(188, 188, 188)">RED TEN</text>
<text x="264" y="179" font-size="10" fill="rgb(156, 156, 156)">want</text>
<text x="338" y="363" font-size="10" fill="rgb(222, 222, 222)">good</text>
<text x="944" y="739" font-size="10" fill="rgb(180, 180, 180)">droid</text>
<text x="266" y="629" font-size="10" fill="rgb(248, 248, 248)">continue</text>
<text x="352" y="482" font-size="10" fill="rgb(178, 178, 178)">dive</text>
<text x="552" y="497" font-size="10" fill="rgb(207, 207, 207)">GOLD FIVE</text>
<text x="866" y="430" font-size="10" fill="rgb(187, 187, 187)">sure</text>
<text x="464" y="794" font-size="10" fill="rgb(173, 173, 173)">front</text>
<text x="730" y="881" font-size="10" fill="rgb(134, 134, 134)">friend</text>
<text x="557" y="211" font-size="10" fill="rgb(193, 193, 193)">wait</text>
<text x="589" y="269" font-size="10" fill="rgb(176, 176, 176)">find</text>
<text x="179" y="741" font-size="10" fill="rgb(160, 160, 160)">standing</text>
<text x="417" y="250" font-size="10" fill="rgb(140, 140, 140)">speeder</text>
<text x="237" y="485" font-size="10" fill="rgb(156, 156, 156)">gun</text>
<text x="858" y="771" font-size="10" fill="rgb(129, 129, 129)">comlink</text>
<text x="530" y="645" font-size="10" fill="rgb(134, 134, 134)">VADER COCKPIT</text>
<text x="709" y="760" font-size="10" transform="rotate(-90, 709, 760) translate(-65, 0)" fill="rgb(211, 211, 211)">COCKPIT Vader</text>
<text x="699" y="116" font-size="10" fill="rgb(143, 143, 143)">starship</text>
<text x="1029" y="572" font-size="10" transform="rotate(-90, 1029, 572) translate(-15, 0)" fill="rgb(246, 246, 246)">sit</text>
<text x="799" y="658" font-size="10" fill="rgb(171, 171, 171)">moment</text>
<text x="877" y="213" font-size="10" fill="rgb(132, 132, 132)">enter</text>
<text x="758" y="366" font-size="10" fill="rgb(220, 220, 220)">thing</text>
<text x="248" y="195" font-size="10" fill="rgb(223, 223, 223)">coming</text>
<text x="615" y="215" font-size="10" fill="rgb(250, 250, 250)">Obi Wan</text>
<text x="192" y="909" font-size="7" fill="rgb(208, 208, 208)">FALCON COCKPIT</text>
<text x="730" y="415" font-size="7" fill="rgb(210, 210, 210)">LEADER COCKPIT</text>
<text x="444" y="845" font-size="7" fill="rgb(209, 209, 209)">LEADER WING</text>
<text x="503" y="211" font-size="7" fill="rgb(222, 222, 222)">planet</text>
<text x="1042" y="736" font-size="7" fill="rgb(224, 224, 224)">close</text>
<text x="216" y="272" font-size="7" fill="rgb(179, 179, 179)">group</text>
<text x="738" y="468" font-size="7" fill="rgb(147, 147, 147)">let</text>
<text x="349" y="624" font-size="7" fill="rgb(210, 210, 210)">attack</text>
<text x="415" y="497" font-size="7" transform="rotate(-90, 415, 497) translate(-24, 0)" fill="rgb(164, 164, 164)">Chewie</text>
<text x="396" y="645" font-size="7" fill="rgb(161, 161, 161)">Princess Leia</text>
<text x="676" y="251" font-size="7" fill="rgb(208, 208, 208)">MOS EISLEY</text>
<text x="868" y="472" font-size="7" transform="rotate(-90, 868, 472) translate(-64, 0)" fill="rgb(129, 129, 129)">targeting device</text>
<text x="612" y="99" font-size="7" fill="rgb(185, 185, 185)">short</text>
<text x="898" y="590" font-size="7" fill="rgb(205, 205, 205)">much</text>
<text x="251" y="382" font-size="7" fill="rgb(225, 225, 225)">watches</text>
<text x="994" y="415" font-size="7" fill="rgb(223, 223, 223)">work</text>
<text x="438" y="193" font-size="7" fill="rgb(239, 239, 239)">help</text>
<text x="248" y="818" font-size="7" transform="rotate(-90, 248, 818) translate(-12, 0)" fill="rgb(144, 144, 144)">put</text>
<text x="200" y="275" font-size="7" transform="rotate(-90, 200, 275) translate(-8, 0)" fill="rgb(201, 201, 201)">Oh</text>
<text x="704" y="894" font-size="7" fill="rgb(162, 162, 162)">father</text>
<text x="383" y="756" font-size="7" fill="rgb(161, 161, 161)">position</text>
<text x="422" y="588" font-size="7" fill="rgb(162, 162, 162)">point</text>
<text x="420" y="313" font-size="7" fill="rgb(218, 218, 218)">docking bay</text>
<text x="643" y="186" font-size="7" fill="rgb(189, 189, 189)">OUTPOST WAR</text>
<text x="740" y="452" font-size="7" fill="rgb(183, 183, 183)">weapon</text>
<text x="233" y="872" font-size="7" fill="rgb(211, 211, 211)">along</text>
<text x="1057" y="662" font-size="7" fill="rgb(169, 169, 169)">hear</text>
<text x="825" y="801" font-size="7" fill="rgb(212, 212, 212)">shut</text>
<text x="409" y="344" font-size="7" fill="rgb(241, 241, 241)">heard</text>
<text x="554" y="598" font-size="7" fill="rgb(220, 220, 220)">last</text>
<text x="406" y="330" font-size="7" fill="rgb(135, 135, 135)">even</text>
<text x="547" y="760" font-size="7" fill="rgb(201, 201, 201)">guard</text>
<text x="938" y="328" font-size="7" fill="rgb(227, 227, 227)">laserbolt</text>
<text x="538" y="263" font-size="7" fill="rgb(254, 254, 254)">appear</text>
<text x="317" y="391" font-size="7" fill="rgb(151, 151, 151)">Artoo Detoo</text>
<text x="347" y="127" font-size="7" fill="rgb(251, 251, 251)">far</text>
<text x="1060" y="674" font-size="7" fill="rgb(242, 242, 242)">Empire</text>
<text x="106" y="741" font-size="7" fill="rgb(234, 234, 234)">enough</text>
<text x="584" y="550" font-size="7" fill="rgb(209, 209, 209)">explosion</text>
<text x="613" y="112" font-size="7" fill="rgb(215, 215, 215)">floor</text>
<text x="823" y="714" font-size="7" fill="rgb(138, 138, 138)">follow</text>
<text x="604" y="884" font-size="7" fill="rgb(222, 222, 222)">four</text>
<text x="304" y="318" font-size="7" fill="rgb(138, 138, 138)">kid</text>
<text x="614" y="794" font-size="7" fill="rgb(174, 174, 174)">Sandpeople</text>
<text x="412" y="803" font-size="7" fill="rgb(185, 185, 185)">open</text>
<text x="252" y="900" font-size="7" fill="rgb(172, 172, 172)">Jabba</text>
<text x="783" y="297" font-size="7" fill="rgb(185, 185, 185)">screen</text>
<text x="501" y="573" font-size="7" fill="rgb(233, 233, 233)">plan</text>
<text x="127" y="901" font-size="7" fill="rgb(224, 224, 224)">explode</text>
<text x="349" y="560" font-size="7" fill="rgb(154, 154, 154)">Dodonna</text>
<text x="444" y="364" font-size="7" fill="rgb(168, 168, 168)">zoom</text>
<text x="373" y="143" font-size="7" transform="rotate(-90, 373, 143) translate(-56, 0)" fill="rgb(141, 141, 141)">INTERCOM VOICE</text>
<text x="690" y="749" font-size="7" transform="rotate(-90, 690, 749) translate(-48, 0)" fill="rgb(215, 215, 215)">COCKPIT Gold</text>
<text x="349" y="604" font-size="7" fill="rgb(184, 184, 184)">firing</text>
<text x="253" y="884" font-size="7" fill="rgb(232, 232, 232)">streak</text>
<text x="871" y="371" font-size="7" transform="rotate(-90, 871, 371) translate(-40, 0)" fill="rgb(242, 242, 242)">electronic</text>
<text x="151" y="642" font-size="7" fill="rgb(213, 213, 213)">boy</text>
<text x="167" y="592" font-size="7" fill="rgb(148, 148, 148)">next</text>
<text x="787" y="144" font-size="7" fill="rgb(135, 135, 135)">minute</text>
<text x="791" y="670" font-size="7" fill="rgb(161, 161, 161)">goes</text>
<text x="984" y="428" font-size="7" fill="rgb(224, 224, 224)">Commander</text>
<text x="240" y="629" font-size="7" fill="rgb(168, 168, 168)">laser</text>
<text x="341" y="724" font-size="7" fill="rgb(150, 150, 150)">man</text>
<text x="329" y="376" font-size="7" fill="rgb(247, 247, 247)">almost</text>
<text x="563" y="194" font-size="7" fill="rgb(128, 128, 128)">tell</text>
<text x="481" y="608" font-size="7" fill="rgb(244, 244, 244)">area</text>
<text x="631" y="163" font-size="7" transform="rotate(-90, 631, 163) translate(-20, 0)" fill="rgb(200, 200, 200)">watch</text>
<text x="609" y="832" font-size="7" transform="rotate(-90, 609, 832) translate(-36, 0)" fill="rgb(163, 163, 163)">formation</text>
<text x="922" y="695" font-size="5" fill="rgb(154, 154, 154)">little Artoo</text>
<text x="802" y="367" font-size="5" fill="rgb(164, 164, 164)">slowly</text>
<text x="453" y="587" font-size="5" transform="rotate(-90, 453, 587) translate(-15, 0)" fill="rgb(241, 241, 241)">first</text>
<text x="791" y="684" font-size="5" fill="rgb(192, 192, 192)">station</text>
<text x="217" y="235" font-size="5" fill="rgb(137, 137, 137)">tiny</text>
<text x="383" y="101" font-size="5" fill="rgb(167, 167, 167)">giant</text>
<text x="419" y="429" font-size="5" fill="rgb(253, 253, 253)">better</text>
<text x="923" y="705" font-size="5" fill="rgb(236, 236, 236)">DAY</text>
<text x="216" y="528" font-size="5" transform="rotate(-90, 216, 528) translate(-15, 0)" fill="rgb(160, 160, 160)">speak</text>
<text x="765" y="723" font-size="5" fill="rgb(225, 225, 225)">dead</text>
<text x="204" y="918" font-size="5" fill="rgb(143, 143, 143)">thought</text>
<text x="919" y="593" font-size="5" fill="rgb(133, 133, 133)">big</text>
<text x="1015" y="739" font-size="5" fill="rgb(183, 183, 183)">second</text>
<text x="769" y="834" font-size="5" transform="rotate(-90, 769, 834) translate(-18, 0)" fill="rgb(254, 254, 254)">really</text>
<text x="146" y="826" font-size="5" fill="rgb(210, 210, 210)">three</text>
<text x="735" y="250" font-size="5" fill="rgb(155, 155, 155)">Sandcrawler</text>
<text x="634" y="911" font-size="5" fill="rgb(185, 185, 185)">beep</text>
<text x="273" y="358" font-size="5" fill="rgb(180, 180, 180)">Stay</text>
<text x="617" y="432" font-size="5" fill="rgb(162, 162, 162)">arm</text>
<text x="397" y="790" font-size="5" fill="rgb(141, 141, 141)">Wookiee</text>
<text x="701" y="833" font-size="5" fill="rgb(171, 171, 171)">moon</text>
<text x="913" y="436" font-size="5" fill="rgb(149, 149, 149)">battle station</text>
<text x="385" y="392" font-size="5" fill="rgb(142, 142, 142)">LUKE Well</text>
<text x="234" y="392" font-size="5" fill="rgb(204, 204, 204)">looks around</text>
<text x="682" y="692" font-size="5" transform="rotate(-90, 682, 692) translate(-39, 0)" fill="rgb(160, 160, 160)">beeping sound</text>
<text x="583" y="334" font-size="5" fill="rgb(253, 253, 253)">laser cannon</text>
<text x="545" y="926" font-size="5" fill="rgb(243, 243, 243)">outside</text>
<text x="509" y="194" font-size="5" fill="rgb(239, 239, 239)">corridor</text>
<text x="367" y="636" font-size="5" fill="rgb(230, 230, 230)">feet</text>
<text x="1047" y="614" font-size="5" fill="rgb(247, 247, 247)">place</text>
<text x="754" y="866" font-size="5" fill="rgb(148, 148, 148)">subhallway</text>
<text x="777" y="250" font-size="5" fill="rgb(145, 145, 145)">rushes</text>
<text x="508" y="320" font-size="5" fill="rgb(136, 136, 136)">found</text>
<text x="654" y="342" font-size="5" fill="rgb(140, 140, 140)">great</text>
<text x="698" y="286" font-size="5" fill="rgb(213, 213, 213)">Rebellion</text>
<text x="331" y="336" font-size="5" transform="rotate(-90, 331, 336) translate(-9, 0)" fill="rgb(144, 144, 144)">cut</text>
<text x="826" y="814" font-size="5" transform="rotate(-90, 826, 814) translate(-12, 0)" fill="rgb(249, 249, 249)">spot</text>
<text x="175" y="614" font-size="5" fill="rgb(151, 151, 151)">jump</text>
<text x="263" y="368" font-size="5" fill="rgb(231, 231, 231)">Listen</text>
<text x="360" y="467" font-size="5" fill="rgb(227, 227, 227)">trying</text>
<text x="305" y="582" font-size="5" transform="rotate(-90, 305, 582) translate(-15, 0)" fill="rgb(207, 207, 207)">never</text>
<text x="451" y="656" font-size="5" transform="rotate(-90, 451, 656) translate(-12, 0)" fill="rgb(172, 172, 172)">need</text>
<text x="206" y="896" font-size="5" fill="rgb(153, 153, 153)">Okay</text>
<text x="500" y="391" font-size="5" fill="rgb(254, 254, 254)">reaches</text>
<text x="893" y="603" font-size="5" fill="rgb(133, 133, 133)">year</text>
<text x="750" y="352" font-size="5" transform="rotate(-90, 750, 352) translate(-15, 0)" fill="rgb(189, 189, 189)">still</text>
<text x="447" y="610" font-size="5" fill="rgb(191, 191, 191)">try</text>
<text x="212" y="421" font-size="5" fill="rgb(207, 207, 207)">speaker</text>
<text x="451" y="679" font-size="5" transform="rotate(-90, 451, 679) translate(-42, 0)" fill="rgb(150, 150, 150)">THREEPIO Artoo</text>
<text x="500" y="709" font-size="5" transform="rotate(-90, 500, 709) translate(-36, 0)" fill="rgb(210, 210, 210)">laser pistol</text>
<text x="604" y="654" font-size="5" transform="rotate(-90, 604, 654) translate(-33, 0)" fill="rgb(164, 164, 164)">Artoo beeps</text>
<text x="852" y="781" font-size="5" fill="rgb(201, 201, 201)">Wan Kenobi</text>
<text x="500" y="656" font-size="5" transform="rotate(-90, 500, 656) translate(-36, 0)" fill="rgb(136, 136, 136)">Imperial TIE</text>
<text x="604" y="696" font-size="5" transform="rotate(-90, 604, 696) translate(-42, 0)" fill="rgb(243, 243, 243)">FALCON GUNPORT</text>
<text x="289" y="198" font-size="5" fill="rgb(233, 233, 233)">BIGGS' COCKPIT</text>
<text x="965" y="438" font-size="5" transform="rotate(-90, 965, 438) translate(-30, 0)" fill="rgb(143, 143, 143)">STAR Three</text>
<text x="240" y="840" font-size="5" fill="rgb(215, 215, 215)">main</text>
<text x="948" y="647" font-size="5" fill="rgb(211, 211, 211)">battle</text>
<text x="433" y="799" font-size="5" fill="rgb(229, 229, 229)">TATOOINE</text>
<text x="713" y="432" font-size="5" fill="rgb(146, 146, 146)">battered</text>
<text x="572" y="610" font-size="5" fill="rgb(178, 178, 178)">aim</text>
<text x="920" y="383" font-size="5" fill="rgb(189, 189, 189)">moving</text>
<text x="781" y="729" font-size="5" fill="rgb(199, 199, 199)">Hey</text>
<text x="537" y="357" font-size="5" fill="rgb(173, 173, 173)">ROOM</text>
<text x="223" y="218" font-size="5" fill="rgb(241, 241, 241)">lot</text>
<text x="878" y="181" font-size="5" transform="rotate(-90, 878, 181) translate(-12, 0)" fill="rgb(189, 189, 189)">keep</text>
<text x="491" y="84" font-size="5" fill="rgb(149, 149, 149)">anything</text>
<text x="991" y="399" font-size="5" fill="rgb(251, 251, 251)">leave</text>
<text x="290" y="609" font-size="5" fill="rgb(194, 194, 194)">canyon</text>
<text x="371" y="492" font-size="5" fill="rgb(161, 161, 161)">quite</text>
<text x="512" y="806" font-size="5" fill="rgb(251, 251, 251)">speed</text>
<text x="856" y="642" font-size="5" fill="rgb(189, 189, 189)">table</text>
<text x="461" y="193" font-size="5" transform="rotate(-90, 461, 193) translate(-27, 0)" fill="rgb(242, 242, 242)">disappear</text>
<text x="712" y="605" font-size="5" fill="rgb(180, 180, 180)">use</text>
<text x="902" y="764" font-size="5" fill="rgb(162, 162, 162)">Five</text>
<text x="486" y="899" font-size="5" fill="rgb(187, 187, 187)">board</text>
<text x="300" y="236" font-size="5" fill="rgb(167, 167, 167)">target</text>
<text x="621" y="489" font-size="5" fill="rgb(151, 151, 151)">grab</text>
<text x="238" y="858" font-size="5" fill="rgb(141, 141, 141)">R2 unit</text>
<text x="353" y="567" font-size="5" transform="rotate(-90, 353, 567) translate(-27, 0)" fill="rgb(221, 221, 221)">Aunt Beru</text>
<text x="839" y="733" font-size="5" transform="rotate(-90, 839, 733) translate(-30, 0)" fill="rgb(243, 243, 243)">Ben Kenobi</text>
<text x="682" y="650" font-size="5" transform="rotate(-90, 682, 650) translate(-36, 0)" fill="rgb(191, 191, 191)">toward Death</text>
<text x="168" y="602" font-size="5" fill="rgb(255, 255, 255)">TIE ship</text>
<text x="177" y="528" font-size="5" transform="rotate(-90, 177, 528) translate(-27, 0)" fill="rgb(184, 184, 184)">STAR MAIN</text>
<text x="803" y="253" font-size="5" transform="rotate(-90, 803, 253) translate(-33, 0)" fill="rgb(213, 213, 213)">FORWARD BAY</text>
<text x="875" y="536" font-size="4" fill="rgb(212, 212, 212)">Imperial stormtrooper</text>
<text x="302" y="326" font-size="4" fill="rgb(247, 247, 247)">Rebel fighter</text>
<text x="756" y="710" font-size="4" fill="rgb(255, 255, 255)">STAR TRENCH</text>
<text x="826" y="723" font-size="4" fill="rgb(217, 217, 217)">struggle</text>
<text x="848" y="535" font-size="4" fill="rgb(176, 176, 176)">smoke</text>
<text x="451" y="500" font-size="4" fill="rgb(147, 147, 147)">near</text>
<text x="659" y="909" font-size="4" fill="rgb(162, 162, 162)">horizon</text>
<text x="318" y="247" font-size="4" fill="rgb(182, 182, 182)">air</text>
<text x="597" y="429" font-size="4" fill="rgb(203, 203, 203)">smile</text>
<text x="743" y="612" font-size="4" fill="rgb(249, 249, 249)">sight</text>
<text x="411" y="118" font-size="4" fill="rgb(176, 176, 176)">distance</text>
<text x="972" y="385" font-size="4" fill="rgb(232, 232, 232)">direction</text>
<text x="690" y="646" font-size="4" fill="rgb(219, 219, 219)">approaching</text>
<text x="426" y="828" font-size="4" fill="rgb(225, 225, 225)">hatch</text>
<text x="613" y="262" font-size="4" fill="rgb(159, 159, 159)">narrow</text>
<text x="428" y="811" font-size="4" fill="rgb(171, 171, 171)">life</text>
<text x="980" y="501" font-size="4" fill="rgb(142, 142, 142)">bad</text>
<text x="607" y="614" font-size="4" fill="rgb(218, 218, 218)">uncle</text>
<text x="279" y="537" font-size="4" fill="rgb(215, 215, 215)">blaster</text>
<text x="457" y="880" font-size="4" fill="rgb(239, 239, 239)">seen</text>
<text x="614" y="275" font-size="4" fill="rgb(189, 189, 189)">line</text>
<text x="744" y="119" font-size="4" fill="rgb(232, 232, 232)">shoulder</text>
<text x="205" y="255" font-size="4" fill="rgb(189, 189, 189)">master</text>
<text x="835" y="552" font-size="4" fill="rgb(216, 216, 216)">become</text>
<text x="920" y="234" font-size="4" fill="rgb(153, 153, 153)">range</text>
<text x="333" y="127" font-size="4" fill="rgb(198, 198, 198)">cell</text>
<text x="938" y="344" font-size="4" fill="rgb(175, 175, 175)">port</text>
<text x="233" y="494" font-size="4" fill="rgb(225, 225, 225)">wingmen</text>
<text x="358" y="721" font-size="4" fill="rgb(174, 174, 174)">REBEL BLOCKADE</text>
<text x="711" y="656" font-size="4" transform="rotate(-90, 711, 656) translate(-30, 0)" fill="rgb(140, 140, 140)">BLOCKADE RUNNER</text>
<text x="755" y="295" font-size="4" fill="rgb(130, 130, 130)">shakes head</text>
<text x="824" y="366" font-size="4" fill="rgb(178, 178, 178)">old Ben</text>
<text x="530" y="630" font-size="4" fill="rgb(135, 135, 135)">Rebel base</text>
<text x="338" y="196" font-size="4" fill="rgb(164, 164, 164)">CONTROL ROOM</text>
<text x="711" y="708" font-size="4" transform="rotate(-90, 711, 708) translate(-34, 0)" fill="rgb(128, 128, 128)">COCKPIT TRAVELING</text>
<text x="766" y="211" font-size="4" fill="rgb(174, 174, 174)">new</text>
<text x="493" y="792" font-size="4" fill="rgb(226, 226, 226)">home</text>
<text x="652" y="495" font-size="4" fill="rgb(232, 232, 232)">half</text>
<text x="368" y="442" font-size="4" fill="rgb(226, 226, 226)">Hurry</text>
<text x="331" y="477" font-size="4" fill="rgb(136, 136, 136)">young</text>
<text x="380" y="501" font-size="4" fill="rgb(194, 194, 194)">end</text>
<text x="480" y="489" font-size="4" fill="rgb(207, 207, 207)">soldier</text>
<text x="823" y="412" font-size="4" fill="rgb(162, 162, 162)">getting</text>
<text x="535" y="748" font-size="4" transform="rotate(-90, 535, 748) translate(-12, 0)" fill="rgb(169, 169, 169)">course</text>
<text x="779" y="160" font-size="4" fill="rgb(235, 235, 235)">worry</text>
<text x="779" y="612" font-size="4" fill="rgb(141, 141, 141)">fight</text>
<text x="517" y="490" font-size="4" fill="rgb(251, 251, 251)">part</text>
<text x="394" y="324" font-size="4" transform="rotate(-90, 394, 324) translate(-20, 0)" fill="rgb(175, 175, 175)">approaches</text>
<text x="897" y="298" font-size="4" fill="rgb(184, 184, 184)">sand</text>
<text x="282" y="325" font-size="4" fill="rgb(223, 223, 223)">whistle</text>
<text x="142" y="887" font-size="4" fill="rgb(244, 244, 244)">distant</text>
<text x="935" y="753" font-size="4" fill="rgb(212, 212, 212)">left</text>
<text x="930" y="523" font-size="4" fill="rgb(160, 160, 160)">might</text>
<text x="532" y="324" font-size="4" fill="rgb(136, 136, 136)">bit</text>
<text x="276" y="391" font-size="4" fill="rgb(180, 180, 180)">shoot</text>
<text x="276" y="726" font-size="4" fill="rgb(213, 213, 213)">followed</text>
<text x="946" y="591" font-size="4" fill="rgb(210, 210, 210)">Uh</text>
<text x="364" y="454" font-size="4" fill="rgb(225, 225, 225)">hangar</text>
<text x="853" y="460" font-size="4" fill="rgb(200, 200, 200)">able</text>
<text x="740" y="479" font-size="4" fill="rgb(154, 154, 154)">blow</text>
<text x="833" y="650" font-size="4" fill="rgb(172, 172, 172)">bartender</text>
<text x="901" y="304" font-size="4" transform="rotate(-90, 901, 304) translate(-8, 0)" fill="rgb(199, 199, 199)">fast</text>
<text x="1033" y="747" font-size="4" fill="rgb(213, 213, 213)">check</text>
<text x="449" y="489" font-size="4" fill="rgb(138, 138, 138)">GREEDO</text>
<text x="312" y="540" font-size="4" fill="rgb(252, 252, 252)">green</text>
<text x="493" y="843" font-size="4" fill="rgb(227, 227, 227)">crew</text>
<text x="768" y="801" font-size="4" transform="rotate(-90, 768, 801) translate(-10, 0)" fill="rgb(140, 140, 140)">flame</text>
<text x="510" y="814" font-size="4" fill="rgb(157, 157, 157)">tower</text>
<text x="727" y="350" font-size="4" fill="rgb(237, 237, 237)">headset</text>
<text x="679" y="345" font-size="4" fill="rgb(248, 248, 248)">Uncle Owen</text>
<text x="339" y="688" font-size="4" fill="rgb(136, 136, 136)">HOLD AREA</text>
<text x="894" y="266" font-size="4" transform="rotate(-90, 894, 266) translate(-24, 0)" fill="rgb(218, 218, 218)">TATOOINE MOS</text>
<text x="700" y="485" font-size="4" transform="rotate(-90, 700, 485) translate(-16, 0)" fill="rgb(251, 251, 251)">Han Solo</text>
<text x="393" y="661" font-size="4" transform="rotate(-90, 393, 661) translate(-26, 0)" fill="rgb(226, 226, 226)">control panel</text>
<text x="240" y="647" font-size="4" transform="rotate(-90, 240, 647) translate(-32, 0)" fill="rgb(183, 183, 183)">Imperial fighter</text>
<text x="659" y="230" font-size="4" transform="rotate(-90, 659, 230) translate(-24, 0)" fill="rgb(164, 164, 164)">MAIN FORWARD</text>
<text x="543" y="326" font-size="4" fill="rgb(255, 255, 255)">three TIE</text>
<text x="283" y="332" font-size="4" transform="rotate(-90, 283, 332) translate(-12, 0)" fill="rgb(211, 211, 211)">galaxy</text>
<text x="159" y="814" font-size="4" fill="rgb(216, 216, 216)">aboard</text>
<text x="644" y="610" font-size="4" fill="rgb(197, 197, 197)">human</text>
<text x="224" y="590" font-size="4" fill="rgb(164, 164, 164)">rush</text>
<text x="187" y="445" font-size="4" fill="rgb(254, 254, 254)">filled</text>
<text x="421" y="749" font-size="4" transform="rotate(-90, 421, 749) translate(-14, 0)" fill="rgb(187, 187, 187)">morning</text>
<text x="489" y="318" font-size="4" fill="rgb(157, 157, 157)">seven</text>
<text x="369" y="132" font-size="4" fill="rgb(131, 131, 131)">Dark</text>
<text x="518" y="261" font-size="4" fill="rgb(136, 136, 136)">mission</text>
<text x="888" y="197" font-size="4" fill="rgb(255, 255, 255)">RED</text>
<text x="1034" y="508" font-size="4" fill="rgb(185, 185, 185)">call</text>
<text x="1015" y="560" font-size="4" fill="rgb(210, 210, 210)">talking</text>
<text x="210" y="550" font-size="4" fill="rgb(240, 240, 240)">rest</text>
<text x="517" y="93" font-size="4" transform="rotate(-90, 517, 93) translate(-20, 0)" fill="rgb(224, 224, 224)">background</text>
<text x="257" y="866" font-size="4" fill="rgb(135, 135, 135)">shot</text>
<text x="351" y="114" font-size="4" fill="rgb(148, 148, 148)">happened</text>
<text x="978" y="340" font-size="4" transform="rotate(-90, 978, 340) translate(-8, 0)" fill="rgb(242, 242, 242)">came</text>
<text x="746" y="402" font-size="4" fill="rgb(231, 231, 231)">low</text>
<text x="438" y="351" font-size="4" fill="rgb(245, 245, 245)">gets</text>
<text x="209" y="725" font-size="4" fill="rgb(182, 182, 182)">may</text>
<text x="497" y="534" font-size="4" fill="rgb(144, 144, 144)">HOMESTEAD</text>
<text x="943" y="626" font-size="4" fill="rgb(249, 249, 249)">quickly</text>
<text x="482" y="500" font-size="4" fill="rgb(230, 230, 230)">garage</text>
<text x="486" y="552" font-size="4" transform="rotate(-90, 486, 552) translate(-8, 0)" fill="rgb(211, 211, 211)">Yeah</text>
<text x="503" y="615" font-size="4" fill="rgb(222, 222, 222)">trouble</text>
<text x="797" y="845" font-size="4" transform="rotate(-90, 797, 845) translate(-10, 0)" fill="rgb(225, 225, 225)">tries</text>
<text x="894" y="613" font-size="4" fill="rgb(179, 179, 179)">gone</text>
<text x="771" y="774" font-size="4" fill="rgb(166, 166, 166)">yell</text>
<text x="642" y="195" font-size="4" fill="rgb(206, 206, 206)">closer</text>
<text x="281" y="608" font-size="4" transform="rotate(-90, 281, 608) translate(-8, 0)" fill="rgb(255, 255, 255)">step</text>
<text x="570" y="261" font-size="4" fill="rgb(175, 175, 175)">return</text>
<text x="751" y="820" font-size="4" fill="rgb(174, 174, 174)">lightsaber</text>
<text x="273" y="163" font-size="4" fill="rgb(180, 180, 180)">thousand</text>
<text x="698" y="750" font-size="4" fill="rgb(182, 182, 182)">together</text>
<text x="470" y="193" font-size="4" transform="rotate(-90, 470, 193) translate(-22, 0)" fill="rgb(238, 238, 238)">information</text>
<text x="319" y="256" font-size="4" fill="rgb(135, 135, 135)">readout</text>
<text x="769" y="449" font-size="4" fill="rgb(243, 243, 243)">ready</text>
<text x="287" y="152" font-size="4" fill="rgb(234, 234, 234)">burst</text>
<text x="245" y="270" font-size="4" fill="rgb(202, 202, 202)">enemy</text>
<text x="1091" y="700" font-size="4" transform="rotate(-90, 1091, 700) translate(-10, 0)" fill="rgb(133, 133, 133)">climb</text>
<text x="643" y="619" font-size="4" fill="rgb(146, 146, 146)">shadow</text>
<text x="807" y="611" font-size="4" fill="rgb(230, 230, 230)">adjust</text>
<text x="651" y="758" font-size="4" transform="rotate(-90, 651, 758) translate(-18, 0)" fill="rgb(199, 199, 199)">Dark Lord</text>
<text x="251" y="780" font-size="4" transform="rotate(-90, 251, 780) translate(-26, 0)" fill="rgb(247, 247, 247)">power station</text>
</svg>
