<svg width="1190" height="1028" xmlns="http://www.w3.org/2000/svg">
    <defs><style type="text/css">
    @import url("https://fonts.googleapis.com/css?family=Pacifico");
    text {font-family: 'Pacifico', cursive;
    font-variant-ligatures:none}
    </style></defs>
<rect width="100%" height="100%" fill="black"/>
<text x="450" y="749" font-size="108" fill="rgb(193, 193, 193)">Luke</text>
<text x="561" y="210" font-size="77" fill="rgb(184, 184, 184)">Han</text>
<text x="392" y="491" font-size="47" fill="rgb(243, 243, 243)">DEATH STAR</text>
<text x="166" y="691" font-size="44" fill="rgb(225, 225, 225)">THREEPIO</text>
<text x="414" y="788" font-size="39" fill="rgb(134, 134, 134)">Ben</text>
<text x="882" y="570" font-size="34" fill="rgb(157, 157, 157)">ship</text>
<text x="898" y="455" font-size="33" fill="rgb(131, 131, 131)">Leia</text>
<text x="401" y="197" font-size="31" fill="rgb(221, 221, 221)">one</text>
<text x="503" y="110" font-size="30" transform="rotate(-90, 503, 110) translate(-58, 0)" fill="rgb(128, 128, 128)">look</text>
<text x="300" y="228" font-size="30" fill="rgb(227, 227, 227)">RED LEADER</text>
<text x="758" y="655" font-size="29" transform="rotate(-90, 758, 655) translate(-77, 0)" fill="rgb(179, 179, 179)">Artoo</text>
<text x="138" y="780" font-size="28" fill="rgb(181, 181, 181)">back</text>
<text x="958" y="584" font-size="27" fill="rgb(157, 157, 157)">move</text>
<text x="329" y="601" font-size="26" fill="rgb(229, 229, 229)">going</text>
<text x="206" y="505" font-size="25" transform="rotate(-90, 206, 505) translate(-43, 0)" fill="rgb(230, 230, 230)">two</text>
<text x="324" y="422" font-size="25" fill="rgb(189, 189, 189)">Biggs</text>
<text x="713" y="611" font-size="25" fill="rgb(188, 188, 188)">TIE fighter</text>
<text x="312" y="543" font-size="25" transform="rotate(-90, 312, 543) translate(-69, 0)" fill="rgb(176, 176, 176)">Vader</text>
<text x="587" y="235" font-size="25" fill="rgb(141, 141, 141)">see</text>
<text x="510" y="794" font-size="25" fill="rgb(171, 171, 171)">MILLENNIUM FALCON</text>
<text x="291" y="184" font-size="25" fill="rgb(234, 234, 234)">toward</text>
<text x="705" y="850" font-size="25" fill="rgb(234, 234, 234)">right</text>
<text x="914" y="700" font-size="25" fill="rgb(255, 255, 255)">Luke WING</text>
<text x="699" y="658" font-size="25" transform="rotate(-90, 699, 658) translate(-53, 0)" fill="rgb(188, 188, 188)">come</text>
<text x="619" y="846" font-size="25" fill="rgb(227, 227, 227)">trooper</text>
<text x="886" y="499" font-size="24" fill="rgb(245, 245, 245)">robot</text>
<text x="447" y="820" font-size="24" fill="rgb(248, 248, 248)">small</text>
<text x="611" y="597" font-size="24" fill="rgb(154, 154, 154)">SPACE</text>
<text x="641" y="122" font-size="24" fill="rgb(159, 159, 159)">now</text>
<text x="494" y="540" font-size="24" fill="rgb(173, 173, 173)">WING FIGHTER</text>
<text x="803" y="204" font-size="24" fill="rgb(183, 183, 183)">take</text>
<text x="841" y="750" font-size="24" fill="rgb(250, 250, 250)">begin</text>
<text x="765" y="824" font-size="24" fill="rgb(144, 144, 144)">make</text>
<text x="380" y="132" font-size="23" fill="rgb(137, 137, 137)">away</text>
<text x="281" y="428" font-size="23" fill="rgb(189, 189, 189)">fire</text>
<text x="731" y="238" font-size="23" fill="rgb(189, 189, 189)">will</text>
<text x="821" y="404" font-size="23" fill="rgb(248, 248, 248)">turn</text>
<text x="704" y="139" font-size="23" fill="rgb(251, 251, 251)">stand</text>
<text x="312" y="369" font-size="23" fill="rgb(211, 211, 211)">stormtrooper</text>
<text x="632" y="653" font-size="22" fill="rgb(223, 223, 223)">way</text>
<text x="665" y="256" font-size="22" fill="rgb(155, 155, 155)">side</text>
<text x="133" y="715" font-size="21" fill="rgb(247, 247, 247)">COCKPIT Luke</text>
<text x="676" y="883" font-size="21" fill="rgb(146, 146, 146)">sir</text>
<text x="205" y="799" font-size="21" fill="rgb(223, 223, 223)">think</text>
<text x="371" y="739" font-size="21" fill="rgb(181, 181, 181)">head</text>
<text x="281" y="636" font-size="21" fill="rgb(165, 165, 165)">DARTH VADER</text>
<text x="393" y="424" font-size="20" fill="rgb(226, 226, 226)">GOLD LEADER</text>
<text x="542" y="84" font-size="20" transform="rotate(-90, 542, 84) translate(-40, 0)" fill="rgb(166, 166, 166)">huge</text>
<text x="722" y="263" font-size="20" fill="rgb(207, 207, 207)">got</text>
<text x="98" y="827" font-size="20" fill="rgb(255, 255, 255)">us</text>
<text x="754" y="182" font-size="20" fill="rgb(137, 137, 137)">time</text>
<text x="934" y="523" font-size="20" fill="rgb(153, 153, 153)">computer</text>
<text x="912" y="391" font-size="20" fill="rgb(192, 192, 192)">several</text>
<text x="253" y="414" font-size="20" transform="rotate(-90, 253, 414) translate(-53, 0)" fill="rgb(150, 150, 150)">Rebel</text>
<text x="945" y="607" font-size="20" fill="rgb(237, 237, 237)">know</text>
<text x="376" y="165" font-size="20" fill="rgb(202, 202, 202)">Chewbacca</text>
<text x="220" y="250" font-size="19" fill="rgb(221, 221, 221)">SURFACE DEATH</text>
<text x="849" y="608" font-size="19" fill="rgb(253, 253, 253)">long</text>
<text x="792" y="226" font-size="19" fill="rgb(181, 181, 181)">OFFICER</text>
<text x="1024" y="647" font-size="19" fill="rgb(255, 255, 255)">across</text>
<text x="601" y="904" font-size="19" fill="rgb(211, 211, 211)">OWEN</text>
<text x="337" y="325" font-size="19" fill="rgb(189, 189, 189)">pirateship</text>
<text x="676" y="633" font-size="19" fill="rgb(245, 245, 245)">something</text>
<text x="134" y="807" font-size="19" fill="rgb(242, 242, 242)">go</text>
<text x="712" y="759" font-size="19" fill="rgb(208, 208, 208)">control</text>
<text x="885" y="718" font-size="14" fill="rgb(171, 171, 171)">FIGHTER COCKPIT</text>
<text x="576" y="114" font-size="14" fill="rgb(180, 180, 180)">behind</text>
<text x="352" y="472" font-size="14" fill="rgb(241, 241, 241)">hit</text>
<text x="543" y="233" font-size="14" fill="rgb(147, 147, 147)">light</text>
<text x="642" y="557" font-size="14" fill="rgb(202, 202, 202)">WING COCKPIT</text>
<text x="597" y="259" font-size="14" fill="rgb(209, 209, 209)">Imperial</text>
<text x="419" y="397" font-size="14" fill="rgb(153, 153, 153)">around</text>
<text x="753" y="390" font-size="14" fill="rgb(218, 218, 218)">Suddenly</text>
<text x="797" y="632" font-size="14" fill="rgb(200, 200, 200)">troops</text>
<text x="783" y="646" font-size="14" fill="rgb(195, 195, 195)">eye</text>
<text x="714" y="814" font-size="14" fill="rgb(189, 189, 189)">start</text>
<text x="680" y="159" font-size="14" fill="rgb(129, 129, 129)">TARKIN</text>
<text x="594" y="620" font-size="14" fill="rgb(230, 230, 230)">Luke look</text>
<text x="872" y="412" font-size="14" fill="rgb(186, 186, 186)">hand</text>
<text x="290" y="389" font-size="14" fill="rgb(253, 253, 253)">another</text>
<text x="140" y="734" font-size="14" fill="rgb(190, 190, 190)">hallway</text>
<text x="557" y="637" font-size="14" transform="rotate(-90, 557, 637) translate(-33, 0)" fill="rgb(249, 249, 249)">little</text>
<text x="311" y="148" font-size="14" fill="rgb(241, 241, 241)">VOICE</text>
<text x="692" y="733" font-size="14" fill="rgb(253, 253, 253)">face</text>
<text x="748" y="420" font-size="14" fill="rgb(156, 156, 156)">blast</text>
<text x="707" y="881" font-size="14" fill="rgb(215, 215, 215)">large</text>
<text x="455" y="861" font-size="14" fill="rgb(206, 206, 206)">wall</text>
<text x="299" y="718" font-size="14" fill="rgb(165, 165, 165)">creature</text>
<text x="403" y="590" font-size="14" fill="rgb(226, 226, 226)">give</text>
<text x="232" y="601" font-size="14" fill="rgb(211, 211, 211)">run</text>
<text x="493" y="632" font-size="14" fill="rgb(252, 252, 252)">pilot</text>
<text x="868" y="532" font-size="14" fill="rgb(188, 188, 188)">race</text>
<text x="215" y="485" font-size="14" fill="rgb(164, 164, 164)">seem</text>
<text x="295" y="450" font-size="14" fill="rgb(190, 190, 190)">Force</text>
<text x="959" y="410" font-size="14" fill="rgb(172, 172, 172)">trench</text>
<text x="408" y="247" font-size="14" fill="rgb(194, 194, 194)">SPACE AROUND</text>
<text x="415" y="509" font-size="14" fill="rgb(129, 129, 129)">AROUND DEATH</text>
<text x="521" y="913" font-size="14" fill="rgb(183, 183, 183)">door</text>
<text x="910" y="285" font-size="14" fill="rgb(167, 167, 167)">system</text>
<text x="925" y="316" font-size="14" fill="rgb(146, 146, 146)">stop</text>
<text x="171" y="909" font-size="14" fill="rgb(184, 184, 184)">Well</text>
<text x="770" y="151" font-size="14" fill="rgb(212, 212, 212)">Jawa</text>
<text x="510" y="568" font-size="14" fill="rgb(225, 225, 225)">looking</text>
<text x="496" y="866" font-size="14" transform="rotate(-90, 496, 866) translate(-30, 0)" fill="rgb(247, 247, 247)">Solo</text>
<text x="952" y="555" font-size="14" fill="rgb(246, 246, 246)">Star surface</text>
<text x="199" y="746" font-size="14" fill="rgb(133, 133, 133)">surface</text>
<text x="255" y="203" font-size="14" fill="rgb(255, 255, 255)">past</text>
<text x="211" y="633" font-size="14" fill="rgb(232, 232, 232)">laserfire</text>
<text x="640" y="815" font-size="14" fill="rgb(238, 238, 238)">Alderaan</text>
<text x="559" y="914" font-size="14" fill="rgb(253, 253, 253)">pull</text>
<text x="975" y="666" font-size="14" fill="rgb(152, 152, 152)">COCKPIT Red</text>
<text x="736" y="440" font-size="14" fill="rgb(213, 213, 213)">power</text>
<text x="181" y="467" font-size="14" fill="rgb(156, 156, 156)">old</text>
<text x="437" y="119" font-size="14" fill="rgb(208, 208, 208)">must</text>
<text x="491" y="184" font-size="14" fill="rgb(220, 220, 220)">WEDGE</text>
<text x="568" y="506" font-size="13" fill="rgb(149, 149, 149)">MASSASSI OUTPOST</text>
<text x="653" y="275" font-size="13" fill="rgb(155, 155, 155)">Princess</text>
<text x="877" y="242" font-size="13" fill="rgb(155, 155, 155)">sound</text>
<text x="1031" y="736" font-size="13" fill="rgb(245, 245, 245)">hold</text>
<text x="614" y="862" font-size="13" fill="rgb(171, 171, 171)">say</text>
<text x="706" y="575" font-size="13" fill="rgb(142, 142, 142)">WAR ROOM</text>
<text x="561" y="130" font-size="13" fill="rgb(198, 198, 198)">RED TEN</text>
<text x="470" y="394" font-size="13" fill="rgb(154, 154, 154)">want</text>
<text x="80" y="794" font-size="13" fill="rgb(241, 241, 241)">good</text>
<text x="803" y="756" font-size="13" fill="rgb(206, 206, 206)">droid</text>
<text x="918" y="735" font-size="13" fill="rgb(159, 159, 159)">continue</text>
<text x="821" y="563" font-size="13" fill="rgb(129, 129, 129)">dive</text>
<text x="442" y="640" font-size="13" transform="rotate(-90, 442, 640) translate(-81, 0)" fill="rgb(145, 145, 145)">GOLD FIVE</text>
<text x="167" y="798" font-size="13" fill="rgb(155, 155, 155)">sure</text>
<text x="168" y="582" font-size="13" fill="rgb(249, 249, 249)">front</text>
<text x="561" y="567" font-size="13" fill="rgb(192, 192, 192)">friend</text>
<text x="719" y="211" font-size="13" fill="rgb(246, 246, 246)">wait</text>
<text x="735" y="279" font-size="13" fill="rgb(167, 167, 167)">find</text>
<text x="998" y="609" font-size="13" fill="rgb(219, 219, 219)">standing</text>
<text x="766" y="676" font-size="13" fill="rgb(145, 145, 145)">speeder</text>
<text x="338" y="560" font-size="13" fill="rgb(189, 189, 189)">gun</text>
<text x="215" y="767" font-size="13" fill="rgb(236, 236, 236)">comlink</text>
<text x="424" y="439" font-size="12" fill="rgb(224, 224, 224)">VADER COCKPIT</text>
<text x="874" y="416" font-size="12" transform="rotate(-90, 874, 416) translate(-98, 0)" fill="rgb(185, 185, 185)">COCKPIT Vader</text>
<text x="216" y="901" font-size="12" fill="rgb(153, 153, 153)">starship</text>
<text x="765" y="199" font-size="12" fill="rgb(227, 227, 227)">sit</text>
<text x="766" y="291" font-size="12" fill="rgb(236, 236, 236)">moment</text>
<text x="513" y="149" font-size="12" fill="rgb(236, 236, 236)">enter</text>
<text x="640" y="141" font-size="12" fill="rgb(250, 250, 250)">thing</text>
<text x="705" y="173" font-size="12" fill="rgb(178, 178, 178)">coming</text>
<text x="538" y="256" font-size="12" fill="rgb(161, 161, 161)">Obi Wan</text>
<text x="627" y="224" font-size="9" fill="rgb(219, 219, 219)">FALCON COCKPIT</text>
<text x="271" y="376" font-size="9" transform="rotate(-90, 271, 376) translate(-91, 0)" fill="rgb(146, 146, 146)">LEADER COCKPIT</text>
<text x="713" y="636" font-size="9" transform="rotate(-90, 713, 636) translate(-76, 0)" fill="rgb(187, 187, 187)">LEADER WING</text>
<text x="367" y="488" font-size="9" fill="rgb(191, 191, 191)">planet</text>
<text x="936" y="337" font-size="9" fill="rgb(199, 199, 199)">close</text>
<text x="253" y="566" font-size="9" fill="rgb(147, 147, 147)">group</text>
<text x="891" y="695" font-size="9" fill="rgb(238, 238, 238)">let</text>
<text x="1029" y="513" font-size="9" transform="rotate(-90, 1029, 513) translate(-25, 0)" fill="rgb(205, 205, 205)">attack</text>
<text x="770" y="841" font-size="9" fill="rgb(252, 252, 252)">Chewie</text>
<text x="344" y="384" font-size="9" fill="rgb(248, 248, 248)">Princess Leia</text>
<text x="205" y="263" font-size="9" fill="rgb(158, 158, 158)">MOS EISLEY</text>
<text x="546" y="590" font-size="9" fill="rgb(133, 133, 133)">targeting device</text>
<text x="635" y="657" font-size="9" transform="rotate(-90, 635, 657) translate(-23, 0)" fill="rgb(253, 253, 253)">short</text>
<text x="950" y="470" font-size="9" fill="rgb(234, 234, 234)">much</text>
<text x="311" y="464" font-size="9" fill="rgb(211, 211, 211)">watches</text>
<text x="797" y="170" font-size="9" fill="rgb(170, 170, 170)">work</text>
<text x="705" y="889" font-size="9" transform="rotate(-90, 705, 889) translate(-18, 0)" fill="rgb(194, 194, 194)">help</text>
<text x="494" y="711" font-size="9" fill="rgb(150, 150, 150)">put</text>
<text x="707" y="443" font-size="9" fill="rgb(189, 189, 189)">Oh</text>
<text x="102" y="853" font-size="9" fill="rgb(163, 163, 163)">father</text>
<text x="942" y="350" font-size="9" fill="rgb(167, 167, 167)">position</text>
<text x="834" y="418" font-size="9" fill="rgb(232, 232, 232)">point</text>
<text x="762" y="265" font-size="9" fill="rgb(188, 188, 188)">docking bay</text>
<text x="545" y="438" font-size="9" fill="rgb(157, 157, 157)">OUTPOST WAR</text>
<text x="909" y="747" font-size="9" fill="rgb(186, 186, 186)">weapon</text>
<text x="104" y="872" font-size="9" fill="rgb(132, 132, 132)">along</text>
<text x="979" y="425" font-size="9" fill="rgb(194, 194, 194)">hear</text>
<text x="450" y="532" font-size="9" fill="rgb(206, 206, 206)">shut</text>
<text x="277" y="466" font-size="9" fill="rgb(157, 157, 157)">heard</text>
<text x="743" y="869" font-size="9" fill="rgb(246, 246, 246)">last</text>
<text x="421" y="519" font-size="9" fill="rgb(255, 255, 255)">even</text>
<text x="858" y="197" font-size="9" fill="rgb(179, 179, 179)">guard</text>
<text x="366" y="711" font-size="9" fill="rgb(223, 223, 223)">laserbolt</text>
<text x="892" y="253" font-size="9" fill="rgb(215, 215, 215)">appear</text>
<text x="463" y="95" font-size="9" fill="rgb(173, 173, 173)">Artoo Detoo</text>
<text x="955" y="661" font-size="9" fill="rgb(145, 145, 145)">far</text>
<text x="133" y="683" font-size="9" fill="rgb(222, 222, 222)">Empire</text>
<text x="299" y="330" font-size="9" fill="rgb(251, 251, 251)">enough</text>
<text x="393" y="106" font-size="9" fill="rgb(194, 194, 194)">explosion</text>
<text x="561" y="657" font-size="9" fill="rgb(226, 226, 226)">floor</text>
<text x="733" y="461" font-size="9" fill="rgb(217, 217, 217)">follow</text>
<text x="138" y="899" font-size="9" fill="rgb(224, 224, 224)">four</text>
<text x="375" y="193" font-size="9" fill="rgb(231, 231, 231)">kid</text>
<text x="574" y="808" font-size="9" fill="rgb(167, 167, 167)">Sandpeople</text>
<text x="947" y="488" font-size="9" fill="rgb(153, 153, 153)">open</text>
<text x="922" y="595" font-size="9" transform="rotate(-90, 922, 595) translate(-25, 0)" fill="rgb(138, 138, 138)">Jabba</text>
<text x="163" y="808" font-size="9" fill="rgb(244, 244, 244)">screen</text>
<text x="1067" y="682" font-size="9" fill="rgb(169, 169, 169)">plan</text>
<text x="916" y="406" font-size="9" fill="rgb(131, 131, 131)">explode</text>
<text x="432" y="838" font-size="9" fill="rgb(191, 191, 191)">Dodonna</text>
<text x="886" y="764" font-size="9" fill="rgb(251, 251, 251)">zoom</text>
<text x="616" y="763" font-size="9" fill="rgb(212, 212, 212)">INTERCOM VOICE</text>
<text x="837" y="380" font-size="9" fill="rgb(248, 248, 248)">COCKPIT Gold</text>
<text x="858" y="539" font-size="9" transform="rotate(-90, 858, 539) translate(-21, 0)" fill="rgb(185, 185, 185)">firing</text>
<text x="421" y="608" font-size="9" fill="rgb(138, 138, 138)">streak</text>
<text x="641" y="166" font-size="9" fill="rgb(212, 212, 212)">electronic</text>
<text x="598" y="827" font-size="9" fill="rgb(146, 146, 146)">boy</text>
<text x="776" y="753" font-size="9" fill="rgb(171, 171, 171)">next</text>
<text x="453" y="609" font-size="9" fill="rgb(239, 239, 239)">minute</text>
<text x="1071" y="698" font-size="9" fill="rgb(214, 214, 214)">goes</text>
<text x="821" y="580" font-size="9" fill="rgb(242, 242, 242)">Commander</text>
<text x="650" y="683" font-size="9" fill="rgb(193, 193, 193)">laser</text>
<text x="860" y="778" font-size="9" fill="rgb(135, 135, 135)">man</text>
<text x="900" y="514" font-size="9" fill="rgb(206, 206, 206)">almost</text>
<text x="381" y="761" font-size="9" fill="rgb(161, 161, 161)">tell</text>
<text x="456" y="124" font-size="9" transform="rotate(-90, 456, 124) translate(-18, 0)" fill="rgb(169, 169, 169)">area</text>
<text x="211" y="518" font-size="9" fill="rgb(255, 255, 255)">watch</text>
<text x="831" y="716" font-size="9" fill="rgb(236, 236, 236)">formation</text>
<text x="365" y="400" font-size="9" fill="rgb(250, 250, 250)">little Artoo</text>
<text x="268" y="583" font-size="9" transform="rotate(-90, 268, 583) translate(-27, 0)" fill="rgb(206, 206, 206)">slowly</text>
<text x="156" y="641" font-size="9" fill="rgb(140, 140, 140)">first</text>
<text x="452" y="192" font-size="9" fill="rgb(145, 145, 145)">station</text>
<text x="689" y="109" font-size="9" fill="rgb(164, 164, 164)">tiny</text>
<text x="367" y="573" font-size="9" fill="rgb(206, 206, 206)">giant</text>
<text x="103" y="762" font-size="9" fill="rgb(141, 141, 141)">better</text>
<text x="774" y="695" font-size="9" transform="rotate(-90, 774, 695) translate(-24, 0)" fill="rgb(209, 209, 209)">DAY</text>
<text x="207" y="459" font-size="9" fill="rgb(247, 247, 247)">speak</text>
<text x="231" y="815" font-size="9" fill="rgb(213, 213, 213)">dead</text>
<text x="249" y="851" font-size="9" transform="rotate(-90, 249, 851) translate(-31, 0)" fill="rgb(240, 240, 240)">thought</text>
<text x="1008" y="624" font-size="9" fill="rgb(253, 253, 253)">big</text>
<text x="187" y="585" font-size="9" transform="rotate(-90, 187, 585) translate(-26, 0)" fill="rgb(192, 192, 192)">second</text>
<text x="523" y="206" font-size="9" fill="rgb(131, 131, 131)">really</text>
<text x="484" y="836" font-size="9" fill="rgb(186, 186, 186)">three</text>
<text x="232" y="226" font-size="9" fill="rgb(239, 239, 239)">Sandcrawler</text>
<text x="188" y="485" font-size="9" fill="rgb(199, 199, 199)">beep</text>
<text x="1065" y="720" font-size="9" fill="rgb(170, 170, 170)">Stay</text>
<text x="419" y="803" font-size="9" fill="rgb(216, 216, 216)">arm</text>
<text x="501" y="649" font-size="9" fill="rgb(155, 155, 155)">Wookiee</text>
<text x="200" y="274" font-size="9" fill="rgb(229, 229, 229)">moon</text>
<text x="506" y="764" font-size="9" fill="rgb(209, 209, 209)">battle station</text>
<text x="790" y="241" font-size="9" fill="rgb(222, 222, 222)">LUKE Well</text>
<text x="619" y="634" font-size="9" fill="rgb(179, 179, 179)">looks around</text>
<text x="660" y="611" font-size="8" fill="rgb(214, 214, 214)">beeping sound</text>
<text x="244" y="727" font-size="8" fill="rgb(131, 131, 131)">laser cannon</text>
<text x="880" y="468" font-size="8" fill="rgb(222, 222, 222)">outside</text>
<text x="755" y="366" font-size="8" fill="rgb(234, 234, 234)">corridor</text>
<text x="350" y="123" font-size="8" fill="rgb(166, 166, 166)">feet</text>
<text x="280" y="353" font-size="8" fill="rgb(250, 250, 250)">place</text>
<text x="899" y="577" font-size="8" transform="rotate(-90, 899, 577) translate(-41, 0)" fill="rgb(198, 198, 198)">subhallway</text>
<text x="526" y="161" font-size="8" fill="rgb(161, 161, 161)">rushes</text>
<text x="222" y="422" font-size="8" transform="rotate(-90, 222, 422) translate(-21, 0)" fill="rgb(220, 220, 220)">found</text>
<text x="121" y="765" font-size="8" transform="rotate(-90, 121, 765) translate(-21, 0)" fill="rgb(246, 246, 246)">great</text>
<text x="309" y="161" font-size="8" fill="rgb(170, 170, 170)">Rebellion</text>
<text x="500" y="899" font-size="8" fill="rgb(225, 225, 225)">cut</text>
<text x="849" y="625" font-size="8" fill="rgb(248, 248, 248)">spot</text>
<text x="476" y="618" font-size="8" transform="rotate(-90, 476, 618) translate(-19, 0)" fill="rgb(225, 225, 225)">jump</text>
<text x="642" y="873" font-size="8" fill="rgb(192, 192, 192)">Listen</text>
<text x="843" y="178" font-size="8" fill="rgb(242, 242, 242)">trying</text>
<text x="554" y="681" font-size="8" fill="rgb(185, 185, 185)">never</text>
<text x="966" y="309" font-size="8" transform="rotate(-90, 966, 309) translate(-16, 0)" fill="rgb(191, 191, 191)">need</text>
<text x="772" y="853" font-size="8" fill="rgb(155, 155, 155)">Okay</text>
<text x="644" y="236" font-size="8" fill="rgb(134, 134, 134)">reaches</text>
<text x="479" y="549" font-size="8" fill="rgb(176, 176, 176)">year</text>
<text x="397" y="787" font-size="8" fill="rgb(208, 208, 208)">still</text>
<text x="953" y="426" font-size="8" fill="rgb(214, 214, 214)">try</text>
<text x="714" y="530" font-size="8" fill="rgb(135, 135, 135)">speaker</text>
<text x="311" y="194" font-size="6" fill="rgb(250, 250, 250)">THREEPIO Artoo</text>
<text x="347" y="444" font-size="6" fill="rgb(232, 232, 232)">laser pistol</text>
<text x="639" y="100" font-size="6" fill="rgb(192, 192, 192)">Artoo beeps</text>
<text x="394" y="350" font-size="6" fill="rgb(200, 200, 200)">Wan Kenobi</text>
<text x="600" y="563" font-size="6" fill="rgb(165, 165, 165)">Imperial TIE</text>
<text x="454" y="641" font-size="6" transform="rotate(-90, 454, 641) translate(-65, 0)" fill="rgb(191, 191, 191)">FALCON GUNPORT</text>
<text x="555" y="88" font-size="6" fill="rgb(177, 177, 177)">BIGGS' COCKPIT</text>
<text x="90" y="807" font-size="6" fill="rgb(233, 233, 233)">STAR Three</text>
<text x="354" y="342" font-size="6" fill="rgb(221, 221, 221)">main</text>
<text x="535" y="805" font-size="6" fill="rgb(233, 233, 233)">battle</text>
<text x="950" y="618" font-size="6" fill="rgb(214, 214, 214)">TATOOINE</text>
<text x="699" y="285" font-size="6" fill="rgb(198, 198, 198)">battered</text>
<text x="550" y="126" font-size="6" transform="rotate(-90, 550, 126) translate(-10, 0)" fill="rgb(238, 238, 238)">aim</text>
<text x="125" y="827" font-size="6" fill="rgb(150, 150, 150)">moving</text>
<text x="330" y="576" font-size="6" fill="rgb(246, 246, 246)">Hey</text>
<text x="129" y="726" font-size="6" transform="rotate(-90, 129, 726) translate(-24, 0)" fill="rgb(137, 137, 137)">ROOM</text>
<text x="210" y="809" font-size="6" fill="rgb(227, 227, 227)">lot</text>
<text x="763" y="728" font-size="6" fill="rgb(181, 181, 181)">keep</text>
<text x="919" y="533" font-size="6" fill="rgb(156, 156, 156)">anything</text>
<text x="148" y="819" font-size="6" fill="rgb(137, 137, 137)">leave</text>
<text x="800" y="655" font-size="6" fill="rgb(215, 215, 215)">canyon</text>
<text x="509" y="258" font-size="6" fill="rgb(226, 226, 226)">quite</text>
<text x="929" y="664" font-size="6" fill="rgb(171, 171, 171)">speed</text>
<text x="411" y="707" font-size="6" fill="rgb(157, 157, 157)">table</text>
<text x="602" y="915" font-size="6" fill="rgb(145, 145, 145)">disappear</text>
<text x="886" y="269" font-size="6" fill="rgb(142, 142, 142)">use</text>
<text x="226" y="497" font-size="6" fill="rgb(136, 136, 136)">Five</text>
<text x="436" y="100" font-size="6" fill="rgb(134, 134, 134)">board</text>
<text x="518" y="799" font-size="6" transform="rotate(-90, 518, 799) translate(-17, 0)" fill="rgb(142, 142, 142)">target</text>
<text x="722" y="667" font-size="6" fill="rgb(213, 213, 213)">grab</text>
<text x="672" y="825" font-size="6" fill="rgb(153, 153, 153)">R2 unit</text>
<text x="1025" y="628" font-size="6" fill="rgb(231, 231, 231)">Aunt Beru</text>
<text x="839" y="642" font-size="6" fill="rgb(181, 181, 181)">Ben Kenobi</text>
<text x="173" y="562" font-size="6" fill="rgb(164, 164, 164)">toward Death</text>
<text x="572" y="761" font-size="6" fill="rgb(226, 226, 226)">TIE ship</text>
<text x="178" y="644" font-size="6" fill="rgb(148, 148, 148)">STAR MAIN</text>
<text x="941" y="363" font-size="5" fill="rgb(234, 234, 234)">FORWARD BAY</text>
<text x="453" y="758" font-size="5" fill="rgb(212, 212, 212)">Imperial stormtrooper</text>
<text x="912" y="261" font-size="5" fill="rgb(171, 171, 171)">Rebel fighter</text>
<text x="973" y="531" font-size="5" fill="rgb(250, 250, 250)">STAR TRENCH</text>
<text x="973" y="726" font-size="5" fill="rgb(232, 232, 232)">struggle</text>
<text x="468" y="142" font-size="5" fill="rgb(174, 174, 174)">smoke</text>
<text x="645" y="822" font-size="5" fill="rgb(154, 154, 154)">near</text>
<text x="861" y="725" font-size="5" fill="rgb(234, 234, 234)">horizon</text>
<text x="941" y="418" font-size="5" fill="rgb(201, 201, 201)">air</text>
<text x="227" y="914" font-size="5" fill="rgb(255, 255, 255)">smile</text>
<text x="559" y="108" font-size="5" fill="rgb(198, 198, 198)">sight</text>
<text x="272" y="371" font-size="5" fill="rgb(215, 215, 215)">distance</text>
<text x="997" y="637" font-size="5" fill="rgb(141, 141, 141)">direction</text>
<text x="820" y="802" font-size="5" fill="rgb(253, 253, 253)">approaching</text>
<text x="435" y="589" font-size="5" fill="rgb(235, 235, 235)">hatch</text>
<text x="383" y="768" font-size="5" fill="rgb(234, 234, 234)">narrow</text>
<text x="749" y="877" font-size="5" fill="rgb(227, 227, 227)">life</text>
<text x="761" y="646" font-size="5" fill="rgb(242, 242, 242)">bad</text>
<text x="843" y="767" font-size="5" fill="rgb(218, 218, 218)">uncle</text>
<text x="847" y="235" font-size="5" fill="rgb(241, 241, 241)">blaster</text>
<text x="816" y="149" font-size="5" fill="rgb(165, 165, 165)">seen</text>
<text x="467" y="881" font-size="5" fill="rgb(234, 234, 234)">line</text>
<text x="755" y="798" font-size="5" transform="rotate(-90, 755, 798) translate(-20, 0)" fill="rgb(235, 235, 235)">shoulder</text>
<text x="474" y="527" font-size="5" fill="rgb(158, 158, 158)">master</text>
<text x="559" y="418" font-size="5" fill="rgb(237, 237, 237)">become</text>
<text x="840" y="429" font-size="5" fill="rgb(190, 190, 190)">range</text>
<text x="381" y="469" font-size="5" fill="rgb(222, 222, 222)">cell</text>
<text x="263" y="881" font-size="5" fill="rgb(145, 145, 145)">port</text>
<text x="455" y="795" font-size="5" fill="rgb(166, 166, 166)">wingmen</text>
<text x="294" y="644" font-size="5" fill="rgb(149, 149, 149)">REBEL BLOCKADE</text>
<text x="379" y="173" font-size="5" fill="rgb(186, 186, 186)">BLOCKADE RUNNER</text>
<text x="705" y="823" font-size="5" fill="rgb(226, 226, 226)">shakes head</text>
<text x="246" y="742" font-size="5" fill="rgb(161, 161, 161)">old Ben</text>
<text x="344" y="731" font-size="5" fill="rgb(227, 227, 227)">Rebel base</text>
<text x="436" y="374" font-size="5" fill="rgb(215, 215, 215)">CONTROL ROOM</text>
</svg>
