<svg width="1190" height="1028" xmlns="http://www.w3.org/2000/svg">
    <defs><style type="text/css">
    @import url("https://fonts.googleapis.com/css?family=Press+Start+2P");
    text {font-family: 'Press Start 2p', cursive;
    font-kerning:none;
    font-variant-ligatures:none}
    </style></defs>
<rect width="100%" height="100%" fill="black"/>
<text x="348" y="251" font-size="100" fill="hsl(0, 0%, 73%)">Luke</text>
<text x="468" y="535" font-size="71" fill="hsl(0, 0%, 72%)">Han</text>
<text x="139" y="723" font-size="64" fill="hsl(0, 0%, 72%)">DEATH STAR</text>
<text x="399" y="796" font-size="57" fill="hsl(0, 0%, 70%)">THREEPIO</text>
<text x="695" y="651" font-size="51" fill="hsl(0, 0%, 66%)">Ben</text>
<text x="848" y="613" font-size="44" fill="hsl(0, 0%, 72%)">ship</text>
<text x="278" y="471" font-size="43" fill="hsl(0, 0%, 76%)">Leia</text>
<text x="892" y="391" font-size="41" transform="rotate(-90, 892, 391) translate(-123, 0)" fill="hsl(0, 0%, 61%)">one</text>
<text x="421" y="132" font-size="40" fill="hsl(0, 0%, 93%)">look</text>
<text x="210" y="652" font-size="32" fill="hsl(0, 0%, 82%)">RED LEADER</text>
<text x="82" y="810" font-size="31" fill="hsl(0, 0%, 77%)">Artoo</text>
<text x="856" y="559" font-size="30" fill="hsl(0, 0%, 64%)">back</text>
<text x="641" y="842" font-size="29" fill="hsl(0, 0%, 98%)">move</text>
<text x="512" y="567" font-size="28" fill="hsl(0, 0%, 72%)">going</text>
<text x="663" y="275" font-size="27" fill="hsl(0, 0%, 99%)">two</text>
<text x="464" y="454" font-size="27" fill="hsl(0, 0%, 64%)">Biggs</text>
<text x="236" y="420" font-size="26" fill="hsl(0, 0%, 87%)">TIE fighter</text>
<text x="958" y="685" font-size="26" fill="hsl(0, 0%, 72%)">Vader</text>
<text x="830" y="154" font-size="26" transform="rotate(-90, 830, 154) translate(-78, 0)" fill="hsl(0, 0%, 78%)">see</text>
<text x="454" y="812" font-size="18" fill="hsl(0, 0%, 71%)">MILLENNIUM FALCON</text>
<text x="339" y="388" font-size="18" fill="hsl(0, 0%, 77%)">toward</text>
<text x="142" y="762" font-size="18" fill="hsl(0, 0%, 76%)">right</text>
<text x="972" y="311" font-size="18" transform="rotate(-90, 972, 311) translate(-162, 0)" fill="hsl(0, 0%, 91%)">Luke WING</text>
<text x="697" y="872" font-size="18" fill="hsl(0, 0%, 60%)">come</text>
<text x="226" y="246" font-size="18" fill="hsl(0, 0%, 69%)">trooper</text>
<text x="596" y="908" font-size="18" fill="hsl(0, 0%, 69%)">robot</text>
<text x="243" y="588" font-size="18" fill="hsl(0, 0%, 79%)">small</text>
<text x="645" y="133" font-size="18" fill="hsl(0, 0%, 85%)">SPACE</text>
<text x="882" y="752" font-size="18" fill="hsl(0, 0%, 85%)">now</text>
<text x="244" y="610" font-size="18" fill="hsl(0, 0%, 83%)">WING FIGHTER</text>
<text x="755" y="412" font-size="18" fill="hsl(0, 0%, 75%)">take</text>
<text x="658" y="593" font-size="18" fill="hsl(0, 0%, 92%)">begin</text>
<text x="903" y="723" font-size="18" fill="hsl(0, 0%, 69%)">make</text>
<text x="279" y="167" font-size="17" fill="hsl(0, 0%, 89%)">away</text>
<text x="708" y="455" font-size="17" fill="hsl(0, 0%, 82%)">fire</text>
<text x="443" y="153" font-size="17" fill="hsl(0, 0%, 98%)">will</text>
<text x="776" y="383" font-size="17" fill="hsl(0, 0%, 61%)">turn</text>
<text x="587" y="623" font-size="17" fill="hsl(0, 0%, 92%)">stand</text>
<text x="598" y="159" font-size="17" fill="hsl(0, 0%, 89%)">stormtrooper</text>
<text x="337" y="344" font-size="17" fill="hsl(0, 0%, 66%)">way</text>
<text x="336" y="141" font-size="17" fill="hsl(0, 0%, 78%)">side</text>
<text x="550" y="476" font-size="17" fill="hsl(0, 0%, 65%)">COCKPIT Luke</text>
<text x="731" y="484" font-size="17" transform="rotate(-90, 731, 484) translate(-51, 0)" fill="hsl(0, 0%, 98%)">sir</text>
<text x="982" y="714" font-size="17" fill="hsl(0, 0%, 77%)">think</text>
<text x="440" y="835" font-size="17" fill="hsl(0, 0%, 91%)">head</text>
<text x="481" y="258" font-size="16" fill="hsl(0, 0%, 82%)">DARTH VADER</text>
<text x="280" y="363" font-size="15" fill="hsl(0, 0%, 81%)">GOLD LEADER</text>
<text x="427" y="141" font-size="15" transform="rotate(-90, 427, 141) translate(-60, 0)" fill="hsl(0, 0%, 77%)">huge</text>
<text x="198" y="915" font-size="15" fill="hsl(0, 0%, 92%)">got</text>
<text x="727" y="562" font-size="15" fill="hsl(0, 0%, 82%)">us</text>
<text x="729" y="238" font-size="15" fill="hsl(0, 0%, 65%)">time</text>
<text x="228" y="220" font-size="15" fill="hsl(0, 0%, 76%)">computer</text>
<text x="534" y="589" font-size="15" fill="hsl(0, 0%, 66%)">several</text>
<text x="197" y="471" font-size="15" fill="hsl(0, 0%, 66%)">Rebel</text>
<text x="917" y="467" font-size="15" transform="rotate(-90, 917, 467) translate(-60, 0)" fill="hsl(0, 0%, 60%)">know</text>
<text x="141" y="735" font-size="15" fill="hsl(0, 0%, 69%)">Chewbacca</text>
<text x="614" y="733" font-size="13" fill="hsl(0, 0%, 67%)">SURFACE DEATH</text>
<text x="449" y="868" font-size="13" fill="hsl(0, 0%, 89%)">long</text>
<text x="260" y="184" font-size="13" fill="hsl(0, 0%, 75%)">OFFICER</text>
<text x="365" y="482" font-size="13" fill="hsl(0, 0%, 70%)">across</text>
<text x="273" y="385" font-size="13" fill="hsl(0, 0%, 80%)">OWEN</text>
<text x="422" y="733" font-size="13" fill="hsl(0, 0%, 65%)">pirateship</text>
<text x="534" y="652" font-size="13" fill="hsl(0, 0%, 97%)">something</text>
<text x="871" y="765" font-size="13" fill="hsl(0, 0%, 76%)">go</text>
<text x="588" y="108" font-size="13" fill="hsl(0, 0%, 65%)">control</text>
<text x="651" y="853" font-size="10" fill="hsl(0, 0%, 88%)">FIGHTER COCKPIT</text>
<text x="731" y="292" font-size="10" fill="hsl(0, 0%, 94%)">behind</text>
<text x="495" y="913" font-size="10" fill="hsl(0, 0%, 83%)">hit</text>
<text x="955" y="514" font-size="10" fill="hsl(0, 0%, 63%)">light</text>
<text x="353" y="256" font-size="10" fill="hsl(0, 0%, 67%)">WING COCKPIT</text>
<text x="253" y="562" font-size="10" fill="hsl(0, 0%, 89%)">Imperial</text>
<text x="254" y="751" font-size="10" transform="rotate(-90, 254, 751) translate(-60, 0)" fill="hsl(0, 0%, 88%)">around</text>
<text x="877" y="694" font-size="10" fill="hsl(0, 0%, 80%)">Suddenly</text>
<text x="696" y="886" font-size="10" fill="hsl(0, 0%, 87%)">troops</text>
<text x="757" y="600" font-size="10" fill="hsl(0, 0%, 71%)">eye</text>
<text x="398" y="504" font-size="10" fill="hsl(0, 0%, 61%)">start</text>
<text x="352" y="584" font-size="10" fill="hsl(0, 0%, 69%)">TARKIN</text>
<text x="563" y="272" font-size="10" fill="hsl(0, 0%, 69%)">Luke look</text>
<text x="837" y="733" font-size="10" fill="hsl(0, 0%, 66%)">hand</text>
<text x="205" y="270" font-size="10" fill="hsl(0, 0%, 87%)">another</text>
<text x="930" y="400" font-size="10" transform="rotate(-90, 930, 400) translate(-70, 0)" fill="hsl(0, 0%, 77%)">hallway</text>
<text x="476" y="168" font-size="10" fill="hsl(0, 0%, 97%)">little</text>
<text x="219" y="434" font-size="10" fill="hsl(0, 0%, 98%)">VOICE</text>
<text x="640" y="870" font-size="10" fill="hsl(0, 0%, 98%)">face</text>
<text x="463" y="481" font-size="10" transform="rotate(-90, 463, 481) translate(-50, 0)" fill="hsl(0, 0%, 93%)">blast</text>
<text x="461" y="667" font-size="10" fill="hsl(0, 0%, 82%)">large</text>
<text x="908" y="300" font-size="10" fill="hsl(0, 0%, 91%)">wall</text>
<text x="253" y="817" font-size="10" transform="rotate(-90, 253, 817) translate(-80, 0)" fill="hsl(0, 0%, 71%)">creature</text>
<text x="152" y="654" font-size="10" fill="hsl(0, 0%, 91%)">give</text>
<text x="150" y="907" font-size="10" fill="hsl(0, 0%, 89%)">run</text>
<text x="197" y="484" font-size="10" fill="hsl(0, 0%, 72%)">pilot</text>
<text x="195" y="519" font-size="10" fill="hsl(0, 0%, 65%)">race</text>
<text x="796" y="592" font-size="10" fill="hsl(0, 0%, 77%)">seem</text>
<text x="324" y="324" font-size="10" fill="hsl(0, 0%, 75%)">Force</text>
<text x="836" y="245" font-size="10" fill="hsl(0, 0%, 66%)">trench</text>
<text x="751" y="575" font-size="10" fill="hsl(0, 0%, 91%)">SPACE AROUND</text>
<text x="590" y="541" font-size="10" fill="hsl(0, 0%, 64%)">AROUND DEATH</text>
<text x="981" y="568" font-size="10" fill="hsl(0, 0%, 92%)">door</text>
<text x="455" y="713" font-size="10" fill="hsl(0, 0%, 81%)">system</text>
<text x="888" y="260" font-size="10" fill="hsl(0, 0%, 65%)">stop</text>
<text x="759" y="829" font-size="10" fill="hsl(0, 0%, 79%)">Well</text>
<text x="1012" y="626" font-size="10" fill="hsl(0, 0%, 88%)">Jawa</text>
<text x="95" y="825" font-size="10" fill="hsl(0, 0%, 61%)">looking</text>
<text x="94" y="843" font-size="10" fill="hsl(0, 0%, 92%)">Solo</text>
<text x="853" y="622" font-size="10" fill="hsl(0, 0%, 90%)">Star surface</text>
<text x="841" y="223" font-size="10" fill="hsl(0, 0%, 73%)">surface</text>
<text x="765" y="260" font-size="10" fill="hsl(0, 0%, 65%)">past</text>
<text x="611" y="452" font-size="10" fill="hsl(0, 0%, 63%)">laserfire</text>
<text x="993" y="730" font-size="10" fill="hsl(0, 0%, 90%)">Alderaan</text>
<text x="570" y="921" font-size="10" fill="hsl(0, 0%, 72%)">pull</text>
<text x="244" y="200" font-size="10" fill="hsl(0, 0%, 68%)">COCKPIT Red</text>
<text x="765" y="804" font-size="10" fill="hsl(0, 0%, 95%)">power</text>
<text x="203" y="533" font-size="10" fill="hsl(0, 0%, 80%)">old</text>
<text x="378" y="322" font-size="10" fill="hsl(0, 0%, 66%)">must</text>
<text x="350" y="735" font-size="10" fill="hsl(0, 0%, 96%)">WEDGE</text>
<text x="586" y="170" font-size="9" fill="hsl(0, 0%, 75%)">MASSASSI OUTPOST</text>
<text x="865" y="386" font-size="9" fill="hsl(0, 0%, 93%)">Princess</text>
<text x="604" y="883" font-size="9" fill="hsl(0, 0%, 83%)">sound</text>
<text x="1035" y="641" font-size="9" fill="hsl(0, 0%, 84%)">hold</text>
<text x="118" y="771" font-size="9" fill="hsl(0, 0%, 83%)">say</text>
<text x="489" y="539" font-size="9" fill="hsl(0, 0%, 81%)">WAR ROOM</text>
<text x="366" y="116" font-size="9" fill="hsl(0, 0%, 84%)">RED TEN</text>
<text x="849" y="205" font-size="9" fill="hsl(0, 0%, 99%)">want</text>
<text x="851" y="714" font-size="9" fill="hsl(0, 0%, 88%)">good</text>
<text x="302" y="430" font-size="9" fill="hsl(0, 0%, 78%)">droid</text>
<text x="731" y="182" font-size="9" fill="hsl(0, 0%, 76%)">continue</text>
<text x="989" y="551" font-size="9" fill="hsl(0, 0%, 94%)">dive</text>
<text x="533" y="140" font-size="9" fill="hsl(0, 0%, 82%)">GOLD FIVE</text>
<text x="105" y="880" font-size="9" fill="hsl(0, 0%, 73%)">sure</text>
<text x="395" y="216" font-size="9" fill="hsl(0, 0%, 70%)">front</text>
<text x="529" y="428" font-size="9" fill="hsl(0, 0%, 92%)">friend</text>
<text x="597" y="832" font-size="9" fill="hsl(0, 0%, 86%)">wait</text>
<text x="996" y="386" font-size="9" transform="rotate(-90, 996, 386) translate(-36, 0)" fill="hsl(0, 0%, 63%)">find</text>
<text x="198" y="450" font-size="9" fill="hsl(0, 0%, 67%)">standing</text>
<text x="567" y="600" font-size="9" fill="hsl(0, 0%, 81%)">speeder</text>
<text x="174" y="638" font-size="9" fill="hsl(0, 0%, 87%)">gun</text>
<text x="452" y="96" font-size="9" fill="hsl(0, 0%, 88%)">comlink</text>
<text x="945" y="396" font-size="9" transform="rotate(-90, 945, 396) translate(-117, 0)" fill="hsl(0, 0%, 74%)">VADER COCKPIT</text>
<text x="900" y="397" font-size="9" transform="rotate(-90, 900, 397) translate(-117, 0)" fill="hsl(0, 0%, 96%)">COCKPIT Vader</text>
<text x="964" y="527" font-size="9" fill="hsl(0, 0%, 71%)">starship</text>
<text x="683" y="496" font-size="9" fill="hsl(0, 0%, 81%)">sit</text>
<text x="743" y="196" font-size="9" fill="hsl(0, 0%, 87%)">moment</text>
<text x="593" y="120" font-size="9" fill="hsl(0, 0%, 77%)">enter</text>
<text x="743" y="138" font-size="9" fill="hsl(0, 0%, 69%)">thing</text>
<text x="897" y="277" font-size="9" fill="hsl(0, 0%, 74%)">coming</text>
<text x="176" y="779" font-size="9" fill="hsl(0, 0%, 75%)">Obi Wan</text>
<text x="880" y="733" font-size="7" fill="hsl(0, 0%, 66%)">FALCON COCKPIT</text>
<text x="186" y="526" font-size="7" transform="rotate(-90, 186, 526) translate(-98, 0)" fill="hsl(0, 0%, 94%)">LEADER COCKPIT</text>
<text x="601" y="633" font-size="7" fill="hsl(0, 0%, 82%)">LEADER WING</text>
<text x="470" y="679" font-size="7" fill="hsl(0, 0%, 83%)">planet</text>
<text x="123" y="894" font-size="7" fill="hsl(0, 0%, 93%)">close</text>
<text x="907" y="565" font-size="7" fill="hsl(0, 0%, 63%)">group</text>
<text x="440" y="508" font-size="7" transform="rotate(-90, 440, 508) translate(-21, 0)" fill="hsl(0, 0%, 86%)">let</text>
<text x="667" y="568" font-size="7" fill="hsl(0, 0%, 72%)">attack</text>
<text x="929" y="475" font-size="7" transform="rotate(-90, 929, 475) translate(-42, 0)" fill="hsl(0, 0%, 68%)">Chewie</text>
<text x="982" y="342" font-size="7" transform="rotate(-90, 982, 342) translate(-91, 0)" fill="hsl(0, 0%, 87%)">Princess Leia</text>
<text x="995" y="652" font-size="7" fill="hsl(0, 0%, 62%)">MOS EISLEY</text>
<text x="252" y="255" font-size="5" fill="hsl(0, 0%, 90%)">targeting device</text>
<text x="998" y="637" font-size="5" fill="hsl(0, 0%, 71%)">short</text>
<text x="445" y="541" font-size="5" fill="hsl(0, 0%, 93%)">much</text>
<text x="522" y="413" font-size="5" fill="hsl(0, 0%, 79%)">watches</text>
<text x="780" y="206" font-size="5" fill="hsl(0, 0%, 69%)">work</text>
<text x="554" y="904" font-size="5" transform="rotate(-90, 554, 904) translate(-20, 0)" fill="hsl(0, 0%, 60%)">help</text>
<text x="223" y="240" font-size="5" transform="rotate(-90, 223, 240) translate(-15, 0)" fill="hsl(0, 0%, 88%)">put</text>
<text x="422" y="811" font-size="5" fill="hsl(0, 0%, 84%)">Oh</text>
<text x="412" y="800" font-size="5" fill="hsl(0, 0%, 82%)">father</text>
<text x="290" y="724" font-size="5" fill="hsl(0, 0%, 78%)">position</text>
<text x="462" y="383" font-size="5" fill="hsl(0, 0%, 61%)">point</text>
<text x="733" y="422" font-size="5" fill="hsl(0, 0%, 60%)">docking bay</text>
<text x="185" y="496" font-size="5" fill="hsl(0, 0%, 65%)">OUTPOST WAR</text>
<text x="565" y="571" font-size="5" fill="hsl(0, 0%, 61%)">weapon</text>
<text x="616" y="850" font-size="5" fill="hsl(0, 0%, 65%)">along</text>
<text x="456" y="877" font-size="5" fill="hsl(0, 0%, 60%)">hear</text>
<text x="336" y="483" font-size="5" fill="hsl(0, 0%, 60%)">shut</text>
<text x="368" y="489" font-size="5" fill="hsl(0, 0%, 92%)">heard</text>
<text x="830" y="393" font-size="5" fill="hsl(0, 0%, 86%)">last</text>
<text x="476" y="893" font-size="5" fill="hsl(0, 0%, 85%)">even</text>
<text x="201" y="505" font-size="5" fill="hsl(0, 0%, 85%)">guard</text>
<text x="711" y="248" font-size="5" fill="hsl(0, 0%, 62%)">laserbolt</text>
<text x="679" y="280" font-size="5" fill="hsl(0, 0%, 73%)">appear</text>
<text x="562" y="89" font-size="5" fill="hsl(0, 0%, 60%)">Artoo Detoo</text>
<text x="418" y="583" font-size="5" fill="hsl(0, 0%, 65%)">far</text>
<text x="778" y="660" font-size="5" fill="hsl(0, 0%, 91%)">Empire</text>
<text x="384" y="767" font-size="5" fill="hsl(0, 0%, 86%)">enough</text>
<text x="463" y="694" font-size="5" fill="hsl(0, 0%, 79%)">explosion</text>
<text x="813" y="602" font-size="5" fill="hsl(0, 0%, 69%)">floor</text>
<text x="695" y="288" font-size="5" fill="hsl(0, 0%, 70%)">follow</text>
<text x="239" y="676" font-size="5" fill="hsl(0, 0%, 70%)">four</text>
<text x="218" y="818" font-size="5" fill="hsl(0, 0%, 92%)">kid</text>
<text x="454" y="843" font-size="5" fill="hsl(0, 0%, 82%)">Sandpeople</text>
<text x="902" y="238" font-size="5" fill="hsl(0, 0%, 87%)">open</text>
<text x="475" y="557" font-size="5" fill="hsl(0, 0%, 60%)">Jabba</text>
<text x="108" y="862" font-size="5" fill="hsl(0, 0%, 69%)">screen</text>
<text x="698" y="904" font-size="5" fill="hsl(0, 0%, 63%)">plan</text>
<text x="767" y="219" font-size="5" fill="hsl(0, 0%, 75%)">explode</text>
<text x="766" y="275" font-size="5" fill="hsl(0, 0%, 83%)">Dodonna</text>
<text x="854" y="746" font-size="5" fill="hsl(0, 0%, 98%)">zoom</text>
<text x="993" y="691" font-size="5" fill="hsl(0, 0%, 93%)">INTERCOM VOICE</text>
<text x="265" y="544" font-size="5" fill="hsl(0, 0%, 82%)">COCKPIT Gold</text>
<text x="909" y="677" font-size="5" fill="hsl(0, 0%, 85%)">firing</text>
<text x="844" y="182" font-size="5" fill="hsl(0, 0%, 94%)">streak</text>
<text x="555" y="724" font-size="5" fill="hsl(0, 0%, 77%)">electronic</text>
<text x="489" y="205" font-size="5" fill="hsl(0, 0%, 66%)">boy</text>
<text x="212" y="614" font-size="5" fill="hsl(0, 0%, 91%)">next</text>
<text x="719" y="545" font-size="5" fill="hsl(0, 0%, 81%)">minute</text>
<text x="1069" y="694" font-size="5" fill="hsl(0, 0%, 60%)">goes</text>
<text x="654" y="551" font-size="5" fill="hsl(0, 0%, 91%)">Commander</text>
<text x="919" y="321" font-size="5" fill="hsl(0, 0%, 88%)">laser</text>
<text x="390" y="155" font-size="5" fill="hsl(0, 0%, 85%)">man</text>
<text x="500" y="894" font-size="5" fill="hsl(0, 0%, 76%)">almost</text>
<text x="374" y="751" font-size="5" fill="hsl(0, 0%, 67%)">tell</text>
<text x="621" y="917" font-size="5" fill="hsl(0, 0%, 75%)">area</text>
<text x="444" y="317" font-size="5" fill="hsl(0, 0%, 81%)">watch</text>
<text x="469" y="393" font-size="5" fill="hsl(0, 0%, 73%)">formation</text>
<text x="776" y="812" font-size="5" fill="hsl(0, 0%, 63%)">little Artoo</text>
<text x="655" y="650" font-size="5" fill="hsl(0, 0%, 78%)">slowly</text>
<text x="107" y="749" font-size="5" fill="hsl(0, 0%, 98%)">first</text>
<text x="348" y="564" font-size="5" fill="hsl(0, 0%, 66%)">station</text>
<text x="857" y="781" font-size="5" fill="hsl(0, 0%, 64%)">tiny</text>
<text x="184" y="897" font-size="5" fill="hsl(0, 0%, 87%)">giant</text>
<text x="195" y="522" font-size="5" transform="rotate(-90, 195, 522) translate(-30, 0)" fill="hsl(0, 0%, 79%)">better</text>
<text x="457" y="549" font-size="5" fill="hsl(0, 0%, 86%)">DAY</text>
<text x="749" y="387" font-size="5" fill="hsl(0, 0%, 75%)">speak</text>
<text x="464" y="613" font-size="5" fill="hsl(0, 0%, 91%)">dead</text>
<text x="110" y="781" font-size="5" fill="hsl(0, 0%, 60%)">thought</text>
<text x="805" y="669" font-size="5" fill="hsl(0, 0%, 62%)">big</text>
<text x="851" y="190" font-size="5" fill="hsl(0, 0%, 65%)">second</text>
<text x="996" y="536" font-size="5" fill="hsl(0, 0%, 75%)">really</text>
<text x="743" y="362" font-size="5" fill="hsl(0, 0%, 70%)">three</text>
<text x="403" y="433" font-size="5" fill="hsl(0, 0%, 79%)">Sandcrawler</text>
<text x="583" y="697" font-size="5" fill="hsl(0, 0%, 60%)">beep</text>
<text x="615" y="861" font-size="5" fill="hsl(0, 0%, 73%)">Stay</text>
<text x="170" y="917" font-size="5" fill="hsl(0, 0%, 85%)">arm</text>
<text x="175" y="815" font-size="5" fill="hsl(0, 0%, 96%)">Wookiee</text>
<text x="199" y="281" font-size="5" fill="hsl(0, 0%, 69%)">moon</text>
<text x="713" y="432" font-size="5" fill="hsl(0, 0%, 69%)">battle station</text>
<text x="557" y="733" font-size="5" fill="hsl(0, 0%, 80%)">LUKE Well</text>
<text x="332" y="612" font-size="5" transform="rotate(-90, 332, 612) translate(-60, 0)" fill="hsl(0, 0%, 91%)">looks around</text>
<text x="910" y="392" font-size="5" transform="rotate(-90, 910, 392) translate(-65, 0)" fill="hsl(0, 0%, 77%)">beeping sound</text>
<text x="947" y="327" font-size="5" transform="rotate(-90, 947, 327) translate(-60, 0)" fill="hsl(0, 0%, 83%)">laser cannon</text>
<text x="301" y="148" font-size="5" fill="hsl(0, 0%, 89%)">outside</text>
<text x="630" y="281" font-size="5" fill="hsl(0, 0%, 81%)">corridor</text>
<text x="1072" y="703" font-size="5" fill="hsl(0, 0%, 91%)">feet</text>
<text x="907" y="760" font-size="5" fill="hsl(0, 0%, 91%)">place</text>
<text x="261" y="859" font-size="5" transform="rotate(-90, 261, 859) translate(-50, 0)" fill="hsl(0, 0%, 82%)">subhallway</text>
<text x="781" y="682" font-size="5" transform="rotate(-90, 781, 682) translate(-30, 0)" fill="hsl(0, 0%, 74%)">rushes</text>
<text x="1027" y="742" font-size="5" fill="hsl(0, 0%, 86%)">found</text>
<text x="446" y="168" font-size="5" fill="hsl(0, 0%, 73%)">great</text>
<text x="286" y="337" font-size="5" fill="hsl(0, 0%, 85%)">Rebellion</text>
<text x="195" y="568" font-size="5" transform="rotate(-90, 195, 568) translate(-15, 0)" fill="hsl(0, 0%, 75%)">cut</text>
<text x="342" y="562" font-size="5" transform="rotate(-90, 342, 562) translate(-20, 0)" fill="hsl(0, 0%, 97%)">spot</text>
<text x="683" y="518" font-size="5" fill="hsl(0, 0%, 91%)">jump</text>
<text x="472" y="852" font-size="5" fill="hsl(0, 0%, 92%)">Listen</text>
<text x="333" y="375" font-size="5" transform="rotate(-90, 333, 375) translate(-30, 0)" fill="hsl(0, 0%, 63%)">trying</text>
<text x="802" y="822" font-size="5" fill="hsl(0, 0%, 76%)">never</text>
<text x="903" y="285" font-size="5" fill="hsl(0, 0%, 87%)">need</text>
<text x="369" y="498" font-size="5" fill="hsl(0, 0%, 90%)">Okay</text>
<text x="96" y="757" font-size="5" fill="hsl(0, 0%, 64%)">reaches</text>
<text x="657" y="343" font-size="5" fill="hsl(0, 0%, 97%)">year</text>
<text x="412" y="136" font-size="5" fill="hsl(0, 0%, 78%)">still</text>
<text x="305" y="439" font-size="5" fill="hsl(0, 0%, 79%)">try</text>
<text x="901" y="309" font-size="5" fill="hsl(0, 0%, 66%)">speaker</text>
<text x="282" y="226" font-size="4" fill="hsl(0, 0%, 74%)">THREEPIO Artoo</text>
<text x="754" y="167" font-size="4" fill="hsl(0, 0%, 65%)">laser pistol</text>
<text x="848" y="631" font-size="4" fill="hsl(0, 0%, 66%)">Artoo beeps</text>
<text x="91" y="850" font-size="4" fill="hsl(0, 0%, 66%)">Wan Kenobi</text>
<text x="640" y="599" font-size="4" fill="hsl(0, 0%, 87%)">Imperial TIE</text>
<text x="760" y="836" font-size="4" fill="hsl(0, 0%, 83%)">FALCON GUNPORT</text>
<text x="691" y="653" font-size="4" fill="hsl(0, 0%, 67%)">BIGGS' COCKPIT</text>
<text x="583" y="337" font-size="4" fill="hsl(0, 0%, 72%)">STAR Three</text>
<text x="839" y="412" font-size="4" fill="hsl(0, 0%, 93%)">main</text>
<text x="746" y="204" font-size="4" fill="hsl(0, 0%, 85%)">battle</text>
<text x="396" y="158" font-size="4" transform="rotate(-90, 396, 158) translate(-32, 0)" fill="hsl(0, 0%, 70%)">TATOOINE</text>
<text x="653" y="881" font-size="4" fill="hsl(0, 0%, 91%)">battered</text>
<text x="225" y="406" font-size="4" fill="hsl(0, 0%, 90%)">aim</text>
<text x="604" y="427" font-size="4" transform="rotate(-90, 604, 427) translate(-24, 0)" fill="hsl(0, 0%, 98%)">moving</text>
<text x="492" y="480" font-size="4" fill="hsl(0, 0%, 72%)">Hey</text>
<text x="763" y="584" font-size="4" fill="hsl(0, 0%, 86%)">ROOM</text>
<text x="375" y="685" font-size="4" fill="hsl(0, 0%, 94%)">lot</text>
<text x="265" y="897" font-size="4" fill="hsl(0, 0%, 63%)">keep</text>
<text x="791" y="241" font-size="4" fill="hsl(0, 0%, 73%)">anything</text>
<text x="327" y="683" font-size="4" fill="hsl(0, 0%, 96%)">leave</text>
<text x="818" y="713" font-size="4" fill="hsl(0, 0%, 66%)">canyon</text>
<text x="824" y="800" font-size="4" fill="hsl(0, 0%, 85%)">quite</text>
<text x="1029" y="606" font-size="4" fill="hsl(0, 0%, 80%)">speed</text>
<text x="481" y="881" font-size="4" fill="hsl(0, 0%, 84%)">table</text>
<text x="391" y="342" font-size="4" fill="hsl(0, 0%, 99%)">disappear</text>
<text x="955" y="739" font-size="4" fill="hsl(0, 0%, 97%)">use</text>
<text x="94" y="766" font-size="4" fill="hsl(0, 0%, 99%)">Five</text>
<text x="319" y="413" font-size="4" fill="hsl(0, 0%, 78%)">board</text>
<text x="171" y="565" font-size="4" transform="rotate(-90, 171, 565) translate(-24, 0)" fill="hsl(0, 0%, 78%)">target</text>
<text x="829" y="553" font-size="4" fill="hsl(0, 0%, 97%)">grab</text>
<text x="200" y="542" font-size="4" fill="hsl(0, 0%, 90%)">R2 unit</text>
<text x="232" y="741" font-size="4" fill="hsl(0, 0%, 95%)">Aunt Beru</text>
<text x="1041" y="659" font-size="4" fill="hsl(0, 0%, 69%)">Ben Kenobi</text>
<text x="631" y="140" font-size="4" fill="hsl(0, 0%, 89%)">toward Death</text>
<text x="283" y="326" font-size="4" fill="hsl(0, 0%, 68%)">TIE ship</text>
<text x="910" y="573" font-size="4" fill="hsl(0, 0%, 76%)">STAR MAIN</text>
<text x="761" y="299" font-size="4" fill="hsl(0, 0%, 83%)">FORWARD BAY</text>
</svg>
