<svg width="1190" height="1028" xmlns="http://www.w3.org/2000/svg">
    <defs><style type="text/css">
    @import url("https://fonts.googleapis.com/css?family=Press+Start+2P");
    text {font-family: 'Press Start 2p', cursive;
    font-variant-ligatures:none}
    </style></defs>
<rect width="100%" height="100%" fill="black"/>
<text x="348" y="251" font-size="100" fill="rgb(254, 254, 254)">Luke</text>
<text x="468" y="535" font-size="71" fill="rgb(183, 183, 183)">Han</text>
<text x="139" y="723" font-size="64" fill="rgb(220, 220, 220)">DEATH STAR</text>
<text x="399" y="796" font-size="57" fill="rgb(157, 157, 157)">THREEPIO</text>
<text x="695" y="651" font-size="51" fill="rgb(255, 255, 255)">Ben</text>
<text x="848" y="613" font-size="44" fill="rgb(139, 139, 139)">ship</text>
<text x="278" y="471" font-size="43" fill="rgb(244, 244, 244)">Leia</text>
<text x="892" y="391" font-size="41" transform="rotate(-90, 892, 391) translate(-123, 0)" fill="rgb(140, 140, 140)">one</text>
<text x="421" y="132" font-size="40" fill="rgb(222, 222, 222)">look</text>
<text x="210" y="652" font-size="32" fill="rgb(220, 220, 220)">RED LEADER</text>
<text x="82" y="810" font-size="31" fill="rgb(129, 129, 129)">Artoo</text>
<text x="856" y="559" font-size="30" fill="rgb(240, 240, 240)">back</text>
<text x="641" y="842" font-size="29" fill="rgb(144, 144, 144)">move</text>
<text x="512" y="567" font-size="28" fill="rgb(175, 175, 175)">going</text>
<text x="663" y="275" font-size="27" fill="rgb(181, 181, 181)">two</text>
<text x="464" y="454" font-size="27" fill="rgb(168, 168, 168)">Biggs</text>
<text x="236" y="420" font-size="26" fill="rgb(202, 202, 202)">TIE fighter</text>
<text x="958" y="685" font-size="26" fill="rgb(192, 192, 192)">Vader</text>
<text x="830" y="154" font-size="26" transform="rotate(-90, 830, 154) translate(-78, 0)" fill="rgb(194, 194, 194)">see</text>
<text x="454" y="812" font-size="18" fill="rgb(129, 129, 129)">MILLENNIUM FALCON</text>
<text x="339" y="388" font-size="18" fill="rgb(146, 146, 146)">toward</text>
<text x="142" y="762" font-size="18" fill="rgb(191, 191, 191)">right</text>
<text x="972" y="311" font-size="18" transform="rotate(-90, 972, 311) translate(-162, 0)" fill="rgb(225, 225, 225)">Luke WING</text>
<text x="697" y="872" font-size="18" fill="rgb(204, 204, 204)">come</text>
<text x="226" y="246" font-size="18" fill="rgb(248, 248, 248)">trooper</text>
<text x="596" y="908" font-size="18" fill="rgb(210, 210, 210)">robot</text>
<text x="243" y="588" font-size="18" fill="rgb(184, 184, 184)">small</text>
<text x="645" y="133" font-size="18" fill="rgb(170, 170, 170)">SPACE</text>
<text x="882" y="752" font-size="18" fill="rgb(155, 155, 155)">now</text>
<text x="244" y="610" font-size="18" fill="rgb(168, 168, 168)">WING FIGHTER</text>
<text x="755" y="412" font-size="18" fill="rgb(169, 169, 169)">take</text>
<text x="658" y="593" font-size="18" fill="rgb(175, 175, 175)">begin</text>
<text x="903" y="723" font-size="18" fill="rgb(148, 148, 148)">make</text>
<text x="279" y="167" font-size="17" fill="rgb(178, 178, 178)">away</text>
<text x="708" y="455" font-size="17" fill="rgb(187, 187, 187)">fire</text>
<text x="443" y="153" font-size="17" fill="rgb(156, 156, 156)">will</text>
<text x="776" y="383" font-size="17" fill="rgb(184, 184, 184)">turn</text>
<text x="587" y="623" font-size="17" fill="rgb(152, 152, 152)">stand</text>
<text x="598" y="159" font-size="17" fill="rgb(222, 222, 222)">stormtrooper</text>
<text x="337" y="344" font-size="17" fill="rgb(210, 210, 210)">way</text>
<text x="336" y="141" font-size="17" fill="rgb(238, 238, 238)">side</text>
<text x="550" y="476" font-size="17" fill="rgb(203, 203, 203)">COCKPIT Luke</text>
<text x="731" y="484" font-size="17" transform="rotate(-90, 731, 484) translate(-51, 0)" fill="rgb(165, 165, 165)">sir</text>
<text x="982" y="714" font-size="17" fill="rgb(164, 164, 164)">think</text>
<text x="440" y="835" font-size="17" fill="rgb(211, 211, 211)">head</text>
<text x="481" y="258" font-size="16" fill="rgb(146, 146, 146)">DARTH VADER</text>
<text x="280" y="363" font-size="15" fill="rgb(180, 180, 180)">GOLD LEADER</text>
<text x="427" y="141" font-size="15" transform="rotate(-90, 427, 141) translate(-60, 0)" fill="rgb(189, 189, 189)">huge</text>
<text x="198" y="915" font-size="15" fill="rgb(131, 131, 131)">got</text>
<text x="727" y="562" font-size="15" fill="rgb(235, 235, 235)">us</text>
<text x="729" y="238" font-size="15" fill="rgb(182, 182, 182)">time</text>
<text x="228" y="220" font-size="15" fill="rgb(153, 153, 153)">computer</text>
<text x="534" y="589" font-size="15" fill="rgb(210, 210, 210)">several</text>
<text x="197" y="471" font-size="15" fill="rgb(245, 245, 245)">Rebel</text>
<text x="917" y="467" font-size="15" transform="rotate(-90, 917, 467) translate(-60, 0)" fill="rgb(175, 175, 175)">know</text>
<text x="141" y="735" font-size="15" fill="rgb(138, 138, 138)">Chewbacca</text>
<text x="614" y="733" font-size="13" fill="rgb(229, 229, 229)">SURFACE DEATH</text>
<text x="449" y="868" font-size="13" fill="rgb(228, 228, 228)">long</text>
<text x="260" y="184" font-size="13" fill="rgb(198, 198, 198)">OFFICER</text>
<text x="365" y="482" font-size="13" fill="rgb(145, 145, 145)">across</text>
<text x="273" y="385" font-size="13" fill="rgb(146, 146, 146)">OWEN</text>
<text x="422" y="733" font-size="13" fill="rgb(191, 191, 191)">pirateship</text>
<text x="534" y="652" font-size="13" fill="rgb(138, 138, 138)">something</text>
<text x="871" y="765" font-size="13" fill="rgb(144, 144, 144)">go</text>
<text x="588" y="108" font-size="13" fill="rgb(146, 146, 146)">control</text>
<text x="651" y="853" font-size="10" fill="rgb(154, 154, 154)">FIGHTER COCKPIT</text>
<text x="731" y="292" font-size="10" fill="rgb(239, 239, 239)">behind</text>
<text x="495" y="913" font-size="10" fill="rgb(201, 201, 201)">hit</text>
<text x="955" y="514" font-size="10" fill="rgb(220, 220, 220)">light</text>
<text x="353" y="256" font-size="10" fill="rgb(163, 163, 163)">WING COCKPIT</text>
<text x="253" y="562" font-size="10" fill="rgb(247, 247, 247)">Imperial</text>
<text x="254" y="751" font-size="10" transform="rotate(-90, 254, 751) translate(-60, 0)" fill="rgb(244, 244, 244)">around</text>
<text x="877" y="694" font-size="10" fill="rgb(204, 204, 204)">Suddenly</text>
<text x="696" y="886" font-size="10" fill="rgb(134, 134, 134)">troops</text>
<text x="757" y="600" font-size="10" fill="rgb(134, 134, 134)">eye</text>
<text x="398" y="504" font-size="10" fill="rgb(205, 205, 205)">start</text>
<text x="352" y="584" font-size="10" fill="rgb(160, 160, 160)">TARKIN</text>
<text x="563" y="272" font-size="10" fill="rgb(172, 172, 172)">Luke look</text>
<text x="837" y="733" font-size="10" fill="rgb(202, 202, 202)">hand</text>
<text x="205" y="270" font-size="10" fill="rgb(145, 145, 145)">another</text>
<text x="930" y="400" font-size="10" transform="rotate(-90, 930, 400) translate(-70, 0)" fill="rgb(188, 188, 188)">hallway</text>
<text x="476" y="168" font-size="10" fill="rgb(202, 202, 202)">little</text>
<text x="219" y="434" font-size="10" fill="rgb(187, 187, 187)">VOICE</text>
<text x="640" y="870" font-size="10" fill="rgb(233, 233, 233)">face</text>
<text x="463" y="481" font-size="10" transform="rotate(-90, 463, 481) translate(-50, 0)" fill="rgb(168, 168, 168)">blast</text>
<text x="461" y="667" font-size="10" fill="rgb(179, 179, 179)">large</text>
<text x="908" y="300" font-size="10" fill="rgb(210, 210, 210)">wall</text>
<text x="253" y="817" font-size="10" transform="rotate(-90, 253, 817) translate(-80, 0)" fill="rgb(137, 137, 137)">creature</text>
<text x="152" y="654" font-size="10" fill="rgb(228, 228, 228)">give</text>
<text x="150" y="907" font-size="10" fill="rgb(185, 185, 185)">run</text>
<text x="197" y="484" font-size="10" fill="rgb(191, 191, 191)">pilot</text>
<text x="195" y="519" font-size="10" fill="rgb(242, 242, 242)">race</text>
<text x="796" y="592" font-size="10" fill="rgb(139, 139, 139)">seem</text>
<text x="324" y="324" font-size="10" fill="rgb(245, 245, 245)">Force</text>
<text x="836" y="245" font-size="10" fill="rgb(237, 237, 237)">trench</text>
<text x="751" y="575" font-size="10" fill="rgb(159, 159, 159)">SPACE AROUND</text>
<text x="590" y="541" font-size="10" fill="rgb(148, 148, 148)">AROUND DEATH</text>
<text x="981" y="568" font-size="10" fill="rgb(220, 220, 220)">door</text>
<text x="455" y="713" font-size="10" fill="rgb(246, 246, 246)">system</text>
<text x="888" y="260" font-size="10" fill="rgb(215, 215, 215)">stop</text>
<text x="759" y="829" font-size="10" fill="rgb(250, 250, 250)">Well</text>
<text x="1012" y="626" font-size="10" fill="rgb(217, 217, 217)">Jawa</text>
<text x="95" y="825" font-size="10" fill="rgb(174, 174, 174)">looking</text>
<text x="94" y="843" font-size="10" fill="rgb(157, 157, 157)">Solo</text>
<text x="853" y="622" font-size="10" fill="rgb(200, 200, 200)">Star surface</text>
<text x="841" y="223" font-size="10" fill="rgb(143, 143, 143)">surface</text>
<text x="765" y="260" font-size="10" fill="rgb(218, 218, 218)">past</text>
<text x="611" y="452" font-size="10" fill="rgb(175, 175, 175)">laserfire</text>
<text x="993" y="730" font-size="10" fill="rgb(136, 136, 136)">Alderaan</text>
<text x="570" y="921" font-size="10" fill="rgb(217, 217, 217)">pull</text>
<text x="244" y="200" font-size="10" fill="rgb(129, 129, 129)">COCKPIT Red</text>
<text x="765" y="804" font-size="10" fill="rgb(241, 241, 241)">power</text>
<text x="203" y="533" font-size="10" fill="rgb(228, 228, 228)">old</text>
<text x="378" y="322" font-size="10" fill="rgb(205, 205, 205)">must</text>
<text x="350" y="735" font-size="10" fill="rgb(134, 134, 134)">WEDGE</text>
<text x="586" y="170" font-size="9" fill="rgb(225, 225, 225)">MASSASSI OUTPOST</text>
<text x="865" y="386" font-size="9" fill="rgb(150, 150, 150)">Princess</text>
<text x="604" y="883" font-size="9" fill="rgb(132, 132, 132)">sound</text>
<text x="1035" y="641" font-size="9" fill="rgb(224, 224, 224)">hold</text>
<text x="118" y="771" font-size="9" fill="rgb(214, 214, 214)">say</text>
<text x="489" y="539" font-size="9" fill="rgb(249, 249, 249)">WAR ROOM</text>
<text x="366" y="116" font-size="9" fill="rgb(157, 157, 157)">RED TEN</text>
<text x="849" y="205" font-size="9" fill="rgb(157, 157, 157)">want</text>
<text x="851" y="714" font-size="9" fill="rgb(255, 255, 255)">good</text>
<text x="302" y="430" font-size="9" fill="rgb(134, 134, 134)">droid</text>
<text x="731" y="182" font-size="9" fill="rgb(206, 206, 206)">continue</text>
<text x="989" y="551" font-size="9" fill="rgb(222, 222, 222)">dive</text>
<text x="533" y="140" font-size="9" fill="rgb(229, 229, 229)">GOLD FIVE</text>
<text x="105" y="880" font-size="9" fill="rgb(157, 157, 157)">sure</text>
<text x="395" y="216" font-size="9" fill="rgb(162, 162, 162)">front</text>
<text x="529" y="428" font-size="9" fill="rgb(198, 198, 198)">friend</text>
<text x="597" y="832" font-size="9" fill="rgb(227, 227, 227)">wait</text>
<text x="996" y="386" font-size="9" transform="rotate(-90, 996, 386) translate(-36, 0)" fill="rgb(224, 224, 224)">find</text>
<text x="198" y="450" font-size="9" fill="rgb(216, 216, 216)">standing</text>
<text x="567" y="600" font-size="9" fill="rgb(157, 157, 157)">speeder</text>
<text x="174" y="638" font-size="9" fill="rgb(206, 206, 206)">gun</text>
<text x="452" y="96" font-size="9" fill="rgb(186, 186, 186)">comlink</text>
<text x="945" y="396" font-size="9" transform="rotate(-90, 945, 396) translate(-117, 0)" fill="rgb(202, 202, 202)">VADER COCKPIT</text>
<text x="900" y="397" font-size="9" transform="rotate(-90, 900, 397) translate(-117, 0)" fill="rgb(165, 165, 165)">COCKPIT Vader</text>
<text x="964" y="527" font-size="9" fill="rgb(149, 149, 149)">starship</text>
<text x="683" y="496" font-size="9" fill="rgb(199, 199, 199)">sit</text>
<text x="743" y="196" font-size="9" fill="rgb(203, 203, 203)">moment</text>
<text x="593" y="120" font-size="9" fill="rgb(237, 237, 237)">enter</text>
<text x="743" y="138" font-size="9" fill="rgb(207, 207, 207)">thing</text>
<text x="897" y="277" font-size="9" fill="rgb(213, 213, 213)">coming</text>
<text x="176" y="779" font-size="9" fill="rgb(229, 229, 229)">Obi Wan</text>
<text x="880" y="733" font-size="7" fill="rgb(201, 201, 201)">FALCON COCKPIT</text>
<text x="186" y="526" font-size="7" transform="rotate(-90, 186, 526) translate(-98, 0)" fill="rgb(218, 218, 218)">LEADER COCKPIT</text>
<text x="601" y="633" font-size="7" fill="rgb(245, 245, 245)">LEADER WING</text>
<text x="470" y="679" font-size="7" fill="rgb(253, 253, 253)">planet</text>
<text x="123" y="894" font-size="7" fill="rgb(170, 170, 170)">close</text>
<text x="907" y="565" font-size="7" fill="rgb(149, 149, 149)">group</text>
<text x="440" y="508" font-size="7" transform="rotate(-90, 440, 508) translate(-21, 0)" fill="rgb(174, 174, 174)">let</text>
<text x="667" y="568" font-size="7" fill="rgb(140, 140, 140)">attack</text>
<text x="929" y="475" font-size="7" transform="rotate(-90, 929, 475) translate(-42, 0)" fill="rgb(200, 200, 200)">Chewie</text>
<text x="982" y="342" font-size="7" transform="rotate(-90, 982, 342) translate(-91, 0)" fill="rgb(170, 170, 170)">Princess Leia</text>
<text x="995" y="652" font-size="7" fill="rgb(191, 191, 191)">MOS EISLEY</text>
<text x="252" y="255" font-size="5" fill="rgb(160, 160, 160)">targeting device</text>
<text x="998" y="637" font-size="5" fill="rgb(173, 173, 173)">short</text>
<text x="445" y="541" font-size="5" fill="rgb(174, 174, 174)">much</text>
<text x="522" y="413" font-size="5" fill="rgb(231, 231, 231)">watches</text>
<text x="780" y="206" font-size="5" fill="rgb(203, 203, 203)">work</text>
<text x="554" y="904" font-size="5" transform="rotate(-90, 554, 904) translate(-20, 0)" fill="rgb(243, 243, 243)">help</text>
<text x="223" y="240" font-size="5" transform="rotate(-90, 223, 240) translate(-15, 0)" fill="rgb(132, 132, 132)">put</text>
<text x="422" y="811" font-size="5" fill="rgb(166, 166, 166)">Oh</text>
<text x="412" y="800" font-size="5" fill="rgb(236, 236, 236)">father</text>
<text x="290" y="724" font-size="5" fill="rgb(249, 249, 249)">position</text>
<text x="462" y="383" font-size="5" fill="rgb(241, 241, 241)">point</text>
<text x="733" y="422" font-size="5" fill="rgb(131, 131, 131)">docking bay</text>
<text x="185" y="496" font-size="5" fill="rgb(244, 244, 244)">OUTPOST WAR</text>
<text x="565" y="571" font-size="5" fill="rgb(170, 170, 170)">weapon</text>
<text x="616" y="850" font-size="5" fill="rgb(171, 171, 171)">along</text>
<text x="456" y="877" font-size="5" fill="rgb(244, 244, 244)">hear</text>
<text x="336" y="483" font-size="5" fill="rgb(244, 244, 244)">shut</text>
<text x="368" y="489" font-size="5" fill="rgb(241, 241, 241)">heard</text>
<text x="830" y="393" font-size="5" fill="rgb(178, 178, 178)">last</text>
<text x="476" y="893" font-size="5" fill="rgb(243, 243, 243)">even</text>
<text x="201" y="505" font-size="5" fill="rgb(144, 144, 144)">guard</text>
<text x="711" y="248" font-size="5" fill="rgb(145, 145, 145)">laserbolt</text>
<text x="679" y="280" font-size="5" fill="rgb(164, 164, 164)">appear</text>
<text x="562" y="89" font-size="5" fill="rgb(235, 235, 235)">Artoo Detoo</text>
<text x="418" y="583" font-size="5" fill="rgb(166, 166, 166)">far</text>
<text x="778" y="660" font-size="5" fill="rgb(250, 250, 250)">Empire</text>
<text x="384" y="767" font-size="5" fill="rgb(166, 166, 166)">enough</text>
<text x="463" y="694" font-size="5" fill="rgb(148, 148, 148)">explosion</text>
<text x="813" y="602" font-size="5" fill="rgb(149, 149, 149)">floor</text>
<text x="695" y="288" font-size="5" fill="rgb(156, 156, 156)">follow</text>
<text x="239" y="676" font-size="5" fill="rgb(220, 220, 220)">four</text>
<text x="218" y="818" font-size="5" fill="rgb(142, 142, 142)">kid</text>
<text x="454" y="843" font-size="5" fill="rgb(218, 218, 218)">Sandpeople</text>
<text x="902" y="238" font-size="5" fill="rgb(235, 235, 235)">open</text>
<text x="475" y="557" font-size="5" fill="rgb(152, 152, 152)">Jabba</text>
<text x="108" y="862" font-size="5" fill="rgb(147, 147, 147)">screen</text>
<text x="698" y="904" font-size="5" fill="rgb(197, 197, 197)">plan</text>
<text x="767" y="219" font-size="5" fill="rgb(242, 242, 242)">explode</text>
<text x="766" y="275" font-size="5" fill="rgb(183, 183, 183)">Dodonna</text>
<text x="854" y="746" font-size="5" fill="rgb(179, 179, 179)">zoom</text>
<text x="993" y="691" font-size="5" fill="rgb(215, 215, 215)">INTERCOM VOICE</text>
<text x="265" y="544" font-size="5" fill="rgb(128, 128, 128)">COCKPIT Gold</text>
<text x="909" y="677" font-size="5" fill="rgb(197, 197, 197)">firing</text>
<text x="844" y="182" font-size="5" fill="rgb(192, 192, 192)">streak</text>
<text x="555" y="724" font-size="5" fill="rgb(193, 193, 193)">electronic</text>
<text x="489" y="205" font-size="5" fill="rgb(244, 244, 244)">boy</text>
<text x="212" y="614" font-size="5" fill="rgb(133, 133, 133)">next</text>
<text x="719" y="545" font-size="5" fill="rgb(179, 179, 179)">minute</text>
<text x="1069" y="694" font-size="5" fill="rgb(155, 155, 155)">goes</text>
<text x="654" y="551" font-size="5" fill="rgb(236, 236, 236)">Commander</text>
<text x="919" y="321" font-size="5" fill="rgb(186, 186, 186)">laser</text>
<text x="390" y="155" font-size="5" fill="rgb(192, 192, 192)">man</text>
<text x="500" y="894" font-size="5" fill="rgb(255, 255, 255)">almost</text>
<text x="374" y="751" font-size="5" fill="rgb(253, 253, 253)">tell</text>
<text x="621" y="917" font-size="5" fill="rgb(156, 156, 156)">area</text>
<text x="444" y="317" font-size="5" fill="rgb(178, 178, 178)">watch</text>
<text x="469" y="393" font-size="5" fill="rgb(252, 252, 252)">formation</text>
<text x="776" y="812" font-size="5" fill="rgb(151, 151, 151)">little Artoo</text>
<text x="655" y="650" font-size="5" fill="rgb(237, 237, 237)">slowly</text>
<text x="107" y="749" font-size="5" fill="rgb(240, 240, 240)">first</text>
<text x="348" y="564" font-size="5" fill="rgb(214, 214, 214)">station</text>
<text x="857" y="781" font-size="5" fill="rgb(236, 236, 236)">tiny</text>
<text x="184" y="897" font-size="5" fill="rgb(173, 173, 173)">giant</text>
<text x="195" y="522" font-size="5" transform="rotate(-90, 195, 522) translate(-30, 0)" fill="rgb(198, 198, 198)">better</text>
<text x="457" y="549" font-size="5" fill="rgb(213, 213, 213)">DAY</text>
<text x="749" y="387" font-size="5" fill="rgb(249, 249, 249)">speak</text>
<text x="464" y="613" font-size="5" fill="rgb(168, 168, 168)">dead</text>
<text x="110" y="781" font-size="5" fill="rgb(204, 204, 204)">thought</text>
<text x="805" y="669" font-size="5" fill="rgb(128, 128, 128)">big</text>
<text x="851" y="190" font-size="5" fill="rgb(230, 230, 230)">second</text>
<text x="996" y="536" font-size="5" fill="rgb(199, 199, 199)">really</text>
<text x="743" y="362" font-size="5" fill="rgb(220, 220, 220)">three</text>
<text x="403" y="433" font-size="5" fill="rgb(178, 178, 178)">Sandcrawler</text>
<text x="583" y="697" font-size="5" fill="rgb(136, 136, 136)">beep</text>
<text x="615" y="861" font-size="5" fill="rgb(232, 232, 232)">Stay</text>
<text x="170" y="917" font-size="5" fill="rgb(227, 227, 227)">arm</text>
<text x="175" y="815" font-size="5" fill="rgb(214, 214, 214)">Wookiee</text>
<text x="199" y="281" font-size="5" fill="rgb(200, 200, 200)">moon</text>
<text x="713" y="432" font-size="5" fill="rgb(195, 195, 195)">battle station</text>
<text x="557" y="733" font-size="5" fill="rgb(204, 204, 204)">LUKE Well</text>
<text x="332" y="612" font-size="5" transform="rotate(-90, 332, 612) translate(-60, 0)" fill="rgb(173, 173, 173)">looks around</text>
<text x="910" y="392" font-size="5" transform="rotate(-90, 910, 392) translate(-65, 0)" fill="rgb(242, 242, 242)">beeping sound</text>
<text x="947" y="327" font-size="5" transform="rotate(-90, 947, 327) translate(-60, 0)" fill="rgb(164, 164, 164)">laser cannon</text>
<text x="301" y="148" font-size="5" fill="rgb(170, 170, 170)">outside</text>
<text x="630" y="281" font-size="5" fill="rgb(253, 253, 253)">corridor</text>
<text x="1072" y="703" font-size="5" fill="rgb(158, 158, 158)">feet</text>
<text x="907" y="760" font-size="5" fill="rgb(143, 143, 143)">place</text>
<text x="261" y="859" font-size="5" transform="rotate(-90, 261, 859) translate(-50, 0)" fill="rgb(201, 201, 201)">subhallway</text>
<text x="781" y="682" font-size="5" transform="rotate(-90, 781, 682) translate(-30, 0)" fill="rgb(133, 133, 133)">rushes</text>
<text x="1027" y="742" font-size="5" fill="rgb(252, 252, 252)">found</text>
<text x="446" y="168" font-size="5" fill="rgb(189, 189, 189)">great</text>
<text x="286" y="337" font-size="5" fill="rgb(145, 145, 145)">Rebellion</text>
<text x="195" y="568" font-size="5" transform="rotate(-90, 195, 568) translate(-15, 0)" fill="rgb(231, 231, 231)">cut</text>
<text x="342" y="562" font-size="5" transform="rotate(-90, 342, 562) translate(-20, 0)" fill="rgb(144, 144, 144)">spot</text>
<text x="683" y="518" font-size="5" fill="rgb(254, 254, 254)">jump</text>
<text x="472" y="852" font-size="5" fill="rgb(241, 241, 241)">Listen</text>
<text x="333" y="375" font-size="5" transform="rotate(-90, 333, 375) translate(-30, 0)" fill="rgb(131, 131, 131)">trying</text>
<text x="802" y="822" font-size="5" fill="rgb(230, 230, 230)">never</text>
<text x="903" y="285" font-size="5" fill="rgb(153, 153, 153)">need</text>
<text x="369" y="498" font-size="5" fill="rgb(199, 199, 199)">Okay</text>
<text x="96" y="757" font-size="5" fill="rgb(222, 222, 222)">reaches</text>
<text x="657" y="343" font-size="5" fill="rgb(187, 187, 187)">year</text>
<text x="412" y="136" font-size="5" fill="rgb(166, 166, 166)">still</text>
<text x="305" y="439" font-size="5" fill="rgb(173, 173, 173)">try</text>
<text x="901" y="309" font-size="5" fill="rgb(248, 248, 248)">speaker</text>
<text x="282" y="226" font-size="4" fill="rgb(251, 251, 251)">THREEPIO Artoo</text>
<text x="754" y="167" font-size="4" fill="rgb(162, 162, 162)">laser pistol</text>
<text x="848" y="631" font-size="4" fill="rgb(253, 253, 253)">Artoo beeps</text>
<text x="91" y="850" font-size="4" fill="rgb(212, 212, 212)">Wan Kenobi</text>
<text x="640" y="599" font-size="4" fill="rgb(146, 146, 146)">Imperial TIE</text>
<text x="760" y="836" font-size="4" fill="rgb(155, 155, 155)">FALCON GUNPORT</text>
<text x="691" y="653" font-size="4" fill="rgb(133, 133, 133)">BIGGS' COCKPIT</text>
<text x="583" y="337" font-size="4" fill="rgb(171, 171, 171)">STAR Three</text>
<text x="839" y="412" font-size="4" fill="rgb(203, 203, 203)">main</text>
<text x="746" y="204" font-size="4" fill="rgb(222, 222, 222)">battle</text>
<text x="396" y="158" font-size="4" transform="rotate(-90, 396, 158) translate(-32, 0)" fill="rgb(220, 220, 220)">TATOOINE</text>
<text x="653" y="881" font-size="4" fill="rgb(157, 157, 157)">battered</text>
<text x="225" y="406" font-size="4" fill="rgb(253, 253, 253)">aim</text>
<text x="604" y="427" font-size="4" transform="rotate(-90, 604, 427) translate(-24, 0)" fill="rgb(189, 189, 189)">moving</text>
<text x="492" y="480" font-size="4" fill="rgb(178, 178, 178)">Hey</text>
<text x="763" y="584" font-size="4" fill="rgb(155, 155, 155)">ROOM</text>
<text x="375" y="685" font-size="4" fill="rgb(253, 253, 253)">lot</text>
<text x="265" y="897" font-size="4" fill="rgb(210, 210, 210)">keep</text>
<text x="791" y="241" font-size="4" fill="rgb(162, 162, 162)">anything</text>
<text x="327" y="683" font-size="4" fill="rgb(244, 244, 244)">leave</text>
<text x="818" y="713" font-size="4" fill="rgb(252, 252, 252)">canyon</text>
<text x="824" y="800" font-size="4" fill="rgb(135, 135, 135)">quite</text>
<text x="1029" y="606" font-size="4" fill="rgb(230, 230, 230)">speed</text>
<text x="481" y="881" font-size="4" fill="rgb(200, 200, 200)">table</text>
<text x="391" y="342" font-size="4" fill="rgb(198, 198, 198)">disappear</text>
<text x="955" y="739" font-size="4" fill="rgb(136, 136, 136)">use</text>
<text x="94" y="766" font-size="4" fill="rgb(200, 200, 200)">Five</text>
<text x="319" y="413" font-size="4" fill="rgb(218, 218, 218)">board</text>
<text x="171" y="565" font-size="4" transform="rotate(-90, 171, 565) translate(-24, 0)" fill="rgb(130, 130, 130)">target</text>
<text x="829" y="553" font-size="4" fill="rgb(235, 235, 235)">grab</text>
<text x="200" y="542" font-size="4" fill="rgb(241, 241, 241)">R2 unit</text>
<text x="232" y="741" font-size="4" fill="rgb(176, 176, 176)">Aunt Beru</text>
<text x="1041" y="659" font-size="4" fill="rgb(221, 221, 221)">Ben Kenobi</text>
<text x="631" y="140" font-size="4" fill="rgb(234, 234, 234)">toward Death</text>
<text x="283" y="326" font-size="4" fill="rgb(234, 234, 234)">TIE ship</text>
<text x="910" y="573" font-size="4" fill="rgb(167, 167, 167)">STAR MAIN</text>
<text x="761" y="299" font-size="4" fill="rgb(153, 153, 153)">FORWARD BAY</text>
</svg>
