<svg width="1190" height="1028" xmlns="http://www.w3.org/2000/svg">
    <defs><style type="text/css">
    @import url("https://fonts.googleapis.com/css?family=Special+Elite");
    text {font-family: 'Special Elite', cursive;
    font-variant-ligatures:none}
    </style></defs>
<rect width="100%" height="100%" fill="black"/>
<text x="321" y="249" font-size="150" fill="rgb(167, 167, 167)">Luke</text>
<text x="507" y="541" font-size="107" fill="rgb(161, 161, 161)">Han</text>
<text x="162" y="721" font-size="103" fill="rgb(130, 130, 130)">DEATH STAR</text>
<text x="409" y="804" font-size="90" fill="rgb(186, 186, 186)">THREEPIO</text>
<text x="263" y="458" font-size="80" fill="rgb(170, 170, 170)">Ben</text>
<text x="859" y="572" font-size="70" fill="rgb(245, 245, 245)">ship</text>
<text x="741" y="111" font-size="68" transform="rotate(-90, 741, 111) translate(-156, 0)" fill="rgb(247, 247, 247)">Leia</text>
<text x="632" y="843" font-size="65" fill="rgb(163, 163, 163)">one</text>
<text x="723" y="625" font-size="63" fill="rgb(209, 209, 209)">look</text>
<text x="381" y="138" font-size="54" fill="rgb(144, 144, 144)">RED LEADER</text>
<text x="318" y="636" font-size="53" fill="rgb(214, 214, 214)">Artoo</text>
<text x="571" y="600" font-size="52" fill="rgb(199, 199, 199)">back</text>
<text x="460" y="396" font-size="51" transform="rotate(-90, 460, 396) translate(-123, 0)" fill="rgb(252, 252, 252)">move</text>
<text x="935" y="705" font-size="49" fill="rgb(146, 146, 146)">going</text>
<text x="876" y="613" font-size="48" fill="rgb(203, 203, 203)">two</text>
<text x="787" y="135" font-size="48" transform="rotate(-90, 787, 135) translate(-137, 0)" fill="rgb(154, 154, 154)">Biggs</text>
<text x="750" y="403" font-size="41" fill="rgb(239, 239, 239)">TIE fighter</text>
<text x="126" y="804" font-size="40" fill="rgb(189, 189, 189)">Vader</text>
<text x="337" y="327" font-size="39" fill="rgb(254, 254, 254)">see</text>
<text x="481" y="460" font-size="29" fill="rgb(154, 154, 154)">MILLENNIUM FALCON</text>
<text x="292" y="535" font-size="29" transform="rotate(-90, 292, 535) translate(-103, 0)" fill="rgb(192, 192, 192)">toward</text>
<text x="676" y="872" font-size="29" fill="rgb(135, 135, 135)">right</text>
<text x="271" y="382" font-size="29" fill="rgb(250, 250, 250)">Luke WING</text>
<text x="636" y="892" font-size="29" fill="rgb(250, 250, 250)">come</text>
<text x="122" y="753" font-size="29" fill="rgb(157, 157, 157)">trooper</text>
<text x="253" y="198" font-size="28" fill="rgb(134, 134, 134)">robot</text>
<text x="880" y="513" font-size="28" fill="rgb(187, 187, 187)">small</text>
<text x="303" y="354" font-size="28" fill="rgb(233, 233, 233)">SPACE</text>
<text x="902" y="744" font-size="27" fill="rgb(224, 224, 224)">now</text>
<text x="845" y="434" font-size="24" fill="rgb(225, 225, 225)">WING FIGHTER</text>
<text x="92" y="838" font-size="24" fill="rgb(129, 129, 129)">take</text>
<text x="629" y="627" font-size="24" fill="rgb(238, 238, 238)">begin</text>
<text x="347" y="585" font-size="24" fill="rgb(140, 140, 140)">make</text>
<text x="862" y="701" font-size="23" fill="rgb(191, 191, 191)">away</text>
<text x="804" y="180" font-size="23" fill="rgb(206, 206, 206)">fire</text>
<text x="546" y="918" font-size="23" fill="rgb(240, 240, 240)">will</text>
<text x="213" y="254" font-size="23" fill="rgb(219, 219, 219)">turn</text>
<text x="897" y="306" font-size="23" fill="rgb(197, 197, 197)">stand</text>
<text x="540" y="159" font-size="21" fill="rgb(199, 199, 199)">stormtrooper</text>
<text x="991" y="612" font-size="21" fill="rgb(241, 241, 241)">way</text>
<text x="211" y="633" font-size="21" fill="rgb(171, 171, 171)">side</text>
<text x="702" y="577" font-size="21" fill="rgb(207, 207, 207)">COCKPIT Luke</text>
<text x="1010" y="733" font-size="21" fill="rgb(185, 185, 185)">sir</text>
<text x="622" y="852" font-size="21" transform="rotate(-90, 622, 852) translate(-62, 0)" fill="rgb(245, 245, 245)">think</text>
<text x="412" y="160" font-size="21" fill="rgb(223, 223, 223)">head</text>
<text x="600" y="482" font-size="21" fill="rgb(153, 153, 153)">DARTH VADER</text>
<text x="134" y="908" font-size="21" fill="rgb(224, 224, 224)">GOLD LEADER</text>
<text x="883" y="250" font-size="21" fill="rgb(214, 214, 214)">huge</text>
<text x="803" y="221" font-size="21" fill="rgb(137, 137, 137)">got</text>
<text x="981" y="525" font-size="21" fill="rgb(235, 235, 235)">us</text>
<text x="344" y="410" font-size="21" fill="rgb(151, 151, 151)">time</text>
<text x="211" y="456" font-size="21" transform="rotate(-90, 211, 456) translate(-97, 0)" fill="rgb(203, 203, 203)">computer</text>
<text x="860" y="465" font-size="21" fill="rgb(226, 226, 226)">several</text>
<text x="234" y="218" font-size="21" fill="rgb(198, 198, 198)">Rebel</text>
<text x="766" y="661" font-size="21" fill="rgb(144, 144, 144)">know</text>
<text x="467" y="432" font-size="21" fill="rgb(205, 205, 205)">Chewbacca</text>
<text x="951" y="663" font-size="17" fill="rgb(156, 156, 156)">SURFACE DEATH</text>
<text x="855" y="736" font-size="17" fill="rgb(175, 175, 175)">long</text>
<text x="199" y="272" font-size="17" fill="rgb(150, 150, 150)">OFFICER</text>
<text x="350" y="478" font-size="17" fill="rgb(166, 166, 166)">across</text>
<text x="759" y="837" font-size="17" fill="rgb(174, 174, 174)">OWEN</text>
<text x="580" y="268" font-size="17" fill="rgb(252, 252, 252)">pirateship</text>
<text x="425" y="825" font-size="17" fill="rgb(163, 163, 163)">something</text>
<text x="485" y="534" font-size="17" fill="rgb(167, 167, 167)">go</text>
<text x="467" y="407" font-size="17" fill="rgb(183, 183, 183)">control</text>
<text x="479" y="92" font-size="14" fill="rgb(199, 199, 199)">FIGHTER COCKPIT</text>
<text x="731" y="424" font-size="14" fill="rgb(205, 205, 205)">behind</text>
<text x="224" y="437" font-size="14" fill="rgb(232, 232, 232)">hit</text>
<text x="633" y="907" font-size="14" fill="rgb(179, 179, 179)">light</text>
<text x="873" y="483" font-size="14" fill="rgb(203, 203, 203)">WING COCKPIT</text>
<text x="849" y="762" font-size="14" fill="rgb(252, 252, 252)">Imperial</text>
<text x="828" y="199" font-size="14" fill="rgb(196, 196, 196)">around</text>
<text x="421" y="388" font-size="14" fill="rgb(219, 219, 219)">Suddenly</text>
<text x="931" y="330" font-size="14" fill="rgb(132, 132, 132)">troops</text>
<text x="700" y="504" font-size="14" fill="rgb(198, 198, 198)">eye</text>
<text x="490" y="635" font-size="14" fill="rgb(222, 222, 222)">start</text>
<text x="493" y="854" font-size="14" transform="rotate(-90, 493, 854) translate(-49, 0)" fill="rgb(207, 207, 207)">TARKIN</text>
<text x="227" y="234" font-size="14" fill="rgb(227, 227, 227)">Luke look</text>
<text x="504" y="564" font-size="14" fill="rgb(225, 225, 225)">hand</text>
<text x="717" y="286" font-size="14" fill="rgb(231, 231, 231)">another</text>
<text x="1001" y="638" font-size="14" fill="rgb(251, 251, 251)">hallway</text>
<text x="414" y="603" font-size="14" fill="rgb(243, 243, 243)">little</text>
<text x="83" y="808" font-size="14" fill="rgb(176, 176, 176)">VOICE</text>
<text x="232" y="608" font-size="14" fill="rgb(254, 254, 254)">face</text>
<text x="581" y="617" font-size="14" fill="rgb(248, 248, 248)">blast</text>
<text x="747" y="682" font-size="14" fill="rgb(209, 209, 209)">large</text>
<text x="730" y="549" font-size="14" fill="rgb(229, 229, 229)">wall</text>
<text x="781" y="643" font-size="14" fill="rgb(195, 195, 195)">creature</text>
<text x="607" y="563" font-size="14" fill="rgb(224, 224, 224)">give</text>
<text x="467" y="495" font-size="14" fill="rgb(135, 135, 135)">run</text>
<text x="891" y="279" font-size="14" fill="rgb(232, 232, 232)">pilot</text>
<text x="873" y="219" font-size="14" fill="rgb(152, 152, 152)">race</text>
<text x="310" y="584" font-size="14" fill="rgb(207, 207, 207)">seem</text>
<text x="307" y="561" font-size="14" fill="rgb(142, 142, 142)">Force</text>
<text x="819" y="241" font-size="14" fill="rgb(225, 225, 225)">trench</text>
<text x="425" y="394" font-size="14" transform="rotate(-90, 425, 394) translate(-98, 0)" fill="rgb(156, 156, 156)">SPACE AROUND</text>
<text x="186" y="523" font-size="14" transform="rotate(-90, 186, 523) translate(-101, 0)" fill="rgb(250, 250, 250)">AROUND DEATH</text>
<text x="254" y="831" font-size="14" transform="rotate(-90, 254, 831) translate(-32, 0)" fill="rgb(192, 192, 192)">door</text>
<text x="93" y="854" font-size="14" fill="rgb(206, 206, 206)">system</text>
<text x="952" y="364" font-size="14" fill="rgb(254, 254, 254)">stop</text>
<text x="228" y="467" font-size="14" fill="rgb(235, 235, 235)">Well</text>
<text x="886" y="721" font-size="14" fill="rgb(204, 204, 204)">Jawa</text>
<text x="441" y="843" font-size="14" fill="rgb(174, 174, 174)">looking</text>
<text x="502" y="917" font-size="14" fill="rgb(132, 132, 132)">Solo</text>
<text x="502" y="646" font-size="14" transform="rotate(-90, 502, 646) translate(-90, 0)" fill="rgb(201, 201, 201)">Star surface</text>
<text x="103" y="767" font-size="14" fill="rgb(167, 167, 167)">surface</text>
<text x="362" y="742" font-size="14" fill="rgb(227, 227, 227)">past</text>
<text x="157" y="642" font-size="14" transform="rotate(-90, 157, 642) translate(-70, 0)" fill="rgb(251, 251, 251)">laserfire</text>
<text x="684" y="641" font-size="14" fill="rgb(131, 131, 131)">Alderaan</text>
<text x="765" y="852" font-size="14" fill="rgb(139, 139, 139)">pull</text>
<text x="568" y="735" font-size="12" fill="rgb(222, 222, 222)">COCKPIT Red</text>
<text x="474" y="513" font-size="12" fill="rgb(195, 195, 195)">power</text>
<text x="968" y="722" font-size="12" fill="rgb(189, 189, 189)">old</text>
<text x="718" y="519" font-size="12" transform="rotate(-90, 718, 519) translate(-28, 0)" fill="rgb(196, 196, 196)">must</text>
<text x="255" y="736" font-size="12" transform="rotate(-90, 255, 736) translate(-38, 0)" fill="rgb(145, 145, 145)">WEDGE</text>
<text x="690" y="734" font-size="10" fill="rgb(255, 255, 255)">MASSASSI OUTPOST</text>
<text x="524" y="583" font-size="10" fill="rgb(234, 234, 234)">Princess</text>
<text x="362" y="189" font-size="10" fill="rgb(174, 174, 174)">sound</text>
<text x="846" y="715" font-size="10" fill="rgb(212, 212, 212)">hold</text>
<text x="1020" y="582" font-size="10" fill="rgb(220, 220, 220)">say</text>
<text x="776" y="819" font-size="10" fill="rgb(154, 154, 154)">WAR ROOM</text>
<text x="384" y="505" font-size="10" fill="rgb(163, 163, 163)">RED TEN</text>
<text x="218" y="497" font-size="10" fill="rgb(136, 136, 136)">want</text>
<text x="757" y="707" font-size="10" fill="rgb(140, 140, 140)">good</text>
<text x="591" y="817" font-size="10" fill="rgb(237, 237, 237)">droid</text>
<text x="852" y="445" font-size="10" fill="rgb(216, 216, 216)">continue</text>
<text x="650" y="555" font-size="10" fill="rgb(174, 174, 174)">dive</text>
<text x="278" y="170" font-size="10" fill="rgb(200, 200, 200)">GOLD FIVE</text>
<text x="681" y="276" font-size="10" fill="rgb(234, 234, 234)">sure</text>
<text x="226" y="410" font-size="10" fill="rgb(234, 234, 234)">front</text>
<text x="128" y="724" font-size="10" fill="rgb(131, 131, 131)">friend</text>
<text x="197" y="771" font-size="10" fill="rgb(163, 163, 163)">wait</text>
<text x="225" y="820" font-size="10" fill="rgb(154, 154, 154)">find</text>
<text x="273" y="248" font-size="10" fill="rgb(246, 246, 246)">standing</text>
<text x="800" y="267" font-size="10" transform="rotate(-90, 800, 267) translate(-38, 0)" fill="rgb(143, 143, 143)">speeder</text>
<text x="115" y="875" font-size="10" fill="rgb(131, 131, 131)">gun</text>
<text x="284" y="324" font-size="10" fill="rgb(204, 204, 204)">comlink</text>
<text x="244" y="395" font-size="10" fill="rgb(246, 246, 246)">VADER COCKPIT</text>
<text x="486" y="657" font-size="10" transform="rotate(-90, 486, 657) translate(-73, 0)" fill="rgb(241, 241, 241)">COCKPIT Vader</text>
<text x="595" y="638" font-size="10" fill="rgb(161, 161, 161)">starship</text>
<text x="383" y="168" font-size="10" fill="rgb(161, 161, 161)">sit</text>
<text x="335" y="133" font-size="10" fill="rgb(210, 210, 210)">moment</text>
<text x="599" y="833" font-size="10" fill="rgb(227, 227, 227)">enter</text>
<text x="450" y="535" font-size="10" fill="rgb(153, 153, 153)">thing</text>
<text x="423" y="365" font-size="10" fill="rgb(185, 185, 185)">coming</text>
<text x="389" y="347" font-size="10" fill="rgb(158, 158, 158)">Obi Wan</text>
<text x="756" y="137" font-size="10" transform="rotate(-90, 756, 137) translate(-80, 0)" fill="rgb(247, 247, 247)">FALCON COCKPIT</text>
<text x="502" y="146" font-size="10" transform="rotate(-90, 502, 146) translate(-80, 0)" fill="rgb(136, 136, 136)">LEADER COCKPIT</text>
<text x="688" y="172" font-size="10" transform="rotate(-90, 688, 172) translate(-62, 0)" fill="rgb(231, 231, 231)">LEADER WING</text>
<text x="443" y="855" font-size="10" fill="rgb(174, 174, 174)">planet</text>
<text x="473" y="479" font-size="10" fill="rgb(129, 129, 129)">close</text>
<text x="305" y="215" font-size="10" fill="rgb(152, 152, 152)">group</text>
<text x="508" y="898" font-size="10" fill="rgb(131, 131, 131)">let</text>
<text x="852" y="541" font-size="10" transform="rotate(-90, 852, 541) translate(-33, 0)" fill="rgb(158, 158, 158)">attack</text>
<text x="169" y="639" font-size="10" fill="rgb(207, 207, 207)">Chewie</text>
<text x="189" y="450" font-size="10" fill="rgb(212, 212, 212)">Princess Leia</text>
<text x="402" y="317" font-size="10" fill="rgb(194, 194, 194)">MOS EISLEY</text>
<text x="408" y="732" font-size="7" fill="rgb(181, 181, 181)">targeting device</text>
<text x="370" y="207" font-size="7" transform="rotate(-90, 370, 207) translate(-20, 0)" fill="rgb(199, 199, 199)">short</text>
<text x="716" y="897" font-size="7" fill="rgb(240, 240, 240)">much</text>
<text x="92" y="790" font-size="7" fill="rgb(251, 251, 251)">watches</text>
<text x="285" y="470" font-size="7" fill="rgb(220, 220, 220)">work</text>
<text x="992" y="404" font-size="7" fill="rgb(161, 161, 161)">help</text>
<text x="929" y="523" font-size="7" fill="rgb(174, 174, 174)">put</text>
<text x="1026" y="593" font-size="7" fill="rgb(165, 165, 165)">Oh</text>
<text x="632" y="860" font-size="7" fill="rgb(237, 237, 237)">father</text>
<text x="895" y="681" font-size="7" fill="rgb(220, 220, 220)">position</text>
<text x="247" y="561" font-size="7" fill="rgb(248, 248, 248)">point</text>
<text x="216" y="478" font-size="7" fill="rgb(160, 160, 160)">docking bay</text>
<text x="758" y="364" font-size="7" fill="rgb(168, 168, 168)">OUTPOST WAR</text>
<text x="232" y="881" font-size="7" fill="rgb(184, 184, 184)">weapon</text>
<text x="177" y="917" font-size="7" fill="rgb(166, 166, 166)">along</text>
<text x="1041" y="611" font-size="7" fill="rgb(253, 253, 253)">hear</text>
<text x="925" y="667" font-size="7" fill="rgb(223, 223, 223)">shut</text>
<text x="284" y="262" font-size="7" fill="rgb(232, 232, 232)">heard</text>
<text x="758" y="127" font-size="7" fill="rgb(134, 134, 134)">last</text>
<text x="728" y="532" font-size="7" fill="rgb(134, 134, 134)">even</text>
<text x="394" y="697" font-size="7" fill="rgb(228, 228, 228)">guard</text>
<text x="522" y="262" font-size="7" fill="rgb(185, 185, 185)">laserbolt</text>
<text x="353" y="115" font-size="7" fill="rgb(239, 239, 239)">appear</text>
<text x="229" y="590" font-size="7" fill="rgb(129, 129, 129)">Artoo Detoo</text>
<text x="521" y="325" font-size="7" fill="rgb(148, 148, 148)">far</text>
<text x="244" y="576" font-size="7" fill="rgb(180, 180, 180)">Empire</text>
<text x="846" y="783" font-size="7" fill="rgb(225, 225, 225)">enough</text>
<text x="137" y="817" font-size="7" fill="rgb(194, 194, 194)">explosion</text>
<text x="228" y="420" font-size="7" fill="rgb(223, 223, 223)">floor</text>
<text x="695" y="607" font-size="7" fill="rgb(180, 180, 180)">follow</text>
<text x="166" y="769" font-size="7" fill="rgb(145, 145, 145)">four</text>
<text x="359" y="598" font-size="7" fill="rgb(212, 212, 212)">kid</text>
<text x="545" y="554" font-size="7" fill="rgb(184, 184, 184)">Sandpeople</text>
<text x="809" y="828" font-size="7" fill="rgb(176, 176, 176)">open</text>
<text x="602" y="843" font-size="7" fill="rgb(207, 207, 207)">Jabba</text>
<text x="399" y="788" font-size="7" fill="rgb(215, 215, 215)">screen</text>
<text x="1051" y="726" font-size="7" fill="rgb(253, 253, 253)">plan</text>
<text x="801" y="232" font-size="7" transform="rotate(-90, 801, 232) translate(-29, 0)" fill="rgb(148, 148, 148)">explode</text>
<text x="1011" y="520" font-size="7" fill="rgb(193, 193, 193)">Dodonna</text>
<text x="469" y="156" font-size="7" fill="rgb(252, 252, 252)">zoom</text>
<text x="755" y="587" font-size="7" fill="rgb(217, 217, 217)">INTERCOM VOICE</text>
<text x="374" y="199" font-size="7" fill="rgb(141, 141, 141)">COCKPIT Gold</text>
<text x="849" y="641" font-size="7" fill="rgb(248, 248, 248)">firing</text>
<text x="647" y="732" font-size="7" fill="rgb(209, 209, 209)">streak</text>
<text x="948" y="672" font-size="7" fill="rgb(138, 138, 138)">electronic</text>
<text x="794" y="683" font-size="7" fill="rgb(167, 167, 167)">boy</text>
<text x="298" y="622" font-size="7" fill="rgb(196, 196, 196)">next</text>
<text x="1054" y="673" font-size="7" fill="rgb(170, 170, 170)">minute</text>
<text x="290" y="651" font-size="7" fill="rgb(165, 165, 165)">goes</text>
<text x="573" y="680" font-size="7" transform="rotate(-90, 573, 680) translate(-38, 0)" fill="rgb(206, 206, 206)">Commander</text>
<text x="342" y="695" font-size="7" fill="rgb(217, 217, 217)">laser</text>
<text x="583" y="217" font-size="7" fill="rgb(139, 139, 139)">man</text>
<text x="934" y="343" font-size="7" fill="rgb(202, 202, 202)">almost</text>
<text x="356" y="560" font-size="7" fill="rgb(173, 173, 173)">tell</text>
<text x="298" y="597" font-size="7" fill="rgb(176, 176, 176)">area</text>
<text x="694" y="157" font-size="7" fill="rgb(165, 165, 165)">watch</text>
<text x="603" y="92" font-size="7" fill="rgb(140, 140, 140)">formation</text>
<text x="355" y="488" font-size="7" fill="rgb(210, 210, 210)">little Artoo</text>
<text x="377" y="751" font-size="7" fill="rgb(252, 252, 252)">slowly</text>
<text x="1092" y="673" font-size="7" transform="rotate(-90, 1092, 673) translate(-19, 0)" fill="rgb(237, 237, 237)">first</text>
<text x="468" y="548" font-size="7" fill="rgb(204, 204, 204)">station</text>
<text x="344" y="704" font-size="7" fill="rgb(197, 197, 197)">tiny</text>
<text x="758" y="639" font-size="7" transform="rotate(-90, 758, 639) translate(-20, 0)" fill="rgb(211, 211, 211)">giant</text>
<text x="947" y="625" font-size="7" fill="rgb(132, 132, 132)">better</text>
<text x="200" y="562" font-size="7" transform="rotate(-90, 200, 562) translate(-12, 0)" fill="rgb(136, 136, 136)">DAY</text>
<text x="873" y="489" font-size="7" transform="rotate(-90, 873, 489) translate(-21, 0)" fill="rgb(175, 175, 175)">speak</text>
<text x="844" y="213" font-size="7" fill="rgb(211, 211, 211)">dead</text>
<text x="201" y="917" font-size="7" fill="rgb(188, 188, 188)">thought</text>
<text x="317" y="409" font-size="7" fill="rgb(236, 236, 236)">big</text>
<text x="399" y="777" font-size="7" fill="rgb(224, 224, 224)">second</text>
<text x="475" y="614" font-size="7" fill="rgb(152, 152, 152)">really</text>
<text x="590" y="431" font-size="7" fill="rgb(207, 207, 207)">three</text>
<text x="914" y="443" font-size="7" fill="rgb(232, 232, 232)">Sandcrawler</text>
<text x="456" y="866" font-size="7" fill="rgb(139, 139, 139)">beep</text>
<text x="874" y="774" font-size="7" fill="rgb(218, 218, 218)">Stay</text>
<text x="760" y="719" font-size="7" fill="rgb(229, 229, 229)">arm</text>
<text x="684" y="662" font-size="7" transform="rotate(-90, 684, 662) translate(-29, 0)" fill="rgb(182, 182, 182)">Wookiee</text>
<text x="578" y="334" font-size="7" fill="rgb(147, 147, 147)">moon</text>
<text x="189" y="460" font-size="7" transform="rotate(-90, 189, 460) translate(-56, 0)" fill="rgb(200, 200, 200)">battle station</text>
<text x="560" y="170" font-size="7" fill="rgb(232, 232, 232)">LUKE Well</text>
<text x="510" y="732" font-size="7" fill="rgb(231, 231, 231)">looks around</text>
<text x="512" y="168" font-size="7" transform="rotate(-90, 512, 168) translate(-52, 0)" fill="rgb(216, 216, 216)">beeping sound</text>
<text x="749" y="694" font-size="7" fill="rgb(220, 220, 220)">laser cannon</text>
<text x="729" y="885" font-size="7" fill="rgb(163, 163, 163)">outside</text>
<text x="782" y="754" font-size="7" transform="rotate(-90, 782, 754) translate(-32, 0)" fill="rgb(248, 248, 248)">corridor</text>
<text x="818" y="758" font-size="7" transform="rotate(-90, 818, 758) translate(-15, 0)" fill="rgb(182, 182, 182)">feet</text>
<text x="449" y="208" font-size="7" fill="rgb(132, 132, 132)">place</text>
<text x="699" y="186" font-size="7" transform="rotate(-90, 699, 186) translate(-42, 0)" fill="rgb(208, 208, 208)">subhallway</text>
<text x="291" y="333" font-size="7" transform="rotate(-90, 291, 333) translate(-24, 0)" fill="rgb(131, 131, 131)">rushes</text>
<text x="626" y="683" font-size="7" transform="rotate(-90, 626, 683) translate(-20, 0)" fill="rgb(212, 212, 212)">found</text>
<text x="1044" y="621" font-size="7" fill="rgb(168, 168, 168)">great</text>
<text x="875" y="228" font-size="7" fill="rgb(197, 197, 197)">Rebellion</text>
<text x="497" y="496" font-size="7" fill="rgb(179, 179, 179)">cut</text>
<text x="199" y="681" font-size="7" transform="rotate(-90, 199, 681) translate(-16, 0)" fill="rgb(162, 162, 162)">spot</text>
<text x="770" y="860" font-size="7" transform="rotate(-90, 770, 860) translate(-17, 0)" fill="rgb(205, 205, 205)">jump</text>
<text x="613" y="279" font-size="7" fill="rgb(211, 211, 211)">Listen</text>
<text x="981" y="597" font-size="7" transform="rotate(-90, 981, 597) translate(-24, 0)" fill="rgb(214, 214, 214)">trying</text>
<text x="107" y="890" font-size="7" fill="rgb(170, 170, 170)">never</text>
<text x="908" y="322" font-size="7" fill="rgb(160, 160, 160)">need</text>
<text x="823" y="733" font-size="7" fill="rgb(248, 248, 248)">Okay</text>
<text x="757" y="298" font-size="7" fill="rgb(199, 199, 199)">reaches</text>
<text x="946" y="455" font-size="7" fill="rgb(137, 137, 137)">year</text>
<text x="680" y="905" font-size="7" fill="rgb(247, 247, 247)">still</text>
<text x="944" y="281" font-size="7" fill="rgb(177, 177, 177)">try</text>
<text x="716" y="788" font-size="7" fill="rgb(180, 180, 180)">speaker</text>
<text x="407" y="389" font-size="7" transform="rotate(-90, 407, 389) translate(-54, 0)" fill="rgb(134, 134, 134)">THREEPIO Artoo</text>
<text x="418" y="207" font-size="7" transform="rotate(-90, 418, 207) translate(-46, 0)" fill="rgb(229, 229, 229)">laser pistol</text>
<text x="971" y="487" font-size="7" transform="rotate(-90, 971, 487) translate(-42, 0)" fill="rgb(200, 200, 200)">Artoo beeps</text>
<text x="531" y="641" font-size="7" fill="rgb(241, 241, 241)">Wan Kenobi</text>
<text x="139" y="663" font-size="7" transform="rotate(-90, 139, 663) translate(-46, 0)" fill="rgb(254, 254, 254)">Imperial TIE</text>
<text x="212" y="644" font-size="7" fill="rgb(134, 134, 134)">FALCON GUNPORT</text>
<text x="959" y="731" font-size="6" fill="rgb(146, 146, 146)">BIGGS' COCKPIT</text>
<text x="566" y="207" font-size="6" fill="rgb(146, 146, 146)">STAR Three</text>
<text x="682" y="554" font-size="6" fill="rgb(228, 228, 228)">main</text>
<text x="468" y="166" font-size="6" fill="rgb(152, 152, 152)">battle</text>
<text x="1020" y="743" font-size="6" fill="rgb(253, 253, 253)">TATOOINE</text>
<text x="915" y="755" font-size="6" fill="rgb(245, 245, 245)">battered</text>
<text x="794" y="142" font-size="6" fill="rgb(216, 216, 216)">aim</text>
<text x="389" y="685" font-size="6" fill="rgb(179, 179, 179)">moving</text>
<text x="942" y="374" font-size="6" fill="rgb(187, 187, 187)">Hey</text>
<text x="338" y="465" font-size="6" transform="rotate(-90, 338, 465) translate(-16, 0)" fill="rgb(172, 172, 172)">ROOM</text>
<text x="427" y="530" font-size="6" fill="rgb(219, 219, 219)">lot</text>
<text x="300" y="542" font-size="6" fill="rgb(222, 222, 222)">keep</text>
<text x="688" y="589" font-size="6" fill="rgb(147, 147, 147)">anything</text>
<text x="675" y="568" font-size="6" fill="rgb(143, 143, 143)">leave</text>
<text x="408" y="516" font-size="6" fill="rgb(239, 239, 239)">canyon</text>
<text x="725" y="520" font-size="6" fill="rgb(134, 134, 134)">quite</text>
<text x="551" y="595" font-size="6" fill="rgb(190, 190, 190)">speed</text>
<text x="621" y="773" font-size="6" fill="rgb(249, 249, 249)">table</text>
<text x="856" y="530" font-size="6" fill="rgb(144, 144, 144)">disappear</text>
<text x="699" y="105" font-size="6" fill="rgb(227, 227, 227)">use</text>
<text x="520" y="777" font-size="6" transform="rotate(-90, 520, 777) translate(-14, 0)" fill="rgb(207, 207, 207)">Five</text>
<text x="257" y="731" font-size="6" fill="rgb(187, 187, 187)">board</text>
<text x="298" y="609" font-size="6" fill="rgb(142, 142, 142)">target</text>
<text x="1021" y="532" font-size="6" fill="rgb(129, 129, 129)">grab</text>
<text x="305" y="571" font-size="6" fill="rgb(157, 157, 157)">R2 unit</text>
<text x="648" y="642" font-size="6" fill="rgb(139, 139, 139)">Aunt Beru</text>
<text x="701" y="491" font-size="6" fill="rgb(215, 215, 215)">Ben Kenobi</text>
<text x="630" y="871" font-size="6" fill="rgb(170, 170, 170)">toward Death</text>
<text x="801" y="155" font-size="6" fill="rgb(184, 184, 184)">TIE ship</text>
<text x="409" y="585" font-size="6" fill="rgb(136, 136, 136)">STAR MAIN</text>
<text x="797" y="413" font-size="6" fill="rgb(167, 167, 167)">FORWARD BAY</text>
<text x="181" y="730" font-size="4" fill="rgb(242, 242, 242)">Imperial stormtrooper</text>
<text x="530" y="926" font-size="4" fill="rgb(216, 216, 216)">Rebel fighter</text>
<text x="341" y="683" font-size="4" fill="rgb(135, 135, 135)">STAR TRENCH</text>
<text x="880" y="622" font-size="4" fill="rgb(179, 179, 179)">struggle</text>
<text x="487" y="121" font-size="4" fill="rgb(154, 154, 154)">smoke</text>
<text x="85" y="776" font-size="4" fill="rgb(139, 139, 139)">near</text>
<text x="381" y="767" font-size="4" fill="rgb(222, 222, 222)">horizon</text>
<text x="669" y="513" font-size="4" transform="rotate(-90, 669, 513) translate(-7, 0)" fill="rgb(210, 210, 210)">air</text>
<text x="95" y="872" font-size="4" fill="rgb(140, 140, 140)">smile</text>
<text x="843" y="772" font-size="4" fill="rgb(208, 208, 208)">sight</text>
<text x="490" y="320" font-size="4" fill="rgb(159, 159, 159)">distance</text>
<text x="528" y="699" font-size="4" fill="rgb(217, 217, 217)">direction</text>
<text x="373" y="390" font-size="4" fill="rgb(132, 132, 132)">approaching</text>
<text x="559" y="331" font-size="4" fill="rgb(170, 170, 170)">hatch</text>
<text x="920" y="580" font-size="4" fill="rgb(253, 253, 253)">narrow</text>
<text x="576" y="478" font-size="4" fill="rgb(143, 143, 143)">life</text>
<text x="716" y="666" font-size="4" fill="rgb(173, 173, 173)">bad</text>
<text x="444" y="172" font-size="4" fill="rgb(142, 142, 142)">uncle</text>
<text x="433" y="94" font-size="4" fill="rgb(205, 205, 205)">blaster</text>
<text x="837" y="802" font-size="4" fill="rgb(222, 222, 222)">seen</text>
<text x="1087" y="702" font-size="4" transform="rotate(-90, 1087, 702) translate(-9, 0)" fill="rgb(202, 202, 202)">line</text>
<text x="543" y="412" font-size="4" fill="rgb(163, 163, 163)">shoulder</text>
<text x="669" y="254" font-size="4" fill="rgb(225, 225, 225)">master</text>
<text x="884" y="260" font-size="4" fill="rgb(235, 235, 235)">become</text>
<text x="986" y="503" font-size="4" fill="rgb(154, 154, 154)">range</text>
<text x="336" y="664" font-size="4" fill="rgb(202, 202, 202)">cell</text>
<text x="855" y="584" font-size="4" fill="rgb(193, 193, 193)">port</text>
<text x="278" y="685" font-size="4" fill="rgb(183, 183, 183)">wingmen</text>
<text x="404" y="168" font-size="4" fill="rgb(176, 176, 176)">REBEL BLOCKADE</text>
<text x="901" y="620" font-size="4" fill="rgb(191, 191, 191)">BLOCKADE RUNNER</text>
<text x="386" y="355" font-size="4" fill="rgb(128, 128, 128)">shakes head</text>
<text x="448" y="772" font-size="4" fill="rgb(251, 251, 251)">old Ben</text>
<text x="996" y="715" font-size="4" fill="rgb(219, 219, 219)">Rebel base</text>
<text x="183" y="814" font-size="4" fill="rgb(230, 230, 230)">CONTROL ROOM</text>
<text x="842" y="744" font-size="4" fill="rgb(209, 209, 209)">COCKPIT TRAVELING</text>
<text x="194" y="278" font-size="4" fill="rgb(226, 226, 226)">new</text>
<text x="704" y="617" font-size="4" fill="rgb(166, 166, 166)">home</text>
<text x="807" y="840" font-size="4" fill="rgb(174, 174, 174)">half</text>
<text x="827" y="813" font-size="4" fill="rgb(252, 252, 252)">Hurry</text>
<text x="826" y="551" font-size="4" fill="rgb(148, 148, 148)">young</text>
<text x="261" y="368" font-size="4" transform="rotate(-90, 261, 368) translate(-8, 0)" fill="rgb(213, 213, 213)">end</text>
<text x="324" y="258" font-size="4" fill="rgb(242, 242, 242)">soldier</text>
<text x="534" y="900" font-size="4" fill="rgb(164, 164, 164)">getting</text>
<text x="105" y="776" font-size="4" fill="rgb(210, 210, 210)">course</text>
<text x="527" y="811" font-size="4" fill="rgb(234, 234, 234)">worry</text>
<text x="774" y="439" font-size="4" fill="rgb(236, 236, 236)">fight</text>
<text x="310" y="229" font-size="4" fill="rgb(176, 176, 176)">part</text>
<text x="802" y="193" font-size="4" fill="rgb(241, 241, 241)">approaches</text>
<text x="1020" y="566" font-size="4" fill="rgb(255, 255, 255)">sand</text>
<text x="220" y="524" font-size="4" fill="rgb(174, 174, 174)">whistle</text>
<text x="659" y="282" font-size="4" fill="rgb(206, 206, 206)">distant</text>
<text x="683" y="347" font-size="4" fill="rgb(234, 234, 234)">left</text>
<text x="936" y="261" font-size="4" fill="rgb(223, 223, 223)">might</text>
<text x="404" y="795" font-size="4" fill="rgb(213, 213, 213)">bit</text>
<text x="266" y="434" font-size="4" transform="rotate(-90, 266, 434) translate(-10, 0)" fill="rgb(202, 202, 202)">shoot</text>
<text x="821" y="716" font-size="4" fill="rgb(132, 132, 132)">followed</text>
<text x="746" y="358" font-size="4" fill="rgb(175, 175, 175)">Uh</text>
<text x="307" y="471" font-size="4" fill="rgb(204, 204, 204)">hangar</text>
<text x="848" y="793" font-size="4" fill="rgb(201, 201, 201)">able</text>
<text x="750" y="845" font-size="4" fill="rgb(157, 157, 157)">blow</text>
<text x="466" y="644" font-size="4" fill="rgb(203, 203, 203)">bartender</text>
<text x="445" y="192" font-size="4" fill="rgb(224, 224, 224)">fast</text>
<text x="954" y="316" font-size="4" fill="rgb(207, 207, 207)">check</text>
<text x="965" y="346" font-size="4" fill="rgb(193, 193, 193)">GREEDO</text>
<text x="590" y="555" font-size="4" fill="rgb(144, 144, 144)">green</text>
<text x="465" y="315" font-size="4" fill="rgb(245, 245, 245)">crew</text>
<text x="552" y="561" font-size="4" transform="rotate(-90, 552, 561) translate(-11, 0)" fill="rgb(219, 219, 219)">flame</text>
<text x="883" y="491" font-size="4" fill="rgb(136, 136, 136)">tower</text>
<text x="512" y="550" font-size="4" fill="rgb(207, 207, 207)">headset</text>
<text x="686" y="285" font-size="4" fill="rgb(207, 207, 207)">Uncle Owen</text>
<text x="826" y="652" font-size="4" fill="rgb(218, 218, 218)">HOLD AREA</text>
<text x="600" y="337" font-size="4" fill="rgb(222, 222, 222)">TATOOINE MOS</text>
<text x="864" y="168" font-size="4" transform="rotate(-90, 864, 168) translate(-18, 0)" fill="rgb(207, 207, 207)">Han Solo</text>
<text x="378" y="146" font-size="4" fill="rgb(166, 166, 166)">control panel</text>
<text x="809" y="366" font-size="4" fill="rgb(165, 165, 165)">Imperial fighter</text>
<text x="796" y="669" font-size="4" fill="rgb(217, 217, 217)">MAIN FORWARD</text>
<text x="710" y="269" font-size="4" fill="rgb(215, 215, 215)">three TIE</text>
<text x="782" y="860" font-size="4" fill="rgb(150, 150, 150)">galaxy</text>
<text x="292" y="149" font-size="4" fill="rgb(201, 201, 201)">aboard</text>
<text x="348" y="256" font-size="4" fill="rgb(222, 222, 222)">human</text>
<text x="630" y="914" font-size="4" fill="rgb(176, 176, 176)">rush</text>
<text x="502" y="575" font-size="4" fill="rgb(166, 166, 166)">filled</text>
<text x="361" y="177" font-size="4" fill="rgb(173, 173, 173)">morning</text>
<text x="534" y="519" font-size="4" fill="rgb(129, 129, 129)">seven</text>
<text x="542" y="170" font-size="4" transform="rotate(-90, 542, 170) translate(-9, 0)" fill="rgb(150, 150, 150)">Dark</text>
<text x="149" y="731" font-size="4" fill="rgb(225, 225, 225)">mission</text>
<text x="606" y="170" font-size="4" fill="rgb(213, 213, 213)">RED</text>
<text x="747" y="396" font-size="4" transform="rotate(-90, 747, 396) translate(-9, 0)" fill="rgb(226, 226, 226)">call</text>
<text x="500" y="261" font-size="4" fill="rgb(189, 189, 189)">talking</text>
<text x="455" y="786" font-size="4" fill="rgb(169, 169, 169)">rest</text>
<text x="712" y="432" font-size="4" fill="rgb(195, 195, 195)">background</text>
<text x="726" y="350" font-size="4" fill="rgb(211, 211, 211)">shot</text>
<text x="742" y="432" font-size="4" fill="rgb(172, 172, 172)">happened</text>
<text x="498" y="387" font-size="4" fill="rgb(139, 139, 139)">came</text>
<text x="402" y="728" font-size="4" transform="rotate(-90, 402, 728) translate(-7, 0)" fill="rgb(240, 240, 240)">low</text>
<text x="216" y="541" font-size="4" fill="rgb(181, 181, 181)">gets</text>
<text x="1018" y="437" font-size="4" fill="rgb(177, 177, 177)">may</text>
<text x="235" y="871" font-size="4" fill="rgb(143, 143, 143)">HOMESTEAD</text>
<text x="453" y="218" font-size="4" fill="rgb(196, 196, 196)">quickly</text>
<text x="500" y="883" font-size="4" transform="rotate(-90, 500, 883) translate(-12, 0)" fill="rgb(228, 228, 228)">garage</text>
<text x="563" y="262" font-size="4" fill="rgb(183, 183, 183)">Yeah</text>
<text x="1072" y="724" font-size="4" fill="rgb(134, 134, 134)">trouble</text>
<text x="291" y="663" font-size="4" fill="rgb(213, 213, 213)">tries</text>
<text x="207" y="430" font-size="4" fill="rgb(178, 178, 178)">gone</text>
<text x="242" y="802" font-size="4" fill="rgb(188, 188, 188)">yell</text>
<text x="938" y="271" font-size="4" transform="rotate(-90, 938, 271) translate(-13, 0)" fill="rgb(236, 236, 236)">closer</text>
<text x="375" y="219" font-size="4" fill="rgb(191, 191, 191)">step</text>
<text x="208" y="280" font-size="4" fill="rgb(148, 148, 148)">return</text>
<text x="844" y="221" font-size="4" fill="rgb(209, 209, 209)">lightsaber</text>
<text x="635" y="227" font-size="4" fill="rgb(154, 154, 154)">thousand</text>
<text x="692" y="672" font-size="4" transform="rotate(-90, 692, 672) translate(-17, 0)" fill="rgb(207, 207, 207)">together</text>
<text x="943" y="582" font-size="4" fill="rgb(178, 178, 178)">information</text>
<text x="224" y="515" font-size="4" fill="rgb(140, 140, 140)">readout</text>
<text x="214" y="610" font-size="4" fill="rgb(128, 128, 128)">ready</text>
<text x="407" y="329" font-size="4" fill="rgb(149, 149, 149)">burst</text>
<text x="683" y="770" font-size="4" fill="rgb(196, 196, 196)">enemy</text>
<text x="135" y="886" font-size="4" fill="rgb(216, 216, 216)">climb</text>
<text x="553" y="365" font-size="4" fill="rgb(253, 253, 253)">shadow</text>
<text x="705" y="241" font-size="4" fill="rgb(252, 252, 252)">adjust</text>
<text x="931" y="723" font-size="4" fill="rgb(180, 180, 180)">Dark Lord</text>
<text x="961" y="374" font-size="4" fill="rgb(191, 191, 191)">power station</text>
<text x="373" y="257" font-size="4" fill="rgb(212, 212, 212)">LARS HOMESTEAD</text>
<text x="739" y="469" font-size="4" fill="rgb(200, 200, 200)">old man</text>
<text x="115" y="864" font-size="4" fill="rgb(217, 217, 217)">Han Chewie</text>
<text x="901" y="262" font-size="4" fill="rgb(162, 162, 162)">Han Chewbacca</text>
<text x="948" y="410" font-size="4" fill="rgb(240, 240, 240)">SPACE TIE</text>
<text x="652" y="343" font-size="4" fill="rgb(130, 130, 130)">tractor beam</text>
<text x="1014" y="672" font-size="4" fill="rgb(178, 178, 178)">GARBAGE ROOM</text>
<text x="946" y="465" font-size="4" fill="rgb(205, 205, 205)">exhaust port</text>
<text x="581" y="757" font-size="4" transform="rotate(-90, 581, 757) translate(-26, 0)" fill="rgb(155, 155, 155)">COCKPIT Wedge</text>
<text x="750" y="816" font-size="4" fill="rgb(187, 187, 187)">ROOM Leia</text>
<text x="587" y="665" font-size="4" transform="rotate(-90, 587, 665) translate(-32, 0)" fill="rgb(179, 179, 179)">adjusts control</text>
<text x="81" y="815" font-size="4" fill="rgb(155, 155, 155)">control stick</text>
<text x="262" y="885" font-size="4" fill="rgb(168, 168, 168)">armored</text>
<text x="704" y="904" font-size="4" fill="rgb(254, 254, 254)">shaking</text>
<text x="861" y="517" font-size="4" fill="rgb(253, 253, 253)">scream</text>
<text x="323" y="547" font-size="4" fill="rgb(158, 158, 158)">creating</text>
<text x="472" y="630" font-size="4" fill="rgb(186, 186, 186)">desert</text>
<text x="631" y="517" font-size="4" fill="rgb(185, 185, 185)">white</text>
<text x="453" y="875" font-size="4" fill="rgb(131, 131, 131)">Landspeeder</text>
<text x="875" y="373" font-size="4" fill="rgb(182, 182, 182)">leaving</text>
<text x="226" y="766" font-size="4" fill="rgb(173, 173, 173)">quiet</text>
<text x="322" y="392" font-size="4" fill="rgb(173, 173, 173)">heading</text>
<text x="484" y="557" font-size="4" fill="rgb(232, 232, 232)">bring</text>
<text x="922" y="703" font-size="4" fill="rgb(173, 173, 173)">set</text>
<text x="438" y="673" font-size="4" fill="rgb(210, 210, 210)">told</text>
<text x="220" y="505" font-size="4" fill="rgb(128, 128, 128)">yelling</text>
<text x="375" y="626" font-size="4" transform="rotate(-90, 375, 626) translate(-9, 0)" fill="rgb(220, 220, 220)">easy</text>
<text x="1001" y="593" font-size="4" fill="rgb(145, 145, 145)">nothing</text>
<text x="728" y="506" font-size="4" fill="rgb(245, 245, 245)">made</text>
<text x="633" y="649" font-size="4" fill="rgb(183, 183, 183)">reply</text>
<text x="195" y="580" font-size="4" transform="rotate(-90, 195, 580) translate(-7, 0)" fill="rgb(195, 195, 195)">pay</text>
<text x="661" y="170" font-size="4" fill="rgb(213, 213, 213)">said</text>
<text x="398" y="173" font-size="4" transform="rotate(-90, 398, 173) translate(-9, 0)" fill="rgb(139, 139, 139)">best</text>
<text x="584" y="566" font-size="4" fill="rgb(227, 227, 227)">strange</text>
<text x="802" y="203" font-size="4" fill="rgb(132, 132, 132)">approach</text>
<text x="466" y="886" font-size="4" fill="rgb(148, 148, 148)">pop</text>
<text x="297" y="634" font-size="4" fill="rgb(165, 165, 165)">edge</text>
<text x="153" y="828" font-size="4" fill="rgb(154, 154, 154)">blue</text>
<text x="967" y="551" font-size="4" fill="rgb(154, 154, 154)">lost</text>
<text x="593" y="625" font-size="4" fill="rgb(180, 180, 180)">center</text>
<text x="391" y="512" font-size="4" fill="rgb(228, 228, 228)">mind</text>
<text x="865" y="249" font-size="4" fill="rgb(217, 217, 217)">bar</text>
<text x="886" y="204" font-size="4" fill="rgb(236, 236, 236)">massive</text>
<text x="727" y="802" font-size="4" fill="rgb(237, 237, 237)">view</text>
<text x="367" y="165" font-size="4" fill="rgb(198, 198, 198)">walk</text>
<text x="892" y="581" font-size="4" fill="rgb(135, 135, 135)">everything</text>
<text x="405" y="703" font-size="4" transform="rotate(-90, 405, 703) translate(-14, 0)" fill="rgb(177, 177, 177)">corner</text>
<text x="380" y="155" font-size="4" fill="rgb(143, 143, 143)">button</text>
<text x="472" y="671" font-size="4" transform="rotate(-90, 472, 671) translate(-27, 0)" fill="rgb(219, 219, 219)">transmission</text>
<text x="259" y="177" font-size="4" fill="rgb(200, 200, 200)">twenty</text>
<text x="475" y="145" font-size="4" fill="rgb(205, 205, 205)">round</text>
<text x="225" y="777" font-size="4" fill="rgb(143, 143, 143)">charge</text>
<text x="293" y="156" font-size="4" fill="rgb(222, 222, 222)">helmet</text>
<text x="466" y="452" font-size="4" fill="rgb(229, 229, 229)">copy</text>
<text x="186" y="287" font-size="4" fill="rgb(160, 160, 160)">cover</text>
<text x="951" y="634" font-size="4" fill="rgb(255, 255, 255)">peel</text>
<text x="704" y="554" font-size="4" fill="rgb(203, 203, 203)">Lord Vader</text>
<text x="230" y="670" font-size="4" transform="rotate(-90, 230, 670) translate(-29, 0)" fill="rgb(163, 163, 163)">TATOOINE ROCK</text>
<text x="978" y="533" font-size="4" fill="rgb(157, 157, 157)">EISLEY STREET</text>
<text x="573" y="491" font-size="4" transform="rotate(-90, 573, 491) translate(-30, 0)" fill="rgb(198, 198, 198)">cockpit window</text>
<text x="703" y="348" font-size="4" fill="rgb(216, 216, 216)">Two TIE</text>
<text x="753" y="755" font-size="4" transform="rotate(-90, 753, 755) translate(-30, 0)" fill="rgb(233, 233, 233)">LEADER headset</text>
<text x="1009" y="509" font-size="4" fill="rgb(209, 209, 209)">WEDGE COCKPIT</text>
<text x="103" y="749" font-size="4" fill="rgb(198, 198, 198)">hope</text>
<text x="518" y="762" font-size="4" fill="rgb(169, 169, 169)">base</text>
<text x="346" y="594" font-size="4" transform="rotate(-90, 346, 594) translate(-9, 0)" fill="rgb(253, 253, 253)">evil</text>
<text x="452" y="91" font-size="4" fill="rgb(205, 205, 205)">entire</text>
<text x="465" y="598" font-size="4" fill="rgb(221, 221, 221)">craft</text>
<text x="396" y="597" font-size="4" fill="rgb(244, 244, 244)">tall</text>
<text x="608" y="921" font-size="4" fill="rgb(186, 186, 186)">understand</text>
<text x="333" y="647" font-size="4" fill="rgb(227, 227, 227)">escape</text>
<text x="251" y="418" font-size="4" fill="rgb(179, 179, 179)">making</text>
<text x="344" y="732" font-size="4" fill="rgb(204, 204, 204)">heavy</text>
<text x="1040" y="598" font-size="4" fill="rgb(160, 160, 160)">hole</text>
<text x="411" y="93" font-size="4" fill="rgb(227, 227, 227)">holding</text>
<text x="536" y="491" font-size="4" fill="rgb(173, 173, 173)">barely</text>
<text x="897" y="770" font-size="4" fill="rgb(192, 192, 192)">lifepod</text>
<text x="261" y="741" font-size="4" fill="rgb(155, 155, 155)">flash</text>
<text x="876" y="634" font-size="4" fill="rgb(250, 250, 250)">captain</text>
<text x="1029" y="543" font-size="4" transform="rotate(-90, 1029, 543) translate(-10, 0)" fill="rgb(167, 167, 167)">loose</text>
<text x="1001" y="619" font-size="4" fill="rgb(203, 203, 203)">soon</text>
<text x="167" y="676" font-size="4" transform="rotate(-90, 167, 676) translate(-18, 0)" fill="rgb(247, 247, 247)">stumbles</text>
<text x="506" y="619" font-size="4" fill="rgb(208, 208, 208)">believe</text>
<text x="507" y="643" font-size="4" fill="rgb(176, 176, 176)">senator</text>
<text x="562" y="926" font-size="4" fill="rgb(152, 152, 152)">dangerous</text>
<text x="321" y="311" font-size="4" fill="rgb(191, 191, 191)">send</text>
<text x="713" y="109" font-size="4" fill="rgb(184, 184, 184)">signal</text>
<text x="877" y="705" font-size="4" transform="rotate(-90, 877, 705) translate(-13, 0)" fill="rgb(235, 235, 235)">season</text>
<text x="619" y="167" font-size="4" fill="rgb(239, 239, 239)">CENTRAL</text>
<text x="675" y="650" font-size="4" fill="rgb(132, 132, 132)">join</text>
<text x="572" y="814" font-size="4" fill="rgb(171, 171, 171)">always</text>
<text x="738" y="893" font-size="4" fill="rgb(251, 251, 251)">feel</text>
<text x="295" y="177" font-size="4" fill="rgb(227, 227, 227)">powerful</text>
<text x="493" y="98" font-size="4" transform="rotate(-90, 493, 98) translate(-9, 0)" fill="rgb(167, 167, 167)">glow</text>
<text x="787" y="734" font-size="4" fill="rgb(191, 191, 191)">eight</text>
<text x="812" y="784" font-size="4" fill="rgb(236, 236, 236)">size</text>
<text x="682" y="702" font-size="4" fill="rgb(138, 138, 138)">beam</text>
<text x="875" y="653" font-size="4" fill="rgb(214, 214, 214)">metal</text>
<text x="930" y="314" font-size="4" fill="rgb(236, 236, 236)">chamber</text>
<text x="703" y="624" font-size="4" fill="rgb(146, 146, 146)">pick</text>
<text x="252" y="426" font-size="4" fill="rgb(171, 171, 171)">slimy</text>
<text x="704" y="232" font-size="4" fill="rgb(216, 216, 216)">stick</text>
<text x="256" y="547" font-size="4" fill="rgb(128, 128, 128)">grey</text>
<text x="581" y="229" font-size="4" fill="rgb(211, 211, 211)">spaceship</text>
<text x="632" y="198" font-size="4" fill="rgb(148, 148, 148)">laughing</text>
<text x="1057" y="733" font-size="4" fill="rgb(218, 218, 218)">many</text>
<text x="574" y="642" font-size="4" fill="rgb(227, 227, 227)">afraid</text>
<text x="436" y="702" font-size="4" fill="rgb(233, 233, 233)">message</text>
<text x="160" y="777" font-size="4" fill="rgb(243, 243, 243)">bolt</text>
<text x="878" y="682" font-size="4" fill="rgb(210, 210, 210)">high</text>
<text x="461" y="541" font-size="4" transform="rotate(-90, 461, 541) translate(-9, 0)" fill="rgb(171, 171, 171)">deep</text>
<text x="722" y="184" font-size="4" fill="rgb(177, 177, 177)">lies</text>
<text x="491" y="468" font-size="4" fill="rgb(204, 204, 204)">Jedi</text>
<text x="169" y="574" font-size="4" transform="rotate(-90, 169, 574) translate(-21, 0)" fill="rgb(241, 241, 241)">nervously</text>
<text x="516" y="116" font-size="4" fill="rgb(237, 237, 237)">general</text>
<text x="936" y="554" font-size="4" fill="rgb(216, 216, 216)">precise</text>
<text x="832" y="161" font-size="4" fill="rgb(208, 208, 208)">fighter</text>
<text x="192" y="671" font-size="4" fill="rgb(148, 148, 148)">lock</text>
<text x="645" y="92" font-size="4" fill="rgb(219, 219, 219)">ramp</text>
<text x="864" y="608" font-size="4" fill="rgb(208, 208, 208)">lever</text>
<text x="316" y="137" font-size="4" transform="rotate(-90, 316, 137) translate(-16, 0)" fill="rgb(183, 183, 183)">number</text>
<text x="707" y="885" font-size="4" fill="rgb(176, 176, 176)">closing</text>
<text x="761" y="219" font-size="4" fill="rgb(160, 160, 160)">shaft</text>
<text x="790" y="408" font-size="4" transform="rotate(-90, 790, 408) translate(-13, 0)" fill="rgb(179, 179, 179)">bridge</text>
<text x="1033" y="713" font-size="4" fill="rgb(130, 130, 130)">swing</text>
<text x="538" y="325" font-size="4" fill="rgb(186, 186, 186)">manage</text>
<text x="271" y="606" font-size="4" transform="rotate(-90, 271, 606) translate(-17, 0)" fill="rgb(138, 138, 138)">GUNPORT</text>
<text x="486" y="786" font-size="4" fill="rgb(177, 177, 177)">Yavin</text>
<text x="955" y="741" font-size="4" fill="rgb(137, 137, 137)">temple</text>
<text x="728" y="593" font-size="4" transform="rotate(-90, 728, 593) translate(-20, 0)" fill="rgb(226, 226, 226)">maneuver</text>
<text x="446" y="226" font-size="4" fill="rgb(208, 208, 208)">flying</text>
<text x="309" y="262" font-size="4" fill="rgb(237, 237, 237)">Flak</text>
<text x="422" y="372" font-size="4" fill="rgb(233, 233, 233)">little robot</text>
<text x="634" y="665" font-size="4" transform="rotate(-90, 634, 665) translate(-28, 0)" fill="rgb(144, 144, 144)">makes beeping</text>
</svg>
