<svg width="1190" height="1028" xmlns="http://www.w3.org/2000/svg">
    <defs><style type="text/css">
    @import url("https://fonts.googleapis.com/css?family=Stalinist+One");
    text {font-family: 'Stalinist One', cursive;
    font-kerning:none;
    font-variant-ligatures:none}
    </style></defs>
<rect width="100%" height="100%" fill="black"/>
<text x="319" y="210" font-size="93" fill="hsl(0, 0%, 66%)">Luke</text>
<text x="472" y="753" font-size="66" fill="hsl(0, 0%, 83%)">Han</text>
<text x="148" y="680" font-size="59" fill="hsl(0, 0%, 96%)">DEATH STAR</text>
<text x="576" y="596" font-size="49" fill="hsl(0, 0%, 81%)">THREEPIO</text>
<text x="465" y="118" font-size="44" fill="hsl(0, 0%, 89%)">Ben</text>
<text x="360" y="470" font-size="38" fill="hsl(0, 0%, 68%)">ship</text>
<text x="531" y="494" font-size="37" fill="hsl(0, 0%, 83%)">Leia</text>
<text x="635" y="245" font-size="35" fill="hsl(0, 0%, 76%)">one</text>
<text x="782" y="154" font-size="34" transform="rotate(-90, 782, 154) translate(-126, 0)" fill="hsl(0, 0%, 85%)">look</text>
<text x="420" y="796" font-size="34" fill="hsl(0, 0%, 77%)">RED LEADER</text>
<text x="612" y="858" font-size="33" fill="hsl(0, 0%, 95%)">Artoo</text>
<text x="869" y="717" font-size="32" fill="hsl(0, 0%, 95%)">back</text>
<text x="526" y="533" font-size="31" fill="hsl(0, 0%, 85%)">move</text>
<text x="871" y="531" font-size="30" fill="hsl(0, 0%, 76%)">going</text>
<text x="309" y="603" font-size="29" fill="hsl(0, 0%, 95%)">two</text>
<text x="324" y="325" font-size="29" transform="rotate(-90, 324, 325) translate(-143, 0)" fill="hsl(0, 0%, 73%)">Biggs</text>
<text x="257" y="239" font-size="29" fill="hsl(0, 0%, 81%)">TIE fighter</text>
<text x="291" y="707" font-size="29" fill="hsl(0, 0%, 68%)">Vader</text>
<text x="398" y="310" font-size="29" transform="rotate(-90, 398, 310) translate(-95, 0)" fill="hsl(0, 0%, 67%)">see</text>
<text x="653" y="616" font-size="20" fill="hsl(0, 0%, 65%)">MILLENNIUM FALCON</text>
<text x="356" y="315" font-size="20" transform="rotate(-90, 356, 315) translate(-129, 0)" fill="hsl(0, 0%, 65%)">toward</text>
<text x="774" y="754" font-size="20" fill="hsl(0, 0%, 100%)">right</text>
<text x="746" y="390" font-size="20" fill="hsl(0, 0%, 67%)">Luke WING</text>
<text x="142" y="778" font-size="20" fill="hsl(0, 0%, 84%)">come</text>
<text x="118" y="743" font-size="20" transform="rotate(-90, 118, 743) translate(-143, 0)" fill="hsl(0, 0%, 61%)">trooper</text>
<text x="207" y="441" font-size="20" transform="rotate(-90, 207, 441) translate(-102, 0)" fill="hsl(0, 0%, 100%)">robot</text>
<text x="145" y="737" font-size="20" fill="hsl(0, 0%, 64%)">small</text>
<text x="369" y="428" font-size="20" fill="hsl(0, 0%, 68%)">SPACE</text>
<text x="702" y="813" font-size="20" fill="hsl(0, 0%, 71%)">now</text>
<text x="211" y="628" font-size="20" fill="hsl(0, 0%, 87%)">WING FIGHTER</text>
<text x="676" y="131" font-size="20" fill="hsl(0, 0%, 83%)">take</text>
<text x="418" y="513" font-size="20" fill="hsl(0, 0%, 75%)">begin</text>
<text x="515" y="254" font-size="20" fill="hsl(0, 0%, 90%)">make</text>
<text x="621" y="887" font-size="19" fill="hsl(0, 0%, 96%)">away</text>
<text x="184" y="699" font-size="19" fill="hsl(0, 0%, 98%)">fire</text>
<text x="607" y="701" font-size="19" fill="hsl(0, 0%, 86%)">will</text>
<text x="659" y="267" font-size="19" fill="hsl(0, 0%, 74%)">turn</text>
<text x="656" y="455" font-size="19" fill="hsl(0, 0%, 93%)">stand</text>
<text x="565" y="548" font-size="15" fill="hsl(0, 0%, 71%)">stormtrooper</text>
<text x="387" y="138" font-size="15" fill="hsl(0, 0%, 73%)">way</text>
<text x="625" y="814" font-size="15" fill="hsl(0, 0%, 73%)">side</text>
<text x="756" y="406" font-size="15" fill="hsl(0, 0%, 82%)">COCKPIT Luke</text>
<text x="506" y="427" font-size="15" fill="hsl(0, 0%, 68%)">sir</text>
<text x="518" y="133" font-size="15" fill="hsl(0, 0%, 73%)">think</text>
<text x="978" y="669" font-size="15" fill="hsl(0, 0%, 87%)">head</text>
<text x="962" y="313" font-size="15" transform="rotate(-90, 962, 313) translate(-183, 0)" fill="hsl(0, 0%, 66%)">DARTH VADER</text>
<text x="842" y="551" font-size="15" fill="hsl(0, 0%, 94%)">GOLD LEADER</text>
<text x="674" y="701" font-size="15" fill="hsl(0, 0%, 67%)">huge</text>
<text x="867" y="465" font-size="15" fill="hsl(0, 0%, 90%)">got</text>
<text x="929" y="678" font-size="15" fill="hsl(0, 0%, 61%)">us</text>
<text x="658" y="93" font-size="15" transform="rotate(-90, 658, 93) translate(-59, 0)" fill="hsl(0, 0%, 65%)">time</text>
<text x="500" y="910" font-size="15" fill="hsl(0, 0%, 92%)">computer</text>
<text x="712" y="829" font-size="15" fill="hsl(0, 0%, 65%)">several</text>
<text x="241" y="410" font-size="15" transform="rotate(-90, 241, 410) translate(-77, 0)" fill="hsl(0, 0%, 93%)">Rebel</text>
<text x="249" y="565" font-size="15" fill="hsl(0, 0%, 65%)">know</text>
<text x="799" y="139" font-size="15" transform="rotate(-90, 799, 139) translate(-153, 0)" fill="hsl(0, 0%, 95%)">Chewbacca</text>
<text x="239" y="720" font-size="13" fill="hsl(0, 0%, 91%)">SURFACE DEATH</text>
<text x="584" y="441" font-size="13" fill="hsl(0, 0%, 65%)">long</text>
<text x="425" y="402" font-size="13" fill="hsl(0, 0%, 77%)">OFFICER</text>
<text x="279" y="365" font-size="13" transform="rotate(-90, 279, 365) translate(-82, 0)" fill="hsl(0, 0%, 98%)">across</text>
<text x="866" y="493" font-size="13" fill="hsl(0, 0%, 63%)">OWEN</text>
<text x="247" y="788" font-size="13" transform="rotate(-90, 247, 788) translate(-119, 0)" fill="hsl(0, 0%, 65%)">pirateship</text>
<text x="127" y="754" font-size="13" fill="hsl(0, 0%, 76%)">something</text>
<text x="804" y="630" font-size="13" fill="hsl(0, 0%, 86%)">go</text>
<text x="848" y="421" font-size="13" fill="hsl(0, 0%, 88%)">control</text>
<text x="599" y="628" font-size="12" fill="hsl(0, 0%, 95%)">FIGHTER COCKPIT</text>
<text x="373" y="746" font-size="12" fill="hsl(0, 0%, 61%)">behind</text>
<text x="191" y="910" font-size="12" fill="hsl(0, 0%, 74%)">hit</text>
<text x="736" y="148" font-size="12" transform="rotate(-90, 736, 148) translate(-48, 0)" fill="hsl(0, 0%, 65%)">light</text>
<text x="450" y="694" font-size="12" fill="hsl(0, 0%, 99%)">WING COCKPIT</text>
<text x="371" y="114" font-size="12" fill="hsl(0, 0%, 76%)">Imperial</text>
<text x="130" y="802" font-size="12" fill="hsl(0, 0%, 100%)">around</text>
<text x="822" y="229" font-size="12" fill="hsl(0, 0%, 69%)">Suddenly</text>
<text x="872" y="438" font-size="12" fill="hsl(0, 0%, 91%)">troops</text>
<text x="279" y="177" font-size="12" fill="hsl(0, 0%, 84%)">eye</text>
<text x="904" y="302" font-size="12" fill="hsl(0, 0%, 77%)">start</text>
<text x="243" y="252" font-size="12" fill="hsl(0, 0%, 61%)">TARKIN</text>
<text x="422" y="811" font-size="12" fill="hsl(0, 0%, 66%)">Luke look</text>
<text x="822" y="771" font-size="12" fill="hsl(0, 0%, 66%)">hand</text>
<text x="1008" y="688" font-size="12" fill="hsl(0, 0%, 66%)">another</text>
<text x="448" y="148" font-size="12" fill="hsl(0, 0%, 60%)">hallway</text>
<text x="371" y="482" font-size="12" fill="hsl(0, 0%, 66%)">little</text>
<text x="892" y="283" font-size="12" fill="hsl(0, 0%, 87%)">VOICE</text>
<text x="414" y="380" font-size="12" fill="hsl(0, 0%, 80%)">face</text>
<text x="728" y="723" font-size="12" fill="hsl(0, 0%, 97%)">blast</text>
<text x="492" y="821" font-size="12" transform="rotate(-90, 492, 821) translate(-56, 0)" fill="hsl(0, 0%, 86%)">large</text>
<text x="369" y="156" font-size="12" fill="hsl(0, 0%, 87%)">wall</text>
<text x="864" y="729" font-size="12" fill="hsl(0, 0%, 71%)">creature</text>
<text x="704" y="745" font-size="12" fill="hsl(0, 0%, 69%)">give</text>
<text x="679" y="487" font-size="12" transform="rotate(-90, 679, 487) translate(-37, 0)" fill="hsl(0, 0%, 88%)">run</text>
<text x="249" y="596" font-size="12" fill="hsl(0, 0%, 78%)">pilot</text>
<text x="725" y="426" font-size="12" fill="hsl(0, 0%, 94%)">race</text>
<text x="709" y="468" font-size="12" transform="rotate(-90, 709, 468) translate(-57, 0)" fill="hsl(0, 0%, 80%)">seem</text>
<text x="882" y="744" font-size="12" fill="hsl(0, 0%, 73%)">Force</text>
<text x="133" y="713" font-size="12" fill="hsl(0, 0%, 60%)">trench</text>
<text x="517" y="507" font-size="11" fill="hsl(0, 0%, 85%)">SPACE AROUND</text>
<text x="502" y="456" font-size="11" fill="hsl(0, 0%, 60%)">AROUND DEATH</text>
<text x="361" y="577" font-size="11" fill="hsl(0, 0%, 96%)">door</text>
<text x="815" y="208" font-size="11" fill="hsl(0, 0%, 76%)">system</text>
<text x="552" y="224" font-size="11" fill="hsl(0, 0%, 84%)">stop</text>
<text x="461" y="538" font-size="11" fill="hsl(0, 0%, 72%)">Well</text>
<text x="808" y="186" font-size="11" fill="hsl(0, 0%, 60%)">Jawa</text>
<text x="500" y="568" font-size="11" fill="hsl(0, 0%, 90%)">looking</text>
<text x="1013" y="723" font-size="11" fill="hsl(0, 0%, 95%)">Solo</text>
<text x="292" y="322" font-size="11" transform="rotate(-90, 292, 322) translate(-123, 0)" fill="hsl(0, 0%, 63%)">Star surface</text>
<text x="382" y="761" font-size="11" fill="hsl(0, 0%, 100%)">surface</text>
<text x="839" y="628" font-size="11" fill="hsl(0, 0%, 77%)">past</text>
<text x="655" y="279" font-size="11" fill="hsl(0, 0%, 73%)">laserfire</text>
<text x="465" y="550" font-size="11" fill="hsl(0, 0%, 60%)">Alderaan</text>
<text x="1052" y="702" font-size="11" fill="hsl(0, 0%, 73%)">pull</text>
<text x="220" y="418" font-size="11" transform="rotate(-90, 220, 418) translate(-127, 0)" fill="hsl(0, 0%, 69%)">COCKPIT Red</text>
<text x="1001" y="640" font-size="11" fill="hsl(0, 0%, 64%)">power</text>
<text x="538" y="586" font-size="11" fill="hsl(0, 0%, 69%)">old</text>
<text x="712" y="761" font-size="11" fill="hsl(0, 0%, 94%)">must</text>
<text x="858" y="243" font-size="11" fill="hsl(0, 0%, 70%)">WEDGE</text>
<text x="547" y="763" font-size="8" fill="hsl(0, 0%, 87%)">MASSASSI OUTPOST</text>
<text x="801" y="784" font-size="8" fill="hsl(0, 0%, 81%)">Princess</text>
<text x="450" y="130" font-size="8" fill="hsl(0, 0%, 92%)">sound</text>
<text x="582" y="609" font-size="8" fill="hsl(0, 0%, 87%)">hold</text>
<text x="121" y="893" font-size="8" fill="hsl(0, 0%, 77%)">say</text>
<text x="489" y="438" font-size="8" fill="hsl(0, 0%, 69%)">WAR ROOM</text>
<text x="886" y="259" font-size="8" fill="hsl(0, 0%, 69%)">RED TEN</text>
<text x="172" y="563" font-size="8" fill="hsl(0, 0%, 67%)">want</text>
<text x="979" y="374" font-size="8" transform="rotate(-90, 979, 374) translate(-36, 0)" fill="hsl(0, 0%, 60%)">good</text>
<text x="463" y="816" font-size="8" transform="rotate(-90, 463, 816) translate(-39, 0)" fill="hsl(0, 0%, 93%)">droid</text>
<text x="200" y="266" font-size="8" fill="hsl(0, 0%, 72%)">continue</text>
<text x="601" y="138" font-size="8" fill="hsl(0, 0%, 99%)">dive</text>
<text x="242" y="207" font-size="8" fill="hsl(0, 0%, 84%)">GOLD FIVE</text>
<text x="710" y="866" font-size="8" fill="hsl(0, 0%, 94%)">sure</text>
<text x="622" y="824" font-size="8" fill="hsl(0, 0%, 83%)">front</text>
<text x="720" y="877" font-size="8" fill="hsl(0, 0%, 95%)">friend</text>
<text x="414" y="591" font-size="8" fill="hsl(0, 0%, 91%)">wait</text>
<text x="254" y="189" font-size="8" fill="hsl(0, 0%, 95%)">find</text>
<text x="552" y="806" font-size="8" fill="hsl(0, 0%, 62%)">standing</text>
<text x="638" y="899" font-size="8" fill="hsl(0, 0%, 69%)">speeder</text>
<text x="429" y="247" font-size="8" fill="hsl(0, 0%, 78%)">gun</text>
<text x="336" y="254" font-size="8" fill="hsl(0, 0%, 75%)">comlink</text>
<text x="355" y="729" font-size="7" fill="hsl(0, 0%, 78%)">VADER COCKPIT</text>
<text x="605" y="867" font-size="7" fill="hsl(0, 0%, 86%)">COCKPIT Vader</text>
<text x="373" y="342" font-size="7" transform="rotate(-90, 373, 342) translate(-54, 0)" fill="hsl(0, 0%, 97%)">starship</text>
<text x="800" y="642" font-size="7" fill="hsl(0, 0%, 73%)">sit</text>
<text x="474" y="630" font-size="7" fill="hsl(0, 0%, 67%)">moment</text>
<text x="129" y="696" font-size="7" fill="hsl(0, 0%, 86%)">enter</text>
<text x="264" y="466" font-size="7" fill="hsl(0, 0%, 64%)">thing</text>
<text x="592" y="270" font-size="7" fill="hsl(0, 0%, 78%)">coming</text>
<text x="892" y="475" font-size="7" fill="hsl(0, 0%, 78%)">Obi Wan</text>
<text x="607" y="710" font-size="6" fill="hsl(0, 0%, 88%)">FALCON COCKPIT</text>
<text x="688" y="139" font-size="6" fill="hsl(0, 0%, 60%)">LEADER COCKPIT</text>
<text x="407" y="603" font-size="6" fill="hsl(0, 0%, 76%)">LEADER WING</text>
<text x="759" y="691" font-size="6" fill="hsl(0, 0%, 90%)">planet</text>
<text x="173" y="571" font-size="6" fill="hsl(0, 0%, 76%)">close</text>
<text x="590" y="148" font-size="6" fill="hsl(0, 0%, 64%)">group</text>
<text x="707" y="722" font-size="6" fill="hsl(0, 0%, 64%)">let</text>
<text x="786" y="806" font-size="6" fill="hsl(0, 0%, 67%)">attack</text>
<text x="969" y="429" font-size="6" fill="hsl(0, 0%, 84%)">Chewie</text>
<text x="434" y="486" font-size="6" fill="hsl(0, 0%, 70%)">Princess Leia</text>
<text x="889" y="687" font-size="6" fill="hsl(0, 0%, 78%)">MOS EISLEY</text>
<text x="139" y="811" font-size="6" fill="hsl(0, 0%, 98%)">targeting device</text>
<text x="730" y="497" font-size="6" transform="rotate(-90, 730, 497) translate(-30, 0)" fill="hsl(0, 0%, 83%)">short</text>
<text x="567" y="702" font-size="6" fill="hsl(0, 0%, 66%)">much</text>
<text x="418" y="362" font-size="6" fill="hsl(0, 0%, 81%)">watches</text>
<text x="342" y="134" font-size="6" fill="hsl(0, 0%, 89%)">work</text>
<text x="723" y="887" font-size="6" fill="hsl(0, 0%, 76%)">help</text>
<text x="627" y="587" font-size="6" transform="rotate(-90, 627, 587) translate(-19, 0)" fill="hsl(0, 0%, 85%)">put</text>
<text x="174" y="613" font-size="6" fill="hsl(0, 0%, 91%)">Oh</text>
<text x="884" y="504" font-size="6" fill="hsl(0, 0%, 73%)">father</text>
<text x="669" y="151" font-size="6" fill="hsl(0, 0%, 68%)">position</text>
<text x="1068" y="646" font-size="6" transform="rotate(-90, 1068, 646) translate(-28, 0)" fill="hsl(0, 0%, 91%)">point</text>
<text x="257" y="383" font-size="6" transform="rotate(-90, 257, 383) translate(-61, 0)" fill="hsl(0, 0%, 92%)">docking bay</text>
<text x="466" y="763" font-size="6" fill="hsl(0, 0%, 100%)">OUTPOST WAR</text>
<text x="479" y="891" font-size="6" fill="hsl(0, 0%, 68%)">weapon</text>
<text x="827" y="714" font-size="6" fill="hsl(0, 0%, 60%)">along</text>
<text x="293" y="541" font-size="6" fill="hsl(0, 0%, 62%)">hear</text>
<text x="968" y="685" font-size="6" fill="hsl(0, 0%, 65%)">shut</text>
<text x="539" y="263" font-size="6" fill="hsl(0, 0%, 72%)">heard</text>
<text x="304" y="193" font-size="6" fill="hsl(0, 0%, 71%)">last</text>
<text x="463" y="184" font-size="6" fill="hsl(0, 0%, 98%)">even</text>
<text x="94" y="816" font-size="6" transform="rotate(-90, 94, 816) translate(-31, 0)" fill="hsl(0, 0%, 62%)">guard</text>
<text x="255" y="578" font-size="6" fill="hsl(0, 0%, 62%)">laserbolt</text>
<text x="689" y="473" font-size="6" transform="rotate(-90, 689, 473) translate(-39, 0)" fill="hsl(0, 0%, 93%)">appear</text>
<text x="747" y="145" font-size="6" transform="rotate(-90, 747, 145) translate(-66, 0)" fill="hsl(0, 0%, 98%)">Artoo Detoo</text>
<text x="432" y="522" font-size="6" fill="hsl(0, 0%, 61%)">far</text>
<text x="821" y="640" font-size="6" fill="hsl(0, 0%, 85%)">Empire</text>
<text x="719" y="288" font-size="6" fill="hsl(0, 0%, 85%)">enough</text>
<text x="365" y="170" font-size="6" fill="hsl(0, 0%, 99%)">explosion</text>
<text x="751" y="701" font-size="6" fill="hsl(0, 0%, 72%)">floor</text>
<text x="806" y="166" font-size="6" fill="hsl(0, 0%, 69%)">follow</text>
<text x="668" y="103" font-size="6" fill="hsl(0, 0%, 98%)">four</text>
<text x="949" y="624" font-size="6" fill="hsl(0, 0%, 96%)">kid</text>
<text x="522" y="921" font-size="6" fill="hsl(0, 0%, 97%)">Sandpeople</text>
<text x="469" y="246" font-size="6" fill="hsl(0, 0%, 70%)">open</text>
<text x="538" y="86" font-size="6" fill="hsl(0, 0%, 66%)">Jabba</text>
<text x="147" y="786" font-size="6" fill="hsl(0, 0%, 62%)">screen</text>
<text x="883" y="758" font-size="6" fill="hsl(0, 0%, 98%)">plan</text>
<text x="750" y="365" font-size="6" fill="hsl(0, 0%, 84%)">explode</text>
<text x="1018" y="624" font-size="6" fill="hsl(0, 0%, 65%)">Dodonna</text>
<text x="721" y="463" font-size="6" fill="hsl(0, 0%, 93%)">zoom</text>
<text x="619" y="219" font-size="5" fill="hsl(0, 0%, 75%)">INTERCOM VOICE</text>
<text x="134" y="822" font-size="5" transform="rotate(-90, 134, 822) translate(-57, 0)" fill="hsl(0, 0%, 66%)">COCKPIT Gold</text>
<text x="470" y="614" font-size="5" fill="hsl(0, 0%, 81%)">firing</text>
<text x="1018" y="738" font-size="5" fill="hsl(0, 0%, 78%)">streak</text>
<text x="546" y="595" font-size="5" fill="hsl(0, 0%, 72%)">electronic</text>
<text x="254" y="888" font-size="5" fill="hsl(0, 0%, 60%)">boy</text>
<text x="1026" y="706" font-size="5" fill="hsl(0, 0%, 95%)">next</text>
<text x="639" y="97" font-size="5" transform="rotate(-90, 639, 97) translate(-30, 0)" fill="hsl(0, 0%, 89%)">minute</text>
<text x="254" y="897" font-size="5" fill="hsl(0, 0%, 91%)">goes</text>
<text x="997" y="650" font-size="5" fill="hsl(0, 0%, 76%)">Commander</text>
<text x="769" y="438" font-size="5" transform="rotate(-90, 769, 438) translate(-23, 0)" fill="hsl(0, 0%, 72%)">laser</text>
<text x="398" y="769" font-size="5" fill="hsl(0, 0%, 73%)">man</text>
<text x="221" y="223" font-size="5" fill="hsl(0, 0%, 83%)">almost</text>
<text x="321" y="472" font-size="5" fill="hsl(0, 0%, 74%)">tell</text>
<text x="214" y="230" font-size="5" fill="hsl(0, 0%, 93%)">area</text>
<text x="919" y="592" font-size="5" fill="hsl(0, 0%, 73%)">watch</text>
<text x="647" y="908" font-size="5" fill="hsl(0, 0%, 86%)">formation</text>
<text x="367" y="490" font-size="5" fill="hsl(0, 0%, 94%)">little Artoo</text>
<text x="954" y="505" font-size="5" fill="hsl(0, 0%, 68%)">slowly</text>
<text x="314" y="573" font-size="5" fill="hsl(0, 0%, 70%)">first</text>
<text x="263" y="549" font-size="5" fill="hsl(0, 0%, 69%)">station</text>
<text x="216" y="794" font-size="5" fill="hsl(0, 0%, 71%)">tiny</text>
<text x="131" y="717" font-size="5" transform="rotate(-90, 131, 717) translate(-22, 0)" fill="hsl(0, 0%, 86%)">giant</text>
<text x="811" y="792" font-size="5" fill="hsl(0, 0%, 80%)">better</text>
<text x="633" y="256" font-size="5" fill="hsl(0, 0%, 71%)">DAY</text>
<text x="273" y="261" font-size="5" fill="hsl(0, 0%, 88%)">speak</text>
<text x="387" y="500" font-size="5" fill="hsl(0, 0%, 74%)">dead</text>
<text x="805" y="650" font-size="5" fill="hsl(0, 0%, 77%)">thought</text>
<text x="198" y="275" font-size="5" fill="hsl(0, 0%, 70%)">big</text>
<text x="414" y="94" font-size="5" fill="hsl(0, 0%, 65%)">second</text>
<text x="331" y="453" font-size="5" fill="hsl(0, 0%, 91%)">really</text>
<text x="1062" y="720" font-size="5" fill="hsl(0, 0%, 74%)">three</text>
<text x="406" y="334" font-size="5" transform="rotate(-90, 406, 334) translate(-56, 0)" fill="hsl(0, 0%, 75%)">Sandcrawler</text>
<text x="785" y="839" font-size="5" fill="hsl(0, 0%, 97%)">beep</text>
<text x="549" y="420" font-size="5" fill="hsl(0, 0%, 68%)">Stay</text>
<text x="722" y="478" font-size="5" fill="hsl(0, 0%, 80%)">arm</text>
<text x="660" y="464" font-size="5" fill="hsl(0, 0%, 63%)">Wookiee</text>
<text x="970" y="335" font-size="5" transform="rotate(-90, 970, 335) translate(-22, 0)" fill="hsl(0, 0%, 64%)">moon</text>
<text x="890" y="267" font-size="5" fill="hsl(0, 0%, 83%)">battle station</text>
<text x="322" y="558" font-size="5" fill="hsl(0, 0%, 82%)">LUKE Well</text>
<text x="411" y="315" font-size="5" fill="hsl(0, 0%, 76%)">looks around</text>
<text x="473" y="816" font-size="5" transform="rotate(-90, 473, 816) translate(-62, 0)" fill="hsl(0, 0%, 94%)">beeping sound</text>
<text x="845" y="446" font-size="5" fill="hsl(0, 0%, 83%)">laser cannon</text>
<text x="152" y="908" font-size="5" fill="hsl(0, 0%, 82%)">outside</text>
<text x="726" y="731" font-size="5" fill="hsl(0, 0%, 91%)">corridor</text>
<text x="814" y="237" font-size="5" fill="hsl(0, 0%, 78%)">feet</text>
<text x="259" y="700" font-size="5" fill="hsl(0, 0%, 60%)">place</text>
<text x="555" y="464" font-size="5" fill="hsl(0, 0%, 70%)">subhallway</text>
<text x="825" y="724" font-size="5" fill="hsl(0, 0%, 91%)">rushes</text>
<text x="439" y="707" font-size="5" fill="hsl(0, 0%, 86%)">found</text>
<text x="449" y="738" font-size="5" fill="hsl(0, 0%, 61%)">great</text>
<text x="259" y="604" font-size="5" fill="hsl(0, 0%, 89%)">Rebellion</text>
<text x="181" y="580" font-size="5" fill="hsl(0, 0%, 84%)">cut</text>
<text x="825" y="802" font-size="5" fill="hsl(0, 0%, 77%)">spot</text>
<text x="283" y="159" font-size="5" fill="hsl(0, 0%, 76%)">jump</text>
<text x="603" y="230" font-size="5" fill="hsl(0, 0%, 69%)">Listen</text>
<text x="915" y="753" font-size="5" fill="hsl(0, 0%, 84%)">trying</text>
<text x="980" y="727" font-size="5" fill="hsl(0, 0%, 88%)">never</text>
<text x="300" y="327" font-size="5" transform="rotate(-90, 300, 327) translate(-22, 0)" fill="hsl(0, 0%, 81%)">need</text>
<text x="634" y="659" font-size="5" transform="rotate(-90, 634, 659) translate(-22, 0)" fill="hsl(0, 0%, 68%)">Okay</text>
<text x="666" y="822" font-size="5" fill="hsl(0, 0%, 90%)">reaches</text>
<text x="541" y="232" font-size="5" fill="hsl(0, 0%, 84%)">year</text>
<text x="928" y="456" font-size="5" fill="hsl(0, 0%, 73%)">still</text>
<text x="429" y="666" font-size="5" transform="rotate(-90, 429, 666) translate(-15, 0)" fill="hsl(0, 0%, 93%)">try</text>
<text x="446" y="818" font-size="5" transform="rotate(-90, 446, 818) translate(-38, 0)" fill="hsl(0, 0%, 75%)">speaker</text>
<text x="361" y="436" font-size="5" fill="hsl(0, 0%, 62%)">THREEPIO Artoo</text>
<text x="255" y="730" font-size="5" transform="rotate(-90, 255, 730) translate(-48, 0)" fill="hsl(0, 0%, 93%)">laser pistol</text>
<text x="755" y="204" font-size="5" transform="rotate(-90, 755, 204) translate(-54, 0)" fill="hsl(0, 0%, 94%)">Artoo beeps</text>
<text x="337" y="344" font-size="5" transform="rotate(-90, 337, 344) translate(-50, 0)" fill="hsl(0, 0%, 95%)">Wan Kenobi</text>
<text x="97" y="758" font-size="5" transform="rotate(-90, 97, 758) translate(-51, 0)" fill="hsl(0, 0%, 74%)">Imperial TIE</text>
</svg>
