<svg width="1190" height="1028" xmlns="http://www.w3.org/2000/svg">
    <defs><style type="text/css">
    @import url("https://fonts.googleapis.com/css?family=Zilla+Slab+Highlight:700");
    text {font-family: 'Zilla Slab Highlight', cursive;
    font-kerning:none;
    font-variant-ligatures:none}
    </style></defs>
<rect width="100%" height="100%" fill="black"/>
<text x="441" y="767" font-size="122" fill="hsl(0, 0%, 100%)">Luke</text>
<text x="525" y="564" font-size="87" fill="hsl(0, 0%, 74%)">Han</text>
<text x="287" y="233" font-size="84" fill="hsl(0, 0%, 62%)">DEATH STAR</text>
<text x="231" y="455" font-size="63" fill="hsl(0, 0%, 77%)">THREEPIO</text>
<text x="464" y="136" font-size="56" fill="hsl(0, 0%, 69%)">Ben</text>
<text x="296" y="636" font-size="49" fill="hsl(0, 0%, 76%)">ship</text>
<text x="758" y="627" font-size="47" fill="hsl(0, 0%, 77%)">Leia</text>
<text x="895" y="501" font-size="45" fill="hsl(0, 0%, 88%)">one</text>
<text x="1018" y="518" font-size="43" transform="rotate(-90, 1018, 518) translate(-83, 0)" fill="hsl(0, 0%, 88%)">look</text>
<text x="156" y="714" font-size="43" fill="hsl(0, 0%, 94%)">RED LEADER</text>
<text x="825" y="748" font-size="42" fill="hsl(0, 0%, 76%)">Artoo</text>
<text x="726" y="809" font-size="41" fill="hsl(0, 0%, 74%)">back</text>
<text x="137" y="776" font-size="40" fill="hsl(0, 0%, 76%)">move</text>
<text x="987" y="703" font-size="39" fill="hsl(0, 0%, 96%)">going</text>
<text x="270" y="589" font-size="38" transform="rotate(-90, 270, 589) translate(-67, 0)" fill="hsl(0, 0%, 95%)">two</text>
<text x="864" y="425" font-size="38" fill="hsl(0, 0%, 71%)">Biggs</text>
<text x="727" y="459" font-size="38" transform="rotate(-90, 727, 459) translate(-189, 0)" fill="hsl(0, 0%, 83%)">TIE fighter</text>
<text x="282" y="382" font-size="37" fill="hsl(0, 0%, 82%)">Vader</text>
<text x="698" y="808" font-size="36" transform="rotate(-90, 698, 808) translate(-53, 0)" fill="hsl(0, 0%, 71%)">see</text>
<text x="567" y="141" font-size="20" fill="hsl(0, 0%, 71%)">MILLENNIUM FALCON</text>
<text x="115" y="810" font-size="20" fill="hsl(0, 0%, 79%)">toward</text>
<text x="722" y="288" font-size="20" fill="hsl(0, 0%, 66%)">right</text>
<text x="613" y="893" font-size="20" fill="hsl(0, 0%, 80%)">Luke WING</text>
<text x="895" y="534" font-size="20" transform="rotate(-90, 895, 534) translate(-49, 0)" fill="hsl(0, 0%, 71%)">come</text>
<text x="956" y="544" font-size="20" transform="rotate(-90, 956, 544) translate(-69, 0)" fill="hsl(0, 0%, 94%)">trooper</text>
<text x="603" y="837" font-size="20" fill="hsl(0, 0%, 70%)">robot</text>
<text x="781" y="404" font-size="20" fill="hsl(0, 0%, 62%)">small</text>
<text x="718" y="722" font-size="20" fill="hsl(0, 0%, 93%)">SPACE</text>
<text x="890" y="698" font-size="20" fill="hsl(0, 0%, 99%)">now</text>
<text x="368" y="490" font-size="20" fill="hsl(0, 0%, 75%)">WING FIGHTER</text>
<text x="160" y="653" font-size="20" fill="hsl(0, 0%, 66%)">take</text>
<text x="657" y="275" font-size="20" fill="hsl(0, 0%, 77%)">begin</text>
<text x="759" y="843" font-size="20" fill="hsl(0, 0%, 95%)">make</text>
<text x="746" y="684" font-size="19" fill="hsl(0, 0%, 73%)">away</text>
<text x="402" y="619" font-size="19" fill="hsl(0, 0%, 92%)">fire</text>
<text x="867" y="233" font-size="19" fill="hsl(0, 0%, 84%)">will</text>
<text x="264" y="573" font-size="19" fill="hsl(0, 0%, 94%)">turn</text>
<text x="596" y="619" font-size="19" fill="hsl(0, 0%, 67%)">stand</text>
<text x="338" y="140" font-size="19" fill="hsl(0, 0%, 96%)">stormtrooper</text>
<text x="744" y="447" font-size="19" fill="hsl(0, 0%, 61%)">way</text>
<text x="745" y="751" font-size="19" fill="hsl(0, 0%, 74%)">side</text>
<text x="552" y="464" font-size="19" fill="hsl(0, 0%, 90%)">COCKPIT Luke</text>
<text x="397" y="346" font-size="19" fill="hsl(0, 0%, 77%)">sir</text>
<text x="599" y="108" font-size="19" fill="hsl(0, 0%, 90%)">think</text>
<text x="439" y="618" font-size="19" fill="hsl(0, 0%, 68%)">head</text>
<text x="201" y="454" font-size="19" transform="rotate(-90, 201, 454) translate(-129, 0)" fill="hsl(0, 0%, 78%)">DARTH VADER</text>
<text x="416" y="645" font-size="19" fill="hsl(0, 0%, 97%)">GOLD LEADER</text>
<text x="975" y="677" font-size="19" transform="rotate(-90, 975, 677) translate(-45, 0)" fill="hsl(0, 0%, 65%)">huge</text>
<text x="955" y="377" font-size="19" fill="hsl(0, 0%, 71%)">got</text>
<text x="808" y="167" font-size="19" fill="hsl(0, 0%, 87%)">us</text>
<text x="97" y="865" font-size="19" fill="hsl(0, 0%, 73%)">time</text>
<text x="301" y="336" font-size="19" fill="hsl(0, 0%, 73%)">computer</text>
<text x="1000" y="642" font-size="19" fill="hsl(0, 0%, 83%)">several</text>
<text x="803" y="231" font-size="19" fill="hsl(0, 0%, 92%)">Rebel</text>
<text x="426" y="519" font-size="19" fill="hsl(0, 0%, 63%)">know</text>
<text x="429" y="816" font-size="19" fill="hsl(0, 0%, 71%)">Chewbacca</text>
<text x="506" y="916" font-size="16" fill="hsl(0, 0%, 60%)">SURFACE DEATH</text>
<text x="410" y="374" font-size="16" fill="hsl(0, 0%, 79%)">long</text>
<text x="386" y="112" font-size="16" fill="hsl(0, 0%, 85%)">OFFICER</text>
<text x="832" y="778" font-size="16" fill="hsl(0, 0%, 78%)">across</text>
<text x="807" y="571" font-size="16" fill="hsl(0, 0%, 70%)">OWEN</text>
<text x="808" y="196" font-size="16" fill="hsl(0, 0%, 61%)">pirateship</text>
<text x="148" y="908" font-size="16" fill="hsl(0, 0%, 65%)">something</text>
<text x="809" y="665" font-size="16" fill="hsl(0, 0%, 73%)">go</text>
<text x="226" y="252" font-size="16" fill="hsl(0, 0%, 90%)">control</text>
<text x="287" y="664" font-size="14" fill="hsl(0, 0%, 77%)">FIGHTER COCKPIT</text>
<text x="923" y="450" font-size="14" fill="hsl(0, 0%, 63%)">behind</text>
<text x="96" y="766" font-size="14" fill="hsl(0, 0%, 70%)">hit</text>
<text x="237" y="891" font-size="14" fill="hsl(0, 0%, 75%)">light</text>
<text x="429" y="683" font-size="14" transform="rotate(-90, 429, 683) translate(-103, 0)" fill="hsl(0, 0%, 66%)">WING COCKPIT</text>
<text x="910" y="536" font-size="14" fill="hsl(0, 0%, 66%)">Imperial</text>
<text x="456" y="870" font-size="14" fill="hsl(0, 0%, 99%)">around</text>
<text x="325" y="572" font-size="14" fill="hsl(0, 0%, 90%)">Suddenly</text>
<text x="902" y="294" font-size="14" fill="hsl(0, 0%, 61%)">troops</text>
<text x="546" y="424" font-size="14" fill="hsl(0, 0%, 77%)">eye</text>
<text x="871" y="611" font-size="14" fill="hsl(0, 0%, 79%)">start</text>
<text x="634" y="640" font-size="14" fill="hsl(0, 0%, 73%)">TARKIN</text>
<text x="911" y="319" font-size="14" fill="hsl(0, 0%, 77%)">Luke look</text>
<text x="481" y="552" font-size="14" fill="hsl(0, 0%, 92%)">hand</text>
<text x="755" y="372" font-size="14" fill="hsl(0, 0%, 96%)">another</text>
<text x="1008" y="728" font-size="14" fill="hsl(0, 0%, 68%)">hallway</text>
<text x="460" y="840" font-size="14" fill="hsl(0, 0%, 99%)">little</text>
<text x="406" y="744" font-size="14" transform="rotate(-90, 406, 744) translate(-44, 0)" fill="hsl(0, 0%, 99%)">VOICE</text>
<text x="680" y="112" font-size="14" fill="hsl(0, 0%, 74%)">face</text>
<text x="198" y="808" font-size="14" fill="hsl(0, 0%, 82%)">blast</text>
<text x="714" y="838" font-size="14" fill="hsl(0, 0%, 100%)">large</text>
<text x="227" y="486" font-size="14" transform="rotate(-90, 227, 486) translate(-29, 0)" fill="hsl(0, 0%, 78%)">wall</text>
<text x="605" y="863" font-size="14" fill="hsl(0, 0%, 64%)">creature</text>
<text x="779" y="284" font-size="14" fill="hsl(0, 0%, 75%)">give</text>
<text x="735" y="867" font-size="14" transform="rotate(-90, 735, 867) translate(-25, 0)" fill="hsl(0, 0%, 75%)">run</text>
<text x="968" y="424" font-size="14" fill="hsl(0, 0%, 74%)">pilot</text>
<text x="657" y="617" font-size="14" fill="hsl(0, 0%, 88%)">race</text>
<text x="740" y="410" font-size="14" fill="hsl(0, 0%, 71%)">seem</text>
<text x="912" y="269" font-size="14" fill="hsl(0, 0%, 86%)">Force</text>
<text x="686" y="451" font-size="14" fill="hsl(0, 0%, 71%)">trench</text>
<text x="559" y="266" font-size="12" fill="hsl(0, 0%, 74%)">SPACE AROUND</text>
<text x="564" y="808" font-size="12" fill="hsl(0, 0%, 62%)">AROUND DEATH</text>
<text x="248" y="221" font-size="12" fill="hsl(0, 0%, 73%)">door</text>
<text x="480" y="517" font-size="12" fill="hsl(0, 0%, 68%)">system</text>
<text x="945" y="669" font-size="12" fill="hsl(0, 0%, 89%)">stop</text>
<text x="578" y="435" font-size="12" fill="hsl(0, 0%, 62%)">Well</text>
<text x="200" y="274" font-size="12" fill="hsl(0, 0%, 80%)">Jawa</text>
<text x="753" y="572" font-size="12" fill="hsl(0, 0%, 66%)">looking</text>
<text x="253" y="744" font-size="12" transform="rotate(-90, 253, 744) translate(-25, 0)" fill="hsl(0, 0%, 100%)">Solo</text>
<text x="86" y="832" font-size="12" fill="hsl(0, 0%, 78%)">Star surface</text>
<text x="454" y="386" font-size="12" fill="hsl(0, 0%, 95%)">surface</text>
<text x="200" y="446" font-size="12" fill="hsl(0, 0%, 62%)">past</text>
<text x="751" y="652" font-size="12" fill="hsl(0, 0%, 85%)">laserfire</text>
<text x="867" y="450" font-size="12" fill="hsl(0, 0%, 81%)">Alderaan</text>
<text x="713" y="754" font-size="12" fill="hsl(0, 0%, 85%)">pull</text>
<text x="249" y="787" font-size="12" transform="rotate(-90, 249, 787) translate(-77, 0)" fill="hsl(0, 0%, 81%)">COCKPIT Red</text>
<text x="747" y="862" font-size="12" fill="hsl(0, 0%, 97%)">power</text>
<text x="481" y="894" font-size="12" fill="hsl(0, 0%, 60%)">old</text>
<text x="949" y="340" font-size="12" fill="hsl(0, 0%, 72%)">must</text>
<text x="837" y="380" font-size="12" fill="hsl(0, 0%, 78%)">WEDGE</text>
<text x="989" y="659" font-size="9" fill="hsl(0, 0%, 96%)">MASSASSI OUTPOST</text>
<text x="399" y="591" font-size="9" fill="hsl(0, 0%, 70%)">Princess</text>
<text x="273" y="546" font-size="9" fill="hsl(0, 0%, 91%)">sound</text>
<text x="117" y="886" font-size="9" fill="hsl(0, 0%, 83%)">hold</text>
<text x="937" y="697" font-size="9" fill="hsl(0, 0%, 95%)">say</text>
<text x="353" y="738" font-size="9" fill="hsl(0, 0%, 91%)">WAR ROOM</text>
<text x="852" y="632" font-size="9" fill="hsl(0, 0%, 97%)">RED TEN</text>
<text x="249" y="193" font-size="9" fill="hsl(0, 0%, 65%)">want</text>
<text x="863" y="506" font-size="9" fill="hsl(0, 0%, 72%)">good</text>
<text x="714" y="673" font-size="9" fill="hsl(0, 0%, 92%)">droid</text>
<text x="988" y="615" font-size="9" fill="hsl(0, 0%, 66%)">continue</text>
<text x="975" y="512" font-size="9" fill="hsl(0, 0%, 81%)">dive</text>
<text x="893" y="382" font-size="9" fill="hsl(0, 0%, 80%)">GOLD FIVE</text>
<text x="399" y="507" font-size="9" fill="hsl(0, 0%, 70%)">sure</text>
<text x="603" y="642" font-size="9" fill="hsl(0, 0%, 83%)">front</text>
<text x="793" y="760" font-size="9" fill="hsl(0, 0%, 100%)">friend</text>
<text x="982" y="398" font-size="9" fill="hsl(0, 0%, 64%)">wait</text>
<text x="882" y="259" font-size="9" fill="hsl(0, 0%, 85%)">find</text>
<text x="865" y="527" font-size="9" fill="hsl(0, 0%, 98%)">standing</text>
<text x="443" y="536" font-size="9" fill="hsl(0, 0%, 86%)">speeder</text>
<text x="911" y="578" font-size="9" fill="hsl(0, 0%, 91%)">gun</text>
<text x="638" y="911" font-size="9" fill="hsl(0, 0%, 90%)">comlink</text>
<text x="143" y="661" font-size="9" transform="rotate(-90, 143, 661) translate(-71, 0)" fill="hsl(0, 0%, 91%)">VADER COCKPIT</text>
<text x="226" y="601" font-size="9" transform="rotate(-90, 226, 601) translate(-67, 0)" fill="hsl(0, 0%, 62%)">COCKPIT Vader</text>
<text x="234" y="269" font-size="9" fill="hsl(0, 0%, 69%)">starship</text>
<text x="183" y="603" font-size="9" transform="rotate(-90, 183, 603) translate(-13, 0)" fill="hsl(0, 0%, 63%)">sit</text>
<text x="553" y="596" font-size="9" fill="hsl(0, 0%, 94%)">moment</text>
<text x="860" y="470" font-size="9" fill="hsl(0, 0%, 78%)">enter</text>
<text x="567" y="109" font-size="9" fill="hsl(0, 0%, 79%)">thing</text>
<text x="904" y="247" font-size="9" fill="hsl(0, 0%, 82%)">coming</text>
<text x="849" y="392" font-size="9" transform="rotate(-90, 849, 392) translate(-38, 0)" fill="hsl(0, 0%, 85%)">Obi Wan</text>
<text x="714" y="262" font-size="7" fill="hsl(0, 0%, 62%)">FALCON COCKPIT</text>
<text x="387" y="389" font-size="7" fill="hsl(0, 0%, 100%)">LEADER COCKPIT</text>
<text x="944" y="705" font-size="7" transform="rotate(-90, 944, 705) translate(-48, 0)" fill="hsl(0, 0%, 82%)">LEADER WING</text>
<text x="718" y="695" font-size="7" fill="hsl(0, 0%, 67%)">planet</text>
<text x="748" y="551" font-size="7" fill="hsl(0, 0%, 99%)">close</text>
<text x="393" y="316" font-size="7" fill="hsl(0, 0%, 96%)">group</text>
<text x="168" y="596" font-size="7" fill="hsl(0, 0%, 67%)">let</text>
<text x="718" y="852" font-size="7" fill="hsl(0, 0%, 83%)">attack</text>
<text x="422" y="653" font-size="7" transform="rotate(-90, 422, 653) translate(-25, 0)" fill="hsl(0, 0%, 60%)">Chewie</text>
<text x="820" y="792" font-size="7" fill="hsl(0, 0%, 65%)">Princess Leia</text>
<text x="211" y="480" font-size="7" fill="hsl(0, 0%, 96%)">MOS EISLEY</text>
<text x="749" y="581" font-size="7" transform="rotate(-90, 749, 581) translate(-53, 0)" fill="hsl(0, 0%, 88%)">targeting device</text>
<text x="574" y="92" font-size="7" fill="hsl(0, 0%, 85%)">short</text>
<text x="914" y="561" font-size="7" fill="hsl(0, 0%, 67%)">much</text>
<text x="561" y="647" font-size="7" fill="hsl(0, 0%, 99%)">watches</text>
<text x="210" y="540" font-size="7" fill="hsl(0, 0%, 88%)">work</text>
<text x="224" y="223" font-size="7" fill="hsl(0, 0%, 82%)">help</text>
<text x="125" y="768" font-size="7" transform="rotate(-90, 125, 768) translate(-13, 0)" fill="hsl(0, 0%, 92%)">put</text>
<text x="788" y="290" font-size="7" transform="rotate(-90, 788, 290) translate(-12, 0)" fill="hsl(0, 0%, 87%)">Oh</text>
<text x="749" y="878" font-size="7" fill="hsl(0, 0%, 97%)">father</text>
<text x="487" y="566" font-size="7" fill="hsl(0, 0%, 74%)">position</text>
<text x="862" y="487" font-size="7" fill="hsl(0, 0%, 77%)">point</text>
<text x="239" y="734" font-size="7" fill="hsl(0, 0%, 100%)">docking bay</text>
<text x="868" y="534" font-size="7" transform="rotate(-90, 868, 534) translate(-53, 0)" fill="hsl(0, 0%, 96%)">OUTPOST WAR</text>
<text x="81" y="801" font-size="7" fill="hsl(0, 0%, 89%)">weapon</text>
<text x="1066" y="726" font-size="7" fill="hsl(0, 0%, 94%)">along</text>
<text x="1008" y="433" font-size="7" fill="hsl(0, 0%, 77%)">hear</text>
<text x="346" y="482" font-size="7" fill="hsl(0, 0%, 98%)">shut</text>
<text x="748" y="387" font-size="7" fill="hsl(0, 0%, 69%)">heard</text>
<text x="576" y="611" font-size="7" fill="hsl(0, 0%, 90%)">last</text>
<text x="840" y="173" font-size="7" fill="hsl(0, 0%, 90%)">even</text>
<text x="431" y="835" font-size="7" fill="hsl(0, 0%, 68%)">guard</text>
<text x="419" y="315" font-size="7" fill="hsl(0, 0%, 93%)">laserbolt</text>
<text x="308" y="144" font-size="7" fill="hsl(0, 0%, 86%)">appear</text>
<text x="230" y="905" font-size="7" fill="hsl(0, 0%, 99%)">Artoo Detoo</text>
<text x="89" y="780" font-size="7" fill="hsl(0, 0%, 69%)">far</text>
<text x="611" y="438" font-size="7" fill="hsl(0, 0%, 61%)">Empire</text>
<text x="713" y="115" font-size="7" fill="hsl(0, 0%, 78%)">enough</text>
<text x="654" y="595" font-size="7" fill="hsl(0, 0%, 66%)">explosion</text>
<text x="529" y="807" font-size="7" fill="hsl(0, 0%, 75%)">floor</text>
<text x="253" y="382" font-size="7" fill="hsl(0, 0%, 88%)">follow</text>
<text x="1036" y="613" font-size="7" fill="hsl(0, 0%, 83%)">four</text>
<text x="990" y="722" font-size="7" fill="hsl(0, 0%, 89%)">kid</text>
<text x="479" y="531" font-size="7" fill="hsl(0, 0%, 84%)">Sandpeople</text>
<text x="252" y="561" font-size="7" transform="rotate(-90, 252, 561) translate(-18, 0)" fill="hsl(0, 0%, 92%)">open</text>
<text x="886" y="768" font-size="7" fill="hsl(0, 0%, 88%)">Jabba</text>
<text x="819" y="808" font-size="7" fill="hsl(0, 0%, 92%)">screen</text>
<text x="554" y="438" font-size="7" fill="hsl(0, 0%, 98%)">plan</text>
<text x="741" y="462" font-size="7" fill="hsl(0, 0%, 92%)">explode</text>
<text x="1023" y="744" font-size="7" fill="hsl(0, 0%, 84%)">Dodonna</text>
<text x="960" y="626" font-size="7" transform="rotate(-90, 960, 626) translate(-20, 0)" fill="hsl(0, 0%, 97%)">zoom</text>
<text x="154" y="667" font-size="6" fill="hsl(0, 0%, 83%)">INTERCOM VOICE</text>
<text x="676" y="803" font-size="6" fill="hsl(0, 0%, 92%)">COCKPIT Gold</text>
<text x="393" y="355" font-size="6" transform="rotate(-90, 393, 355) translate(-19, 0)" fill="hsl(0, 0%, 90%)">firing</text>
<text x="912" y="604" font-size="6" fill="hsl(0, 0%, 80%)">streak</text>
<text x="508" y="261" font-size="6" fill="hsl(0, 0%, 79%)">electronic</text>
<text x="309" y="546" font-size="6" fill="hsl(0, 0%, 74%)">boy</text>
<text x="791" y="141" font-size="6" fill="hsl(0, 0%, 66%)">next</text>
<text x="486" y="620" font-size="6" fill="hsl(0, 0%, 66%)">minute</text>
<text x="114" y="737" font-size="6" fill="hsl(0, 0%, 66%)">goes</text>
<text x="607" y="593" font-size="6" fill="hsl(0, 0%, 71%)">Commander</text>
<text x="391" y="573" font-size="6" fill="hsl(0, 0%, 71%)">laser</text>
<text x="439" y="592" font-size="6" fill="hsl(0, 0%, 88%)">man</text>
<text x="859" y="698" font-size="6" fill="hsl(0, 0%, 76%)">almost</text>
<text x="959" y="741" font-size="6" fill="hsl(0, 0%, 67%)">tell</text>
<text x="672" y="94" font-size="6" transform="rotate(-90, 672, 94) translate(-15, 0)" fill="hsl(0, 0%, 92%)">area</text>
<text x="212" y="526" font-size="6" fill="hsl(0, 0%, 91%)">watch</text>
<text x="904" y="591" font-size="6" fill="hsl(0, 0%, 78%)">formation</text>
<text x="1006" y="512" font-size="6" fill="hsl(0, 0%, 92%)">little Artoo</text>
<text x="176" y="554" font-size="6" transform="rotate(-90, 176, 554) translate(-21, 0)" fill="hsl(0, 0%, 90%)">slowly</text>
<text x="330" y="552" font-size="6" fill="hsl(0, 0%, 98%)">first</text>
<text x="298" y="261" font-size="6" fill="hsl(0, 0%, 93%)">station</text>
<text x="364" y="113" font-size="6" fill="hsl(0, 0%, 89%)">tiny</text>
<text x="814" y="379" font-size="6" fill="hsl(0, 0%, 85%)">giant</text>
<text x="681" y="909" font-size="6" fill="hsl(0, 0%, 79%)">better</text>
<text x="503" y="825" font-size="6" transform="rotate(-90, 503, 825) translate(-14, 0)" fill="hsl(0, 0%, 95%)">DAY</text>
<text x="741" y="536" font-size="6" fill="hsl(0, 0%, 81%)">speak</text>
<text x="374" y="750" font-size="6" fill="hsl(0, 0%, 66%)">dead</text>
<text x="907" y="615" font-size="6" fill="hsl(0, 0%, 92%)">thought</text>
<text x="238" y="494" font-size="6" fill="hsl(0, 0%, 60%)">big</text>
<text x="503" y="893" font-size="6" fill="hsl(0, 0%, 60%)">second</text>
<text x="971" y="546" font-size="6" transform="rotate(-90, 971, 546) translate(-19, 0)" fill="hsl(0, 0%, 66%)">really</text>
<text x="854" y="434" font-size="6" transform="rotate(-90, 854, 434) translate(-16, 0)" fill="hsl(0, 0%, 93%)">three</text>
<text x="233" y="667" font-size="6" fill="hsl(0, 0%, 92%)">Sandcrawler</text>
<text x="798" y="684" font-size="6" fill="hsl(0, 0%, 88%)">beep</text>
<text x="930" y="333" font-size="6" fill="hsl(0, 0%, 94%)">Stay</text>
<text x="843" y="545" font-size="6" fill="hsl(0, 0%, 66%)">arm</text>
<text x="794" y="743" font-size="6" fill="hsl(0, 0%, 100%)">Wookiee</text>
<text x="922" y="667" font-size="6" fill="hsl(0, 0%, 64%)">moon</text>
<text x="859" y="211" font-size="6" transform="rotate(-90, 859, 211) translate(-37, 0)" fill="hsl(0, 0%, 63%)">battle station</text>
<text x="78" y="814" font-size="6" fill="hsl(0, 0%, 72%)">LUKE Well</text>
<text x="970" y="584" font-size="6" transform="rotate(-90, 970, 584) translate(-38, 0)" fill="hsl(0, 0%, 61%)">looks around</text>
<text x="288" y="583" font-size="6" transform="rotate(-90, 288, 583) translate(-42, 0)" fill="hsl(0, 0%, 75%)">beeping sound</text>
<text x="549" y="477" font-size="5" fill="hsl(0, 0%, 75%)">laser cannon</text>
<text x="279" y="165" font-size="5" transform="rotate(-90, 279, 165) translate(-20, 0)" fill="hsl(0, 0%, 78%)">outside</text>
<text x="372" y="584" font-size="5" fill="hsl(0, 0%, 96%)">corridor</text>
<text x="1008" y="419" font-size="5" fill="hsl(0, 0%, 67%)">feet</text>
<text x="119" y="898" font-size="5" fill="hsl(0, 0%, 88%)">place</text>
<text x="780" y="262" font-size="5" fill="hsl(0, 0%, 91%)">subhallway</text>
<text x="889" y="270" font-size="5" fill="hsl(0, 0%, 82%)">rushes</text>
<text x="364" y="311" font-size="5" fill="hsl(0, 0%, 67%)">found</text>
<text x="635" y="280" font-size="5" fill="hsl(0, 0%, 73%)">great</text>
<text x="955" y="277" font-size="5" transform="rotate(-90, 955, 277) translate(-23, 0)" fill="hsl(0, 0%, 85%)">Rebellion</text>
<text x="189" y="795" font-size="5" transform="rotate(-90, 189, 795) translate(-10, 0)" fill="hsl(0, 0%, 88%)">cut</text>
<text x="744" y="697" font-size="5" fill="hsl(0, 0%, 86%)">spot</text>
<text x="208" y="254" font-size="5" fill="hsl(0, 0%, 76%)">jump</text>
<text x="539" y="360" font-size="5" fill="hsl(0, 0%, 78%)">Listen</text>
<text x="317" y="564" font-size="5" transform="rotate(-90, 317, 564) translate(-17, 0)" fill="hsl(0, 0%, 92%)">trying</text>
<text x="718" y="767" font-size="5" transform="rotate(-90, 718, 767) translate(-15, 0)" fill="hsl(0, 0%, 84%)">never</text>
<text x="854" y="616" font-size="5" fill="hsl(0, 0%, 97%)">need</text>
<text x="769" y="764" font-size="5" fill="hsl(0, 0%, 63%)">Okay</text>
<text x="910" y="209" font-size="5" transform="rotate(-90, 910, 209) translate(-19, 0)" fill="hsl(0, 0%, 83%)">reaches</text>
<text x="841" y="649" font-size="5" fill="hsl(0, 0%, 76%)">year</text>
<text x="610" y="338" font-size="5" fill="hsl(0, 0%, 96%)">still</text>
<text x="778" y="418" font-size="5" fill="hsl(0, 0%, 97%)">try</text>
<text x="239" y="781" font-size="5" fill="hsl(0, 0%, 67%)">speaker</text>
<text x="619" y="477" font-size="5" fill="hsl(0, 0%, 85%)">THREEPIO Artoo</text>
<text x="205" y="732" font-size="5" fill="hsl(0, 0%, 69%)">laser pistol</text>
<text x="154" y="732" font-size="5" fill="hsl(0, 0%, 100%)">Artoo beeps</text>
<text x="210" y="619" font-size="5" transform="rotate(-90, 210, 619) translate(-30, 0)" fill="hsl(0, 0%, 85%)">Wan Kenobi</text>
<text x="731" y="422" font-size="5" fill="hsl(0, 0%, 62%)">Imperial TIE</text>
<text x="242" y="203" font-size="4" fill="hsl(0, 0%, 99%)">FALCON GUNPORT</text>
<text x="949" y="352" font-size="4" fill="hsl(0, 0%, 72%)">BIGGS' COCKPIT</text>
<text x="329" y="583" font-size="4" fill="hsl(0, 0%, 72%)">STAR Three</text>
<text x="584" y="819" font-size="4" fill="hsl(0, 0%, 99%)">main</text>
<text x="257" y="871" font-size="4" fill="hsl(0, 0%, 66%)">battle</text>
<text x="655" y="343" font-size="4" fill="hsl(0, 0%, 90%)">TATOOINE</text>
<text x="186" y="920" font-size="4" fill="hsl(0, 0%, 68%)">battered</text>
<text x="768" y="300" font-size="4" fill="hsl(0, 0%, 100%)">aim</text>
<text x="859" y="644" font-size="4" fill="hsl(0, 0%, 82%)">moving</text>
<text x="285" y="338" font-size="4" fill="hsl(0, 0%, 85%)">Hey</text>
<text x="516" y="324" font-size="4" fill="hsl(0, 0%, 64%)">ROOM</text>
<text x="891" y="191" font-size="4" transform="rotate(-90, 891, 191) translate(-7, 0)" fill="hsl(0, 0%, 83%)">lot</text>
<text x="883" y="207" font-size="4" fill="hsl(0, 0%, 82%)">keep</text>
<text x="451" y="365" font-size="4" fill="hsl(0, 0%, 92%)">anything</text>
<text x="785" y="700" font-size="4" fill="hsl(0, 0%, 97%)">leave</text>
<text x="523" y="476" font-size="4" fill="hsl(0, 0%, 60%)">canyon</text>
<text x="713" y="734" font-size="4" fill="hsl(0, 0%, 77%)">quite</text>
<text x="506" y="578" font-size="4" fill="hsl(0, 0%, 99%)">speed</text>
<text x="440" y="847" font-size="4" fill="hsl(0, 0%, 80%)">table</text>
<text x="717" y="657" font-size="4" fill="hsl(0, 0%, 61%)">disappear</text>
<text x="680" y="477" font-size="4" fill="hsl(0, 0%, 83%)">use</text>
<text x="276" y="890" font-size="4" fill="hsl(0, 0%, 99%)">Five</text>
<text x="822" y="821" font-size="4" fill="hsl(0, 0%, 73%)">board</text>
<text x="742" y="474" font-size="4" fill="hsl(0, 0%, 86%)">target</text>
<text x="513" y="619" font-size="4" fill="hsl(0, 0%, 81%)">grab</text>
<text x="211" y="464" font-size="4" fill="hsl(0, 0%, 85%)">R2 unit</text>
<text x="714" y="862" font-size="4" fill="hsl(0, 0%, 80%)">Aunt Beru</text>
<text x="546" y="927" font-size="4" fill="hsl(0, 0%, 93%)">Ben Kenobi</text>
<text x="586" y="477" font-size="4" fill="hsl(0, 0%, 71%)">toward Death</text>
<text x="499" y="389" font-size="4" fill="hsl(0, 0%, 92%)">TIE ship</text>
<text x="577" y="334" font-size="4" fill="hsl(0, 0%, 61%)">STAR MAIN</text>
<text x="325" y="311" font-size="4" fill="hsl(0, 0%, 97%)">FORWARD BAY</text>
</svg>
