<svg width="1190" height="1028" xmlns="http://www.w3.org/2000/svg">
    <defs><style type="text/css">
    @import url("https://fonts.googleapis.com/css?family=Zilla+Slab+Highlight:700");
    text {font-family: 'Zilla Slab Highlight', cursive;
    font-variant-ligatures:none}
    </style></defs>
<rect width="100%" height="100%" fill="black"/>
<text x="441" y="767" font-size="122" fill="rgb(218, 218, 218)">Luke</text>
<text x="525" y="564" font-size="87" fill="rgb(203, 203, 203)">Han</text>
<text x="287" y="233" font-size="84" fill="rgb(240, 240, 240)">DEATH STAR</text>
<text x="231" y="455" font-size="63" fill="rgb(210, 210, 210)">THREEPIO</text>
<text x="464" y="136" font-size="56" fill="rgb(206, 206, 206)">Ben</text>
<text x="296" y="636" font-size="49" fill="rgb(189, 189, 189)">ship</text>
<text x="758" y="627" font-size="47" fill="rgb(152, 152, 152)">Leia</text>
<text x="895" y="501" font-size="45" fill="rgb(162, 162, 162)">one</text>
<text x="1018" y="518" font-size="43" transform="rotate(-90, 1018, 518) translate(-82, 0)" fill="rgb(159, 159, 159)">look</text>
<text x="156" y="714" font-size="43" fill="rgb(226, 226, 226)">RED LEADER</text>
<text x="825" y="748" font-size="42" fill="rgb(128, 128, 128)">Artoo</text>
<text x="726" y="809" font-size="41" fill="rgb(198, 198, 198)">back</text>
<text x="137" y="776" font-size="40" fill="rgb(176, 176, 176)">move</text>
<text x="987" y="703" font-size="39" fill="rgb(195, 195, 195)">going</text>
<text x="270" y="589" font-size="38" transform="rotate(-90, 270, 589) translate(-66, 0)" fill="rgb(248, 248, 248)">two</text>
<text x="864" y="425" font-size="38" fill="rgb(197, 197, 197)">Biggs</text>
<text x="727" y="459" font-size="38" transform="rotate(-90, 727, 459) translate(-188, 0)" fill="rgb(173, 173, 173)">TIE fighter</text>
<text x="282" y="382" font-size="37" fill="rgb(216, 216, 216)">Vader</text>
<text x="698" y="808" font-size="36" transform="rotate(-90, 698, 808) translate(-52, 0)" fill="rgb(132, 132, 132)">see</text>
<text x="567" y="141" font-size="20" fill="rgb(252, 252, 252)">MILLENNIUM FALCON</text>
<text x="115" y="810" font-size="20" fill="rgb(193, 193, 193)">toward</text>
<text x="722" y="288" font-size="20" fill="rgb(130, 130, 130)">right</text>
<text x="613" y="893" font-size="20" fill="rgb(226, 226, 226)">Luke WING</text>
<text x="895" y="534" font-size="20" transform="rotate(-90, 895, 534) translate(-48, 0)" fill="rgb(255, 255, 255)">come</text>
<text x="956" y="544" font-size="20" transform="rotate(-90, 956, 544) translate(-68, 0)" fill="rgb(220, 220, 220)">trooper</text>
<text x="603" y="837" font-size="20" fill="rgb(195, 195, 195)">robot</text>
<text x="781" y="404" font-size="20" fill="rgb(184, 184, 184)">small</text>
<text x="718" y="722" font-size="20" fill="rgb(234, 234, 234)">SPACE</text>
<text x="890" y="698" font-size="20" fill="rgb(209, 209, 209)">now</text>
<text x="368" y="490" font-size="20" fill="rgb(195, 195, 195)">WING FIGHTER</text>
<text x="160" y="653" font-size="20" fill="rgb(165, 165, 165)">take</text>
<text x="657" y="275" font-size="20" fill="rgb(221, 221, 221)">begin</text>
<text x="759" y="843" font-size="20" fill="rgb(217, 217, 217)">make</text>
<text x="746" y="684" font-size="19" fill="rgb(192, 192, 192)">away</text>
<text x="402" y="619" font-size="19" fill="rgb(217, 217, 217)">fire</text>
<text x="867" y="233" font-size="19" fill="rgb(235, 235, 235)">will</text>
<text x="264" y="573" font-size="19" fill="rgb(185, 185, 185)">turn</text>
<text x="596" y="619" font-size="19" fill="rgb(177, 177, 177)">stand</text>
<text x="338" y="140" font-size="19" fill="rgb(233, 233, 233)">stormtrooper</text>
<text x="744" y="447" font-size="19" fill="rgb(156, 156, 156)">way</text>
<text x="745" y="751" font-size="19" fill="rgb(165, 165, 165)">side</text>
<text x="552" y="464" font-size="19" fill="rgb(132, 132, 132)">COCKPIT Luke</text>
<text x="397" y="346" font-size="19" fill="rgb(154, 154, 154)">sir</text>
<text x="599" y="108" font-size="19" fill="rgb(164, 164, 164)">think</text>
<text x="439" y="618" font-size="19" fill="rgb(224, 224, 224)">head</text>
<text x="201" y="454" font-size="19" transform="rotate(-90, 201, 454) translate(-128, 0)" fill="rgb(139, 139, 139)">DARTH VADER</text>
<text x="416" y="645" font-size="19" fill="rgb(232, 232, 232)">GOLD LEADER</text>
<text x="975" y="677" font-size="19" transform="rotate(-90, 975, 677) translate(-44, 0)" fill="rgb(140, 140, 140)">huge</text>
<text x="955" y="377" font-size="19" fill="rgb(137, 137, 137)">got</text>
<text x="808" y="167" font-size="19" fill="rgb(232, 232, 232)">us</text>
<text x="97" y="865" font-size="19" fill="rgb(184, 184, 184)">time</text>
<text x="301" y="336" font-size="19" fill="rgb(254, 254, 254)">computer</text>
<text x="1000" y="642" font-size="19" fill="rgb(203, 203, 203)">several</text>
<text x="803" y="231" font-size="19" fill="rgb(173, 173, 173)">Rebel</text>
<text x="426" y="519" font-size="19" fill="rgb(176, 176, 176)">know</text>
<text x="429" y="816" font-size="19" fill="rgb(223, 223, 223)">Chewbacca</text>
<text x="506" y="916" font-size="16" fill="rgb(239, 239, 239)">SURFACE DEATH</text>
<text x="410" y="374" font-size="16" fill="rgb(146, 146, 146)">long</text>
<text x="386" y="112" font-size="16" fill="rgb(229, 229, 229)">OFFICER</text>
<text x="832" y="778" font-size="16" fill="rgb(141, 141, 141)">across</text>
<text x="807" y="571" font-size="16" fill="rgb(222, 222, 222)">OWEN</text>
<text x="808" y="196" font-size="16" fill="rgb(190, 190, 190)">pirateship</text>
<text x="148" y="908" font-size="16" fill="rgb(192, 192, 192)">something</text>
<text x="809" y="665" font-size="16" fill="rgb(194, 194, 194)">go</text>
<text x="226" y="252" font-size="16" fill="rgb(250, 250, 250)">control</text>
<text x="287" y="664" font-size="14" fill="rgb(203, 203, 203)">FIGHTER COCKPIT</text>
<text x="923" y="450" font-size="14" fill="rgb(183, 183, 183)">behind</text>
<text x="96" y="766" font-size="14" fill="rgb(252, 252, 252)">hit</text>
<text x="237" y="891" font-size="14" fill="rgb(166, 166, 166)">light</text>
<text x="429" y="683" font-size="14" transform="rotate(-90, 429, 683) translate(-102, 0)" fill="rgb(211, 211, 211)">WING COCKPIT</text>
<text x="910" y="536" font-size="14" fill="rgb(153, 153, 153)">Imperial</text>
<text x="456" y="870" font-size="14" fill="rgb(133, 133, 133)">around</text>
<text x="325" y="572" font-size="14" fill="rgb(173, 173, 173)">Suddenly</text>
<text x="902" y="294" font-size="14" fill="rgb(229, 229, 229)">troops</text>
<text x="546" y="424" font-size="14" fill="rgb(186, 186, 186)">eye</text>
<text x="871" y="611" font-size="14" fill="rgb(164, 164, 164)">start</text>
<text x="634" y="640" font-size="14" fill="rgb(138, 138, 138)">TARKIN</text>
<text x="911" y="319" font-size="14" fill="rgb(227, 227, 227)">Luke look</text>
<text x="481" y="552" font-size="14" fill="rgb(230, 230, 230)">hand</text>
<text x="755" y="372" font-size="14" fill="rgb(215, 215, 215)">another</text>
<text x="1008" y="728" font-size="14" fill="rgb(234, 234, 234)">hallway</text>
<text x="460" y="840" font-size="14" fill="rgb(150, 150, 150)">little</text>
<text x="406" y="744" font-size="14" transform="rotate(-90, 406, 744) translate(-43, 0)" fill="rgb(226, 226, 226)">VOICE</text>
<text x="680" y="112" font-size="14" fill="rgb(170, 170, 170)">face</text>
<text x="198" y="808" font-size="14" fill="rgb(233, 233, 233)">blast</text>
<text x="714" y="838" font-size="14" fill="rgb(130, 130, 130)">large</text>
<text x="227" y="486" font-size="14" transform="rotate(-90, 227, 486) translate(-28, 0)" fill="rgb(137, 137, 137)">wall</text>
<text x="605" y="863" font-size="14" fill="rgb(163, 163, 163)">creature</text>
<text x="779" y="284" font-size="14" fill="rgb(168, 168, 168)">give</text>
<text x="735" y="867" font-size="14" transform="rotate(-90, 735, 867) translate(-24, 0)" fill="rgb(184, 184, 184)">run</text>
<text x="968" y="424" font-size="14" fill="rgb(160, 160, 160)">pilot</text>
<text x="657" y="617" font-size="14" fill="rgb(208, 208, 208)">race</text>
<text x="740" y="410" font-size="14" fill="rgb(140, 140, 140)">seem</text>
<text x="912" y="269" font-size="14" fill="rgb(214, 214, 214)">Force</text>
<text x="686" y="451" font-size="14" fill="rgb(231, 231, 231)">trench</text>
<text x="559" y="266" font-size="12" fill="rgb(169, 169, 169)">SPACE AROUND</text>
<text x="564" y="808" font-size="12" fill="rgb(222, 222, 222)">AROUND DEATH</text>
<text x="248" y="221" font-size="12" fill="rgb(192, 192, 192)">door</text>
<text x="480" y="517" font-size="12" fill="rgb(158, 158, 158)">system</text>
<text x="945" y="669" font-size="12" fill="rgb(145, 145, 145)">stop</text>
<text x="578" y="435" font-size="12" fill="rgb(253, 253, 253)">Well</text>
<text x="200" y="274" font-size="12" fill="rgb(230, 230, 230)">Jawa</text>
<text x="753" y="572" font-size="12" fill="rgb(178, 178, 178)">looking</text>
<text x="253" y="744" font-size="12" transform="rotate(-90, 253, 744) translate(-24, 0)" fill="rgb(210, 210, 210)">Solo</text>
<text x="86" y="832" font-size="12" fill="rgb(142, 142, 142)">Star surface</text>
<text x="454" y="386" font-size="12" fill="rgb(170, 170, 170)">surface</text>
<text x="200" y="446" font-size="12" fill="rgb(217, 217, 217)">past</text>
<text x="751" y="652" font-size="12" fill="rgb(151, 151, 151)">laserfire</text>
<text x="867" y="450" font-size="12" fill="rgb(143, 143, 143)">Alderaan</text>
<text x="713" y="754" font-size="12" fill="rgb(214, 214, 214)">pull</text>
<text x="249" y="787" font-size="12" transform="rotate(-90, 249, 787) translate(-76, 0)" fill="rgb(164, 164, 164)">COCKPIT Red</text>
<text x="747" y="862" font-size="12" fill="rgb(177, 177, 177)">power</text>
<text x="481" y="894" font-size="12" fill="rgb(203, 203, 203)">old</text>
<text x="949" y="340" font-size="12" fill="rgb(143, 143, 143)">must</text>
<text x="837" y="380" font-size="12" fill="rgb(149, 149, 149)">WEDGE</text>
<text x="989" y="659" font-size="9" fill="rgb(174, 174, 174)">MASSASSI OUTPOST</text>
<text x="399" y="591" font-size="9" fill="rgb(200, 200, 200)">Princess</text>
<text x="273" y="546" font-size="9" fill="rgb(233, 233, 233)">sound</text>
<text x="117" y="886" font-size="9" fill="rgb(185, 185, 185)">hold</text>
<text x="937" y="697" font-size="9" fill="rgb(143, 143, 143)">say</text>
<text x="353" y="738" font-size="9" fill="rgb(144, 144, 144)">WAR ROOM</text>
<text x="852" y="632" font-size="9" fill="rgb(172, 172, 172)">RED TEN</text>
<text x="249" y="193" font-size="9" fill="rgb(148, 148, 148)">want</text>
<text x="863" y="506" font-size="9" fill="rgb(134, 134, 134)">good</text>
<text x="714" y="673" font-size="9" fill="rgb(148, 148, 148)">droid</text>
<text x="988" y="615" font-size="9" fill="rgb(154, 154, 154)">continue</text>
<text x="975" y="512" font-size="9" fill="rgb(171, 171, 171)">dive</text>
<text x="893" y="382" font-size="9" fill="rgb(128, 128, 128)">GOLD FIVE</text>
<text x="399" y="507" font-size="9" fill="rgb(177, 177, 177)">sure</text>
<text x="603" y="642" font-size="9" fill="rgb(170, 170, 170)">front</text>
<text x="793" y="760" font-size="9" fill="rgb(170, 170, 170)">friend</text>
<text x="982" y="398" font-size="9" fill="rgb(165, 165, 165)">wait</text>
<text x="882" y="259" font-size="9" fill="rgb(246, 246, 246)">find</text>
<text x="865" y="527" font-size="9" fill="rgb(195, 195, 195)">standing</text>
<text x="443" y="536" font-size="9" fill="rgb(143, 143, 143)">speeder</text>
<text x="911" y="578" font-size="9" fill="rgb(227, 227, 227)">gun</text>
<text x="638" y="911" font-size="9" fill="rgb(219, 219, 219)">comlink</text>
<text x="143" y="661" font-size="9" transform="rotate(-90, 143, 661) translate(-70, 0)" fill="rgb(248, 248, 248)">VADER COCKPIT</text>
<text x="226" y="601" font-size="9" transform="rotate(-90, 226, 601) translate(-66, 0)" fill="rgb(205, 205, 205)">COCKPIT Vader</text>
<text x="234" y="269" font-size="9" fill="rgb(248, 248, 248)">starship</text>
<text x="183" y="603" font-size="9" transform="rotate(-90, 183, 603) translate(-12, 0)" fill="rgb(206, 206, 206)">sit</text>
<text x="553" y="596" font-size="9" fill="rgb(136, 136, 136)">moment</text>
<text x="860" y="470" font-size="9" fill="rgb(132, 132, 132)">enter</text>
<text x="567" y="109" font-size="9" fill="rgb(212, 212, 212)">thing</text>
<text x="904" y="247" font-size="9" fill="rgb(139, 139, 139)">coming</text>
<text x="849" y="392" font-size="9" transform="rotate(-90, 849, 392) translate(-37, 0)" fill="rgb(159, 159, 159)">Obi Wan</text>
<text x="714" y="262" font-size="7" fill="rgb(204, 204, 204)">FALCON COCKPIT</text>
<text x="387" y="389" font-size="7" fill="rgb(233, 233, 233)">LEADER COCKPIT</text>
<text x="944" y="705" font-size="7" transform="rotate(-90, 944, 705) translate(-47, 0)" fill="rgb(169, 169, 169)">LEADER WING</text>
<text x="718" y="695" font-size="7" fill="rgb(241, 241, 241)">planet</text>
<text x="748" y="551" font-size="7" fill="rgb(134, 134, 134)">close</text>
<text x="393" y="316" font-size="7" fill="rgb(176, 176, 176)">group</text>
<text x="168" y="596" font-size="7" fill="rgb(228, 228, 228)">let</text>
<text x="718" y="852" font-size="7" fill="rgb(146, 146, 146)">attack</text>
<text x="422" y="653" font-size="7" transform="rotate(-90, 422, 653) translate(-24, 0)" fill="rgb(212, 212, 212)">Chewie</text>
<text x="820" y="792" font-size="7" fill="rgb(171, 171, 171)">Princess Leia</text>
<text x="211" y="480" font-size="7" fill="rgb(166, 166, 166)">MOS EISLEY</text>
<text x="749" y="581" font-size="7" transform="rotate(-90, 749, 581) translate(-52, 0)" fill="rgb(173, 173, 173)">targeting device</text>
<text x="574" y="92" font-size="7" fill="rgb(149, 149, 149)">short</text>
<text x="914" y="561" font-size="7" fill="rgb(191, 191, 191)">much</text>
<text x="561" y="647" font-size="7" fill="rgb(226, 226, 226)">watches</text>
<text x="210" y="540" font-size="7" fill="rgb(217, 217, 217)">work</text>
<text x="224" y="223" font-size="7" fill="rgb(159, 159, 159)">help</text>
<text x="125" y="768" font-size="7" transform="rotate(-90, 125, 768) translate(-12, 0)" fill="rgb(176, 176, 176)">put</text>
<text x="788" y="290" font-size="7" transform="rotate(-90, 788, 290) translate(-11, 0)" fill="rgb(181, 181, 181)">Oh</text>
<text x="749" y="878" font-size="7" fill="rgb(192, 192, 192)">father</text>
<text x="487" y="566" font-size="7" fill="rgb(164, 164, 164)">position</text>
<text x="862" y="487" font-size="7" fill="rgb(175, 175, 175)">point</text>
<text x="239" y="734" font-size="7" fill="rgb(184, 184, 184)">docking bay</text>
<text x="868" y="534" font-size="7" transform="rotate(-90, 868, 534) translate(-52, 0)" fill="rgb(238, 238, 238)">OUTPOST WAR</text>
<text x="81" y="801" font-size="7" fill="rgb(172, 172, 172)">weapon</text>
<text x="1066" y="726" font-size="7" fill="rgb(172, 172, 172)">along</text>
<text x="1008" y="433" font-size="7" fill="rgb(234, 234, 234)">hear</text>
<text x="346" y="482" font-size="7" fill="rgb(173, 173, 173)">shut</text>
<text x="748" y="387" font-size="7" fill="rgb(200, 200, 200)">heard</text>
<text x="576" y="611" font-size="7" fill="rgb(226, 226, 226)">last</text>
<text x="840" y="173" font-size="7" fill="rgb(206, 206, 206)">even</text>
<text x="431" y="835" font-size="7" fill="rgb(144, 144, 144)">guard</text>
<text x="419" y="315" font-size="7" fill="rgb(189, 189, 189)">laserbolt</text>
<text x="308" y="144" font-size="7" fill="rgb(181, 181, 181)">appear</text>
<text x="230" y="905" font-size="7" fill="rgb(197, 197, 197)">Artoo Detoo</text>
<text x="89" y="780" font-size="7" fill="rgb(167, 167, 167)">far</text>
<text x="611" y="438" font-size="7" fill="rgb(233, 233, 233)">Empire</text>
<text x="713" y="115" font-size="7" fill="rgb(181, 181, 181)">enough</text>
<text x="654" y="595" font-size="7" fill="rgb(136, 136, 136)">explosion</text>
<text x="529" y="807" font-size="7" fill="rgb(223, 223, 223)">floor</text>
<text x="253" y="382" font-size="7" fill="rgb(176, 176, 176)">follow</text>
<text x="1036" y="613" font-size="7" fill="rgb(210, 210, 210)">four</text>
<text x="990" y="722" font-size="7" fill="rgb(197, 197, 197)">kid</text>
<text x="479" y="531" font-size="7" fill="rgb(241, 241, 241)">Sandpeople</text>
<text x="252" y="561" font-size="7" transform="rotate(-90, 252, 561) translate(-17, 0)" fill="rgb(132, 132, 132)">open</text>
<text x="886" y="768" font-size="7" fill="rgb(166, 166, 166)">Jabba</text>
<text x="819" y="808" font-size="7" fill="rgb(220, 220, 220)">screen</text>
<text x="554" y="438" font-size="7" fill="rgb(160, 160, 160)">plan</text>
<text x="741" y="462" font-size="7" fill="rgb(188, 188, 188)">explode</text>
<text x="1023" y="744" font-size="7" fill="rgb(132, 132, 132)">Dodonna</text>
<text x="960" y="626" font-size="7" transform="rotate(-90, 960, 626) translate(-19, 0)" fill="rgb(244, 244, 244)">zoom</text>
<text x="154" y="667" font-size="6" fill="rgb(227, 227, 227)">INTERCOM VOICE</text>
<text x="676" y="803" font-size="6" fill="rgb(249, 249, 249)">COCKPIT Gold</text>
<text x="393" y="355" font-size="6" transform="rotate(-90, 393, 355) translate(-18, 0)" fill="rgb(217, 217, 217)">firing</text>
<text x="912" y="604" font-size="6" fill="rgb(135, 135, 135)">streak</text>
<text x="508" y="261" font-size="6" fill="rgb(253, 253, 253)">electronic</text>
<text x="309" y="546" font-size="6" fill="rgb(253, 253, 253)">boy</text>
<text x="791" y="141" font-size="6" fill="rgb(157, 157, 157)">next</text>
<text x="486" y="620" font-size="6" fill="rgb(249, 249, 249)">minute</text>
<text x="114" y="737" font-size="6" fill="rgb(138, 138, 138)">goes</text>
<text x="607" y="593" font-size="6" fill="rgb(209, 209, 209)">Commander</text>
<text x="391" y="573" font-size="6" fill="rgb(245, 245, 245)">laser</text>
<text x="439" y="592" font-size="6" fill="rgb(202, 202, 202)">man</text>
<text x="859" y="698" font-size="6" fill="rgb(181, 181, 181)">almost</text>
<text x="959" y="741" font-size="6" fill="rgb(229, 229, 229)">tell</text>
<text x="672" y="94" font-size="6" transform="rotate(-90, 672, 94) translate(-14, 0)" fill="rgb(144, 144, 144)">area</text>
<text x="212" y="526" font-size="6" fill="rgb(219, 219, 219)">watch</text>
<text x="904" y="591" font-size="6" fill="rgb(139, 139, 139)">formation</text>
<text x="1006" y="512" font-size="6" fill="rgb(146, 146, 146)">little Artoo</text>
<text x="176" y="554" font-size="6" transform="rotate(-90, 176, 554) translate(-20, 0)" fill="rgb(145, 145, 145)">slowly</text>
<text x="330" y="552" font-size="6" fill="rgb(246, 246, 246)">first</text>
<text x="298" y="261" font-size="6" fill="rgb(236, 236, 236)">station</text>
<text x="364" y="113" font-size="6" fill="rgb(150, 150, 150)">tiny</text>
<text x="814" y="379" font-size="6" fill="rgb(247, 247, 247)">giant</text>
<text x="681" y="909" font-size="6" fill="rgb(252, 252, 252)">better</text>
<text x="503" y="825" font-size="6" transform="rotate(-90, 503, 825) translate(-13, 0)" fill="rgb(166, 166, 166)">DAY</text>
<text x="741" y="536" font-size="6" fill="rgb(208, 208, 208)">speak</text>
<text x="374" y="750" font-size="6" fill="rgb(231, 231, 231)">dead</text>
<text x="907" y="615" font-size="6" fill="rgb(193, 193, 193)">thought</text>
<text x="238" y="494" font-size="6" fill="rgb(193, 193, 193)">big</text>
<text x="503" y="893" font-size="6" fill="rgb(214, 214, 214)">second</text>
<text x="971" y="546" font-size="6" transform="rotate(-90, 971, 546) translate(-18, 0)" fill="rgb(189, 189, 189)">really</text>
<text x="854" y="434" font-size="6" transform="rotate(-90, 854, 434) translate(-15, 0)" fill="rgb(153, 153, 153)">three</text>
<text x="233" y="667" font-size="6" fill="rgb(203, 203, 203)">Sandcrawler</text>
<text x="798" y="684" font-size="6" fill="rgb(174, 174, 174)">beep</text>
<text x="930" y="333" font-size="6" fill="rgb(186, 186, 186)">Stay</text>
<text x="843" y="545" font-size="6" fill="rgb(210, 210, 210)">arm</text>
<text x="794" y="743" font-size="6" fill="rgb(142, 142, 142)">Wookiee</text>
<text x="922" y="667" font-size="6" fill="rgb(154, 154, 154)">moon</text>
<text x="859" y="211" font-size="6" transform="rotate(-90, 859, 211) translate(-36, 0)" fill="rgb(150, 150, 150)">battle station</text>
<text x="78" y="814" font-size="6" fill="rgb(195, 195, 195)">LUKE Well</text>
<text x="970" y="584" font-size="6" transform="rotate(-90, 970, 584) translate(-37, 0)" fill="rgb(218, 218, 218)">looks around</text>
<text x="288" y="583" font-size="6" transform="rotate(-90, 288, 583) translate(-41, 0)" fill="rgb(233, 233, 233)">beeping sound</text>
<text x="549" y="477" font-size="5" fill="rgb(169, 169, 169)">laser cannon</text>
<text x="279" y="165" font-size="5" transform="rotate(-90, 279, 165) translate(-19, 0)" fill="rgb(136, 136, 136)">outside</text>
<text x="372" y="584" font-size="5" fill="rgb(172, 172, 172)">corridor</text>
<text x="1008" y="419" font-size="5" fill="rgb(153, 153, 153)">feet</text>
<text x="119" y="898" font-size="5" fill="rgb(208, 208, 208)">place</text>
<text x="780" y="262" font-size="5" fill="rgb(224, 224, 224)">subhallway</text>
<text x="889" y="270" font-size="5" fill="rgb(167, 167, 167)">rushes</text>
<text x="364" y="311" font-size="5" fill="rgb(211, 211, 211)">found</text>
<text x="635" y="280" font-size="5" fill="rgb(252, 252, 252)">great</text>
<text x="955" y="277" font-size="5" transform="rotate(-90, 955, 277) translate(-22, 0)" fill="rgb(149, 149, 149)">Rebellion</text>
<text x="189" y="795" font-size="5" transform="rotate(-90, 189, 795) translate(-9, 0)" fill="rgb(140, 140, 140)">cut</text>
<text x="744" y="697" font-size="5" fill="rgb(233, 233, 233)">spot</text>
<text x="208" y="254" font-size="5" fill="rgb(134, 134, 134)">jump</text>
<text x="539" y="360" font-size="5" fill="rgb(183, 183, 183)">Listen</text>
<text x="317" y="564" font-size="5" transform="rotate(-90, 317, 564) translate(-16, 0)" fill="rgb(135, 135, 135)">trying</text>
<text x="718" y="767" font-size="5" transform="rotate(-90, 718, 767) translate(-14, 0)" fill="rgb(160, 160, 160)">never</text>
<text x="854" y="616" font-size="5" fill="rgb(212, 212, 212)">need</text>
<text x="769" y="764" font-size="5" fill="rgb(168, 168, 168)">Okay</text>
<text x="910" y="209" font-size="5" transform="rotate(-90, 910, 209) translate(-18, 0)" fill="rgb(212, 212, 212)">reaches</text>
<text x="841" y="649" font-size="5" fill="rgb(199, 199, 199)">year</text>
<text x="610" y="338" font-size="5" fill="rgb(144, 144, 144)">still</text>
<text x="778" y="418" font-size="5" fill="rgb(245, 245, 245)">try</text>
<text x="239" y="781" font-size="5" fill="rgb(188, 188, 188)">speaker</text>
<text x="619" y="477" font-size="5" fill="rgb(163, 163, 163)">THREEPIO Artoo</text>
<text x="205" y="732" font-size="5" fill="rgb(137, 137, 137)">laser pistol</text>
<text x="154" y="732" font-size="5" fill="rgb(200, 200, 200)">Artoo beeps</text>
<text x="210" y="619" font-size="5" transform="rotate(-90, 210, 619) translate(-29, 0)" fill="rgb(185, 185, 185)">Wan Kenobi</text>
<text x="731" y="422" font-size="5" fill="rgb(150, 150, 150)">Imperial TIE</text>
<text x="242" y="203" font-size="4" fill="rgb(138, 138, 138)">FALCON GUNPORT</text>
<text x="949" y="352" font-size="4" fill="rgb(235, 235, 235)">BIGGS' COCKPIT</text>
<text x="329" y="583" font-size="4" fill="rgb(204, 204, 204)">STAR Three</text>
<text x="584" y="819" font-size="4" fill="rgb(243, 243, 243)">main</text>
<text x="257" y="871" font-size="4" fill="rgb(136, 136, 136)">battle</text>
<text x="655" y="343" font-size="4" fill="rgb(226, 226, 226)">TATOOINE</text>
<text x="186" y="920" font-size="4" fill="rgb(191, 191, 191)">battered</text>
<text x="768" y="300" font-size="4" fill="rgb(214, 214, 214)">aim</text>
<text x="859" y="644" font-size="4" fill="rgb(255, 255, 255)">moving</text>
<text x="285" y="338" font-size="4" fill="rgb(132, 132, 132)">Hey</text>
<text x="516" y="324" font-size="4" fill="rgb(210, 210, 210)">ROOM</text>
<text x="891" y="191" font-size="4" transform="rotate(-90, 891, 191) translate(-6, 0)" fill="rgb(171, 171, 171)">lot</text>
<text x="883" y="207" font-size="4" fill="rgb(226, 226, 226)">keep</text>
<text x="451" y="365" font-size="4" fill="rgb(207, 207, 207)">anything</text>
<text x="785" y="700" font-size="4" fill="rgb(201, 201, 201)">leave</text>
<text x="523" y="476" font-size="4" fill="rgb(146, 146, 146)">canyon</text>
<text x="713" y="734" font-size="4" fill="rgb(131, 131, 131)">quite</text>
<text x="506" y="578" font-size="4" fill="rgb(170, 170, 170)">speed</text>
<text x="440" y="847" font-size="4" fill="rgb(134, 134, 134)">table</text>
<text x="717" y="657" font-size="4" fill="rgb(149, 149, 149)">disappear</text>
<text x="680" y="477" font-size="4" fill="rgb(241, 241, 241)">use</text>
<text x="276" y="890" font-size="4" fill="rgb(248, 248, 248)">Five</text>
<text x="822" y="821" font-size="4" fill="rgb(225, 225, 225)">board</text>
<text x="742" y="474" font-size="4" fill="rgb(187, 187, 187)">target</text>
<text x="513" y="619" font-size="4" fill="rgb(173, 173, 173)">grab</text>
<text x="211" y="464" font-size="4" fill="rgb(205, 205, 205)">R2 unit</text>
<text x="714" y="862" font-size="4" fill="rgb(200, 200, 200)">Aunt Beru</text>
<text x="546" y="927" font-size="4" fill="rgb(237, 237, 237)">Ben Kenobi</text>
<text x="586" y="477" font-size="4" fill="rgb(253, 253, 253)">toward Death</text>
<text x="499" y="389" font-size="4" fill="rgb(160, 160, 160)">TIE ship</text>
<text x="577" y="334" font-size="4" fill="rgb(215, 215, 215)">STAR MAIN</text>
<text x="325" y="311" font-size="4" fill="rgb(130, 130, 130)">FORWARD BAY</text>
</svg>
